<svg width="255" height="206" viewBox="0 0 255 206" fill="none" xmlns="http://www.w3.org/2000/svg">
<path d="M79.9585 175.56C80.0385 175.752 80.0785 175.912 80.0785 176.04C80.0785 176.344 79.9505 176.6 79.6945 176.808C79.4545 177.016 79.1825 177.12 78.8785 177.12C78.6705 177.12 78.4705 177.064 78.2785 176.952C78.1025 176.824 77.9665 176.648 77.8705 176.424L76.2865 172.824H67.5025L65.9185 176.424C65.8225 176.648 65.6785 176.824 65.4865 176.952C65.2945 177.064 65.0945 177.12 64.8865 177.12C64.5665 177.12 64.2785 177.016 64.0225 176.808C63.7825 176.6 63.6625 176.344 63.6625 176.04C63.6625 175.912 63.7025 175.752 63.7825 175.56L70.5505 160.752C70.6625 160.496 70.8385 160.296 71.0785 160.152C71.3345 160.008 71.5985 159.936 71.8705 159.936C72.1425 159.936 72.3985 160.008 72.6385 160.152C72.8945 160.296 73.0785 160.496 73.1905 160.752L79.9585 175.56ZM68.3905 170.856H75.4225L71.8945 162.912L68.3905 170.856ZM92.1935 159.96C92.5615 159.96 92.8575 160.064 93.0815 160.272C93.3055 160.48 93.4175 160.76 93.4175 161.112V175.944C93.4175 176.312 93.3055 176.6 93.0815 176.808C92.8735 177.016 92.5855 177.12 92.2175 177.12C91.8495 177.12 91.5535 177.016 91.3295 176.808C91.1215 176.6 91.0175 176.312 91.0175 175.944V174.984C90.6655 175.688 90.1535 176.232 89.4815 176.616C88.8095 176.984 88.0335 177.168 87.1535 177.168C86.1455 177.168 85.2415 176.912 84.4415 176.4C83.6575 175.888 83.0415 175.168 82.5935 174.24C82.1615 173.312 81.9455 172.248 81.9455 171.048C81.9455 169.832 82.1615 168.768 82.5935 167.856C83.0415 166.944 83.6575 166.24 84.4415 165.744C85.2255 165.248 86.1295 165 87.1535 165C88.0335 165 88.8015 165.192 89.4575 165.576C90.1295 165.944 90.6415 166.472 90.9935 167.16V161.064C90.9935 160.728 91.0975 160.464 91.3055 160.272C91.5295 160.064 91.8255 159.96 92.1935 159.96ZM87.7295 175.248C88.7695 175.248 89.5775 174.888 90.1535 174.168C90.7295 173.448 91.0175 172.424 91.0175 171.096C91.0175 169.768 90.7295 168.744 90.1535 168.024C89.5935 167.304 88.7855 166.944 87.7295 166.944C86.6735 166.944 85.8495 167.304 85.2575 168.024C84.6815 168.728 84.3935 169.736 84.3935 171.048C84.3935 172.36 84.6895 173.392 85.2815 174.144C85.8735 174.88 86.6895 175.248 87.7295 175.248ZM105.375 165.768C105.471 165.528 105.607 165.352 105.783 165.24C105.975 165.128 106.175 165.072 106.383 165.072C106.687 165.072 106.951 165.176 107.175 165.384C107.415 165.592 107.535 165.84 107.535 166.128C107.535 166.288 107.503 166.44 107.439 166.584L102.855 176.304C102.743 176.56 102.567 176.76 102.327 176.904C102.103 177.032 101.863 177.096 101.607 177.096C101.351 177.096 101.103 177.032 100.863 176.904C100.639 176.76 100.471 176.56 100.359 176.304L95.7752 166.584C95.7112 166.456 95.6792 166.304 95.6792 166.128C95.6792 165.84 95.8072 165.592 96.0632 165.384C96.3192 165.176 96.6072 165.072 96.9272 165.072C97.3912 165.072 97.7352 165.296 97.9592 165.744L101.679 174L105.375 165.768ZM118.77 174.048C118.994 174.048 119.178 174.136 119.322 174.312C119.466 174.488 119.538 174.712 119.538 174.984C119.538 175.448 119.25 175.84 118.674 176.16C118.114 176.48 117.498 176.728 116.826 176.904C116.17 177.08 115.538 177.168 114.93 177.168C113.074 177.168 111.61 176.632 110.538 175.56C109.466 174.472 108.93 172.992 108.93 171.12C108.93 169.92 109.162 168.856 109.626 167.928C110.106 167 110.77 166.28 111.618 165.768C112.482 165.256 113.458 165 114.546 165C116.114 165 117.354 165.504 118.266 166.512C119.178 167.52 119.634 168.88 119.634 170.592C119.634 171.232 119.346 171.552 118.77 171.552H111.354C111.514 174.032 112.706 175.272 114.93 175.272C115.522 175.272 116.034 175.192 116.466 175.032C116.898 174.872 117.354 174.664 117.834 174.408C117.882 174.376 118.01 174.312 118.218 174.216C118.442 174.104 118.626 174.048 118.77 174.048ZM114.594 166.776C113.666 166.776 112.922 167.072 112.362 167.664C111.802 168.256 111.466 169.088 111.354 170.16H117.546C117.498 169.072 117.218 168.24 116.706 167.664C116.21 167.072 115.506 166.776 114.594 166.776ZM128.699 165.048C129.467 165 129.851 165.328 129.851 166.032C129.851 166.384 129.763 166.648 129.587 166.824C129.411 167 129.107 167.104 128.675 167.136L127.955 167.208C126.947 167.304 126.195 167.656 125.699 168.264C125.219 168.872 124.979 169.608 124.979 170.472V175.968C124.979 176.352 124.867 176.64 124.643 176.832C124.419 177.024 124.131 177.12 123.779 177.12C123.427 177.12 123.131 177.024 122.891 176.832C122.667 176.64 122.555 176.352 122.555 175.968V166.2C122.555 165.832 122.667 165.552 122.891 165.36C123.131 165.152 123.427 165.048 123.779 165.048C124.099 165.048 124.363 165.152 124.571 165.36C124.795 165.552 124.907 165.824 124.907 166.176V167.328C125.227 166.624 125.691 166.088 126.299 165.72C126.907 165.352 127.595 165.136 128.363 165.072L128.699 165.048ZM138.338 175.272C138.69 175.304 138.938 175.4 139.082 175.56C139.242 175.704 139.322 175.912 139.322 176.184C139.322 176.504 139.194 176.752 138.938 176.928C138.698 177.088 138.338 177.152 137.858 177.12L137.21 177.072C135.914 176.976 134.946 176.584 134.306 175.896C133.666 175.192 133.346 174.16 133.346 172.8V167.16H131.906C131.202 167.16 130.85 166.848 130.85 166.224C130.85 165.936 130.938 165.712 131.114 165.552C131.306 165.376 131.57 165.288 131.906 165.288H133.346V162.816C133.346 162.448 133.45 162.16 133.658 161.952C133.882 161.744 134.178 161.64 134.546 161.64C134.914 161.64 135.21 161.744 135.434 161.952C135.658 162.16 135.77 162.448 135.77 162.816V165.288H138.146C138.482 165.288 138.738 165.376 138.914 165.552C139.106 165.712 139.202 165.936 139.202 166.224C139.202 166.528 139.106 166.76 138.914 166.92C138.738 167.08 138.482 167.16 138.146 167.16H135.77V172.968C135.77 173.72 135.922 174.272 136.226 174.624C136.546 174.976 137.026 175.176 137.666 175.224L138.338 175.272ZM142.537 177.12C142.185 177.12 141.889 177.024 141.649 176.832C141.425 176.64 141.313 176.352 141.313 175.968V166.224C141.313 165.84 141.425 165.552 141.649 165.36C141.889 165.152 142.185 165.048 142.537 165.048C142.889 165.048 143.177 165.152 143.401 165.36C143.625 165.552 143.737 165.84 143.737 166.224V175.968C143.737 176.352 143.625 176.64 143.401 176.832C143.177 177.024 142.889 177.12 142.537 177.12ZM142.537 162.696C142.073 162.696 141.705 162.568 141.433 162.312C141.161 162.056 141.025 161.72 141.025 161.304C141.025 160.888 141.161 160.56 141.433 160.32C141.705 160.064 142.073 159.936 142.537 159.936C142.985 159.936 143.345 160.064 143.617 160.32C143.905 160.56 144.049 160.888 144.049 161.304C144.049 161.72 143.913 162.056 143.641 162.312C143.369 162.568 143.001 162.696 142.537 162.696ZM151.455 177.168C149.823 177.168 148.487 176.832 147.447 176.16C147.159 175.984 146.951 175.8 146.823 175.608C146.711 175.416 146.655 175.2 146.655 174.96C146.655 174.704 146.727 174.488 146.871 174.312C147.015 174.136 147.199 174.048 147.423 174.048C147.631 174.048 147.959 174.176 148.407 174.432C148.887 174.688 149.351 174.896 149.799 175.056C150.263 175.216 150.839 175.296 151.527 175.296C152.295 175.296 152.895 175.16 153.327 174.888C153.759 174.616 153.975 174.232 153.975 173.736C153.975 173.416 153.887 173.16 153.711 172.968C153.551 172.776 153.263 172.608 152.847 172.464C152.431 172.304 151.815 172.136 150.999 171.96C149.591 171.656 148.575 171.248 147.951 170.736C147.343 170.208 147.039 169.496 147.039 168.6C147.039 167.912 147.239 167.296 147.639 166.752C148.039 166.192 148.591 165.76 149.295 165.456C149.999 165.152 150.799 165 151.695 165C152.335 165 152.959 165.088 153.567 165.264C154.175 165.424 154.711 165.664 155.175 165.984C155.703 166.336 155.967 166.744 155.967 167.208C155.967 167.464 155.887 167.68 155.727 167.856C155.583 168.032 155.407 168.12 155.199 168.12C155.055 168.12 154.911 168.088 154.767 168.024C154.623 167.96 154.431 167.856 154.191 167.712C153.759 167.456 153.351 167.256 152.967 167.112C152.599 166.968 152.135 166.896 151.575 166.896C150.903 166.896 150.359 167.04 149.943 167.328C149.543 167.616 149.343 168.008 149.343 168.504C149.343 168.952 149.527 169.304 149.895 169.56C150.279 169.8 150.991 170.032 152.031 170.256C153.103 170.48 153.943 170.736 154.551 171.024C155.159 171.312 155.591 171.672 155.847 172.104C156.119 172.52 156.255 173.056 156.255 173.712C156.255 174.752 155.815 175.592 154.935 176.232C154.071 176.856 152.911 177.168 151.455 177.168ZM160.427 177.12C160.075 177.12 159.779 177.024 159.539 176.832C159.315 176.64 159.203 176.352 159.203 175.968V166.224C159.203 165.84 159.315 165.552 159.539 165.36C159.779 165.152 160.075 165.048 160.427 165.048C160.779 165.048 161.067 165.152 161.291 165.36C161.515 165.552 161.627 165.84 161.627 166.224V175.968C161.627 176.352 161.515 176.64 161.291 176.832C161.067 177.024 160.779 177.12 160.427 177.12ZM160.427 162.696C159.963 162.696 159.595 162.568 159.323 162.312C159.051 162.056 158.915 161.72 158.915 161.304C158.915 160.888 159.051 160.56 159.323 160.32C159.595 160.064 159.963 159.936 160.427 159.936C160.875 159.936 161.235 160.064 161.507 160.32C161.795 160.56 161.939 160.888 161.939 161.304C161.939 161.72 161.803 162.056 161.531 162.312C161.259 162.568 160.891 162.696 160.427 162.696ZM171.578 165C174.378 165 175.778 166.576 175.778 169.728V175.968C175.778 176.336 175.666 176.624 175.442 176.832C175.234 177.024 174.938 177.12 174.554 177.12C174.186 177.12 173.89 177.016 173.666 176.808C173.458 176.6 173.354 176.32 173.354 175.968V169.848C173.354 168.856 173.154 168.128 172.754 167.664C172.37 167.2 171.762 166.968 170.93 166.968C169.954 166.968 169.17 167.272 168.578 167.88C167.986 168.488 167.69 169.304 167.69 170.328V175.968C167.69 176.32 167.578 176.6 167.354 176.808C167.146 177.016 166.858 177.12 166.49 177.12C166.122 177.12 165.826 177.016 165.602 176.808C165.378 176.6 165.266 176.32 165.266 175.968V166.2C165.266 165.864 165.378 165.592 165.602 165.384C165.842 165.16 166.138 165.048 166.49 165.048C166.842 165.048 167.122 165.152 167.33 165.36C167.538 165.568 167.642 165.84 167.642 166.176V167.16C168.026 166.456 168.562 165.92 169.25 165.552C169.938 165.184 170.714 165 171.578 165ZM189.04 165.048C189.408 165.048 189.696 165.16 189.904 165.384C190.128 165.592 190.24 165.872 190.24 166.224V176.064C190.24 177.856 189.76 179.208 188.8 180.12C187.856 181.032 186.456 181.488 184.6 181.488C182.872 181.488 181.432 181.16 180.28 180.504C179.688 180.168 179.392 179.768 179.392 179.304C179.392 179.032 179.464 178.808 179.608 178.632C179.768 178.456 179.96 178.368 180.184 178.368C180.392 178.368 180.72 178.488 181.168 178.728C181.744 179 182.28 179.208 182.776 179.352C183.272 179.512 183.864 179.592 184.552 179.592C186.76 179.592 187.864 178.48 187.864 176.256V174.408C187.528 175.112 187.016 175.664 186.328 176.064C185.64 176.448 184.84 176.64 183.928 176.64C182.904 176.64 181.992 176.4 181.192 175.92C180.392 175.44 179.768 174.76 179.32 173.88C178.888 173 178.672 171.984 178.672 170.832C178.672 169.68 178.896 168.664 179.344 167.784C179.792 166.904 180.408 166.224 181.192 165.744C181.992 165.248 182.904 165 183.928 165C184.824 165 185.608 165.192 186.28 165.576C186.968 165.96 187.488 166.504 187.84 167.208V166.2C187.84 165.848 187.944 165.568 188.152 165.36C188.376 165.152 188.672 165.048 189.04 165.048ZM184.504 174.72C185.544 174.72 186.36 174.376 186.952 173.688C187.544 173 187.84 172.048 187.84 170.832C187.84 169.632 187.544 168.688 186.952 168C186.376 167.296 185.56 166.944 184.504 166.944C183.448 166.944 182.616 167.288 182.008 167.976C181.416 168.664 181.12 169.616 181.12 170.832C181.12 172.048 181.424 173 182.032 173.688C182.64 174.376 183.464 174.72 184.504 174.72Z" fill="#384248"/>
<rect x="77" y="32" width="100" height="100" rx="4" fill="#F5F6F8"/>
<path d="M153.905 66.9958H133.905C133.284 66.9958 132.974 66.2501 133.419 65.8144L140.842 58.3906C141.169 58.0638 141.169 57.5443 140.842 57.2176L137.75 54.1257C137.424 53.7989 136.904 53.7989 136.577 54.1257L127.712 62.9823C127.386 63.3091 126.866 63.3091 126.539 62.9823L117.674 54.1257C117.348 53.7989 116.828 53.7989 116.501 54.1257L113.409 57.2176C113.083 57.5443 113.083 58.0638 113.409 58.3906L121.21 66.1915C121.512 66.4931 121.294 67.0042 120.875 67.0042H99.6009C97.9335 67.0042 96.5845 68.3532 96.5845 70.0207V107.19C96.5845 108.857 97.9335 110.206 99.6009 110.206H153.897C155.564 110.206 156.913 108.857 156.913 107.19V70.0123C156.913 68.3449 155.564 66.9958 153.905 66.9958ZM149.154 103.218H104.352C103.916 103.218 103.556 102.866 103.556 102.422V74.7715C103.556 74.3358 103.908 73.9755 104.352 73.9755H149.146C149.582 73.9755 149.942 74.3275 149.942 74.7715V102.422C149.942 102.858 149.59 103.218 149.154 103.218Z" fill="white"/>
<path fill-rule="evenodd" clip-rule="evenodd" d="M141.085 73.498C132.455 73.7326 123.808 73.1545 115.429 73.1377C112.027 73.1377 108.65 73.1377 105.282 73.1377H104.653H104.31C104.1 73.1461 103.883 73.1963 103.682 73.2801C103.288 73.4561 102.978 73.7996 102.827 74.2018C102.751 74.3862 102.726 74.6627 102.726 74.7967V75.1151L102.735 77.6288C102.743 79.3046 102.743 80.9721 102.751 82.6311C102.777 89.284 102.802 95.8699 102.818 102.372C102.802 102.682 102.936 103.143 103.196 103.419C103.447 103.713 103.824 103.905 104.218 103.939L104.36 103.947H104.436H104.586H104.888H105.491L107.921 103.939C109.538 103.939 111.147 103.931 112.748 103.931C115.957 103.931 119.149 103.931 122.316 103.931C128.651 103.939 134.893 103.964 141.052 104.031C142.82 104.048 145.727 104.09 147.546 104.065C151.316 104.014 147.504 103.084 145.702 102.95C134.382 102.121 122.015 102.271 112.01 102.548C109.714 102.598 107.41 102.649 105.123 102.699L104.327 102.707C104.226 102.699 104.126 102.623 104.084 102.523C104.042 102.498 104.059 102.104 104.05 101.844L104.042 100.981L104.008 97.5373C103.95 92.9624 103.95 88.3875 103.966 83.8125C103.975 81.5251 103.992 79.246 104 76.9669L104.017 75.2576V74.8303C104.017 74.7046 104.025 74.6878 104.059 74.6208C104.117 74.5118 104.226 74.4448 104.352 74.4448L107.754 74.4783C112.304 74.5286 116.845 74.5705 121.378 74.6208C130.436 74.7129 139.451 74.7716 148.409 74.6878L149.171 74.6794L149.255 74.7381L149.263 74.7632V74.78V74.8805L149.272 75.2995L149.28 76.1374L149.33 79.489C149.381 81.7178 149.431 83.9466 149.481 86.1754C149.607 90.6247 149.774 95.0572 150.017 99.4645C150.034 99.7745 150.068 100.328 150.101 100.939C150.126 101.241 150.143 101.568 150.168 101.869C150.185 102.02 150.193 102.171 150.21 102.322C150.227 102.447 150.227 102.682 150.168 102.841C150.059 103.185 149.791 103.419 149.573 103.528C149.355 103.646 149.188 103.671 149.154 103.704C149.121 103.729 149.23 103.796 149.548 103.755C149.833 103.713 150.436 103.478 150.637 102.674C150.663 102.581 150.671 102.447 150.671 102.389L150.688 102.221C150.696 102.104 150.704 101.987 150.713 101.869C150.73 101.626 150.738 101.383 150.755 101.124C150.771 100.604 150.788 100.051 150.805 99.4813C150.83 98.3333 150.83 97.11 150.822 95.9537C150.805 93.6327 150.738 91.5547 150.721 90.809C150.637 86.7368 150.621 82.5641 150.596 78.3243C150.587 77.2685 150.579 76.2044 150.57 75.1319L150.562 74.7046C150.554 74.47 150.478 74.227 150.353 74.0259C150.11 73.6153 149.64 73.3555 149.163 73.3555L147.546 73.3723C145.409 73.4058 143.247 73.4393 141.085 73.498ZM144.169 73.741C144.01 73.6237 145.208 73.3807 145.409 73.5231C145.568 73.6404 144.37 73.8834 144.169 73.741Z" fill="black"/>
<path fill-rule="evenodd" clip-rule="evenodd" d="M135.924 109.72C128.626 109.838 121.328 109.754 114.071 109.637C110.443 109.578 106.832 109.519 103.237 109.461C102.341 109.452 101.444 109.436 100.548 109.427C100.129 109.419 99.5841 109.427 99.3076 109.394C98.9808 109.343 98.6708 109.226 98.3943 109.042C97.8413 108.681 97.481 108.07 97.414 107.433L97.4056 107.19V106.855V106.193V104.861C97.414 93.3562 97.4056 81.9776 97.3972 70.7162C97.3888 69.9369 97.3721 69.5012 97.6318 69.0236C97.858 68.5628 98.2519 68.1857 98.7295 67.9846C98.9641 67.8841 99.2154 67.8254 99.4752 67.8087C99.7349 67.7919 100.154 67.8003 100.481 67.8003H102.584C105.382 67.7919 108.173 67.7919 110.954 67.7835C113.736 67.7752 116.51 67.7752 119.275 67.7668H120.314H120.833C120.85 67.7668 120.967 67.7668 121.076 67.75C121.185 67.7333 121.294 67.6997 121.403 67.6495C121.612 67.5573 121.788 67.3981 121.906 67.2138C122.149 66.8535 122.182 66.3423 121.956 65.9402C121.897 65.8396 121.83 65.7558 121.755 65.6804L121.654 65.5631L121.47 65.3788L120.741 64.6498C119.761 63.6778 118.789 62.7059 117.817 61.7339C116.845 60.7619 115.873 59.7983 114.901 58.8264C114.474 58.3823 113.719 57.6868 113.904 57.7874L113.921 57.7287L114.222 57.4271L114.943 56.6981L116.384 55.2486L117.029 54.6034H117.146C118.077 55.5334 119.015 56.4635 119.945 57.3852C121.864 59.304 123.783 61.2144 125.685 63.1164L126.045 63.4767C126.271 63.6946 126.564 63.8454 126.875 63.8957C127.185 63.946 127.503 63.9041 127.788 63.7616C127.93 63.6946 128.064 63.6024 128.173 63.5019L128.366 63.3091L129.79 61.8847C130.737 60.9379 131.692 59.9911 132.639 59.0442C133.586 58.0974 134.533 57.159 135.48 56.2121L136.896 54.8045L137.072 54.6285L137.105 54.6034L137.164 54.595L137.223 54.6201L137.533 54.9302C138.463 55.8686 139.393 56.7987 140.314 57.7287L140.331 57.8377L140.323 57.8628L140.155 58.0304L139.803 58.3823L138.396 59.7816C136.502 61.6669 134.608 63.5521 132.731 65.429C132.287 65.9904 132.363 66.8451 132.849 67.3311C133.083 67.5824 133.444 67.75 133.779 67.7752L133.904 67.7835H133.963H134.089H134.332L136.293 67.7919C137.6 67.8003 138.898 67.8087 140.205 67.817C143.197 67.8338 148.115 67.8757 151.182 67.8506C157.55 67.8003 151.115 66.8702 148.065 66.7362C145.669 66.6524 143.247 66.5602 140.817 66.468C138.53 66.4094 136.225 66.3507 133.921 66.2921L133.946 66.3256V66.3423L134.08 66.2167L134.416 65.8983L135.739 64.6163L138.379 62.0439C139.259 61.1809 140.13 60.3262 141.001 59.4632L141.328 59.1448L141.412 59.061L141.529 58.9353C141.63 58.818 141.722 58.6839 141.789 58.5415C142.066 57.9717 141.99 57.2595 141.596 56.7652L141.454 56.5976L141.37 56.5138L141.203 56.3462L140.884 56.0194L140.239 55.3742L138.957 54.0839L138.639 53.7655L138.479 53.6063C138.421 53.5476 138.396 53.5141 138.253 53.3884C137.767 52.9862 137.063 52.8857 136.485 53.137C136.209 53.2376 135.899 53.5392 135.857 53.5979L135.53 53.9163L134.893 54.5531L133.628 55.8267C131.952 57.5276 130.293 59.2034 128.659 60.8541C128.257 61.2647 127.846 61.6836 127.444 62.0942L127.143 62.4042L127.134 62.421H127.118C126.313 61.6333 125.509 60.8541 124.721 60.0749C123.121 58.5247 121.562 57.0081 120.046 55.5334L118.998 54.5196L118.479 54.0085L118.219 53.7571C118.169 53.6984 117.959 53.5057 117.775 53.4219C117.389 53.2292 116.929 53.2125 116.543 53.3884C116.359 53.4638 116.149 53.6314 116.057 53.732L115.806 53.9917L114.792 55.0391L113.778 56.0865L113.267 56.6059L112.999 56.8825C112.865 57.0333 112.764 57.2176 112.706 57.4103C112.588 57.7958 112.655 58.2315 112.882 58.5666C112.94 58.6504 113.007 58.7342 113.066 58.7929L113.2 58.9186L113.46 59.1699L114.499 60.1922L118.621 64.256L120.691 66.3004L120.9 66.5015L120.909 66.5183L120.9 66.5434C120.875 66.5518 120.942 66.5434 120.825 66.5518L119.367 66.5602C115.487 66.5686 111.616 66.5853 107.745 66.5937H101.939H100.489C100.011 66.6021 99.5338 66.5602 98.9724 66.6524C97.8916 66.8451 96.9364 67.5992 96.4923 68.6047C96.2577 69.0907 96.1739 69.6856 96.1822 70.1799V71.6295L96.1739 74.5286L96.1487 80.3185C96.132 84.1728 96.1068 88.0272 96.0901 91.8731C96.0649 95.7191 96.0482 99.5651 96.023 103.403L96.0063 106.285C96.0147 106.763 95.9644 107.223 96.0566 107.827C96.1487 108.397 96.4001 108.933 96.7436 109.394C97.4223 110.315 98.6205 110.868 99.7266 110.826L102.601 110.843C117.926 110.935 133.167 110.994 148.308 110.91C150.21 110.893 152.104 110.885 153.997 110.868C155.154 110.843 156.268 110.215 156.913 109.268C157.24 108.799 157.441 108.246 157.508 107.676C157.567 107.064 157.525 106.67 157.533 106.176C157.483 102.406 157.433 98.635 157.382 94.8728C157.257 87.3485 157.081 79.8577 156.846 72.392C156.829 71.8725 156.796 70.9257 156.754 69.895C156.712 68.8896 155.983 67.9762 155.254 67.6578C154.525 67.3059 153.939 67.4316 153.897 67.4819C153.872 67.5154 153.964 67.5489 154.198 67.616C154.425 67.683 154.81 67.8003 155.229 68.1438C155.656 68.4957 156 69.0488 156.067 69.6939C156.1 69.9621 156.067 70.4816 156.059 70.934C156.05 71.3949 156.042 71.8725 156.033 72.3585C156.008 74.294 156.008 76.3636 156.017 78.3243C156.059 82.2457 156.1 85.7565 156.117 87.0217C156.142 90.4655 156.176 93.9511 156.201 97.4703C156.209 99.2299 156.218 100.998 156.226 102.774C156.226 103.662 156.235 104.551 156.235 105.447L156.243 106.788C156.251 107.274 156.251 107.559 156.134 107.911C155.916 108.572 155.397 109.151 154.735 109.402C154.567 109.469 154.4 109.511 154.224 109.536C154.048 109.561 153.88 109.561 153.637 109.57L152.288 109.578C150.487 109.586 148.677 109.603 146.858 109.611C143.239 109.645 139.594 109.687 135.924 109.72ZM141.152 109.963C140.884 109.846 142.904 109.603 143.247 109.746C143.515 109.863 141.496 110.106 141.152 109.963Z" fill="black"/>
</svg>
