<svg width="255" height="206" viewBox="0 0 255 206" fill="none" xmlns="http://www.w3.org/2000/svg">
<path d="M79.8843 175.56C79.9643 175.752 80.0043 175.912 80.0043 176.04C80.0043 176.344 79.8763 176.6 79.6203 176.808C79.3803 177.016 79.1083 177.12 78.8043 177.12C78.5963 177.12 78.3963 177.064 78.2043 176.952C78.0283 176.824 77.8923 176.648 77.7963 176.424L76.2123 172.824H67.4283L65.8443 176.424C65.7483 176.648 65.6043 176.824 65.4123 176.952C65.2203 177.064 65.0203 177.12 64.8123 177.12C64.4923 177.12 64.2043 177.016 63.9483 176.808C63.7083 176.6 63.5883 176.344 63.5883 176.04C63.5883 175.912 63.6283 175.752 63.7083 175.56L70.4763 160.752C70.5883 160.496 70.7643 160.296 71.0043 160.152C71.2603 160.008 71.5243 159.936 71.7963 159.936C72.0683 159.936 72.3243 160.008 72.5643 160.152C72.8203 160.296 73.0043 160.496 73.1163 160.752L79.8843 175.56ZM68.3163 170.856H75.3483L71.8203 162.912L68.3163 170.856ZM91.6153 165.048C91.9833 165.048 92.2713 165.152 92.4793 165.36C92.7033 165.568 92.8153 165.856 92.8153 166.224V175.992C92.8153 176.328 92.7033 176.6 92.4793 176.808C92.2553 177.016 91.9593 177.12 91.5913 177.12C91.2553 177.12 90.9833 177.024 90.7753 176.832C90.5673 176.624 90.4633 176.352 90.4633 176.016V175.104C90.0953 175.776 89.5833 176.288 88.9273 176.64C88.2873 176.992 87.5673 177.168 86.7673 177.168C83.9193 177.168 82.4953 175.6 82.4953 172.464V166.224C82.4953 165.856 82.5993 165.568 82.8073 165.36C83.0313 165.152 83.3353 165.048 83.7193 165.048C84.0873 165.048 84.3753 165.152 84.5833 165.36C84.8073 165.568 84.9193 165.856 84.9193 166.224V172.44C84.9193 173.384 85.1113 174.08 85.4953 174.528C85.8793 174.976 86.4713 175.2 87.2713 175.2C88.2153 175.2 88.9673 174.896 89.5273 174.288C90.1033 173.68 90.3913 172.872 90.3913 171.864V166.224C90.3913 165.872 90.5033 165.592 90.7273 165.384C90.9513 165.16 91.2473 165.048 91.6153 165.048ZM102.193 175.272C102.545 175.304 102.793 175.4 102.937 175.56C103.097 175.704 103.177 175.912 103.177 176.184C103.177 176.504 103.049 176.752 102.793 176.928C102.553 177.088 102.193 177.152 101.713 177.12L101.065 177.072C99.7693 176.976 98.8013 176.584 98.1613 175.896C97.5213 175.192 97.2013 174.16 97.2013 172.8V167.16H95.7613C95.0573 167.16 94.7053 166.848 94.7053 166.224C94.7053 165.936 94.7933 165.712 94.9693 165.552C95.1613 165.376 95.4253 165.288 95.7613 165.288H97.2013V162.816C97.2013 162.448 97.3053 162.16 97.5133 161.952C97.7373 161.744 98.0333 161.64 98.4013 161.64C98.7693 161.64 99.0653 161.744 99.2893 161.952C99.5133 162.16 99.6253 162.448 99.6253 162.816V165.288H102.001C102.337 165.288 102.593 165.376 102.769 165.552C102.961 165.712 103.057 165.936 103.057 166.224C103.057 166.528 102.961 166.76 102.769 166.92C102.593 167.08 102.337 167.16 102.001 167.16H99.6253V172.968C99.6253 173.72 99.7773 174.272 100.081 174.624C100.401 174.976 100.881 175.176 101.521 175.224L102.193 175.272ZM110.256 177.168C109.104 177.168 108.088 176.92 107.208 176.424C106.344 175.928 105.672 175.224 105.192 174.312C104.728 173.384 104.496 172.312 104.496 171.096C104.496 169.864 104.728 168.792 105.192 167.88C105.672 166.952 106.344 166.24 107.208 165.744C108.088 165.248 109.104 165 110.256 165C111.408 165 112.416 165.248 113.28 165.744C114.16 166.24 114.832 166.952 115.296 167.88C115.776 168.792 116.016 169.864 116.016 171.096C116.016 172.312 115.776 173.384 115.296 174.312C114.832 175.224 114.16 175.928 113.28 176.424C112.416 176.92 111.408 177.168 110.256 177.168ZM110.256 175.248C111.328 175.248 112.144 174.896 112.704 174.192C113.28 173.488 113.568 172.456 113.568 171.096C113.568 169.752 113.28 168.728 112.704 168.024C112.128 167.304 111.312 166.944 110.256 166.944C109.2 166.944 108.384 167.304 107.808 168.024C107.232 168.728 106.944 169.752 106.944 171.096C106.944 172.456 107.224 173.488 107.784 174.192C108.36 174.896 109.184 175.248 110.256 175.248ZM132.405 165C135.029 165 136.341 166.576 136.341 169.728V175.968C136.341 176.336 136.229 176.624 136.005 176.832C135.781 177.024 135.485 177.12 135.117 177.12C134.765 177.12 134.477 177.024 134.253 176.832C134.029 176.624 133.917 176.336 133.917 175.968V169.752C133.917 168.776 133.741 168.072 133.389 167.64C133.037 167.192 132.485 166.968 131.733 166.968C130.853 166.968 130.157 167.272 129.645 167.88C129.133 168.472 128.877 169.288 128.877 170.328V175.968C128.877 176.336 128.765 176.624 128.541 176.832C128.317 177.024 128.021 177.12 127.653 177.12C127.301 177.12 127.013 177.024 126.789 176.832C126.565 176.624 126.453 176.336 126.453 175.968V169.752C126.453 168.776 126.277 168.072 125.925 167.64C125.573 167.192 125.021 166.968 124.269 166.968C123.389 166.968 122.685 167.272 122.157 167.88C121.645 168.472 121.389 169.288 121.389 170.328V175.968C121.389 176.336 121.277 176.624 121.053 176.832C120.829 177.024 120.541 177.12 120.189 177.12C119.837 177.12 119.541 177.024 119.301 176.832C119.077 176.624 118.965 176.336 118.965 175.968V166.2C118.965 165.848 119.085 165.568 119.325 165.36C119.565 165.152 119.853 165.048 120.189 165.048C120.525 165.048 120.797 165.152 121.005 165.36C121.229 165.552 121.341 165.824 121.341 166.176V167.064C121.693 166.392 122.181 165.88 122.805 165.528C123.429 165.176 124.149 165 124.965 165C125.861 165 126.597 165.184 127.173 165.552C127.765 165.92 128.205 166.488 128.493 167.256C128.845 166.568 129.365 166.024 130.053 165.624C130.741 165.208 131.525 165 132.405 165ZM144.998 177.168C143.846 177.168 142.83 176.92 141.95 176.424C141.086 175.928 140.414 175.224 139.934 174.312C139.47 173.384 139.238 172.312 139.238 171.096C139.238 169.864 139.47 168.792 139.934 167.88C140.414 166.952 141.086 166.24 141.95 165.744C142.83 165.248 143.846 165 144.998 165C146.15 165 147.158 165.248 148.022 165.744C148.902 166.24 149.574 166.952 150.038 167.88C150.518 168.792 150.758 169.864 150.758 171.096C150.758 172.312 150.518 173.384 150.038 174.312C149.574 175.224 148.902 175.928 148.022 176.424C147.158 176.92 146.15 177.168 144.998 177.168ZM144.998 175.248C146.07 175.248 146.886 174.896 147.446 174.192C148.022 173.488 148.31 172.456 148.31 171.096C148.31 169.752 148.022 168.728 147.446 168.024C146.87 167.304 146.054 166.944 144.998 166.944C143.942 166.944 143.126 167.304 142.55 168.024C141.974 168.728 141.686 169.752 141.686 171.096C141.686 172.456 141.966 173.488 142.526 174.192C143.102 174.896 143.926 175.248 144.998 175.248ZM159.396 175.272C159.748 175.304 159.996 175.4 160.14 175.56C160.3 175.704 160.38 175.912 160.38 176.184C160.38 176.504 160.252 176.752 159.996 176.928C159.756 177.088 159.396 177.152 158.916 177.12L158.268 177.072C156.972 176.976 156.004 176.584 155.364 175.896C154.724 175.192 154.404 174.16 154.404 172.8V167.16H152.964C152.26 167.16 151.908 166.848 151.908 166.224C151.908 165.936 151.996 165.712 152.172 165.552C152.364 165.376 152.628 165.288 152.964 165.288H154.404V162.816C154.404 162.448 154.508 162.16 154.716 161.952C154.94 161.744 155.236 161.64 155.604 161.64C155.972 161.64 156.268 161.744 156.492 161.952C156.716 162.16 156.828 162.448 156.828 162.816V165.288H159.204C159.54 165.288 159.796 165.376 159.972 165.552C160.164 165.712 160.26 165.936 160.26 166.224C160.26 166.528 160.164 166.76 159.972 166.92C159.796 167.08 159.54 167.16 159.204 167.16H156.828V172.968C156.828 173.72 156.98 174.272 157.284 174.624C157.604 174.976 158.084 175.176 158.724 175.224L159.396 175.272ZM163.595 177.12C163.243 177.12 162.947 177.024 162.707 176.832C162.483 176.64 162.371 176.352 162.371 175.968V166.224C162.371 165.84 162.483 165.552 162.707 165.36C162.947 165.152 163.243 165.048 163.595 165.048C163.947 165.048 164.235 165.152 164.459 165.36C164.683 165.552 164.795 165.84 164.795 166.224V175.968C164.795 176.352 164.683 176.64 164.459 176.832C164.235 177.024 163.947 177.12 163.595 177.12ZM163.595 162.696C163.131 162.696 162.763 162.568 162.491 162.312C162.219 162.056 162.083 161.72 162.083 161.304C162.083 160.888 162.219 160.56 162.491 160.32C162.763 160.064 163.131 159.936 163.595 159.936C164.043 159.936 164.403 160.064 164.675 160.32C164.963 160.56 165.107 160.888 165.107 161.304C165.107 161.72 164.971 162.056 164.699 162.312C164.427 162.568 164.059 162.696 163.595 162.696ZM176.762 165.768C176.858 165.528 176.994 165.352 177.17 165.24C177.362 165.128 177.562 165.072 177.77 165.072C178.074 165.072 178.338 165.176 178.562 165.384C178.802 165.592 178.922 165.84 178.922 166.128C178.922 166.288 178.89 166.44 178.826 166.584L174.242 176.304C174.13 176.56 173.954 176.76 173.714 176.904C173.49 177.032 173.25 177.096 172.994 177.096C172.738 177.096 172.49 177.032 172.25 176.904C172.026 176.76 171.858 176.56 171.746 176.304L167.162 166.584C167.098 166.456 167.066 166.304 167.066 166.128C167.066 165.84 167.194 165.592 167.45 165.384C167.706 165.176 167.994 165.072 168.314 165.072C168.778 165.072 169.122 165.296 169.346 165.744L173.066 174L176.762 165.768ZM190.157 174.048C190.381 174.048 190.565 174.136 190.709 174.312C190.853 174.488 190.925 174.712 190.925 174.984C190.925 175.448 190.637 175.84 190.061 176.16C189.501 176.48 188.885 176.728 188.213 176.904C187.557 177.08 186.925 177.168 186.317 177.168C184.461 177.168 182.997 176.632 181.925 175.56C180.853 174.472 180.317 172.992 180.317 171.12C180.317 169.92 180.549 168.856 181.013 167.928C181.493 167 182.157 166.28 183.005 165.768C183.869 165.256 184.845 165 185.933 165C187.501 165 188.741 165.504 189.653 166.512C190.565 167.52 191.021 168.88 191.021 170.592C191.021 171.232 190.733 171.552 190.157 171.552H182.741C182.901 174.032 184.093 175.272 186.317 175.272C186.909 175.272 187.421 175.192 187.853 175.032C188.285 174.872 188.741 174.664 189.221 174.408C189.269 174.376 189.397 174.312 189.605 174.216C189.829 174.104 190.013 174.048 190.157 174.048ZM185.981 166.776C185.053 166.776 184.309 167.072 183.749 167.664C183.189 168.256 182.853 169.088 182.741 170.16H188.933C188.885 169.072 188.605 168.24 188.093 167.664C187.597 167.072 186.893 166.776 185.981 166.776Z" fill="#384248"/>
<rect x="77" y="32" width="100" height="100" rx="4" fill="#F5F6F8"/>
<path d="M157.682 82.7345C156.893 82.9365 156.336 83.6481 156.336 84.4655V104.709C156.336 105.468 156.028 106.209 155.489 106.747C154.951 107.286 154.21 107.594 153.451 107.594H150.566C149.796 107.594 149.065 107.286 148.527 106.747C147.988 106.209 147.681 105.468 147.681 104.709V101.824H107.291V104.709C107.291 105.468 106.983 106.209 106.444 106.747C105.906 107.286 105.165 107.594 104.406 107.594H101.521C100.751 107.594 100.02 107.286 99.4818 106.747C98.9432 106.209 98.6355 105.468 98.6355 104.709V83.0711L95.0485 82.1768C94.4234 82.0229 93.8752 81.6575 93.4713 81.1574C93.0771 80.6477 92.8655 80.0226 92.8655 79.3783V77.3011C92.8655 76.9164 93.0194 76.551 93.2886 76.2817C93.5579 76.0125 93.9233 75.8586 94.308 75.8586H99.7126L105.877 59.4044C106.29 58.3081 107.031 57.3561 107.993 56.6829C108.954 56.0097 110.108 55.6539 111.281 55.6539H143.67C144.844 55.6539 145.988 56.0097 146.959 56.6829C147.921 57.3561 148.662 58.2985 149.075 59.4044L155.239 75.8586H160.644C161.029 75.8586 161.394 76.0125 161.663 76.2817C161.933 76.551 162.086 76.9164 162.086 77.3011V79.3783C162.086 80.0226 161.875 80.6477 161.481 81.1574C161.086 81.6671 160.529 82.0229 159.903 82.1768L157.682 82.7345ZM106.242 87.4563C105.252 87.389 104.406 88.1872 104.406 89.1777V93.159C104.406 93.9187 104.713 94.6592 105.252 95.1977C105.79 95.7363 106.531 96.044 107.291 96.044H116.648C116.898 96.044 117.138 95.9767 117.359 95.8517C117.58 95.7267 117.753 95.5536 117.888 95.342C118.013 95.1304 118.09 94.8804 118.09 94.64C118.1 94.3899 118.032 94.1495 117.917 93.9283C115.821 89.9855 111.926 87.8314 106.242 87.4563ZM150.566 88.5815C150.566 87.9371 150.027 87.3986 149.383 87.4275C143.343 87.6775 139.237 89.8413 137.045 93.938C136.929 94.1591 136.871 94.3996 136.871 94.6496C136.881 94.8996 136.948 95.14 137.073 95.3516C137.198 95.5632 137.381 95.7459 137.602 95.8613C137.824 95.9767 138.064 96.0536 138.314 96.0536H147.671C148.44 96.0536 149.171 95.7459 149.71 95.2074C150.248 94.6688 150.556 93.9283 150.556 93.1686V88.5815H150.566ZM111.647 61.4336C110.762 61.4336 109.983 62.0009 109.704 62.8376L105.665 74.9546C105.521 75.3874 105.483 75.849 105.55 76.301C105.617 76.7529 105.79 77.1857 106.06 77.5511C106.329 77.9166 106.675 78.2243 107.089 78.4359C107.492 78.6474 107.944 78.7532 108.406 78.7532H146.565C147.027 78.7532 147.469 78.6474 147.883 78.4359C148.286 78.2243 148.642 77.9262 148.912 77.5511C149.181 77.1761 149.354 76.7529 149.421 76.301C149.489 75.849 149.45 75.3874 149.306 74.9546L144.796 61.4336H111.647Z" fill="white"/>
<path fill-rule="evenodd" clip-rule="evenodd" d="M138.833 61.924C140.814 61.8471 144.43 61.8182 144.43 61.8182C145.738 66.0688 146.786 70.1078 148.142 74.2141C149.315 76.4837 147.988 78.2724 145.488 77.8685C142.968 77.8781 140.468 77.8877 137.977 77.8973C132.996 77.9262 128.072 77.9454 123.206 77.9743C118.34 77.9839 113.532 77.9935 108.8 78.0031H108.377C108.271 78.0031 108.156 77.9839 108.05 77.9646C107.839 77.9262 107.627 77.8492 107.435 77.7531C107.05 77.5511 106.733 77.2242 106.531 76.8299C106.338 76.4452 106.262 75.9932 106.329 75.5701C106.377 75.2046 106.646 74.5796 106.8 74.0699C107.521 71.935 108.233 69.8193 108.945 67.7229C109.349 66.5208 110.002 64.5494 110.377 63.2703C111.166 60.6065 109.772 62.4625 109.204 63.6839C108.368 65.5495 107.521 67.5594 106.704 69.627C106.3 70.6656 105.896 71.7138 105.511 72.7716L104.944 74.3584C104.858 74.5892 104.732 74.945 104.675 75.3008C104.617 75.6566 104.617 76.0124 104.665 76.3586C104.829 77.7819 105.886 79.0321 107.214 79.4552C107.541 79.561 107.887 79.6283 108.233 79.6476C108.589 79.6572 108.781 79.6476 109.06 79.6476C109.579 79.6379 110.099 79.6283 110.608 79.6187C112.666 79.5802 114.647 79.5129 116.513 79.4456C124.879 79.1283 133.217 79.1186 141.516 79.1956L144.623 79.234L146.18 79.2533H146.565C146.719 79.2533 146.873 79.2437 147.017 79.2244C147.315 79.186 147.613 79.109 147.902 78.9936C149.046 78.5416 149.883 77.4165 150.008 76.1759C150.037 75.8682 150.027 75.5605 149.979 75.2527C149.931 74.9354 149.825 74.6565 149.758 74.4257L149.287 72.9447C148.027 69.0115 146.777 65.0975 145.517 61.1931L145.353 60.6834H144.796C134.073 60.5873 123.312 60.8277 113.368 61.4912C112.474 61.5586 108.752 61.7605 111.435 62.0394C114.176 62.3375 119.061 62.1837 120.158 62.1548C126.11 62.0394 132.438 62.1644 138.833 61.924Z" fill="black"/>
<path fill-rule="evenodd" clip-rule="evenodd" d="M148.085 95.5247C147.681 95.6497 147.046 95.6113 146.507 95.6017C145.95 95.5824 145.401 95.5247 144.853 95.467C143.757 95.342 142.661 95.1881 141.584 95.1785C140.709 95.1785 139.843 95.1785 138.978 95.1785H138.333C138.227 95.1785 138.15 95.1689 138.074 95.1304C137.91 95.0631 137.785 94.9189 137.737 94.7458C137.708 94.6592 137.708 94.5727 137.718 94.4861C137.737 94.3899 137.747 94.3515 137.872 94.1399C138.064 93.7937 138.256 93.4475 138.487 93.1302C138.929 92.4858 139.439 91.8896 140.016 91.3703C142.315 89.2546 145.517 88.3988 148.546 88.3218C148.767 88.3218 149.056 88.3122 149.344 88.3026C149.508 88.3122 149.585 88.2641 149.71 88.168C149.95 87.9564 150.21 87.8121 150.229 87.639C150.268 87.4755 150.008 87.2063 149.729 87.1293C149.277 87.0139 148.931 86.9659 148.536 86.9082C148.152 86.8505 147.767 86.8312 147.373 86.8216C146.594 86.8024 145.815 86.8889 145.055 87.0524C143.536 87.3698 142.113 88.0333 141.007 88.8411C139.987 89.5816 139.064 90.4183 138.285 91.3607C137.9 91.8319 137.535 92.3224 137.208 92.8417C137.045 93.1013 136.9 93.361 136.746 93.6206C136.573 93.8899 136.439 94.3034 136.458 94.6688C136.468 95.4285 136.987 96.1594 137.727 96.4095C137.91 96.4768 138.102 96.5152 138.295 96.5152L138.737 96.5345L139.612 96.5633C140.776 96.6114 141.949 96.6595 143.113 96.7076C144.276 96.7557 145.44 96.7941 146.594 96.8134L147.459 96.823C147.709 96.8326 148.161 96.823 148.488 96.7268C149.2 96.5633 149.854 96.169 150.325 95.6209C150.806 95.0824 151.095 94.3899 151.162 93.6879C151.2 93.3225 151.152 92.9955 151.133 92.707L151.037 91.8031C150.893 90.6106 150.691 89.4854 150.498 88.5141C150.431 88.2256 150.287 87.139 150.008 88.1872C149.691 89.2258 149.748 90.6106 149.787 90.9568C149.806 91.4184 149.825 91.8896 149.835 92.3608L149.854 93.0917C149.864 93.3225 149.844 93.5148 149.806 93.7168C149.633 94.5438 148.979 95.2554 148.085 95.5247Z" fill="black"/>
<path fill-rule="evenodd" clip-rule="evenodd" d="M113.58 90.024C114.551 90.4664 115.349 91.2357 115.946 92.1012C116.234 92.5436 116.503 92.986 116.734 93.438C116.936 93.8803 117.263 94.4477 117.225 94.5535C117.244 94.7266 117.176 94.8997 117.051 95.0247L116.83 95.1593C116.725 95.1882 116.744 95.1882 116.465 95.1882C115.599 95.1978 114.743 95.2074 113.888 95.217C112.176 95.2459 110.493 95.2651 108.82 95.294L107.569 95.3132C107.339 95.3132 107.175 95.3228 107.04 95.3036C106.887 95.2844 106.742 95.2555 106.598 95.2074C106.021 95.0151 105.54 94.5535 105.309 93.9957C105.194 93.7072 105.146 93.4283 105.165 93.1014L105.175 92.0147C105.175 91.3031 105.175 90.601 105.156 89.9086C105.146 89.5143 105.127 88.87 105.069 88.4277C104.963 87.4948 104.348 87.7064 104.194 88.1392C103.809 89.3605 103.521 91.0626 103.492 92.7071C103.482 93.0821 103.463 93.5918 103.588 94.063C103.704 94.5246 103.915 94.9574 104.194 95.3228C104.752 96.0633 105.56 96.5153 106.348 96.6499C106.704 96.7172 107.098 96.7269 107.406 96.6884L108.291 96.6211C108.877 96.5826 109.474 96.5538 110.06 96.5249C111.233 96.4864 112.416 96.4768 113.589 96.4961L115.349 96.5345L116.224 96.5634L116.667 96.5826C116.869 96.5826 117.061 96.5634 117.253 96.5057C118.023 96.2941 118.638 95.5632 118.686 94.7362C118.725 94.3419 118.609 93.8707 118.436 93.5726L118.004 92.7648C116.773 90.6299 114.734 88.9373 112.464 88.1007C110.195 87.2352 107.762 87.1102 105.502 87.5237C105.348 87.5525 104.992 87.6295 104.838 87.6872C104.675 87.7545 104.752 87.7833 105.117 88.0526C105.3 88.1872 105.406 88.3219 105.531 88.3603C105.56 88.37 105.742 88.3892 105.886 88.3988C106.031 88.4084 106.185 88.418 106.319 88.418C106.887 88.4277 107.406 88.4373 107.598 88.4373C109.627 88.4854 111.647 89.1393 113.58 90.024Z" fill="black"/>
<path fill-rule="evenodd" clip-rule="evenodd" d="M127.034 55.1731C123.725 55.2308 120.427 55.2404 117.128 55.2116L112.185 55.1635C111.397 55.1443 110.464 55.1058 109.589 55.3558C108.714 55.5866 107.896 56.0001 107.194 56.5675C106.492 57.1349 105.915 57.8562 105.511 58.6736C105.3 59.0967 105.175 59.4814 105.011 59.8564L104.559 60.9912C103.954 62.5106 103.357 64.0301 102.761 65.5399C101.569 68.5595 99.3664 74.9258 99.3664 74.9258C99.3664 74.9258 96.818 74.9835 95.3658 74.9835H94.2599C93.6829 74.9931 93.1059 75.2335 92.6924 75.6374C92.2789 76.0413 92.0192 76.6087 92 77.1857V78.3109V79.3975C92 79.8688 92.0962 80.3304 92.2693 80.7631C92.6155 81.6382 93.2983 82.3595 94.1349 82.7634C94.3465 82.8595 94.5677 82.9461 94.7888 83.0038L95.3178 83.1384L97.77 83.6096C97.77 83.6096 97.7892 95.4189 97.7989 101.497L97.8085 103.776V104.343C97.8085 104.536 97.7989 104.709 97.8181 104.968C97.8566 105.449 97.9816 105.93 98.2028 106.363C98.6355 107.238 99.4241 107.911 100.347 108.209C100.78 108.363 101.357 108.411 101.722 108.401H102.848H103.973C104.3 108.401 104.819 108.421 105.281 108.286C106.213 108.055 107.04 107.449 107.541 106.632C107.791 106.228 107.954 105.766 108.031 105.295C108.069 105.074 108.079 104.795 108.079 104.612V102.776L146.921 102.574C146.921 103.093 146.921 102.872 146.921 103.391V104.17C146.921 104.439 146.911 104.651 146.931 105.007C147.027 106.315 147.883 107.517 149.065 108.036C149.364 108.171 149.671 108.257 149.989 108.315C150.316 108.373 150.643 108.363 150.864 108.363H152.383C152.912 108.344 153.316 108.411 154.008 108.325C154.643 108.228 155.239 107.959 155.739 107.565C156.239 107.171 156.624 106.642 156.865 106.055C156.98 105.757 157.057 105.449 157.095 105.132C157.115 104.978 157.124 104.805 157.124 104.67V104.305C157.124 103.333 157.134 102.372 157.134 101.41C157.134 99.4964 157.143 97.5923 157.143 95.6882C157.143 93.0532 157.124 88.745 157.067 86.0138C156.999 83.1769 156.807 83.023 156.595 83.9366C156.393 84.8406 156.153 86.8505 156.086 88.2064C155.836 93.2263 155.634 98.5636 155.528 103.93L155.518 104.43C155.518 104.612 155.518 104.766 155.499 104.863C155.48 105.093 155.412 105.324 155.307 105.536C155.105 105.959 154.758 106.305 154.345 106.507C153.893 106.728 153.566 106.719 152.826 106.709L150.873 106.69C150.498 106.69 150.335 106.69 150.104 106.632C149.883 106.584 149.681 106.488 149.498 106.372C149.123 106.132 148.835 105.766 148.7 105.353C148.623 105.141 148.594 104.93 148.594 104.709V103.747C148.594 103.103 148.594 102.468 148.594 101.833V100.91H147.671C140.468 100.92 133.573 101.016 127.293 101.131C120.61 101.256 113.945 101.333 107.281 101.372H106.819V101.824L106.829 104.112V104.68C106.829 104.853 106.819 105.007 106.79 105.17C106.733 105.488 106.608 105.795 106.435 106.065C106.079 106.613 105.502 107.007 104.867 107.132C104.704 107.161 104.55 107.18 104.377 107.18H103.809H102.665H101.521C101.184 107.18 100.867 107.122 100.559 106.997C99.953 106.757 99.4529 106.257 99.2029 105.651C99.0779 105.353 99.0106 105.026 99.0106 104.699V103.564V101.285C99.0298 95.2074 99.0586 89.1392 99.0779 83.0807V82.7057L98.7124 82.6095L96.616 82.071L95.5678 81.8017C95.1927 81.7055 94.9042 81.6478 94.6446 81.5036C94.1157 81.2343 93.6925 80.7631 93.4906 80.2053C93.3848 79.9265 93.3367 79.638 93.3463 79.3302L93.356 78.2532L93.3656 77.2242C93.3848 77.003 93.5002 76.7914 93.6637 76.6375C93.8368 76.4933 94.0484 76.4067 94.2792 76.4164L95.3562 76.426L99.6645 76.4548H100.068L100.213 76.0702C101.444 72.8582 102.665 69.6558 103.896 66.4535L105.733 61.6547C106.031 60.8758 106.348 60.0007 106.646 59.3083C106.964 58.6255 107.435 58.0293 108.012 57.5484C108.589 57.0772 109.272 56.731 109.993 56.5483C110.358 56.4617 110.724 56.404 111.099 56.3944H112.359L117.475 56.4137C120.879 56.4137 124.283 56.4233 127.688 56.4233C131.082 56.4137 134.477 56.404 137.862 56.3848L142.94 56.3463C143.372 56.3463 143.786 56.3271 144.142 56.3656C144.517 56.3944 144.882 56.4714 145.238 56.5868C145.95 56.8079 146.613 57.1926 147.161 57.7023C147.709 58.212 148.152 58.8467 148.44 59.5391L149.364 61.8855L151.22 66.5881C152.47 69.7135 153.72 72.8293 154.97 75.9451L155.037 76.1279L155.22 76.1182C157.028 76.0702 158.836 76.0125 160.644 75.9644C161.057 75.9548 161.49 76.1471 161.75 76.4933C162.038 76.8299 162.048 77.3011 162.058 77.7435L162.106 79.0994C162.135 79.5418 162.106 80.013 161.952 80.4554C161.808 80.9074 161.336 81.7344 160.423 82.1671C159.49 82.5326 158.605 82.7345 157.894 82.9749C156.47 83.4077 156.038 83.5423 158.384 83.2731C158.855 83.2154 159.346 83.1384 159.875 83.0326C160.077 83.0038 160.586 82.8788 160.932 82.6961C161.307 82.5037 161.673 82.2441 161.971 81.9267C162.586 81.2824 162.971 80.3784 162.99 79.436C162.99 78.7051 163 77.9647 163 77.2338C162.99 76.0221 161.933 74.9739 160.769 74.945C160.048 74.945 159.346 74.9546 158.672 74.9546C157.365 74.9739 156.73 74.9835 155.778 74.9931C155.778 74.9931 155.307 73.7333 155.143 73.3102C154.018 70.3963 152.883 67.4536 151.739 64.4821C151.171 62.9915 150.604 61.5009 150.027 59.9911C149.758 59.2794 149.45 58.3851 148.902 57.6542C148.373 56.9233 147.69 56.2983 146.902 55.8463C146.113 55.3943 145.238 55.1058 144.334 55.0192C144.142 55.0096 143.911 55 143.68 55H143.065L141.843 55.0096C140.208 55.0192 138.574 55.0289 136.929 55.0385C133.65 55.0866 130.351 55.125 127.034 55.1731Z" fill="black"/>
</svg>
