<svg width="255" height="206" viewBox="0 0 255 206" fill="none" xmlns="http://www.w3.org/2000/svg">
<path d="M94.053 168.288C95.029 168.56 95.781 169.048 96.309 169.752C96.853 170.456 97.125 171.336 97.125 172.392C97.125 173.848 96.621 174.984 95.613 175.8C94.621 176.6 93.229 177 91.437 177H85.317C84.933 177 84.629 176.896 84.405 176.688C84.197 176.464 84.093 176.168 84.093 175.8V161.28C84.093 160.912 84.197 160.624 84.405 160.416C84.629 160.192 84.933 160.08 85.317 160.08H91.173C92.917 160.08 94.277 160.472 95.253 161.256C96.245 162.024 96.741 163.104 96.741 164.496C96.741 165.392 96.501 166.168 96.021 166.824C95.557 167.48 94.901 167.968 94.053 168.288ZM86.517 167.4H90.789C93.157 167.4 94.341 166.504 94.341 164.712C94.341 163.816 94.045 163.152 93.453 162.72C92.877 162.288 91.989 162.072 90.789 162.072H86.517V167.4ZM91.173 175.008C92.405 175.008 93.309 174.784 93.885 174.336C94.461 173.888 94.749 173.192 94.749 172.248C94.749 171.288 94.453 170.576 93.861 170.112C93.285 169.632 92.389 169.392 91.173 169.392H86.517V175.008H91.173ZM105.241 165C106.793 165 107.945 165.392 108.697 166.176C109.465 166.96 109.849 168.152 109.849 169.752V175.968C109.849 176.336 109.745 176.624 109.537 176.832C109.329 177.024 109.041 177.12 108.673 177.12C108.321 177.12 108.041 177.016 107.833 176.808C107.625 176.6 107.521 176.32 107.521 175.968V175.08C107.217 175.752 106.761 176.272 106.153 176.64C105.561 176.992 104.865 177.168 104.065 177.168C103.297 177.168 102.593 177.016 101.953 176.712C101.329 176.392 100.833 175.96 100.465 175.416C100.097 174.872 99.9126 174.256 99.9126 173.568C99.8966 172.704 100.113 172.032 100.561 171.552C101.009 171.056 101.737 170.704 102.745 170.496C103.753 170.272 105.153 170.16 106.945 170.16H107.497V169.464C107.497 168.568 107.313 167.92 106.945 167.52C106.577 167.12 105.985 166.92 105.169 166.92C104.609 166.92 104.081 166.992 103.585 167.136C103.089 167.28 102.545 167.488 101.953 167.76C101.521 168 101.217 168.12 101.041 168.12C100.801 168.12 100.601 168.032 100.441 167.856C100.297 167.68 100.225 167.456 100.225 167.184C100.225 166.944 100.289 166.736 100.417 166.56C100.561 166.368 100.785 166.184 101.089 166.008C101.649 165.704 102.305 165.464 103.057 165.288C103.809 165.096 104.537 165 105.241 165ZM104.497 175.368C105.377 175.368 106.097 175.072 106.657 174.48C107.217 173.872 107.497 173.096 107.497 172.152V171.528H107.065C105.817 171.528 104.857 171.584 104.185 171.696C103.513 171.808 103.033 172 102.745 172.272C102.457 172.528 102.313 172.904 102.313 173.4C102.313 173.976 102.521 174.448 102.937 174.816C103.353 175.184 103.873 175.368 104.497 175.368ZM119.726 165C122.526 165 123.926 166.576 123.926 169.728V175.968C123.926 176.336 123.814 176.624 123.59 176.832C123.382 177.024 123.086 177.12 122.702 177.12C122.334 177.12 122.038 177.016 121.814 176.808C121.606 176.6 121.502 176.32 121.502 175.968V169.848C121.502 168.856 121.302 168.128 120.902 167.664C120.518 167.2 119.91 166.968 119.078 166.968C118.102 166.968 117.318 167.272 116.726 167.88C116.134 168.488 115.838 169.304 115.838 170.328V175.968C115.838 176.32 115.726 176.6 115.502 176.808C115.294 177.016 115.006 177.12 114.638 177.12C114.27 177.12 113.974 177.016 113.75 176.808C113.526 176.6 113.414 176.32 113.414 175.968V166.2C113.414 165.864 113.526 165.592 113.75 165.384C113.99 165.16 114.286 165.048 114.638 165.048C114.99 165.048 115.27 165.152 115.478 165.36C115.686 165.568 115.79 165.84 115.79 166.176V167.16C116.174 166.456 116.71 165.92 117.398 165.552C118.086 165.184 118.862 165 119.726 165ZM137.333 175.104C137.621 175.344 137.765 175.64 137.765 175.992C137.765 176.296 137.661 176.56 137.453 176.784C137.245 177.008 136.997 177.12 136.709 177.12C136.405 177.12 136.133 177.008 135.893 176.784L129.917 171.504V175.944C129.917 176.328 129.805 176.624 129.581 176.832C129.357 177.024 129.069 177.12 128.717 177.12C128.365 177.12 128.069 177.024 127.829 176.832C127.605 176.624 127.493 176.328 127.493 175.944V161.136C127.493 160.752 127.605 160.464 127.829 160.272C128.069 160.064 128.365 159.96 128.717 159.96C129.069 159.96 129.357 160.064 129.581 160.272C129.805 160.464 129.917 160.752 129.917 161.136V170.544L135.389 165.432C135.661 165.192 135.925 165.072 136.181 165.072C136.485 165.072 136.749 165.184 136.973 165.408C137.197 165.632 137.309 165.896 137.309 166.2C137.309 166.504 137.173 166.784 136.901 167.04L132.629 170.952L137.333 175.104ZM141.365 177.12C141.013 177.12 140.717 177.024 140.477 176.832C140.253 176.64 140.141 176.352 140.141 175.968V166.224C140.141 165.84 140.253 165.552 140.477 165.36C140.717 165.152 141.013 165.048 141.365 165.048C141.717 165.048 142.005 165.152 142.229 165.36C142.453 165.552 142.565 165.84 142.565 166.224V175.968C142.565 176.352 142.453 176.64 142.229 176.832C142.005 177.024 141.717 177.12 141.365 177.12ZM141.365 162.696C140.901 162.696 140.533 162.568 140.261 162.312C139.989 162.056 139.853 161.72 139.853 161.304C139.853 160.888 139.989 160.56 140.261 160.32C140.533 160.064 140.901 159.936 141.365 159.936C141.813 159.936 142.173 160.064 142.445 160.32C142.733 160.56 142.877 160.888 142.877 161.304C142.877 161.72 142.741 162.056 142.469 162.312C142.197 162.568 141.829 162.696 141.365 162.696ZM152.515 165C155.315 165 156.715 166.576 156.715 169.728V175.968C156.715 176.336 156.603 176.624 156.379 176.832C156.171 177.024 155.875 177.12 155.491 177.12C155.123 177.12 154.827 177.016 154.603 176.808C154.395 176.6 154.291 176.32 154.291 175.968V169.848C154.291 168.856 154.091 168.128 153.691 167.664C153.307 167.2 152.699 166.968 151.867 166.968C150.891 166.968 150.107 167.272 149.515 167.88C148.923 168.488 148.627 169.304 148.627 170.328V175.968C148.627 176.32 148.515 176.6 148.291 176.808C148.083 177.016 147.795 177.12 147.427 177.12C147.059 177.12 146.763 177.016 146.539 176.808C146.315 176.6 146.203 176.32 146.203 175.968V166.2C146.203 165.864 146.315 165.592 146.539 165.384C146.779 165.16 147.075 165.048 147.427 165.048C147.779 165.048 148.059 165.152 148.267 165.36C148.475 165.568 148.579 165.84 148.579 166.176V167.16C148.963 166.456 149.499 165.92 150.187 165.552C150.875 165.184 151.651 165 152.515 165ZM169.978 165.048C170.346 165.048 170.634 165.16 170.842 165.384C171.066 165.592 171.178 165.872 171.178 166.224V176.064C171.178 177.856 170.698 179.208 169.738 180.12C168.794 181.032 167.394 181.488 165.538 181.488C163.81 181.488 162.37 181.16 161.218 180.504C160.626 180.168 160.33 179.768 160.33 179.304C160.33 179.032 160.402 178.808 160.546 178.632C160.706 178.456 160.898 178.368 161.122 178.368C161.33 178.368 161.658 178.488 162.106 178.728C162.682 179 163.218 179.208 163.714 179.352C164.21 179.512 164.802 179.592 165.49 179.592C167.698 179.592 168.802 178.48 168.802 176.256V174.408C168.466 175.112 167.954 175.664 167.266 176.064C166.578 176.448 165.778 176.64 164.866 176.64C163.842 176.64 162.93 176.4 162.13 175.92C161.33 175.44 160.706 174.76 160.258 173.88C159.826 173 159.61 171.984 159.61 170.832C159.61 169.68 159.834 168.664 160.282 167.784C160.73 166.904 161.346 166.224 162.13 165.744C162.93 165.248 163.842 165 164.866 165C165.762 165 166.546 165.192 167.218 165.576C167.906 165.96 168.426 166.504 168.778 167.208V166.2C168.778 165.848 168.882 165.568 169.09 165.36C169.314 165.152 169.61 165.048 169.978 165.048ZM165.442 174.72C166.482 174.72 167.298 174.376 167.89 173.688C168.482 173 168.778 172.048 168.778 170.832C168.778 169.632 168.482 168.688 167.89 168C167.314 167.296 166.498 166.944 165.442 166.944C164.386 166.944 163.554 167.288 162.946 167.976C162.354 168.664 162.058 169.616 162.058 170.832C162.058 172.048 162.362 173 162.97 173.688C163.578 174.376 164.402 174.72 165.442 174.72Z" fill="#384248"/>
<rect x="77" y="32" width="100" height="100" rx="4" fill="#F5F6F8"/>
<path d="M100.333 103.333H153.667V108.667H100.333V103.333ZM105.667 81.9999H111V100.667H105.667V81.9999ZM119 81.9999H124.333V100.667H119V81.9999ZM129.667 81.9999H135V100.667H129.667V81.9999ZM143 81.9999H148.333V100.667H143V81.9999ZM100.333 68.6666L127 55.3333L153.667 68.6666V79.3333H100.333V68.6666ZM127 71.3333C127.707 71.3333 128.386 71.0523 128.886 70.5522C129.386 70.0521 129.667 69.3738 129.667 68.6666C129.667 67.9593 129.386 67.2811 128.886 66.781C128.386 66.2809 127.707 65.9999 127 65.9999C126.293 65.9999 125.614 66.2809 125.114 66.781C124.614 67.2811 124.333 67.9593 124.333 68.6666C124.333 69.3738 124.614 70.0521 125.114 70.5522C125.614 71.0523 126.293 71.3333 127 71.3333Z" fill="#73CBF2"/>
</svg>
