<svg width="540" height="400" viewBox="0 0 540 400" fill="none" xmlns="http://www.w3.org/2000/svg">
<rect width="540" height="400" fill="#ECECEC"/>
<path d="M285.667 235.25L267.016 201.058L281.75 176.5L313.083 235.25H285.667ZM254.333 192.167L277.833 235.25H230.833L254.333 192.167ZM244.542 184.333C241.945 184.333 239.454 183.302 237.618 181.465C235.782 179.629 234.75 177.139 234.75 174.542C234.75 171.945 235.782 169.454 237.618 167.618C239.454 165.782 241.945 164.75 244.542 164.75C247.139 164.75 249.629 165.782 251.465 167.618C253.302 169.454 254.333 171.945 254.333 174.542C254.333 177.139 253.302 179.629 251.465 181.465C249.629 183.302 247.139 184.333 244.542 184.333Z" fill="#B1B1B1"/>
</svg>
