<svg width="263" height="245" viewBox="0 0 263 245" fill="none" xmlns="http://www.w3.org/2000/svg">
<g filter="url(#filter0_dd)">
<rect x="4" y="3" width="255" height="237" rx="4" fill="white"/>
</g>
<path d="M100.384 119.574C99.7041 120.681 98.9406 121.966 98.2926 122.989C97.7121 123.969 98.0241 125.232 98.9931 125.83L112.588 134.188C113.57 134.794 114.859 134.49 115.466 133.509C115.472 133.498 115.478 133.489 115.484 133.479C116.029 132.57 116.729 131.389 117.491 130.125C122.876 121.245 128.293 122.331 138.061 126.991L151.54 133.395C152.582 133.891 153.83 133.449 154.327 132.406C154.336 132.388 154.345 132.369 154.352 132.351L160.825 117.726C161.282 116.682 160.817 115.464 159.779 114.988C156.935 113.652 151.277 110.988 146.185 108.532C127.864 99.64 112.294 100.215 100.384 119.574Z" fill="url(#paint0_linear)"/>
<path d="M161.618 84.952C162.297 83.8465 163.059 82.5625 163.707 81.541C164.288 80.563 163.976 79.3 163.007 78.703L149.421 70.357C148.464 69.7135 147.165 69.9655 146.52 70.9225C146.493 70.963 146.468 71.0035 146.444 71.0455C145.901 71.953 145.2 73.132 144.437 74.395C139.055 83.263 133.641 82.1785 123.882 77.5255L110.454 71.161C109.412 70.666 108.165 71.1085 107.669 72.148C107.661 72.166 107.652 72.184 107.643 72.2035L101.175 86.8105C100.718 87.853 101.183 89.0695 102.221 89.5435C105.063 90.8785 110.717 93.5395 115.806 95.992C134.156 104.859 149.715 104.265 161.618 84.952Z" fill="url(#paint1_linear)"/>
<path d="M95.8019 171.16C94.6285 171.16 93.6205 170.925 92.7779 170.456C91.9459 169.976 91.3059 169.304 90.8579 168.44C90.4099 167.565 90.1859 166.536 90.1859 165.352C90.1859 164.168 90.4099 163.144 90.8579 162.28C91.3059 161.416 91.9459 160.749 92.7779 160.28C93.6205 159.8 94.6285 159.56 95.8019 159.56C96.5592 159.56 97.2739 159.677 97.9459 159.912C98.6285 160.147 99.1885 160.483 99.6259 160.92L98.9539 162.552C98.4739 162.147 97.9832 161.853 97.4819 161.672C96.9805 161.48 96.4419 161.384 95.8659 161.384C94.7245 161.384 93.8552 161.731 93.2579 162.424C92.6605 163.107 92.3619 164.083 92.3619 165.352C92.3619 166.621 92.6605 167.603 93.2579 168.296C93.8552 168.989 94.7245 169.336 95.8659 169.336C96.4419 169.336 96.9805 169.245 97.4819 169.064C97.9832 168.872 98.4739 168.573 98.9539 168.168L99.6259 169.8C99.1885 170.227 98.6285 170.563 97.9459 170.808C97.2739 171.043 96.5592 171.16 95.8019 171.16ZM104.377 171.16C103.566 171.16 102.862 170.995 102.265 170.664C101.667 170.333 101.203 169.864 100.873 169.256C100.542 168.637 100.377 167.912 100.377 167.08C100.377 166.248 100.542 165.528 100.873 164.92C101.203 164.312 101.667 163.843 102.265 163.512C102.862 163.181 103.566 163.016 104.377 163.016C105.187 163.016 105.891 163.181 106.489 163.512C107.086 163.843 107.55 164.312 107.881 164.92C108.211 165.528 108.377 166.248 108.377 167.08C108.377 167.912 108.211 168.637 107.881 169.256C107.55 169.864 107.086 170.333 106.489 170.664C105.891 170.995 105.187 171.16 104.377 171.16ZM104.377 169.64C104.974 169.64 105.454 169.427 105.817 169C106.179 168.563 106.361 167.923 106.361 167.08C106.361 166.227 106.179 165.592 105.817 165.176C105.454 164.749 104.974 164.536 104.377 164.536C103.779 164.536 103.299 164.749 102.937 165.176C102.574 165.592 102.393 166.227 102.393 167.08C102.393 167.923 102.574 168.563 102.937 169C103.299 169.427 103.779 169.64 104.377 169.64ZM110.178 171V163.176H112.13V164.392C112.396 163.944 112.754 163.603 113.202 163.368C113.66 163.133 114.172 163.016 114.738 163.016C116.583 163.016 117.506 164.088 117.506 166.232V171H115.506V166.328C115.506 165.72 115.388 165.277 115.154 165C114.93 164.723 114.578 164.584 114.098 164.584C113.511 164.584 113.042 164.771 112.69 165.144C112.348 165.507 112.178 165.992 112.178 166.6V171H110.178ZM120.215 171V164.68H118.711V163.176H120.215V163.16C120.215 162.051 120.503 161.213 121.079 160.648C121.666 160.083 122.572 159.763 123.799 159.688L124.583 159.64L124.711 161.112L123.975 161.16C123.335 161.203 122.882 161.363 122.615 161.64C122.348 161.907 122.215 162.307 122.215 162.84V163.176H124.343V164.68H122.215V171H120.215ZM128.231 171.16C127.303 171.16 126.615 170.909 126.167 170.408C125.73 169.896 125.511 169.149 125.511 168.168V159.72H127.511V168.072C127.511 169.032 127.916 169.512 128.727 169.512C128.844 169.512 128.962 169.507 129.079 169.496C129.196 169.485 129.308 169.464 129.415 169.432L129.383 171.016C128.999 171.112 128.615 171.16 128.231 171.16ZM133.591 171.16C131.671 171.16 130.711 170.083 130.711 167.928V163.176H132.711V167.96C132.711 168.515 132.823 168.925 133.047 169.192C133.271 169.459 133.628 169.592 134.119 169.592C134.652 169.592 135.089 169.411 135.431 169.048C135.772 168.675 135.943 168.184 135.943 167.576V163.176H137.943V171H135.991V169.832C135.468 170.717 134.668 171.16 133.591 171.16ZM140.174 171V163.176H142.126V164.392C142.393 163.944 142.75 163.603 143.198 163.368C143.657 163.133 144.169 163.016 144.734 163.016C146.58 163.016 147.502 164.088 147.502 166.232V171H145.502V166.328C145.502 165.72 145.385 165.277 145.15 165C144.926 164.723 144.574 164.584 144.094 164.584C143.508 164.584 143.038 164.771 142.686 165.144C142.345 165.507 142.174 165.992 142.174 166.6V171H140.174ZM153.54 171.16C152.654 171.16 151.892 170.995 151.252 170.664C150.612 170.333 150.116 169.864 149.764 169.256C149.422 168.648 149.252 167.928 149.252 167.096C149.252 166.285 149.417 165.576 149.748 164.968C150.089 164.36 150.553 163.885 151.14 163.544C151.737 163.192 152.414 163.016 153.172 163.016C154.281 163.016 155.156 163.368 155.796 164.072C156.446 164.776 156.772 165.736 156.772 166.952V167.544H151.172C151.321 168.941 152.121 169.64 153.572 169.64C154.009 169.64 154.446 169.576 154.884 169.448C155.321 169.309 155.721 169.096 156.084 168.808L156.644 170.152C156.27 170.461 155.801 170.707 155.236 170.888C154.67 171.069 154.105 171.16 153.54 171.16ZM153.252 164.376C152.665 164.376 152.19 164.557 151.828 164.92C151.465 165.283 151.246 165.773 151.172 166.392H155.108C155.065 165.741 154.884 165.245 154.564 164.904C154.254 164.552 153.817 164.376 153.252 164.376ZM162.122 171.16C161.3 171.16 160.586 170.995 159.978 170.664C159.37 170.323 158.9 169.843 158.57 169.224C158.239 168.605 158.074 167.88 158.074 167.048C158.074 166.216 158.239 165.501 158.57 164.904C158.9 164.296 159.37 163.832 159.978 163.512C160.586 163.181 161.3 163.016 162.122 163.016C162.623 163.016 163.119 163.096 163.61 163.256C164.1 163.416 164.506 163.64 164.826 163.928L164.234 165.32C163.956 165.075 163.642 164.888 163.29 164.76C162.948 164.632 162.618 164.568 162.298 164.568C161.604 164.568 161.066 164.787 160.682 165.224C160.308 165.651 160.122 166.264 160.122 167.064C160.122 167.853 160.308 168.477 160.682 168.936C161.066 169.384 161.604 169.608 162.298 169.608C162.607 169.608 162.938 169.544 163.29 169.416C163.642 169.288 163.956 169.096 164.234 168.84L164.826 170.248C164.506 170.525 164.095 170.749 163.594 170.92C163.103 171.08 162.612 171.16 162.122 171.16ZM169.902 171.16C169.017 171.16 168.254 170.995 167.614 170.664C166.974 170.333 166.478 169.864 166.126 169.256C165.785 168.648 165.614 167.928 165.614 167.096C165.614 166.285 165.78 165.576 166.11 164.968C166.452 164.36 166.916 163.885 167.502 163.544C168.1 163.192 168.777 163.016 169.534 163.016C170.644 163.016 171.518 163.368 172.158 164.072C172.809 164.776 173.134 165.736 173.134 166.952V167.544H167.534C167.684 168.941 168.484 169.64 169.934 169.64C170.372 169.64 170.809 169.576 171.246 169.448C171.684 169.309 172.084 169.096 172.446 168.808L173.006 170.152C172.633 170.461 172.164 170.707 171.598 170.888C171.033 171.069 170.468 171.16 169.902 171.16ZM169.614 164.376C169.028 164.376 168.553 164.557 168.19 164.92C167.828 165.283 167.609 165.773 167.534 166.392H171.47C171.428 165.741 171.246 165.245 170.926 164.904C170.617 164.552 170.18 164.376 169.614 164.376Z" fill="#384248"/>
<defs>
<filter id="filter0_dd" x="0" y="0" width="263" height="245" filterUnits="userSpaceOnUse" color-interpolation-filters="sRGB">
<feFlood flood-opacity="0" result="BackgroundImageFix"/>
<feColorMatrix in="SourceAlpha" type="matrix" values="0 0 0 0 0 0 0 0 0 0 0 0 0 0 0 0 0 0 127 0"/>
<feOffset/>
<feGaussianBlur stdDeviation="0.5"/>
<feColorMatrix type="matrix" values="0 0 0 0 0 0 0 0 0 0 0 0 0 0 0 0 0 0 0.5 0"/>
<feBlend mode="normal" in2="BackgroundImageFix" result="effect1_dropShadow"/>
<feColorMatrix in="SourceAlpha" type="matrix" values="0 0 0 0 0 0 0 0 0 0 0 0 0 0 0 0 0 0 127 0"/>
<feOffset dy="1"/>
<feGaussianBlur stdDeviation="2"/>
<feColorMatrix type="matrix" values="0 0 0 0 0.247059 0 0 0 0 0.247059 0 0 0 0 0.266667 0 0 0 0.15 0"/>
<feBlend mode="normal" in2="effect1_dropShadow" result="effect2_dropShadow"/>
<feBlend mode="normal" in="SourceGraphic" in2="effect2_dropShadow" result="shape"/>
</filter>
<linearGradient id="paint0_linear" x1="98.0001" y1="118.75" x2="161" y2="118.75" gradientUnits="userSpaceOnUse">
<stop stop-color="#2684FF"/>
<stop offset="0.28" stop-color="#1F7BF6"/>
<stop offset="0.742" stop-color="#0C62DD"/>
<stop offset="0.994" stop-color="#0052CC"/>
</linearGradient>
<linearGradient id="paint1_linear" x1="101" y1="85.75" x2="164" y2="85.75" gradientUnits="userSpaceOnUse">
<stop stop-color="#0052CC"/>
<stop offset="0.044" stop-color="#0255CF"/>
<stop offset="0.665" stop-color="#1C77F2"/>
<stop offset="1" stop-color="#2684FF"/>
</linearGradient>
</defs>
</svg>
