<svg width="263" height="245" viewBox="0 0 263 245" fill="none" xmlns="http://www.w3.org/2000/svg">
<g filter="url(#filter0_dd)">
<rect x="4" y="3" width="255" height="237" rx="4" fill="white"/>
</g>
<g clip-path="url(#clip0)">
<path d="M115.291 99.2935C115.291 100.189 115.387 100.914 115.555 101.446C115.747 101.979 115.985 102.559 116.321 103.188C116.441 103.381 116.489 103.575 116.489 103.744C116.489 103.986 116.345 104.227 116.035 104.47L114.526 105.486C114.31 105.631 114.095 105.703 113.903 105.703C113.663 105.703 113.425 105.582 113.185 105.364C112.849 105.001 112.562 104.614 112.322 104.227C112.082 103.816 111.844 103.357 111.58 102.801C109.712 105.025 107.365 106.138 104.539 106.138C102.527 106.138 100.922 105.558 99.749 104.397C98.576 103.236 97.9775 101.688 97.9775 99.7525C97.9775 97.6975 98.696 96.028 100.157 94.771C101.618 93.514 103.558 92.884 106.024 92.884C106.838 92.884 107.677 92.956 108.562 93.0775C109.447 93.199 110.357 93.3925 111.316 93.61V91.8445C111.316 90.007 110.933 88.7245 110.191 87.9745C109.424 87.2245 108.131 86.8615 106.288 86.8615C105.449 86.8615 104.588 86.9575 103.702 87.1765C102.815 87.394 101.954 87.6595 101.116 87.9985C100.733 88.168 100.445 88.264 100.277 88.3135C100.109 88.3615 99.989 88.3855 99.8945 88.3855C99.5585 88.3855 99.392 88.144 99.392 87.6355V86.4505C99.392 86.0635 99.44 85.774 99.56 85.6045C99.68 85.435 99.896 85.2655 100.231 85.096C101.069 84.661 102.074 84.298 103.249 84.007C104.422 83.692 105.667 83.548 106.984 83.548C109.834 83.548 111.917 84.2005 113.258 85.507C114.575 86.8135 115.246 88.7965 115.246 91.456V99.292H115.291V99.2935ZM105.568 102.969C106.358 102.969 107.173 102.823 108.034 102.534C108.896 102.244 109.663 101.712 110.309 100.986C110.692 100.527 110.98 100.018 111.124 99.4375C111.268 98.857 111.364 98.155 111.364 97.333V96.3175C110.669 96.148 109.927 96.0025 109.16 95.9065C108.394 95.8105 107.651 95.761 106.909 95.761C105.304 95.761 104.131 96.076 103.34 96.7285C102.55 97.381 102.167 98.3005 102.167 99.5095C102.167 100.647 102.455 101.493 103.054 102.073C103.628 102.679 104.467 102.969 105.568 102.969ZM124.798 105.582C124.367 105.582 124.079 105.51 123.887 105.34C123.695 105.195 123.529 104.857 123.385 104.397L117.757 85.702C117.613 85.219 117.541 84.904 117.541 84.7345C117.541 84.3475 117.733 84.13 118.115 84.13H120.463C120.917 84.13 121.229 84.202 121.397 84.3715C121.589 84.517 121.732 84.8545 121.876 85.315L125.899 101.326L129.634 85.315C129.754 84.832 129.898 84.517 130.088 84.3715C130.28 84.226 130.615 84.13 131.047 84.13H132.962C133.417 84.13 133.729 84.202 133.921 84.3715C134.113 84.517 134.279 84.8545 134.375 85.315L138.158 101.52L142.301 85.315C142.445 84.832 142.613 84.517 142.78 84.3715C142.972 84.226 143.282 84.13 143.714 84.13H145.942C146.324 84.13 146.54 84.3235 146.54 84.7345C146.54 84.856 146.516 84.976 146.492 85.1215C146.468 85.267 146.42 85.4605 146.324 85.726L140.554 104.421C140.41 104.904 140.242 105.219 140.051 105.364C139.861 105.51 139.549 105.606 139.141 105.606H137.081C136.627 105.606 136.315 105.534 136.123 105.364C135.931 105.195 135.764 104.881 135.668 104.397L131.957 88.7965L128.27 104.373C128.15 104.856 128.006 105.171 127.816 105.34C127.624 105.51 127.289 105.582 126.857 105.582H124.798ZM155.569 106.234C154.324 106.234 153.079 106.089 151.882 105.799C150.685 105.51 149.75 105.195 149.128 104.832C148.745 104.614 148.481 104.373 148.385 104.155C148.289 103.938 148.241 103.696 148.241 103.479V102.246C148.241 101.737 148.433 101.496 148.792 101.496C148.936 101.496 149.08 101.52 149.222 101.568C149.366 101.616 149.581 101.713 149.821 101.809C150.635 102.172 151.52 102.462 152.455 102.655C153.413 102.849 154.346 102.945 155.305 102.945C156.814 102.945 157.987 102.679 158.801 102.147C159.616 101.614 160.046 100.84 160.046 99.8485C160.046 99.172 159.83 98.6155 159.4 98.155C158.969 97.696 158.155 97.285 156.982 96.898L153.509 95.809C151.762 95.2525 150.469 94.4305 149.678 93.3415C148.888 92.278 148.481 91.093 148.481 89.8345C148.481 88.819 148.697 87.9235 149.128 87.1495C149.558 86.3755 150.134 85.699 150.851 85.1665C151.57 84.61 152.384 84.199 153.341 83.9095C154.3 83.6215 155.305 83.5 156.359 83.5C156.886 83.5 157.436 83.524 157.964 83.596C158.515 83.668 159.017 83.7655 159.521 83.8615C160 83.983 160.456 84.103 160.886 84.2485C161.317 84.394 161.653 84.538 161.893 84.6835C162.229 84.877 162.467 85.0705 162.611 85.288C162.755 85.4815 162.827 85.747 162.827 86.086V87.223C162.827 87.7315 162.635 87.997 162.277 87.997C162.085 87.997 161.774 87.901 161.366 87.7075C160.001 87.079 158.468 86.764 156.769 86.764C155.404 86.764 154.327 86.9815 153.584 87.4405C152.842 87.8995 152.459 88.6015 152.459 89.593C152.459 90.2695 152.699 90.85 153.178 91.3105C153.656 91.7695 154.543 92.23 155.812 92.641L159.212 93.73C160.936 94.2865 162.182 95.0605 162.923 96.052C163.664 97.0435 164.024 98.1805 164.024 99.4375C164.024 100.477 163.808 101.421 163.402 102.243C162.971 103.065 162.395 103.791 161.654 104.371C160.912 104.976 160.025 105.411 158.996 105.726C157.915 106.065 156.79 106.234 155.569 106.234Z" fill="#252F3E"/>
<path d="M160.094 117.988C152.216 123.865 140.769 126.985 130.926 126.985C117.134 126.985 104.705 121.834 95.3178 113.272C94.5753 112.596 95.2458 111.676 96.1323 112.209C106.286 118.158 118.809 121.762 131.765 121.762C140.505 121.762 150.108 119.925 158.943 116.151C160.262 115.546 161.387 117.021 160.094 117.988ZM163.374 114.216C162.368 112.909 156.717 113.587 154.155 113.901C153.389 113.997 153.269 113.32 153.963 112.812C158.465 109.62 165.864 110.538 166.727 111.603C167.589 112.692 166.487 120.165 162.273 123.744C161.627 124.3 161.004 124.009 161.291 123.285C162.249 120.891 164.381 115.497 163.374 114.216Z" fill="#FF9900"/>
</g>
<path d="M45.2191 171L50.3231 159.72H52.0031L57.1071 171H55.0271L53.9071 168.392H48.4031L47.2991 171H45.2191ZM51.1391 161.944L49.1071 166.76H53.2031L51.1711 161.944H51.1391ZM58.3314 171V163.176H60.2834V164.376C60.518 163.949 60.8434 163.619 61.2594 163.384C61.6754 163.139 62.1554 163.016 62.6994 163.016C63.8727 163.016 64.6407 163.528 65.0034 164.552C65.2487 164.072 65.6007 163.699 66.0594 163.432C66.518 163.155 67.0407 163.016 67.6274 163.016C69.3874 163.016 70.2674 164.088 70.2674 166.232V171H68.2674V166.312C68.2674 165.715 68.166 165.277 67.9634 165C67.7714 164.723 67.4407 164.584 66.9714 164.584C66.4487 164.584 66.038 164.771 65.7394 165.144C65.4407 165.507 65.2914 166.013 65.2914 166.664V171H63.2914V166.312C63.2914 165.715 63.19 165.277 62.9874 165C62.7954 164.723 62.47 164.584 62.0114 164.584C61.4887 164.584 61.078 164.771 60.7794 165.144C60.4807 165.507 60.3314 166.013 60.3314 166.664V171H58.3314ZM75.0566 171.16C74.4913 171.16 73.9846 171.053 73.5366 170.84C73.0993 170.616 72.7526 170.317 72.4966 169.944C72.2513 169.571 72.1286 169.149 72.1286 168.68C72.1286 168.104 72.278 167.651 72.5766 167.32C72.8753 166.979 73.3606 166.733 74.0326 166.584C74.7046 166.435 75.606 166.36 76.7366 166.36H77.2966V166.024C77.2966 165.491 77.1793 165.107 76.9446 164.872C76.71 164.637 76.3153 164.52 75.7606 164.52C75.3233 164.52 74.8753 164.589 74.4166 164.728C73.958 164.856 73.494 165.059 73.0246 165.336L72.4486 163.976C72.726 163.784 73.0513 163.619 73.4246 163.48C73.8086 163.331 74.2086 163.219 74.6246 163.144C75.0513 163.059 75.4513 163.016 75.8246 163.016C76.966 163.016 77.814 163.283 78.3686 163.816C78.9233 164.339 79.2006 165.155 79.2006 166.264V171H77.3286V169.752C77.1473 170.189 76.8593 170.536 76.4646 170.792C76.07 171.037 75.6006 171.16 75.0566 171.16ZM75.4726 169.784C75.9953 169.784 76.4273 169.603 76.7686 169.24C77.1206 168.877 77.2966 168.419 77.2966 167.864V167.512H76.7526C75.75 167.512 75.0513 167.592 74.6566 167.752C74.2726 167.901 74.0806 168.179 74.0806 168.584C74.0806 168.936 74.2033 169.224 74.4486 169.448C74.694 169.672 75.0353 169.784 75.4726 169.784ZM81.1246 171V169.704L85.1566 164.68H81.1246V163.176H87.3326V164.472L83.3006 169.496H87.5086V171H81.1246ZM92.5205 171.16C91.7098 171.16 91.0058 170.995 90.4085 170.664C89.8112 170.333 89.3472 169.864 89.0165 169.256C88.6858 168.637 88.5205 167.912 88.5205 167.08C88.5205 166.248 88.6858 165.528 89.0165 164.92C89.3472 164.312 89.8112 163.843 90.4085 163.512C91.0058 163.181 91.7098 163.016 92.5205 163.016C93.3312 163.016 94.0352 163.181 94.6325 163.512C95.2298 163.843 95.6938 164.312 96.0245 164.92C96.3552 165.528 96.5205 166.248 96.5205 167.08C96.5205 167.912 96.3552 168.637 96.0245 169.256C95.6938 169.864 95.2298 170.333 94.6325 170.664C94.0352 170.995 93.3312 171.16 92.5205 171.16ZM92.5205 169.64C93.1178 169.64 93.5978 169.427 93.9605 169C94.3232 168.563 94.5045 167.923 94.5045 167.08C94.5045 166.227 94.3232 165.592 93.9605 165.176C93.5978 164.749 93.1178 164.536 92.5205 164.536C91.9232 164.536 91.4432 164.749 91.0805 165.176C90.7178 165.592 90.5365 166.227 90.5365 167.08C90.5365 167.923 90.7178 168.563 91.0805 169C91.4432 169.427 91.9232 169.64 92.5205 169.64ZM98.3213 171V163.176H100.273V164.392C100.54 163.944 100.897 163.603 101.345 163.368C101.804 163.133 102.316 163.016 102.881 163.016C104.727 163.016 105.649 164.088 105.649 166.232V171H103.649V166.328C103.649 165.72 103.532 165.277 103.297 165C103.073 164.723 102.721 164.584 102.241 164.584C101.655 164.584 101.185 164.771 100.833 165.144C100.492 165.507 100.321 165.992 100.321 166.6V171H98.3213ZM115.909 171.16C115.088 171.16 114.373 170.995 113.765 170.664C113.157 170.323 112.688 169.843 112.357 169.224C112.026 168.605 111.861 167.88 111.861 167.048C111.861 166.216 112.026 165.501 112.357 164.904C112.688 164.296 113.157 163.832 113.765 163.512C114.373 163.181 115.088 163.016 115.909 163.016C116.41 163.016 116.906 163.096 117.397 163.256C117.888 163.416 118.293 163.64 118.613 163.928L118.021 165.32C117.744 165.075 117.429 164.888 117.077 164.76C116.736 164.632 116.405 164.568 116.085 164.568C115.392 164.568 114.853 164.787 114.469 165.224C114.096 165.651 113.909 166.264 113.909 167.064C113.909 167.853 114.096 168.477 114.469 168.936C114.853 169.384 115.392 169.608 116.085 169.608C116.394 169.608 116.725 169.544 117.077 169.416C117.429 169.288 117.744 169.096 118.021 168.84L118.613 170.248C118.293 170.525 117.882 170.749 117.381 170.92C116.89 171.08 116.4 171.16 115.909 171.16ZM122.71 171.16C121.782 171.16 121.094 170.909 120.646 170.408C120.209 169.896 119.99 169.149 119.99 168.168V159.72H121.99V168.072C121.99 169.032 122.395 169.512 123.206 169.512C123.323 169.512 123.441 169.507 123.558 169.496C123.675 169.485 123.787 169.464 123.894 169.432L123.862 171.016C123.478 171.112 123.094 171.16 122.71 171.16ZM128.739 171.16C127.929 171.16 127.225 170.995 126.627 170.664C126.03 170.333 125.566 169.864 125.235 169.256C124.905 168.637 124.739 167.912 124.739 167.08C124.739 166.248 124.905 165.528 125.235 164.92C125.566 164.312 126.03 163.843 126.627 163.512C127.225 163.181 127.929 163.016 128.739 163.016C129.55 163.016 130.254 163.181 130.851 163.512C131.449 163.843 131.913 164.312 132.243 164.92C132.574 165.528 132.739 166.248 132.739 167.08C132.739 167.912 132.574 168.637 132.243 169.256C131.913 169.864 131.449 170.333 130.851 170.664C130.254 170.995 129.55 171.16 128.739 171.16ZM128.739 169.64C129.337 169.64 129.817 169.427 130.179 169C130.542 168.563 130.723 167.923 130.723 167.08C130.723 166.227 130.542 165.592 130.179 165.176C129.817 164.749 129.337 164.536 128.739 164.536C128.142 164.536 127.662 164.749 127.299 165.176C126.937 165.592 126.755 166.227 126.755 167.08C126.755 167.923 126.937 168.563 127.299 169C127.662 169.427 128.142 169.64 128.739 169.64ZM137.372 171.16C135.452 171.16 134.492 170.083 134.492 167.928V163.176H136.492V167.96C136.492 168.515 136.604 168.925 136.828 169.192C137.052 169.459 137.409 169.592 137.9 169.592C138.433 169.592 138.871 169.411 139.212 169.048C139.553 168.675 139.724 168.184 139.724 167.576V163.176H141.724V171H139.772V169.832C139.249 170.717 138.449 171.16 137.372 171.16ZM146.964 171.16C146.281 171.16 145.678 170.995 145.156 170.664C144.644 170.333 144.244 169.864 143.956 169.256C143.668 168.637 143.524 167.912 143.524 167.08C143.524 166.237 143.668 165.517 143.956 164.92C144.244 164.312 144.644 163.843 145.156 163.512C145.678 163.181 146.281 163.016 146.964 163.016C147.518 163.016 148.02 163.139 148.468 163.384C148.916 163.629 149.252 163.955 149.476 164.36V159.72H151.476V171H149.524V169.704C149.31 170.152 148.974 170.509 148.516 170.776C148.057 171.032 147.54 171.16 146.964 171.16ZM147.524 169.64C148.121 169.64 148.601 169.427 148.964 169C149.326 168.563 149.508 167.923 149.508 167.08C149.508 166.227 149.326 165.592 148.964 165.176C148.601 164.749 148.121 164.536 147.524 164.536C146.926 164.536 146.446 164.749 146.084 165.176C145.721 165.592 145.54 166.227 145.54 167.08C145.54 167.923 145.721 168.563 146.084 169C146.446 169.427 146.926 169.64 147.524 169.64ZM161.026 171.16C160.365 171.16 159.746 171.08 159.17 170.92C158.594 170.76 158.114 170.531 157.73 170.232L158.242 168.92C158.637 169.187 159.079 169.395 159.57 169.544C160.061 169.683 160.551 169.752 161.042 169.752C161.554 169.752 161.933 169.667 162.178 169.496C162.434 169.315 162.562 169.08 162.562 168.792C162.562 168.344 162.231 168.056 161.57 167.928L159.97 167.624C158.615 167.368 157.938 166.664 157.938 165.512C157.938 165 158.077 164.557 158.354 164.184C158.642 163.811 159.037 163.523 159.538 163.32C160.039 163.117 160.615 163.016 161.266 163.016C161.821 163.016 162.354 163.096 162.866 163.256C163.378 163.405 163.815 163.635 164.178 163.944L163.634 165.256C163.325 165 162.951 164.797 162.514 164.648C162.087 164.499 161.677 164.424 161.282 164.424C160.759 164.424 160.37 164.515 160.114 164.696C159.869 164.877 159.746 165.117 159.746 165.416C159.746 165.885 160.05 166.173 160.658 166.28L162.258 166.584C162.951 166.712 163.474 166.947 163.826 167.288C164.189 167.629 164.37 168.088 164.37 168.664C164.37 169.443 164.066 170.056 163.458 170.504C162.85 170.941 162.039 171.16 161.026 171.16ZM169.98 171.16C169.095 171.16 168.332 170.995 167.692 170.664C167.052 170.333 166.556 169.864 166.204 169.256C165.863 168.648 165.692 167.928 165.692 167.096C165.692 166.285 165.858 165.576 166.188 164.968C166.53 164.36 166.994 163.885 167.58 163.544C168.178 163.192 168.855 163.016 169.612 163.016C170.722 163.016 171.596 163.368 172.236 164.072C172.887 164.776 173.212 165.736 173.212 166.952V167.544H167.612C167.762 168.941 168.562 169.64 170.012 169.64C170.45 169.64 170.887 169.576 171.324 169.448C171.762 169.309 172.162 169.096 172.524 168.808L173.084 170.152C172.711 170.461 172.242 170.707 171.676 170.888C171.111 171.069 170.546 171.16 169.98 171.16ZM169.692 164.376C169.106 164.376 168.631 164.557 168.268 164.92C167.906 165.283 167.687 165.773 167.612 166.392H171.548C171.506 165.741 171.324 165.245 171.004 164.904C170.695 164.552 170.258 164.376 169.692 164.376ZM174.946 171V163.176H176.898V164.552C177.282 163.624 178.104 163.112 179.362 163.016L179.97 162.968L180.098 164.664L178.946 164.776C177.634 164.904 176.978 165.576 176.978 166.792V171H174.946ZM184.15 171L180.758 163.176H182.886L185.062 168.648L187.318 163.176H189.318L185.878 171H184.15ZM190.306 161.496V159.544H192.546V161.496H190.306ZM190.434 171V163.176H192.434V171H190.434ZM198.278 171.16C197.457 171.16 196.742 170.995 196.134 170.664C195.526 170.323 195.057 169.843 194.726 169.224C194.395 168.605 194.23 167.88 194.23 167.048C194.23 166.216 194.395 165.501 194.726 164.904C195.057 164.296 195.526 163.832 196.134 163.512C196.742 163.181 197.457 163.016 198.278 163.016C198.779 163.016 199.275 163.096 199.766 163.256C200.257 163.416 200.662 163.64 200.982 163.928L200.39 165.32C200.113 165.075 199.798 164.888 199.446 164.76C199.105 164.632 198.774 164.568 198.454 164.568C197.761 164.568 197.222 164.787 196.838 165.224C196.465 165.651 196.278 166.264 196.278 167.064C196.278 167.853 196.465 168.477 196.838 168.936C197.222 169.384 197.761 169.608 198.454 169.608C198.763 169.608 199.094 169.544 199.446 169.416C199.798 169.288 200.113 169.096 200.39 168.84L200.982 170.248C200.662 170.525 200.251 170.749 199.75 170.92C199.259 171.08 198.769 171.16 198.278 171.16ZM206.059 171.16C205.173 171.16 204.411 170.995 203.771 170.664C203.131 170.333 202.635 169.864 202.283 169.256C201.941 168.648 201.771 167.928 201.771 167.096C201.771 166.285 201.936 165.576 202.267 164.968C202.608 164.36 203.072 163.885 203.659 163.544C204.256 163.192 204.933 163.016 205.691 163.016C206.8 163.016 207.675 163.368 208.315 164.072C208.965 164.776 209.291 165.736 209.291 166.952V167.544H203.691C203.84 168.941 204.64 169.64 206.091 169.64C206.528 169.64 206.965 169.576 207.403 169.448C207.84 169.309 208.24 169.096 208.603 168.808L209.163 170.152C208.789 170.461 208.32 170.707 207.755 170.888C207.189 171.069 206.624 171.16 206.059 171.16ZM205.771 164.376C205.184 164.376 204.709 164.557 204.347 164.92C203.984 165.283 203.765 165.773 203.691 166.392H207.627C207.584 165.741 207.403 165.245 207.083 164.904C206.773 164.552 206.336 164.376 205.771 164.376ZM213.888 171.16C213.227 171.16 212.608 171.08 212.032 170.92C211.456 170.76 210.976 170.531 210.592 170.232L211.104 168.92C211.499 169.187 211.942 169.395 212.432 169.544C212.923 169.683 213.414 169.752 213.904 169.752C214.416 169.752 214.795 169.667 215.04 169.496C215.296 169.315 215.424 169.08 215.424 168.792C215.424 168.344 215.094 168.056 214.432 167.928L212.832 167.624C211.478 167.368 210.8 166.664 210.8 165.512C210.8 165 210.939 164.557 211.216 164.184C211.504 163.811 211.899 163.523 212.4 163.32C212.902 163.117 213.478 163.016 214.128 163.016C214.683 163.016 215.216 163.096 215.728 163.256C216.24 163.405 216.678 163.635 217.04 163.944L216.496 165.256C216.187 165 215.814 164.797 215.376 164.648C214.95 164.499 214.539 164.424 214.144 164.424C213.622 164.424 213.232 164.515 212.976 164.696C212.731 164.877 212.608 165.117 212.608 165.416C212.608 165.885 212.912 166.173 213.52 166.28L215.12 166.584C215.814 166.712 216.336 166.947 216.688 167.288C217.051 167.629 217.232 168.088 217.232 168.664C217.232 169.443 216.928 170.056 216.32 170.504C215.712 170.941 214.902 171.16 213.888 171.16Z" fill="#384248"/>
<defs>
<filter id="filter0_dd" x="0" y="0" width="263" height="245" filterUnits="userSpaceOnUse" color-interpolation-filters="sRGB">
<feFlood flood-opacity="0" result="BackgroundImageFix"/>
<feColorMatrix in="SourceAlpha" type="matrix" values="0 0 0 0 0 0 0 0 0 0 0 0 0 0 0 0 0 0 127 0"/>
<feOffset/>
<feGaussianBlur stdDeviation="0.5"/>
<feColorMatrix type="matrix" values="0 0 0 0 0 0 0 0 0 0 0 0 0 0 0 0 0 0 0.5 0"/>
<feBlend mode="normal" in2="BackgroundImageFix" result="effect1_dropShadow"/>
<feColorMatrix in="SourceAlpha" type="matrix" values="0 0 0 0 0 0 0 0 0 0 0 0 0 0 0 0 0 0 127 0"/>
<feOffset dy="1"/>
<feGaussianBlur stdDeviation="2"/>
<feColorMatrix type="matrix" values="0 0 0 0 0.247059 0 0 0 0 0.247059 0 0 0 0 0.266667 0 0 0 0.15 0"/>
<feBlend mode="normal" in2="effect1_dropShadow" result="effect2_dropShadow"/>
<feBlend mode="normal" in="SourceGraphic" in2="effect2_dropShadow" result="shape"/>
</filter>
<clipPath id="clip0">
<rect width="72" height="72" fill="white" transform="translate(95 67)"/>
</clipPath>
</defs>
</svg>
