<svg width="255" height="206" viewBox="0 0 255 206" fill="none" xmlns="http://www.w3.org/2000/svg">
<path d="M82.9905 159.96C83.3585 159.96 83.6545 160.08 83.8785 160.32C84.1025 160.544 84.2145 160.84 84.2145 161.208V175.872C84.2145 176.24 84.1025 176.544 83.8785 176.784C83.6545 177.008 83.3585 177.12 82.9905 177.12C82.6225 177.12 82.3265 177.008 82.1025 176.784C81.8785 176.56 81.7665 176.256 81.7665 175.872V169.416H72.3105V175.872C72.3105 176.24 72.1985 176.544 71.9745 176.784C71.7505 177.008 71.4545 177.12 71.0865 177.12C70.7185 177.12 70.4225 177.008 70.1985 176.784C69.9745 176.56 69.8625 176.256 69.8625 175.872V161.208C69.8625 160.84 69.9745 160.544 70.1985 160.32C70.4225 160.08 70.7185 159.96 71.0865 159.96C71.4545 159.96 71.7505 160.08 71.9745 160.32C72.1985 160.544 72.3105 160.84 72.3105 161.208V167.4H81.7665V161.208C81.7665 160.84 81.8785 160.544 82.1025 160.32C82.3265 160.08 82.6225 159.96 82.9905 159.96ZM97.2738 174.048C97.4978 174.048 97.6818 174.136 97.8258 174.312C97.9698 174.488 98.0418 174.712 98.0418 174.984C98.0418 175.448 97.7538 175.84 97.1778 176.16C96.6178 176.48 96.0018 176.728 95.3298 176.904C94.6738 177.08 94.0418 177.168 93.4338 177.168C91.5778 177.168 90.1138 176.632 89.0418 175.56C87.9698 174.472 87.4338 172.992 87.4338 171.12C87.4338 169.92 87.6658 168.856 88.1298 167.928C88.6098 167 89.2738 166.28 90.1218 165.768C90.9858 165.256 91.9618 165 93.0498 165C94.6178 165 95.8578 165.504 96.7698 166.512C97.6818 167.52 98.1378 168.88 98.1378 170.592C98.1378 171.232 97.8498 171.552 97.2738 171.552H89.8578C90.0178 174.032 91.2098 175.272 93.4338 175.272C94.0258 175.272 94.5378 175.192 94.9698 175.032C95.4018 174.872 95.8578 174.664 96.3378 174.408C96.3858 174.376 96.5138 174.312 96.7218 174.216C96.9458 174.104 97.1298 174.048 97.2738 174.048ZM93.0978 166.776C92.1698 166.776 91.4258 167.072 90.8658 167.664C90.3058 168.256 89.9698 169.088 89.8578 170.16H96.0498C96.0018 169.072 95.7218 168.24 95.2098 167.664C94.7138 167.072 94.0098 166.776 93.0978 166.776ZM105.979 165C107.531 165 108.683 165.392 109.435 166.176C110.203 166.96 110.587 168.152 110.587 169.752V175.968C110.587 176.336 110.483 176.624 110.275 176.832C110.067 177.024 109.779 177.12 109.411 177.12C109.059 177.12 108.779 177.016 108.571 176.808C108.363 176.6 108.259 176.32 108.259 175.968V175.08C107.955 175.752 107.499 176.272 106.891 176.64C106.299 176.992 105.603 177.168 104.803 177.168C104.035 177.168 103.331 177.016 102.691 176.712C102.067 176.392 101.571 175.96 101.203 175.416C100.835 174.872 100.651 174.256 100.651 173.568C100.635 172.704 100.851 172.032 101.299 171.552C101.747 171.056 102.475 170.704 103.483 170.496C104.491 170.272 105.891 170.16 107.683 170.16H108.235V169.464C108.235 168.568 108.051 167.92 107.683 167.52C107.315 167.12 106.723 166.92 105.907 166.92C105.347 166.92 104.819 166.992 104.323 167.136C103.827 167.28 103.283 167.488 102.691 167.76C102.259 168 101.955 168.12 101.779 168.12C101.539 168.12 101.339 168.032 101.179 167.856C101.035 167.68 100.963 167.456 100.963 167.184C100.963 166.944 101.027 166.736 101.155 166.56C101.299 166.368 101.523 166.184 101.827 166.008C102.387 165.704 103.043 165.464 103.795 165.288C104.547 165.096 105.275 165 105.979 165ZM105.235 175.368C106.115 175.368 106.835 175.072 107.395 174.48C107.955 173.872 108.235 173.096 108.235 172.152V171.528H107.803C106.555 171.528 105.595 171.584 104.923 171.696C104.251 171.808 103.771 172 103.483 172.272C103.195 172.528 103.051 172.904 103.051 173.4C103.051 173.976 103.259 174.448 103.675 174.816C104.091 175.184 104.611 175.368 105.235 175.368ZM115.377 177.12C115.025 177.12 114.729 177.024 114.489 176.832C114.265 176.64 114.153 176.352 114.153 175.968V161.136C114.153 160.752 114.265 160.464 114.489 160.272C114.729 160.064 115.025 159.96 115.377 159.96C115.729 159.96 116.017 160.064 116.241 160.272C116.465 160.464 116.577 160.752 116.577 161.136V175.968C116.577 176.352 116.465 176.64 116.241 176.832C116.017 177.024 115.729 177.12 115.377 177.12ZM126.279 175.272C126.631 175.304 126.879 175.4 127.023 175.56C127.183 175.704 127.263 175.912 127.263 176.184C127.263 176.504 127.135 176.752 126.879 176.928C126.639 177.088 126.279 177.152 125.799 177.12L125.151 177.072C123.855 176.976 122.887 176.584 122.247 175.896C121.607 175.192 121.287 174.16 121.287 172.8V167.16H119.847C119.143 167.16 118.791 166.848 118.791 166.224C118.791 165.936 118.879 165.712 119.055 165.552C119.247 165.376 119.511 165.288 119.847 165.288H121.287V162.816C121.287 162.448 121.391 162.16 121.599 161.952C121.823 161.744 122.119 161.64 122.487 161.64C122.855 161.64 123.151 161.744 123.375 161.952C123.599 162.16 123.711 162.448 123.711 162.816V165.288H126.087C126.423 165.288 126.679 165.376 126.855 165.552C127.047 165.712 127.143 165.936 127.143 166.224C127.143 166.528 127.047 166.76 126.855 166.92C126.679 167.08 126.423 167.16 126.087 167.16H123.711V172.968C123.711 173.72 123.863 174.272 124.167 174.624C124.487 174.976 124.967 175.176 125.607 175.224L126.279 175.272ZM135.59 165C138.374 165 139.766 166.576 139.766 169.728V175.968C139.766 176.32 139.654 176.6 139.43 176.808C139.206 177.016 138.91 177.12 138.542 177.12C138.174 177.12 137.878 177.016 137.654 176.808C137.446 176.6 137.342 176.32 137.342 175.968V169.752C137.342 168.792 137.142 168.088 136.742 167.64C136.358 167.192 135.75 166.968 134.918 166.968C133.942 166.968 133.158 167.272 132.566 167.88C131.974 168.488 131.678 169.304 131.678 170.328V175.968C131.678 176.32 131.566 176.6 131.342 176.808C131.134 177.016 130.846 177.12 130.478 177.12C130.11 177.12 129.814 177.016 129.59 176.808C129.366 176.6 129.254 176.32 129.254 175.968V161.112C129.254 160.76 129.366 160.48 129.59 160.272C129.83 160.064 130.134 159.96 130.502 159.96C130.854 159.96 131.134 160.064 131.342 160.272C131.566 160.464 131.678 160.728 131.678 161.064V167.064C132.078 166.392 132.614 165.88 133.286 165.528C133.958 165.176 134.726 165 135.59 165ZM148.348 177.168C147.212 177.168 146.212 176.92 145.348 176.424C144.5 175.928 143.836 175.224 143.356 174.312C142.892 173.4 142.66 172.344 142.66 171.144C142.66 169.928 142.9 168.856 143.38 167.928C143.876 167 144.564 166.28 145.444 165.768C146.324 165.256 147.332 165 148.468 165C149.076 165 149.684 165.088 150.292 165.264C150.916 165.44 151.468 165.68 151.948 165.984C152.46 166.336 152.716 166.744 152.716 167.208C152.716 167.48 152.644 167.712 152.5 167.904C152.356 168.08 152.172 168.168 151.948 168.168C151.804 168.168 151.66 168.136 151.516 168.072C151.372 167.992 151.188 167.88 150.964 167.736C150.564 167.48 150.188 167.288 149.836 167.16C149.5 167.016 149.092 166.944 148.612 166.944C147.524 166.944 146.676 167.312 146.068 168.048C145.476 168.784 145.18 169.808 145.18 171.12C145.18 172.432 145.476 173.448 146.068 174.168C146.66 174.872 147.5 175.224 148.588 175.224C149.068 175.224 149.492 175.152 149.86 175.008C150.228 174.864 150.604 174.672 150.988 174.432C151.164 174.32 151.34 174.224 151.516 174.144C151.692 174.064 151.852 174.024 151.996 174.024C152.22 174.024 152.404 174.12 152.548 174.312C152.692 174.488 152.764 174.712 152.764 174.984C152.764 175.208 152.7 175.416 152.572 175.608C152.46 175.784 152.26 175.968 151.972 176.16C151.492 176.48 150.932 176.728 150.292 176.904C149.652 177.08 149.004 177.168 148.348 177.168ZM160.104 165C161.656 165 162.808 165.392 163.56 166.176C164.328 166.96 164.712 168.152 164.712 169.752V175.968C164.712 176.336 164.608 176.624 164.4 176.832C164.192 177.024 163.904 177.12 163.536 177.12C163.184 177.12 162.904 177.016 162.696 176.808C162.488 176.6 162.384 176.32 162.384 175.968V175.08C162.08 175.752 161.624 176.272 161.016 176.64C160.424 176.992 159.728 177.168 158.928 177.168C158.16 177.168 157.456 177.016 156.816 176.712C156.192 176.392 155.696 175.96 155.328 175.416C154.96 174.872 154.776 174.256 154.776 173.568C154.76 172.704 154.976 172.032 155.424 171.552C155.872 171.056 156.6 170.704 157.608 170.496C158.616 170.272 160.016 170.16 161.808 170.16H162.36V169.464C162.36 168.568 162.176 167.92 161.808 167.52C161.44 167.12 160.848 166.92 160.032 166.92C159.472 166.92 158.944 166.992 158.448 167.136C157.952 167.28 157.408 167.488 156.816 167.76C156.384 168 156.08 168.12 155.904 168.12C155.664 168.12 155.464 168.032 155.304 167.856C155.16 167.68 155.088 167.456 155.088 167.184C155.088 166.944 155.152 166.736 155.28 166.56C155.424 166.368 155.648 166.184 155.952 166.008C156.512 165.704 157.168 165.464 157.92 165.288C158.672 165.096 159.4 165 160.104 165ZM159.36 175.368C160.24 175.368 160.96 175.072 161.52 174.48C162.08 173.872 162.36 173.096 162.36 172.152V171.528H161.928C160.68 171.528 159.72 171.584 159.048 171.696C158.376 171.808 157.896 172 157.608 172.272C157.32 172.528 157.176 172.904 157.176 173.4C157.176 173.976 157.384 174.448 157.8 174.816C158.216 175.184 158.736 175.368 159.36 175.368ZM174.422 165.048C175.19 165 175.574 165.328 175.574 166.032C175.574 166.384 175.486 166.648 175.31 166.824C175.134 167 174.83 167.104 174.398 167.136L173.678 167.208C172.67 167.304 171.918 167.656 171.422 168.264C170.942 168.872 170.702 169.608 170.702 170.472V175.968C170.702 176.352 170.59 176.64 170.366 176.832C170.142 177.024 169.854 177.12 169.502 177.12C169.15 177.12 168.854 177.024 168.614 176.832C168.39 176.64 168.278 176.352 168.278 175.968V166.2C168.278 165.832 168.39 165.552 168.614 165.36C168.854 165.152 169.15 165.048 169.502 165.048C169.822 165.048 170.086 165.152 170.294 165.36C170.518 165.552 170.63 165.824 170.63 166.176V167.328C170.95 166.624 171.414 166.088 172.022 165.72C172.63 165.352 173.318 165.136 174.086 165.072L174.422 165.048ZM186.25 174.048C186.474 174.048 186.658 174.136 186.802 174.312C186.946 174.488 187.018 174.712 187.018 174.984C187.018 175.448 186.73 175.84 186.154 176.16C185.594 176.48 184.978 176.728 184.306 176.904C183.65 177.08 183.018 177.168 182.41 177.168C180.554 177.168 179.09 176.632 178.018 175.56C176.946 174.472 176.41 172.992 176.41 171.12C176.41 169.92 176.642 168.856 177.106 167.928C177.586 167 178.25 166.28 179.098 165.768C179.962 165.256 180.938 165 182.026 165C183.594 165 184.834 165.504 185.746 166.512C186.658 167.52 187.114 168.88 187.114 170.592C187.114 171.232 186.826 171.552 186.25 171.552H178.834C178.994 174.032 180.186 175.272 182.41 175.272C183.002 175.272 183.514 175.192 183.946 175.032C184.378 174.872 184.834 174.664 185.314 174.408C185.362 174.376 185.49 174.312 185.698 174.216C185.922 174.104 186.106 174.048 186.25 174.048ZM182.074 166.776C181.146 166.776 180.402 167.072 179.842 167.664C179.282 168.256 178.946 169.088 178.834 170.16H185.026C184.978 169.072 184.698 168.24 184.186 167.664C183.69 167.072 182.986 166.776 182.074 166.776Z" fill="#384248"/>
<rect x="78" y="32" width="100" height="100" rx="4" fill="#F5F6F8"/>
<g clip-path="url(#clip0)">
<path d="M151.825 104.6H155.43C155.922 104.6 156.316 104.994 156.316 105.486V109.082C156.316 109.575 155.922 109.969 155.43 109.969H98.0877C97.5951 109.969 97.201 109.575 97.201 109.082V105.486C97.201 104.994 97.5951 104.6 98.0877 104.6H101.692C102.185 104.6 102.579 104.205 102.579 103.713V58.9247C102.579 58.2104 102.858 57.5289 103.367 57.0281C103.868 56.519 104.549 56.2399 105.264 56.2399H148.254C148.968 56.2399 149.649 56.519 150.15 57.0281C150.651 57.5289 150.939 58.2186 150.939 58.9247V103.721C150.939 104.205 151.341 104.6 151.825 104.6ZM123.253 72.357H119.517C119.065 72.357 118.696 72.7265 118.696 73.1781V76.9138C118.696 77.3654 119.065 77.7349 119.517 77.7349H123.253C123.704 77.7349 124.074 78.1043 124.074 78.5559V82.2917C124.074 82.7433 124.443 83.1127 124.895 83.1127H128.631C129.082 83.1127 129.452 82.7433 129.452 82.2917V78.5559C129.452 78.1043 129.821 77.7349 130.273 77.7349H134.009C134.46 77.7349 134.83 77.3654 134.83 76.9138V73.1781C134.83 72.7265 134.46 72.357 134.009 72.357H130.273C129.821 72.357 129.452 71.9875 129.452 71.536V67.8002C129.452 67.3486 129.082 66.9792 128.631 66.9792H124.895C124.443 66.9792 124.074 67.3486 124.074 67.8002V71.536C124.074 71.9958 123.704 72.357 123.253 72.357ZM132.949 104.6H136.685C137.137 104.6 137.506 104.23 137.506 103.778V89.2952C137.506 88.8436 137.137 88.4742 136.685 88.4742H116.824C116.372 88.4742 116.003 88.8436 116.003 89.2952V103.787C116.003 104.238 116.372 104.608 116.824 104.608H120.56C121.011 104.608 121.381 104.238 121.381 103.787V94.6731C121.381 94.2215 121.75 93.852 122.202 93.852H131.316C131.767 93.852 132.137 94.2215 132.137 94.6731V103.787C132.128 104.238 132.498 104.6 132.949 104.6Z" fill="white"/>
<path fill-rule="evenodd" clip-rule="evenodd" d="M120.921 96.5452C120.979 97.8999 120.987 99.2464 120.962 100.601L120.913 102.621L120.88 103.631C120.872 103.844 120.864 103.836 120.831 103.902L120.699 104.017L120.626 104.033L120.494 104.025L119.993 104L118.992 103.959C118.327 103.926 117.653 103.902 116.988 103.877C116.75 103.869 116.841 103.861 116.8 103.852L116.783 103.811V103.795V103.787V103.729L116.8 103.229C116.808 102.563 116.816 101.907 116.824 101.25C116.816 97.2184 116.816 93.2199 116.808 89.2789C120.782 89.2543 124.714 89.2297 128.598 89.205C130.634 89.1968 132.662 89.1886 134.674 89.1804H136.176C136.866 89.1722 136.726 89.1804 136.792 89.2543L136.8 89.2789V89.2953V89.3774V89.7551V90.5023V91.9966C136.792 95.9622 136.767 99.8786 136.702 103.738C136.702 103.844 136.693 103.77 136.693 103.795H136.685L136.677 103.787H136.546C136.365 103.787 136.184 103.779 135.996 103.779C135.257 103.77 134.518 103.762 133.951 103.779C131.587 103.828 133.976 104.739 135.109 104.871L136.447 105.01C136.57 105.018 136.636 105.043 136.833 105.035C137.005 105.027 137.178 104.977 137.334 104.895C137.646 104.739 137.9 104.435 137.999 104.074C138.024 103.984 138.04 103.894 138.04 103.803L138.056 103.631L138.081 103.294L138.13 102.613L138.212 101.25C138.311 99.4271 138.36 97.5961 138.377 95.7898C138.393 93.9835 138.377 92.2101 138.336 90.4859L138.319 89.8454L138.311 89.5252C138.303 89.4021 138.311 89.3692 138.295 89.1147C138.245 88.7042 138.024 88.3183 137.703 88.072C137.547 87.9488 137.359 87.8503 137.17 87.801C137.071 87.7764 136.973 87.7518 136.874 87.7436C136.767 87.7354 136.669 87.7354 136.636 87.7354C135.807 87.7682 135.002 87.801 134.222 87.8257C128.458 88.072 122.711 88.1212 116.988 88.0884H116.857L116.66 88.1048C116.529 88.1212 116.397 88.1623 116.282 88.228C116.044 88.3511 115.855 88.5482 115.74 88.7945C115.617 89.0326 115.625 89.3446 115.625 89.4842L115.617 90.0179L115.593 92.1608C115.576 93.5894 115.552 95.018 115.535 96.4467C115.51 97.8753 115.486 99.2957 115.469 100.724L115.437 102.859L115.428 103.393V103.655V103.787C115.428 103.861 115.437 103.943 115.445 104.017C115.527 104.641 116.069 105.158 116.701 105.215L118.893 105.256L119.952 105.273L120.486 105.281C120.543 105.281 120.724 105.289 120.888 105.256C121.044 105.224 121.2 105.166 121.34 105.084C121.627 104.928 121.849 104.665 121.98 104.37C122.046 104.222 122.079 104.058 122.095 103.894C122.103 103.705 122.103 103.688 122.103 103.582L122.112 102.522L122.128 100.404C122.128 98.9919 122.136 97.5797 122.136 96.1757L122.128 95.1166V94.665L122.153 94.6075L122.21 94.5747H122.227H122.35H122.613L123.663 94.5582C125.067 94.5254 126.463 94.5008 127.867 94.4761L129.961 94.4105L131.004 94.3694C131.439 94.353 131.463 94.3366 131.611 94.4515C131.669 94.509 131.71 94.5747 131.718 94.6568L131.743 95.1576L131.792 96.2003L131.915 98.2858C132.005 99.6734 132.104 101.061 132.219 102.44C132.235 102.637 132.268 102.982 132.301 103.368C132.326 103.541 132.334 103.795 132.375 103.91C132.424 104.041 132.523 104.148 132.621 104.189C132.826 104.288 132.966 104.189 132.966 104.132C132.982 104.066 132.876 103.992 132.884 103.869C132.884 103.77 132.925 103.935 132.949 103.483C132.974 103.155 132.991 102.81 132.999 102.449C133.023 101.734 133.023 100.962 133.015 100.24C132.999 98.7866 132.933 97.4812 132.917 97.0214C132.9 96.381 132.884 95.7406 132.867 95.0919L132.859 94.8538C132.859 94.7553 132.859 94.7307 132.851 94.55C132.818 94.2545 132.703 93.9589 132.506 93.729C132.309 93.4991 132.055 93.3267 131.767 93.2446C131.628 93.2035 131.472 93.1871 131.332 93.1871H131.086C129.78 93.2035 128.467 93.2117 127.136 93.2282C125.806 93.2446 124.468 93.261 123.13 93.2774L122.621 93.2856L122.366 93.2938C122.292 93.2938 122.202 93.2938 122.038 93.3103C121.463 93.3842 120.987 93.8522 120.888 94.4105C120.847 94.7389 120.88 94.8374 120.88 95.0262L120.897 95.5353L120.921 96.5452ZM121.159 94.5911C121.102 94.6568 120.995 94.4269 121.077 94.1313C121.143 93.8357 121.43 93.573 121.553 93.5976C121.652 93.614 121.471 93.8029 121.365 94.0328C121.25 94.2545 121.233 94.509 121.159 94.5911Z" fill="black"/>
<path fill-rule="evenodd" clip-rule="evenodd" d="M129.066 71.9959C129.197 72.3079 129.46 72.5625 129.764 72.6856C129.92 72.7513 130.084 72.7759 130.248 72.7759L130.576 72.7677C131.012 72.7595 131.447 72.7677 131.874 72.7759L133.171 72.8252L133.82 72.858L133.984 72.8662L134.049 72.8827L134.14 72.9401L134.214 73.1208L134.205 73.1618L134.197 73.3178L134.173 73.638C134.148 74.065 134.115 74.5001 134.091 74.9271C134.066 75.354 134.049 75.781 134.025 76.2079L134.008 76.8401V76.9058H134C132.875 76.9058 131.751 76.9058 130.634 76.9058H130.379H130.24C130.158 76.9058 130.076 76.914 129.985 76.9304C129.649 76.9879 129.337 77.1521 129.099 77.3902C128.86 77.6283 128.696 77.9403 128.647 78.2769C128.631 78.3591 128.631 78.4412 128.622 78.5233V78.6546V78.9092C128.631 79.5824 128.631 80.2557 128.639 80.9207L128.647 81.9224V82.2837L128.639 82.3001L128.622 82.3165H128.614H128.507H128.261L127.268 82.3247C126.603 82.3329 125.946 82.3329 125.289 82.3411H124.87L124.829 82.3247L124.796 82.2837L124.788 82.2344V81.9881C124.78 81.3312 124.78 80.6826 124.772 80.034L124.763 79.0652V78.5807C124.772 78.3755 124.706 77.9978 124.55 77.7597C124.394 77.497 124.172 77.2917 123.901 77.1603C123.77 77.0946 123.622 77.0536 123.474 77.029C123.4 77.0125 123.327 77.0125 123.253 77.0125H123.13H122.169C121.529 77.0125 120.888 77.0125 120.256 77.0125H119.78H119.542L119.484 77.0043L119.41 76.914C119.418 76.3146 119.418 75.7235 119.427 75.1323C119.435 74.5083 119.443 73.8761 119.459 73.2521V73.1536V73.1454L119.468 73.1372L119.492 73.1208L119.533 73.129L120.001 73.1372C120.716 73.1536 121.882 73.1947 122.612 73.17C124.131 73.1208 122.596 72.2094 121.873 72.078C121.307 71.9795 120.732 71.8892 120.149 71.8153L119.714 71.766C119.632 71.7578 119.583 71.7496 119.476 71.7414C119.353 71.7332 119.221 71.7496 119.098 71.7825C118.597 71.8974 118.162 72.3161 118.031 72.858C117.998 72.973 117.99 73.17 117.982 73.2193L117.965 73.441L117.932 73.8761L117.883 74.7547C117.858 75.3376 117.842 75.9205 117.834 76.5035V76.9715C117.842 77.2671 117.932 77.5626 118.097 77.8089C118.392 78.3098 119.049 78.6136 119.55 78.5807C120.116 78.5643 120.675 78.5561 121.233 78.5397C121.783 78.515 122.325 78.4904 122.859 78.4658L123.253 78.4412L123.31 78.4329L123.417 78.5068C123.425 78.4904 123.433 78.63 123.442 78.7449L123.466 79.0898L123.507 79.7795L123.573 81.167L123.598 81.8567L123.606 82.2015C123.606 82.3083 123.63 82.5464 123.696 82.6942C123.827 83.0308 124.098 83.3018 124.435 83.4249C124.591 83.4906 124.796 83.507 124.936 83.507L125.281 83.4988L128.048 83.466C128.302 83.4578 128.458 83.4742 128.787 83.4578C129.123 83.4167 129.435 83.2279 129.632 82.9487C129.731 82.8091 129.796 82.6531 129.829 82.4807C129.862 82.2919 129.846 82.1769 129.854 82.0702L129.862 81.3805L129.903 78.63C129.887 78.3016 130.084 78.1784 130.289 78.1702L131.66 78.2031L133.031 78.2359L133.713 78.2523L134.074 78.2605C134.263 78.2605 134.452 78.2113 134.632 78.1292C134.977 77.9649 135.256 77.6529 135.371 77.2835C135.478 76.8319 135.421 76.6841 135.445 76.446L135.478 75.0749L135.511 73.7119L135.519 73.3671C135.519 73.2521 135.536 73.1618 135.511 72.9237C135.453 72.5132 135.215 72.1355 134.862 71.9056C134.69 71.7907 134.493 71.7086 134.288 71.6757C134.041 71.6429 133.943 71.6593 133.836 71.6511L133.155 71.6429L131.792 71.6265L130.437 71.6183H130.297H130.281L130.248 71.6018L130.215 71.5362L130.182 68.8842L130.166 68.2109L130.158 67.8743V67.784L130.15 67.6362C130.133 67.5377 130.117 67.4391 130.084 67.3406C129.952 66.9547 129.657 66.6427 129.296 66.4785C129.115 66.3964 128.91 66.3553 128.721 66.3553L128.368 66.3718C127.473 66.4128 126.578 66.4621 125.683 66.5196L125.01 66.5688C124.739 66.5688 124.361 66.7002 124.156 66.9301C123.934 67.16 123.811 67.4802 123.836 67.784L123.901 68.4572C123.992 69.344 124.09 70.2389 124.205 71.1256C124.213 71.2652 124.271 71.4458 124.263 71.7496C124.238 72.0452 124.049 72.3572 123.811 72.5296C123.581 72.7102 123.343 72.7595 123.318 72.8334C123.286 72.8745 123.507 73.0633 124.107 72.8334C124.402 72.702 124.698 72.4311 124.846 72.0452C124.887 71.9467 124.911 71.8481 124.928 71.7414C124.944 71.6347 124.952 71.5115 124.952 71.4787C124.96 71.3719 124.969 71.257 124.977 71.142C125.002 70.6823 125.002 70.1896 124.993 69.7216C124.985 69.2536 124.96 68.8103 124.944 68.449C124.936 68.2684 124.928 68.1042 124.919 67.9728L124.911 67.8004L124.903 67.7922V67.7347L124.928 67.7101C124.952 67.7019 124.911 67.7019 125.051 67.6937C125.461 67.6854 125.88 67.669 126.299 67.6608C127.095 67.6526 127.908 67.6362 128.721 67.628L128.844 67.6937L128.877 67.7593L128.885 67.8004V67.9482C128.893 68.3751 128.91 68.8103 128.918 69.2372C128.934 69.6724 128.951 70.0993 128.967 70.5345L129 71.1831L129.016 71.5115C128.959 71.6511 128.992 71.8482 129.066 71.9959ZM129.214 70.6002C129.099 70.6658 128.86 70.1814 129 70.0993C129.115 70.0336 129.353 70.5181 129.214 70.6002Z" fill="black"/>
<path fill-rule="evenodd" clip-rule="evenodd" d="M142.285 55.7716C135.922 55.8866 129.55 55.7963 123.22 55.6813C120.059 55.6238 116.906 55.5664 113.77 55.5089C112.202 55.4843 110.642 55.4678 109.082 55.4432C108.302 55.435 107.522 55.4268 106.75 55.4268L105.592 55.4186H105.305C105.206 55.4186 105.058 55.4186 104.935 55.435C104.681 55.4596 104.434 55.5089 104.196 55.5828C103.416 55.8291 102.727 56.3628 102.292 57.0525C102.078 57.3973 101.914 57.7832 101.832 58.1855C101.791 58.3826 101.766 58.5878 101.758 58.7931V59.2939C101.758 60.5419 101.758 61.7899 101.758 63.0379C101.758 65.5339 101.758 68.0216 101.758 70.5012C101.766 75.4685 101.774 80.403 101.782 85.3129C101.791 90.2227 101.807 95.108 101.815 99.9604C101.815 101.176 101.824 102.382 101.824 103.598V103.737L101.815 103.77L101.774 103.827C101.709 103.852 101.807 103.852 101.388 103.852H99.5739H98.6707H98.2191C98.1288 103.844 97.7512 103.852 97.513 103.959C96.9876 104.148 96.5935 104.624 96.4867 105.166C96.4703 105.289 96.4621 105.494 96.4621 105.543V105.765V106.217V108.023V108.926C96.4621 109.025 96.4539 109.337 96.5442 109.599C96.6345 109.862 96.7823 110.1 96.9794 110.281C97.1764 110.47 97.4227 110.601 97.6937 110.667C97.825 110.7 97.9728 110.716 98.0878 110.716H98.3095H99.2044H100.994C102.193 110.716 103.384 110.716 104.574 110.708C106.955 110.708 109.328 110.7 111.701 110.7C116.438 110.7 121.143 110.7 125.815 110.7C135.158 110.732 144.37 110.765 153.451 110.798C153.779 110.798 154.132 110.806 154.502 110.806C154.691 110.806 154.88 110.806 155.077 110.815H155.372C155.487 110.815 155.733 110.798 155.906 110.741C156.284 110.626 156.62 110.379 156.842 110.051C156.957 109.887 157.039 109.698 157.08 109.493C157.129 109.296 157.129 109.058 157.129 108.992C157.129 108.565 157.137 108.13 157.137 107.703C157.137 107.268 157.137 106.833 157.146 106.406C157.146 106.192 157.146 105.979 157.146 105.765V105.609L157.137 105.404C157.121 105.199 157.08 105.002 156.998 104.821C156.842 104.451 156.555 104.156 156.21 103.983C156.037 103.893 155.848 103.836 155.668 103.811C155.577 103.795 155.463 103.795 155.405 103.795H155.265C154.888 103.795 154.527 103.795 154.19 103.803C151.415 103.827 151.423 104.074 152.466 104.32C152.983 104.443 153.763 104.575 154.576 104.681L155.192 104.755C155.405 104.78 155.577 104.796 155.709 104.887C155.988 105.067 156.078 105.338 156.045 105.626C155.996 106.668 155.955 107.719 155.906 108.77L155.889 109.148L155.824 109.345C155.75 109.46 155.627 109.534 155.504 109.55L154.001 109.501C151.875 109.443 149.732 109.378 147.589 109.32C143.303 109.222 138.992 109.172 134.739 109.156C126.241 109.123 117.99 109.23 110.609 109.361C107.218 109.411 103.827 109.46 100.444 109.509L99.1716 109.526L98.5394 109.534H98.2191H98.0714L97.9975 109.526C97.8086 109.484 97.6444 109.337 97.6608 109.074L97.6526 107.801L97.6444 106.529L97.6362 105.897V105.576C97.6362 105.47 97.6362 105.453 97.6526 105.387C97.6855 105.289 97.7512 105.19 97.8415 105.133L97.9893 105.067C98.0385 105.059 98.096 105.059 98.2191 105.059L99.4836 105.051L100.748 105.043H101.38H101.709C101.865 105.043 102.021 105.01 102.16 104.944C102.448 104.829 102.686 104.607 102.825 104.328C102.981 104.057 102.973 103.688 102.965 103.524L102.957 102.259L102.948 97.1934C102.948 93.8189 102.948 90.4444 102.957 87.0699C102.998 80.3045 103.03 73.5719 103.063 66.8558L103.096 61.8227L103.113 59.3103C103.113 58.8506 103.113 58.5714 103.236 58.243C103.342 57.9228 103.523 57.6354 103.761 57.4055C103.999 57.1756 104.295 57.0032 104.607 56.9047C104.935 56.7979 105.223 56.8061 105.674 56.8061L108.187 56.8226L113.203 56.8554C119.887 56.8883 126.553 56.9211 133.204 56.9539C136.529 56.9539 139.846 56.9539 143.163 56.9621L148.131 56.9539C148.804 56.9211 149.37 57.1838 149.781 57.66C149.978 57.8899 150.118 58.1691 150.191 58.4729C150.224 58.6207 150.249 58.7767 150.249 58.9244V59.5402C150.331 72.7509 150.544 85.8794 151.004 98.9012C151.037 99.8126 151.119 102.202 151.234 103.729C151.267 103.992 151.464 104.139 151.595 104.172C151.735 104.205 151.817 104.156 151.825 104.131L151.719 104L151.628 103.86L151.62 103.77L151.628 103.704C151.636 103.63 151.636 103.557 151.645 103.483C151.957 98.4004 151.735 88.3508 151.71 86.1504C151.628 80.1403 151.612 73.9824 151.587 67.7343C151.579 66.1743 151.571 64.6061 151.563 63.0297L151.546 60.6651L151.538 59.4828L151.53 58.867C151.521 58.6289 151.489 58.3826 151.431 58.1527C151.201 57.2167 150.528 56.4038 149.658 55.9933C149.223 55.7881 148.746 55.6813 148.262 55.6895L147.063 55.7059C145.479 55.7224 143.878 55.747 142.285 55.7716ZM146.842 56.0015C146.727 55.944 147.104 55.8537 147.556 55.7963C147.778 55.7716 148.024 55.747 148.229 55.747C148.459 55.7388 148.664 55.7798 148.738 55.8291C148.878 55.903 148.385 55.9194 147.958 55.9933C147.507 56.0508 146.989 56.0754 146.842 56.0015Z" fill="black"/>
</g>
<defs>
<clipPath id="clip0">
<rect width="61.5385" height="61.5385" fill="white" transform="translate(96.4619 52)"/>
</clipPath>
</defs>
</svg>
