<svg width="255" height="206" viewBox="0 0 255 206" fill="none" xmlns="http://www.w3.org/2000/svg">
<path d="M77.11 177.12C76.742 177.12 76.446 177.008 76.222 176.784C75.998 176.56 75.886 176.256 75.886 175.872V161.208C75.886 160.84 75.998 160.544 76.222 160.32C76.446 160.08 76.742 159.96 77.11 159.96C77.494 159.96 77.798 160.072 78.022 160.296C78.246 160.52 78.358 160.824 78.358 161.208V175.872C78.358 176.256 78.246 176.56 78.022 176.784C77.814 177.008 77.51 177.12 77.11 177.12ZM88.5584 165C91.3584 165 92.7584 166.576 92.7584 169.728V175.968C92.7584 176.336 92.6464 176.624 92.4224 176.832C92.2144 177.024 91.9184 177.12 91.5344 177.12C91.1664 177.12 90.8704 177.016 90.6464 176.808C90.4384 176.6 90.3344 176.32 90.3344 175.968V169.848C90.3344 168.856 90.1344 168.128 89.7344 167.664C89.3504 167.2 88.7424 166.968 87.9104 166.968C86.9344 166.968 86.1504 167.272 85.5584 167.88C84.9664 168.488 84.6704 169.304 84.6704 170.328V175.968C84.6704 176.32 84.5584 176.6 84.3344 176.808C84.1264 177.016 83.8384 177.12 83.4704 177.12C83.1024 177.12 82.8064 177.016 82.5824 176.808C82.3584 176.6 82.2464 176.32 82.2464 175.968V166.2C82.2464 165.864 82.3584 165.592 82.5824 165.384C82.8224 165.16 83.1184 165.048 83.4704 165.048C83.8224 165.048 84.1024 165.152 84.3104 165.36C84.5184 165.568 84.6224 165.84 84.6224 166.176V167.16C85.0064 166.456 85.5424 165.92 86.2304 165.552C86.9184 165.184 87.6944 165 88.5584 165ZM100.405 177.168C98.7725 177.168 97.4365 176.832 96.3965 176.16C96.1085 175.984 95.9005 175.8 95.7725 175.608C95.6605 175.416 95.6045 175.2 95.6045 174.96C95.6045 174.704 95.6765 174.488 95.8205 174.312C95.9645 174.136 96.1485 174.048 96.3725 174.048C96.5805 174.048 96.9085 174.176 97.3565 174.432C97.8365 174.688 98.3005 174.896 98.7485 175.056C99.2125 175.216 99.7885 175.296 100.477 175.296C101.245 175.296 101.845 175.16 102.277 174.888C102.709 174.616 102.925 174.232 102.925 173.736C102.925 173.416 102.837 173.16 102.661 172.968C102.501 172.776 102.213 172.608 101.797 172.464C101.381 172.304 100.765 172.136 99.9485 171.96C98.5405 171.656 97.5245 171.248 96.9005 170.736C96.2925 170.208 95.9885 169.496 95.9885 168.6C95.9885 167.912 96.1885 167.296 96.5885 166.752C96.9885 166.192 97.5405 165.76 98.2445 165.456C98.9485 165.152 99.7485 165 100.645 165C101.285 165 101.909 165.088 102.517 165.264C103.125 165.424 103.661 165.664 104.125 165.984C104.653 166.336 104.917 166.744 104.917 167.208C104.917 167.464 104.837 167.68 104.677 167.856C104.533 168.032 104.357 168.12 104.149 168.12C104.005 168.12 103.861 168.088 103.717 168.024C103.573 167.96 103.381 167.856 103.141 167.712C102.709 167.456 102.301 167.256 101.917 167.112C101.549 166.968 101.085 166.896 100.525 166.896C99.8525 166.896 99.3085 167.04 98.8925 167.328C98.4925 167.616 98.2925 168.008 98.2925 168.504C98.2925 168.952 98.4765 169.304 98.8445 169.56C99.2285 169.8 99.9405 170.032 100.981 170.256C102.053 170.48 102.893 170.736 103.501 171.024C104.109 171.312 104.541 171.672 104.797 172.104C105.069 172.52 105.205 173.056 105.205 173.712C105.205 174.752 104.765 175.592 103.885 176.232C103.021 176.856 101.861 177.168 100.405 177.168ZM117.225 165.048C117.593 165.048 117.881 165.152 118.089 165.36C118.313 165.568 118.425 165.856 118.425 166.224V175.992C118.425 176.328 118.313 176.6 118.089 176.808C117.865 177.016 117.569 177.12 117.201 177.12C116.865 177.12 116.593 177.024 116.385 176.832C116.177 176.624 116.073 176.352 116.073 176.016V175.104C115.705 175.776 115.193 176.288 114.537 176.64C113.897 176.992 113.177 177.168 112.377 177.168C109.529 177.168 108.105 175.6 108.105 172.464V166.224C108.105 165.856 108.209 165.568 108.417 165.36C108.641 165.152 108.945 165.048 109.329 165.048C109.697 165.048 109.985 165.152 110.193 165.36C110.417 165.568 110.529 165.856 110.529 166.224V172.44C110.529 173.384 110.721 174.08 111.105 174.528C111.489 174.976 112.081 175.2 112.881 175.2C113.825 175.2 114.577 174.896 115.137 174.288C115.713 173.68 116.001 172.872 116.001 171.864V166.224C116.001 165.872 116.113 165.592 116.337 165.384C116.561 165.16 116.857 165.048 117.225 165.048ZM128.211 165.048C128.979 165 129.363 165.328 129.363 166.032C129.363 166.384 129.275 166.648 129.099 166.824C128.923 167 128.619 167.104 128.187 167.136L127.467 167.208C126.459 167.304 125.707 167.656 125.211 168.264C124.731 168.872 124.491 169.608 124.491 170.472V175.968C124.491 176.352 124.379 176.64 124.155 176.832C123.931 177.024 123.643 177.12 123.291 177.12C122.939 177.12 122.643 177.024 122.403 176.832C122.179 176.64 122.067 176.352 122.067 175.968V166.2C122.067 165.832 122.179 165.552 122.403 165.36C122.643 165.152 122.939 165.048 123.291 165.048C123.611 165.048 123.875 165.152 124.083 165.36C124.307 165.552 124.419 165.824 124.419 166.176V167.328C124.739 166.624 125.203 166.088 125.811 165.72C126.419 165.352 127.107 165.136 127.875 165.072L128.211 165.048ZM135.955 165C137.507 165 138.659 165.392 139.411 166.176C140.179 166.96 140.563 168.152 140.563 169.752V175.968C140.563 176.336 140.459 176.624 140.251 176.832C140.043 177.024 139.755 177.12 139.387 177.12C139.035 177.12 138.755 177.016 138.547 176.808C138.339 176.6 138.235 176.32 138.235 175.968V175.08C137.931 175.752 137.475 176.272 136.867 176.64C136.275 176.992 135.579 177.168 134.779 177.168C134.011 177.168 133.307 177.016 132.667 176.712C132.043 176.392 131.547 175.96 131.179 175.416C130.811 174.872 130.627 174.256 130.627 173.568C130.611 172.704 130.827 172.032 131.275 171.552C131.723 171.056 132.451 170.704 133.459 170.496C134.467 170.272 135.867 170.16 137.659 170.16H138.211V169.464C138.211 168.568 138.027 167.92 137.659 167.52C137.291 167.12 136.699 166.92 135.883 166.92C135.323 166.92 134.795 166.992 134.299 167.136C133.803 167.28 133.259 167.488 132.667 167.76C132.235 168 131.931 168.12 131.755 168.12C131.515 168.12 131.315 168.032 131.155 167.856C131.011 167.68 130.939 167.456 130.939 167.184C130.939 166.944 131.003 166.736 131.131 166.56C131.275 166.368 131.499 166.184 131.803 166.008C132.363 165.704 133.019 165.464 133.771 165.288C134.523 165.096 135.251 165 135.955 165ZM135.211 175.368C136.091 175.368 136.811 175.072 137.371 174.48C137.931 173.872 138.211 173.096 138.211 172.152V171.528H137.779C136.531 171.528 135.571 171.584 134.899 171.696C134.227 171.808 133.747 172 133.459 172.272C133.171 172.528 133.027 172.904 133.027 173.4C133.027 173.976 133.235 174.448 133.651 174.816C134.067 175.184 134.587 175.368 135.211 175.368ZM150.441 165C153.241 165 154.641 166.576 154.641 169.728V175.968C154.641 176.336 154.529 176.624 154.305 176.832C154.097 177.024 153.801 177.12 153.417 177.12C153.049 177.12 152.753 177.016 152.529 176.808C152.321 176.6 152.217 176.32 152.217 175.968V169.848C152.217 168.856 152.017 168.128 151.617 167.664C151.233 167.2 150.625 166.968 149.793 166.968C148.817 166.968 148.033 167.272 147.441 167.88C146.849 168.488 146.553 169.304 146.553 170.328V175.968C146.553 176.32 146.441 176.6 146.217 176.808C146.009 177.016 145.721 177.12 145.353 177.12C144.985 177.12 144.689 177.016 144.465 176.808C144.241 176.6 144.129 176.32 144.129 175.968V166.2C144.129 165.864 144.241 165.592 144.465 165.384C144.705 165.16 145.001 165.048 145.353 165.048C145.705 165.048 145.985 165.152 146.193 165.36C146.401 165.568 146.505 165.84 146.505 166.176V167.16C146.889 166.456 147.425 165.92 148.113 165.552C148.801 165.184 149.577 165 150.441 165ZM163.223 177.168C162.087 177.168 161.087 176.92 160.223 176.424C159.375 175.928 158.711 175.224 158.231 174.312C157.767 173.4 157.535 172.344 157.535 171.144C157.535 169.928 157.775 168.856 158.255 167.928C158.751 167 159.439 166.28 160.319 165.768C161.199 165.256 162.207 165 163.343 165C163.951 165 164.559 165.088 165.167 165.264C165.791 165.44 166.343 165.68 166.823 165.984C167.335 166.336 167.591 166.744 167.591 167.208C167.591 167.48 167.519 167.712 167.375 167.904C167.231 168.08 167.047 168.168 166.823 168.168C166.679 168.168 166.535 168.136 166.391 168.072C166.247 167.992 166.063 167.88 165.839 167.736C165.439 167.48 165.063 167.288 164.711 167.16C164.375 167.016 163.967 166.944 163.487 166.944C162.399 166.944 161.551 167.312 160.943 168.048C160.351 168.784 160.055 169.808 160.055 171.12C160.055 172.432 160.351 173.448 160.943 174.168C161.535 174.872 162.375 175.224 163.463 175.224C163.943 175.224 164.367 175.152 164.735 175.008C165.103 174.864 165.479 174.672 165.863 174.432C166.039 174.32 166.215 174.224 166.391 174.144C166.567 174.064 166.727 174.024 166.871 174.024C167.095 174.024 167.279 174.12 167.423 174.312C167.567 174.488 167.639 174.712 167.639 174.984C167.639 175.208 167.575 175.416 167.447 175.608C167.335 175.784 167.135 175.968 166.847 176.16C166.367 176.48 165.807 176.728 165.167 176.904C164.527 177.08 163.879 177.168 163.223 177.168ZM179.227 174.048C179.451 174.048 179.635 174.136 179.779 174.312C179.923 174.488 179.995 174.712 179.995 174.984C179.995 175.448 179.707 175.84 179.131 176.16C178.571 176.48 177.955 176.728 177.283 176.904C176.627 177.08 175.995 177.168 175.387 177.168C173.531 177.168 172.067 176.632 170.995 175.56C169.923 174.472 169.387 172.992 169.387 171.12C169.387 169.92 169.619 168.856 170.083 167.928C170.563 167 171.227 166.28 172.075 165.768C172.939 165.256 173.915 165 175.003 165C176.571 165 177.811 165.504 178.723 166.512C179.635 167.52 180.091 168.88 180.091 170.592C180.091 171.232 179.803 171.552 179.227 171.552H171.811C171.971 174.032 173.163 175.272 175.387 175.272C175.979 175.272 176.491 175.192 176.923 175.032C177.355 174.872 177.811 174.664 178.291 174.408C178.339 174.376 178.467 174.312 178.675 174.216C178.899 174.104 179.083 174.048 179.227 174.048ZM175.051 166.776C174.123 166.776 173.379 167.072 172.819 167.664C172.259 168.256 171.923 169.088 171.811 170.16H178.003C177.955 169.072 177.675 168.24 177.163 167.664C176.667 167.072 175.963 166.776 175.051 166.776Z" fill="#384248"/>
<rect x="77" y="32" width="100" height="100" rx="4" fill="#F5F6F8"/>
<path d="M97.7122 58.1362C97.7203 57.3685 98.0193 56.6413 98.5607 56.0998C99.1021 55.5584 99.8294 55.2514 100.597 55.2433H153.009C154.601 55.2433 155.894 56.5362 155.894 58.1281V104.714C155.885 105.481 155.586 106.208 155.045 106.75C154.504 107.291 153.776 107.598 153.009 107.606H100.597C99.8294 107.606 99.094 107.299 98.5526 106.758C98.0112 106.217 97.7042 105.481 97.7042 104.714V58.1362H97.7122ZM103.53 61.7644V101.093C103.53 101.481 103.846 101.796 104.233 101.796H149.372C149.76 101.796 150.075 101.481 150.075 101.093V61.7644C150.075 61.3766 149.76 61.0614 149.372 61.0614H104.233C103.846 61.0614 103.53 61.3766 103.53 61.7644ZM110.043 66.8795H126.092C126.48 66.8795 126.795 67.1947 126.795 67.5826V83.6309C126.795 84.0188 126.48 84.3339 126.092 84.3339H110.043C109.656 84.3339 109.34 84.0188 109.34 83.6309V67.5826C109.349 67.1947 109.664 66.8795 110.043 66.8795ZM122.237 78.6693L121.833 72.7542C121.833 72.2532 121.429 71.8492 120.928 71.8492H115.215C114.714 71.8492 114.31 72.2532 114.31 72.7542V78.4673C114.31 78.9683 114.714 79.3724 115.215 79.3724L121.332 79.5744C121.833 79.5744 122.237 79.1703 122.237 78.6693ZM110.043 90.1521H143.546C143.934 90.1521 144.249 90.4672 144.249 90.8551V95.2672C144.249 95.655 143.934 95.9702 143.546 95.9702H110.043C109.656 95.9702 109.34 95.655 109.34 95.2672V90.8551C109.349 90.4672 109.664 90.1521 110.043 90.1521ZM133.324 66.8795H143.554C143.942 66.8795 144.257 67.1947 144.257 67.5826V71.9947C144.257 72.3825 143.942 72.6977 143.554 72.6977H133.324C132.936 72.6977 132.621 72.3825 132.621 71.9947V67.5826C132.621 67.1947 132.936 66.8795 133.324 66.8795ZM133.324 78.5239H143.554C143.942 78.5239 144.257 78.839 144.257 79.2269V83.639C144.257 84.0269 143.942 84.342 143.554 84.342H133.324C132.936 84.342 132.621 84.0269 132.621 83.639V79.2269C132.621 78.831 132.936 78.5239 133.324 78.5239Z" fill="white"/>
<path fill-rule="evenodd" clip-rule="evenodd" d="M135.296 84.7948C137.235 84.5686 139.182 85.1261 141.065 85.1423C141.833 85.1423 142.592 85.1423 143.344 85.1423H143.489H143.57L143.724 85.1342C143.926 85.11 144.12 85.0453 144.297 84.9484C144.653 84.7463 144.912 84.4069 145.009 84.011C145.065 83.8171 145.057 83.5827 145.057 83.5342V83.2514L145.049 82.6858C145.041 81.9342 145.025 81.1908 145.017 80.4555L145 79.3484V79.203C145 79.106 144.984 79.0171 144.968 78.9282C144.928 78.7424 144.847 78.5727 144.742 78.4191C144.532 78.1121 144.192 77.902 143.829 77.8373C143.74 77.8212 143.635 77.8131 143.562 77.8131H143.425H143.15L142.609 77.8212L141.526 77.8292C140.807 77.8292 140.087 77.8292 139.376 77.8292C137.954 77.8212 136.548 77.7969 135.166 77.7323C134.77 77.7161 134.116 77.6757 133.704 77.6999C132.855 77.7484 133.712 78.6454 134.116 78.7747C136.661 79.5747 139.441 79.4292 141.695 79.1626C142.213 79.106 142.73 79.0575 143.247 79.0171L143.594 78.9929L143.724 79.0171L143.829 79.1141C143.853 79.1706 143.861 79.1626 143.861 79.3323C143.901 80.3666 143.902 81.3928 143.885 82.4191L143.869 83.1868L143.861 83.5746C143.861 83.6958 143.845 83.6958 143.821 83.7605C143.764 83.8494 143.667 83.8979 143.578 83.8898L142.811 83.8575C141.784 83.809 140.766 83.7686 139.748 83.7201C137.712 83.6312 135.683 83.5746 133.671 83.6554L133.34 83.6716L133.308 83.6797L133.267 83.6635L133.251 83.6474C133.243 83.6474 133.243 83.6393 133.235 83.5504C133.195 83.0494 133.146 82.5484 133.089 82.0474C132.976 81.0454 132.782 80.0676 132.597 79.0494C132.572 78.8959 132.734 78.4595 133.049 78.2737C133.195 78.1686 133.324 78.1121 133.34 78.0474C133.356 77.9908 133.243 77.8696 132.855 77.9181C132.467 77.9666 131.99 78.3141 131.845 78.8797C131.805 78.9929 131.797 79.203 131.788 79.2595L131.78 79.4615C131.78 79.5989 131.78 79.7282 131.788 79.8575C131.805 80.3827 131.869 80.8433 131.885 81.013C131.926 81.4736 131.95 81.9342 131.966 82.4029L131.99 83.106L131.999 83.4615L132.007 83.6393C132.007 83.7524 132.023 83.8655 132.055 83.9706C132.176 84.407 132.532 84.7625 132.968 84.8837C133.073 84.916 133.186 84.9322 133.3 84.9322L133.502 84.9241L133.865 84.908C134.326 84.8918 134.811 84.8514 135.296 84.7948ZM134.601 84.5686C134.633 84.6817 134.366 84.916 134.326 84.7787C134.285 84.6575 134.552 84.4231 134.601 84.5686Z" fill="black"/>
<path fill-rule="evenodd" clip-rule="evenodd" d="M135.296 73.1579C137.235 72.9316 139.182 73.4973 141.065 73.5053C141.833 73.5053 142.592 73.5053 143.344 73.5053H143.489H143.57L143.724 73.4973C143.926 73.473 144.12 73.4084 144.297 73.3114C144.653 73.1094 144.912 72.77 145.009 72.374C145.065 72.1801 145.057 71.9458 145.057 71.8973V71.6144L145.049 71.0488C145.041 70.2973 145.025 69.5539 145.017 68.8185L145 67.7115V67.566C145 67.469 144.984 67.3801 144.968 67.2913C144.928 67.1054 144.847 66.9357 144.742 66.7822C144.532 66.4751 144.192 66.265 143.829 66.2004C143.74 66.1842 143.635 66.1761 143.562 66.1761H143.425H143.15L142.609 66.1842L141.526 66.1923C140.807 66.1923 140.087 66.1923 139.376 66.1923C137.954 66.1842 136.548 66.1599 135.166 66.0953C134.77 66.0791 134.116 66.0387 133.704 66.063C132.855 66.1115 133.712 67.0084 134.116 67.1377C136.661 67.9377 139.441 67.7923 141.695 67.5256C142.213 67.469 142.73 67.4205 143.247 67.3801L143.594 67.3559L143.724 67.3801L143.829 67.4771C143.853 67.5337 143.861 67.5256 143.861 67.6953C143.901 68.7296 143.902 69.7559 143.885 70.7821L143.869 71.5498L143.861 71.9377C143.861 72.0589 143.845 72.0589 143.821 72.1235C143.764 72.2124 143.667 72.2609 143.578 72.2528L142.811 72.2205C141.784 72.1801 140.766 72.1316 139.748 72.0831C137.712 72.0023 135.683 71.9377 133.671 72.0185L133.34 72.0346L133.308 72.0427L133.267 72.0266L133.251 72.0104C133.243 72.0104 133.243 72.0023 133.235 71.9134C133.195 71.4124 133.146 70.9114 133.089 70.4104C132.976 69.4003 132.782 68.4226 132.597 67.4044C132.572 67.2508 132.734 66.8145 133.049 66.6286C133.195 66.5236 133.324 66.467 133.34 66.4024C133.356 66.3458 133.243 66.2246 132.855 66.2731C132.467 66.3216 131.99 66.669 131.845 67.2347C131.805 67.3559 131.797 67.5579 131.788 67.6145L131.78 67.8165C131.78 67.9539 131.78 68.0832 131.788 68.2125C131.805 68.7377 131.869 69.1983 131.885 69.368C131.926 69.8286 131.95 70.2892 131.966 70.7579L131.99 71.4609L131.999 71.8165L132.007 71.9942C132.007 72.1074 132.023 72.2205 132.055 72.3255C132.176 72.7619 132.532 73.1175 132.968 73.2387C133.073 73.271 133.186 73.2872 133.3 73.2872L133.502 73.2791L133.865 73.2629C134.326 73.2548 134.811 73.2144 135.296 73.1579ZM134.601 72.9316C134.633 73.0447 134.366 73.2791 134.326 73.1417C134.285 73.0205 134.552 72.7861 134.601 72.9316Z" fill="black"/>
<path fill-rule="evenodd" clip-rule="evenodd" d="M123.894 96.4311C128.516 96.2048 133.146 96.7705 137.631 96.7785C139.449 96.7785 141.259 96.7785 143.061 96.7785H143.4H143.586C143.708 96.7785 143.829 96.7624 143.942 96.7301C144.411 96.6089 144.806 96.2452 144.968 95.7927C145.008 95.6796 145.033 95.5584 145.049 95.4371L145.057 95.2675V95.1866V94.8473V94.1766C145.049 93.2796 145.049 92.3907 145.041 91.4938L145.033 90.7907C145.017 90.322 144.75 89.8695 144.354 89.619C144.16 89.4897 143.926 89.417 143.699 89.3928C143.562 89.3847 143.505 89.3847 143.457 89.3847H143.287H142.625C141.736 89.3928 140.855 89.3928 139.974 89.4008C138.213 89.4089 136.459 89.4251 134.722 89.4332C127.764 89.4736 120.968 89.4897 114.383 89.3604C113.437 89.3443 111.877 89.3039 110.908 89.3281C108.888 89.3766 110.932 90.2736 111.894 90.4029C117.954 91.2028 124.58 91.0574 129.938 90.7907C132.403 90.6695 134.859 90.5968 137.316 90.5564L140.992 90.5241H142.827H143.287H143.514C143.594 90.5241 143.594 90.5241 143.635 90.5402C143.772 90.5806 143.869 90.7099 143.861 90.8554L143.829 94.524L143.821 94.9846C143.813 95.1382 143.821 95.3159 143.804 95.3321C143.772 95.4452 143.659 95.526 143.554 95.518L141.736 95.4856C139.295 95.4371 136.863 95.3967 134.439 95.3483C129.59 95.2675 124.758 95.2028 119.966 95.2836C117.566 95.324 115.182 95.3967 112.799 95.518L111.013 95.6149L110.124 95.6715C109.89 95.7119 109.728 95.6311 109.615 95.4533C109.518 95.3159 109.55 94.9442 109.51 94.6614L109.437 93.7725L109.275 91.9948C109.259 91.8331 109.227 91.5342 109.195 91.2028C109.179 91.0251 109.138 90.9039 109.146 90.6614C109.162 90.4433 109.259 90.2412 109.397 90.0877C109.663 89.7806 110.019 89.7322 110.043 89.6594C110.059 89.6271 110.003 89.5867 109.825 89.5705C109.655 89.5705 109.332 89.6029 109.001 89.9099C108.831 90.0635 108.702 90.2897 108.629 90.5402C108.564 90.8554 108.581 90.9443 108.556 91.0897C108.532 91.3645 108.516 91.6634 108.508 91.9705C108.484 92.5847 108.484 93.2392 108.492 93.8614C108.5 94.1685 108.508 94.4755 108.516 94.7584C108.524 94.9038 108.524 95.0412 108.532 95.1705C108.532 95.2028 108.532 95.3725 108.564 95.5018C108.589 95.6392 108.637 95.7685 108.694 95.8816C108.928 96.3503 109.356 96.6089 109.728 96.6816C109.914 96.722 110.1 96.7139 110.14 96.7058L110.326 96.6977C114.673 96.5604 119.247 96.6573 123.894 96.4311ZM122.237 96.2048C122.326 96.3179 121.679 96.5523 121.574 96.4149C121.485 96.2937 122.124 96.0594 122.237 96.2048Z" fill="black"/>
<path fill-rule="evenodd" clip-rule="evenodd" d="M115.328 78.9194C115.11 78.9437 115.062 78.9518 114.94 78.8871C114.843 78.8305 114.763 78.7255 114.738 78.6124C114.722 78.5477 114.73 78.5154 114.738 78.4265L114.771 78.1114L114.851 77.4811C114.965 76.6488 115.11 75.8164 115.118 75.0003C115.118 74.3377 115.118 73.6831 115.118 73.0286V72.7862V72.7296L115.142 72.6811L115.191 72.6488L115.231 72.6407H115.474C116.767 72.6165 118.051 72.5922 119.312 72.5761L120.257 72.5599L120.726 72.5518H120.936L120.993 72.5599L121.146 72.7134L121.154 72.8023L121.171 73.0367L121.203 73.4973C121.284 74.7255 121.332 75.9376 121.356 77.1336C121.365 77.4811 121.356 78.0467 121.405 78.3942C121.51 79.1215 122.35 78.3538 122.455 77.9982C122.779 76.8831 122.868 75.7275 122.819 74.6124C122.795 74.0548 122.738 73.5053 122.666 72.972C122.641 72.8346 122.641 72.7377 122.593 72.471C122.536 72.2367 122.431 72.0104 122.286 71.8326C121.995 71.469 121.567 71.2508 121.146 71.2347C120.92 71.2266 120.839 71.2508 120.726 71.2589L120.395 71.2993L119.724 71.364C119.28 71.4044 118.827 71.4286 118.383 71.4528C117.494 71.4932 116.597 71.4932 115.708 71.4852L115.377 71.4771H115.199C115.118 71.4771 115.037 71.4852 114.965 71.5013C114.649 71.5579 114.359 71.7357 114.157 71.9942C113.955 72.2286 113.858 72.6326 113.874 72.875L113.841 73.5377C113.793 74.4265 113.752 75.3073 113.704 76.1881L113.647 77.5053L113.623 78.1679L113.615 78.4992C113.615 78.6932 113.647 78.8871 113.72 79.073C113.858 79.4447 114.132 79.7518 114.48 79.9295C114.649 80.0184 114.843 80.0831 115.037 80.0992C115.256 80.1154 115.312 80.1073 115.433 80.1154C115.87 80.1235 116.306 80.1315 116.742 80.1235C117.615 80.1154 118.48 80.0669 119.352 79.978C119.789 79.9295 120.217 79.873 120.653 79.8083C120.872 79.7679 121.082 79.7275 121.3 79.6871C121.534 79.6467 121.744 79.5174 121.857 79.3477C121.938 79.2588 122.043 78.9679 121.946 78.8144C121.857 78.6528 121.712 78.7174 121.55 78.7417C121.47 78.7578 121.413 78.7497 121.389 78.7497L121.356 78.7417H121.348H121.356H121.276C120.823 78.7497 120.419 78.7982 120.274 78.8063C118.682 78.9033 117.025 78.7497 115.328 78.9194ZM115.926 79.1699C115.894 79.0568 116.136 78.8305 116.169 78.9679C116.201 79.081 115.967 79.3154 115.926 79.1699Z" fill="black"/>
<path fill-rule="evenodd" clip-rule="evenodd" d="M109.025 84.1806C109.227 84.5362 109.623 84.7625 110.019 84.7625L110.771 84.7463C111.263 84.7382 111.756 84.7463 112.249 84.7544C113.235 84.7786 114.221 84.8271 115.199 84.8837C117.162 84.9968 119.11 85.1423 121.033 85.1503C122.593 85.1503 124.136 85.1503 125.679 85.1503H125.97H126.124C126.229 85.1503 126.326 85.1342 126.431 85.118C126.835 85.0291 127.191 84.7625 127.401 84.4069C127.506 84.2291 127.57 84.0271 127.595 83.8251C127.603 83.712 127.603 83.615 127.603 83.5907V83.4453V82.8716C127.595 82.1039 127.595 81.3443 127.587 80.5766C127.562 77.5302 127.538 74.5161 127.522 71.5424C127.514 70.799 127.514 70.0555 127.506 69.3202L127.498 68.2131V67.6636C127.498 67.6313 127.498 67.5505 127.49 67.4535C127.481 67.3646 127.457 67.2758 127.433 67.1869C127.376 67.0091 127.288 66.8475 127.166 66.7101C126.932 66.4354 126.585 66.2495 126.221 66.2253C126.116 66.2172 126.067 66.2172 126.027 66.2172H125.89H125.615H124.516C123.789 66.2172 123.061 66.2172 122.334 66.2172C119.433 66.2091 116.572 66.1849 113.76 66.1202C112.952 66.104 111.619 66.0636 110.787 66.0879C109.065 66.1364 110.803 67.0333 111.627 67.1626C114.221 67.5667 116.928 67.7283 119.562 67.7525C120.88 67.7687 122.181 67.7525 123.433 67.7121C124.063 67.6879 124.677 67.6636 125.284 67.6394L125.736 67.6151L125.962 67.6071L126.108 67.599L126.156 67.5909C126.164 67.5505 126.172 67.7202 126.18 67.8495L126.205 68.2454L126.245 69.0374L126.31 70.6131C126.342 71.6636 126.366 72.7141 126.399 73.7646C126.439 75.8656 126.439 77.9585 126.431 80.0514L126.391 83.1867L126.383 83.5746C126.383 83.6554 126.383 83.6796 126.374 83.7039L126.35 83.7766C126.302 83.8655 126.205 83.9221 126.116 83.914L124.556 83.8817C122.471 83.8332 120.395 83.7928 118.318 83.7443C116.241 83.712 114.173 83.6796 112.112 83.6473C111.191 83.6473 109.599 83.6231 110.068 83.6554C110.059 82.6534 110.043 81.6433 110.035 80.6413C109.954 76.5444 109.744 72.4636 109.292 68.4232C109.276 68.2858 109.243 68.0273 109.211 67.7444C109.187 67.6232 109.162 67.4212 109.219 67.2434C109.268 67.0657 109.373 66.904 109.494 66.7828C109.744 66.5404 110.035 66.4838 110.059 66.4192C110.076 66.3869 110.027 66.3465 109.874 66.3303C109.728 66.3222 109.453 66.3303 109.138 66.5566C108.977 66.6697 108.831 66.8313 108.734 67.0333C108.686 67.1384 108.645 67.2434 108.621 67.3646C108.589 67.4778 108.589 67.6313 108.581 67.6636C108.556 67.898 108.54 68.1566 108.532 68.4151C108.508 68.9404 108.508 69.498 108.516 70.0313C108.532 71.0899 108.597 72.0434 108.613 72.3828C108.694 74.2494 108.71 76.1565 108.734 78.0959C108.75 79.0655 108.767 80.0433 108.783 81.0292C108.799 81.5221 108.815 82.015 108.831 82.5079L108.863 83.2514L108.88 83.6231C108.872 83.7685 108.92 84.011 109.025 84.1806ZM109.114 82.5645C109.001 82.6372 108.767 82.0877 108.904 81.9988C109.025 81.9261 109.259 82.4675 109.114 82.5645Z" fill="black"/>
<path fill-rule="evenodd" clip-rule="evenodd" d="M147.32 61.5218L149.194 61.4895C149.712 61.4733 149.663 61.5865 149.663 62.3622L149.655 66.1036C149.631 68.5925 149.582 71.0813 149.526 73.5621C149.413 78.5237 149.267 83.4449 149.259 88.2933C149.259 92.2286 149.259 96.1397 149.259 100.027V100.754V100.94V101.029V101.077C149.3 101.085 149.17 101.101 149.348 101.093H149.356V101.085V101.077C149.356 100.899 149.34 101.029 149.34 100.988H148.613L145.704 100.996C143.764 101.004 141.841 101.004 139.918 101.012C132.217 101.037 124.613 101.061 117.09 101.077C113.332 101.085 109.599 101.093 105.882 101.101H104.492H104.217H104.209L104.201 101.077C104.201 100.156 104.201 99.2265 104.201 98.3053C104.201 96.4629 104.201 94.6205 104.201 92.7943C104.209 85.4731 104.233 78.249 104.298 71.1298C104.314 69.0854 104.355 65.7157 104.33 63.6228C104.298 59.2673 103.401 63.6713 103.272 65.7561C102.876 72.3015 102.706 79.154 102.682 85.8125C102.666 89.1418 102.682 92.4226 102.722 95.5983C102.746 97.1821 102.771 98.7417 102.795 100.269L102.803 100.843L102.811 101.15C102.819 101.344 102.868 101.53 102.948 101.699C103.118 102.047 103.417 102.305 103.781 102.427C103.87 102.459 103.959 102.475 104.056 102.483C104.144 102.491 104.258 102.491 104.282 102.491L104.565 102.483C105.308 102.467 106.043 102.451 106.763 102.435C117.397 102.192 128.007 102.144 138.576 102.176C141.219 102.192 143.861 102.2 146.496 102.216L148.475 102.233H148.968H149.219C149.308 102.233 149.364 102.241 149.518 102.224C150.059 102.168 150.512 101.683 150.528 101.134L150.56 97.166C150.609 91.9054 150.649 86.6529 150.698 81.4085C150.73 76.1722 150.762 70.944 150.794 65.7319L150.803 61.8289V61.7643L150.794 61.643C150.786 61.5622 150.778 61.4814 150.754 61.4006C150.714 61.239 150.641 61.0855 150.552 60.9562C150.366 60.6895 150.083 60.4875 149.76 60.3986C149.679 60.3744 149.599 60.3663 149.518 60.3501C149.429 60.342 149.356 60.342 149.332 60.342H149.089H148.605H146.657C144.063 60.3501 141.469 60.3663 138.875 60.3744C128.516 60.4552 118.229 60.6653 108.015 61.1178C107.304 61.1501 105.421 61.2309 104.233 61.3441C104.039 61.3925 103.95 61.5299 103.942 61.6188C103.926 61.7077 103.975 61.7562 103.999 61.7643L104.112 61.7238L104.185 61.7158L104.217 61.7319L104.233 61.7481L104.411 61.7643C108.395 62.0713 116.274 61.8531 117.995 61.8289C127.425 61.6511 137.3 61.7481 147.32 61.5218ZM143.748 61.2956C143.934 61.4087 142.552 61.643 142.318 61.5057C142.132 61.3845 143.514 61.1501 143.748 61.2956Z" fill="black"/>
<path fill-rule="evenodd" clip-rule="evenodd" d="M104.573 108.067C117.017 107.841 129.486 108.398 141.566 108.414C144.015 108.414 146.463 108.414 148.904 108.414C150.124 108.414 151.344 108.414 152.556 108.414H153.017C153.219 108.414 153.405 108.39 153.598 108.366C153.978 108.301 154.35 108.172 154.697 107.994C155.384 107.639 155.958 107.057 156.297 106.362C156.475 106.014 156.588 105.643 156.645 105.263C156.677 105.077 156.685 104.867 156.685 104.689V104.237V102.419C156.685 101.206 156.685 100.002 156.677 98.7983C156.669 96.3822 156.669 93.9822 156.661 91.5822C156.653 81.9823 156.629 72.4875 156.604 63.1138C156.604 61.9421 156.596 60.7704 156.596 59.6068V58.7341C156.596 58.4351 156.604 58.1846 156.58 57.7886C156.508 57.0694 156.217 56.3664 155.748 55.8169C155.279 55.2674 154.649 54.8553 153.946 54.6775C153.607 54.5806 153.211 54.5482 152.904 54.5482H152.031C150.867 54.5482 149.712 54.5482 148.556 54.5563C143.926 54.5563 139.328 54.5563 134.762 54.5563C125.623 54.524 116.621 54.4917 107.74 54.4593C106.472 54.4513 104.783 54.4432 103.086 54.427C102.237 54.427 101.389 54.4189 100.589 54.4189C99.5464 54.427 98.6171 54.8876 98.0272 55.4775C97.405 56.0917 97.1707 56.7381 97.0818 57.1826C96.9848 57.6351 97.0252 57.9179 97.0656 58.0472C97.1626 58.3058 97.2434 57.9664 97.4858 57.4411C97.7202 56.9159 98.2131 56.229 98.9161 55.8492C99.2636 55.6553 99.6434 55.5341 100.007 55.4937C100.371 55.4452 100.71 55.4937 101.049 55.5018C117.373 56.3018 135.207 56.1563 149.631 55.8896L152.12 55.8492C152.516 55.8492 153 55.8169 153.291 55.8492C153.623 55.8816 153.938 55.9866 154.229 56.1563C154.811 56.4876 155.231 57.0937 155.336 57.7644C155.392 58.0634 155.376 58.5078 155.384 58.9199L155.4 60.1643C155.433 63.4774 155.457 66.7825 155.489 70.0875C155.53 76.6975 155.53 83.2995 155.522 89.8853C155.506 93.1822 155.497 96.4711 155.481 99.7599L155.457 104.689C155.457 105.392 155.142 106.071 154.625 106.532C154.366 106.758 154.059 106.928 153.728 107.033C153.38 107.138 153.089 107.146 152.653 107.138C146.091 107.089 139.538 107.049 133.009 107C126.48 106.968 119.958 106.936 113.461 106.903C110.213 106.903 106.973 106.903 103.732 106.895L101.308 106.903H100.702C100.508 106.903 100.387 106.895 100.225 106.871C99.9262 106.814 99.6353 106.701 99.3848 106.532C98.8757 106.192 98.5202 105.627 98.4393 105.012C98.3989 104.754 98.4232 104.277 98.4151 103.889L98.407 102.677C98.3101 89.7641 98.1 76.9319 97.6474 64.2047C97.5828 62.427 97.3242 54.8876 97.0171 59.7361C96.7101 64.6976 96.9283 74.5238 96.9525 76.6733C97.0333 82.548 97.0495 88.56 97.0737 94.6772C97.0899 97.7317 97.106 100.81 97.1222 103.905C97.1383 104.309 97.106 104.641 97.1545 105.134C97.2111 105.594 97.3646 106.039 97.599 106.443C98.0596 107.243 98.8676 107.841 99.7646 108.043C100.217 108.156 100.694 108.132 101.049 108.124L102.221 108.107L104.573 108.067ZM100.088 107.792C100.209 107.865 99.7808 107.913 99.2878 107.768C98.7949 107.631 98.3101 107.251 98.2535 107.073C98.205 106.944 98.5525 107.202 98.9888 107.396C99.4171 107.606 99.9424 107.703 100.088 107.792Z" fill="black"/>
</svg>
