<svg width="255" height="206" viewBox="0 0 255 206" fill="none" xmlns="http://www.w3.org/2000/svg">
<path d="M80.9727 175.464C81.1167 175.672 81.1887 175.896 81.1887 176.136C81.1887 176.424 81.0687 176.672 80.8287 176.88C80.6047 177.072 80.3407 177.168 80.0367 177.168C79.5887 177.168 79.2287 176.968 78.9567 176.568L75.7407 171.576C75.3727 171 74.9807 170.6 74.5647 170.376C74.1487 170.136 73.6047 170.016 72.9327 170.016H70.2207V175.872C70.2207 176.256 70.1087 176.56 69.8847 176.784C69.6767 177.008 69.3807 177.12 68.9967 177.12C68.6287 177.12 68.3327 177.008 68.1087 176.784C67.8847 176.56 67.7727 176.256 67.7727 175.872V161.28C67.7727 160.912 67.8767 160.624 68.0847 160.416C68.3087 160.192 68.6127 160.08 68.9967 160.08H74.9727C76.8447 160.08 78.2687 160.496 79.2447 161.328C80.2367 162.16 80.7327 163.376 80.7327 164.976C80.7327 166.304 80.3567 167.384 79.6047 168.216C78.8527 169.032 77.7807 169.552 76.3887 169.776C76.8047 169.888 77.1807 170.088 77.5167 170.376C77.8527 170.664 78.1807 171.064 78.5007 171.576L80.9727 175.464ZM74.6847 168.024C75.9327 168.024 76.8527 167.784 77.4447 167.304C78.0527 166.808 78.3567 166.048 78.3567 165.024C78.3567 164 78.0607 163.256 77.4687 162.792C76.8767 162.312 75.9487 162.072 74.6847 162.072H70.1967V168.024H74.6847ZM93.473 174.048C93.697 174.048 93.881 174.136 94.025 174.312C94.169 174.488 94.241 174.712 94.241 174.984C94.241 175.448 93.953 175.84 93.377 176.16C92.817 176.48 92.201 176.728 91.529 176.904C90.873 177.08 90.241 177.168 89.633 177.168C87.777 177.168 86.313 176.632 85.241 175.56C84.169 174.472 83.633 172.992 83.633 171.12C83.633 169.92 83.865 168.856 84.329 167.928C84.809 167 85.473 166.28 86.321 165.768C87.185 165.256 88.161 165 89.249 165C90.817 165 92.057 165.504 92.969 166.512C93.881 167.52 94.337 168.88 94.337 170.592C94.337 171.232 94.049 171.552 93.473 171.552H86.057C86.217 174.032 87.409 175.272 89.633 175.272C90.225 175.272 90.737 175.192 91.169 175.032C91.601 174.872 92.057 174.664 92.537 174.408C92.585 174.376 92.713 174.312 92.921 174.216C93.145 174.104 93.329 174.048 93.473 174.048ZM89.297 166.776C88.369 166.776 87.625 167.072 87.065 167.664C86.505 168.256 86.169 169.088 86.057 170.16H92.249C92.201 169.072 91.921 168.24 91.409 167.664C90.913 167.072 90.209 166.776 89.297 166.776ZM102.178 165C103.73 165 104.882 165.392 105.634 166.176C106.402 166.96 106.786 168.152 106.786 169.752V175.968C106.786 176.336 106.682 176.624 106.474 176.832C106.266 177.024 105.978 177.12 105.61 177.12C105.258 177.12 104.978 177.016 104.77 176.808C104.562 176.6 104.458 176.32 104.458 175.968V175.08C104.154 175.752 103.698 176.272 103.09 176.64C102.498 176.992 101.802 177.168 101.002 177.168C100.234 177.168 99.5301 177.016 98.8901 176.712C98.2661 176.392 97.7701 175.96 97.4021 175.416C97.0341 174.872 96.8501 174.256 96.8501 173.568C96.8341 172.704 97.0501 172.032 97.4981 171.552C97.9461 171.056 98.6741 170.704 99.6821 170.496C100.69 170.272 102.09 170.16 103.882 170.16H104.434V169.464C104.434 168.568 104.25 167.92 103.882 167.52C103.514 167.12 102.922 166.92 102.106 166.92C101.546 166.92 101.018 166.992 100.522 167.136C100.026 167.28 99.4821 167.488 98.8901 167.76C98.4581 168 98.1541 168.12 97.9781 168.12C97.7381 168.12 97.5381 168.032 97.3781 167.856C97.2341 167.68 97.1621 167.456 97.1621 167.184C97.1621 166.944 97.2261 166.736 97.3541 166.56C97.4981 166.368 97.7221 166.184 98.0261 166.008C98.5861 165.704 99.2421 165.464 99.9941 165.288C100.746 165.096 101.474 165 102.178 165ZM101.434 175.368C102.314 175.368 103.034 175.072 103.594 174.48C104.154 173.872 104.434 173.096 104.434 172.152V171.528H104.002C102.754 171.528 101.794 171.584 101.122 171.696C100.45 171.808 99.9701 172 99.6821 172.272C99.3941 172.528 99.2501 172.904 99.2501 173.4C99.2501 173.976 99.4581 174.448 99.8741 174.816C100.29 175.184 100.81 175.368 101.434 175.368ZM111.576 177.12C111.224 177.12 110.928 177.024 110.688 176.832C110.464 176.64 110.352 176.352 110.352 175.968V161.136C110.352 160.752 110.464 160.464 110.688 160.272C110.928 160.064 111.224 159.96 111.576 159.96C111.928 159.96 112.216 160.064 112.44 160.272C112.664 160.464 112.776 160.752 112.776 161.136V175.968C112.776 176.352 112.664 176.64 112.44 176.832C112.216 177.024 111.928 177.12 111.576 177.12ZM132.161 174.048C132.385 174.048 132.569 174.136 132.713 174.312C132.857 174.488 132.929 174.712 132.929 174.984C132.929 175.448 132.641 175.84 132.065 176.16C131.505 176.48 130.889 176.728 130.217 176.904C129.561 177.08 128.929 177.168 128.321 177.168C126.465 177.168 125.001 176.632 123.929 175.56C122.857 174.472 122.321 172.992 122.321 171.12C122.321 169.92 122.553 168.856 123.017 167.928C123.497 167 124.161 166.28 125.009 165.768C125.873 165.256 126.849 165 127.937 165C129.505 165 130.745 165.504 131.657 166.512C132.569 167.52 133.025 168.88 133.025 170.592C133.025 171.232 132.737 171.552 132.161 171.552H124.745C124.905 174.032 126.097 175.272 128.321 175.272C128.913 175.272 129.425 175.192 129.857 175.032C130.289 174.872 130.745 174.664 131.225 174.408C131.273 174.376 131.401 174.312 131.609 174.216C131.833 174.104 132.017 174.048 132.161 174.048ZM127.985 166.776C127.057 166.776 126.313 167.072 125.753 167.664C125.193 168.256 124.857 169.088 124.745 170.16H130.937C130.889 169.072 130.609 168.24 130.097 167.664C129.601 167.072 128.897 166.776 127.985 166.776ZM140.026 177.168C138.394 177.168 137.058 176.832 136.018 176.16C135.73 175.984 135.522 175.8 135.394 175.608C135.282 175.416 135.226 175.2 135.226 174.96C135.226 174.704 135.298 174.488 135.442 174.312C135.586 174.136 135.77 174.048 135.994 174.048C136.202 174.048 136.53 174.176 136.978 174.432C137.458 174.688 137.922 174.896 138.37 175.056C138.834 175.216 139.41 175.296 140.098 175.296C140.866 175.296 141.466 175.16 141.898 174.888C142.33 174.616 142.546 174.232 142.546 173.736C142.546 173.416 142.458 173.16 142.282 172.968C142.122 172.776 141.834 172.608 141.418 172.464C141.002 172.304 140.386 172.136 139.57 171.96C138.162 171.656 137.146 171.248 136.522 170.736C135.914 170.208 135.61 169.496 135.61 168.6C135.61 167.912 135.81 167.296 136.21 166.752C136.61 166.192 137.162 165.76 137.866 165.456C138.57 165.152 139.37 165 140.266 165C140.906 165 141.53 165.088 142.138 165.264C142.746 165.424 143.282 165.664 143.746 165.984C144.274 166.336 144.538 166.744 144.538 167.208C144.538 167.464 144.458 167.68 144.298 167.856C144.154 168.032 143.978 168.12 143.77 168.12C143.626 168.12 143.482 168.088 143.338 168.024C143.194 167.96 143.002 167.856 142.762 167.712C142.33 167.456 141.922 167.256 141.538 167.112C141.17 166.968 140.706 166.896 140.146 166.896C139.474 166.896 138.93 167.04 138.514 167.328C138.114 167.616 137.914 168.008 137.914 168.504C137.914 168.952 138.098 169.304 138.466 169.56C138.85 169.8 139.562 170.032 140.602 170.256C141.674 170.48 142.514 170.736 143.122 171.024C143.73 171.312 144.162 171.672 144.418 172.104C144.69 172.52 144.826 173.056 144.826 173.712C144.826 174.752 144.386 175.592 143.506 176.232C142.642 176.856 141.482 177.168 140.026 177.168ZM153.393 175.272C153.745 175.304 153.993 175.4 154.137 175.56C154.297 175.704 154.377 175.912 154.377 176.184C154.377 176.504 154.249 176.752 153.993 176.928C153.753 177.088 153.393 177.152 152.913 177.12L152.265 177.072C150.969 176.976 150.001 176.584 149.361 175.896C148.721 175.192 148.401 174.16 148.401 172.8V167.16H146.961C146.257 167.16 145.905 166.848 145.905 166.224C145.905 165.936 145.993 165.712 146.169 165.552C146.361 165.376 146.625 165.288 146.961 165.288H148.401V162.816C148.401 162.448 148.505 162.16 148.713 161.952C148.937 161.744 149.233 161.64 149.601 161.64C149.969 161.64 150.265 161.744 150.489 161.952C150.713 162.16 150.825 162.448 150.825 162.816V165.288H153.201C153.537 165.288 153.793 165.376 153.969 165.552C154.161 165.712 154.257 165.936 154.257 166.224C154.257 166.528 154.161 166.76 153.969 166.92C153.793 167.08 153.537 167.16 153.201 167.16H150.825V172.968C150.825 173.72 150.977 174.272 151.281 174.624C151.601 174.976 152.081 175.176 152.721 175.224L153.393 175.272ZM161.288 165C162.84 165 163.992 165.392 164.744 166.176C165.512 166.96 165.896 168.152 165.896 169.752V175.968C165.896 176.336 165.792 176.624 165.584 176.832C165.376 177.024 165.088 177.12 164.72 177.12C164.368 177.12 164.088 177.016 163.88 176.808C163.672 176.6 163.568 176.32 163.568 175.968V175.08C163.264 175.752 162.808 176.272 162.2 176.64C161.608 176.992 160.912 177.168 160.112 177.168C159.344 177.168 158.64 177.016 158 176.712C157.376 176.392 156.88 175.96 156.512 175.416C156.144 174.872 155.96 174.256 155.96 173.568C155.944 172.704 156.16 172.032 156.608 171.552C157.056 171.056 157.784 170.704 158.792 170.496C159.8 170.272 161.2 170.16 162.992 170.16H163.544V169.464C163.544 168.568 163.36 167.92 162.992 167.52C162.624 167.12 162.032 166.92 161.216 166.92C160.656 166.92 160.128 166.992 159.632 167.136C159.136 167.28 158.592 167.488 158 167.76C157.568 168 157.264 168.12 157.088 168.12C156.848 168.12 156.648 168.032 156.488 167.856C156.344 167.68 156.271 167.456 156.271 167.184C156.271 166.944 156.336 166.736 156.464 166.56C156.608 166.368 156.832 166.184 157.136 166.008C157.696 165.704 158.352 165.464 159.104 165.288C159.856 165.096 160.584 165 161.288 165ZM160.544 175.368C161.424 175.368 162.144 175.072 162.704 174.48C163.264 173.872 163.544 173.096 163.544 172.152V171.528H163.112C161.864 171.528 160.904 171.584 160.232 171.696C159.56 171.808 159.08 172 158.792 172.272C158.504 172.528 158.36 172.904 158.36 173.4C158.36 173.976 158.568 174.448 158.984 174.816C159.4 175.184 159.92 175.368 160.544 175.368ZM175.197 175.272C175.549 175.304 175.797 175.4 175.941 175.56C176.101 175.704 176.181 175.912 176.181 176.184C176.181 176.504 176.053 176.752 175.797 176.928C175.557 177.088 175.197 177.152 174.717 177.12L174.069 177.072C172.773 176.976 171.805 176.584 171.165 175.896C170.525 175.192 170.205 174.16 170.205 172.8V167.16H168.765C168.061 167.16 167.709 166.848 167.709 166.224C167.709 165.936 167.797 165.712 167.973 165.552C168.165 165.376 168.429 165.288 168.765 165.288H170.205V162.816C170.205 162.448 170.309 162.16 170.517 161.952C170.741 161.744 171.037 161.64 171.405 161.64C171.773 161.64 172.069 161.744 172.293 161.952C172.517 162.16 172.629 162.448 172.629 162.816V165.288H175.005C175.341 165.288 175.597 165.376 175.773 165.552C175.965 165.712 176.061 165.936 176.061 166.224C176.061 166.528 175.965 166.76 175.773 166.92C175.597 167.08 175.341 167.16 175.005 167.16H172.629V172.968C172.629 173.72 172.781 174.272 173.085 174.624C173.405 174.976 173.885 175.176 174.525 175.224L175.197 175.272ZM187.34 174.048C187.564 174.048 187.748 174.136 187.892 174.312C188.036 174.488 188.108 174.712 188.108 174.984C188.108 175.448 187.82 175.84 187.244 176.16C186.684 176.48 186.068 176.728 185.396 176.904C184.74 177.08 184.108 177.168 183.5 177.168C181.644 177.168 180.18 176.632 179.108 175.56C178.036 174.472 177.5 172.992 177.5 171.12C177.5 169.92 177.732 168.856 178.196 167.928C178.676 167 179.34 166.28 180.188 165.768C181.052 165.256 182.028 165 183.116 165C184.684 165 185.924 165.504 186.836 166.512C187.748 167.52 188.204 168.88 188.204 170.592C188.204 171.232 187.916 171.552 187.34 171.552H179.924C180.084 174.032 181.276 175.272 183.5 175.272C184.092 175.272 184.604 175.192 185.036 175.032C185.468 174.872 185.924 174.664 186.404 174.408C186.452 174.376 186.58 174.312 186.788 174.216C187.012 174.104 187.196 174.048 187.34 174.048ZM183.164 166.776C182.236 166.776 181.492 167.072 180.932 167.664C180.372 168.256 180.036 169.088 179.924 170.16H186.116C186.068 169.072 185.788 168.24 185.276 167.664C184.78 167.072 184.076 166.776 183.164 166.776Z" fill="#384248"/>
<rect x="77" y="32" width="100" height="100" rx="4" fill="#F5F6F8"/>
<path d="M151.625 101.726H154.653C155.317 101.726 155.851 102.26 155.851 102.924V105.831C155.851 106.495 155.317 107.029 154.653 107.029H98.6462C98.0389 107.029 97.5531 106.544 97.5531 105.936V102.819C97.5531 102.212 98.0389 101.726 98.6462 101.726H101.642C102.306 101.726 102.849 101.183 102.849 100.519V58.731C102.849 58.0265 103.124 57.3545 103.626 56.8606C104.128 56.3666 104.8 56.0833 105.504 56.0833H132.006C132.71 56.0833 133.382 56.3585 133.876 56.8606C134.37 57.3545 134.653 58.0346 134.653 58.731V100.625C134.653 101.232 135.139 101.718 135.747 101.718H138.864C139.471 101.718 139.957 101.232 139.957 100.625V73.265C139.957 72.5606 140.532 71.9857 141.236 71.9857H147.908C148.613 71.9857 149.285 72.2691 149.779 72.763C150.272 73.2569 150.556 73.9371 150.556 74.6334V100.649C150.556 101.24 151.034 101.726 151.625 101.726ZM113.456 78.2204V81.6454C113.456 82.1636 113.877 82.5846 114.395 82.5846H123.123C123.642 82.5846 124.063 82.1636 124.063 81.6454V78.2204C124.063 77.7022 123.642 77.2811 123.123 77.2811H114.395C113.877 77.2811 113.456 77.7022 113.456 78.2204ZM113.456 67.6214V71.0465C113.456 71.5647 113.877 71.9857 114.395 71.9857H123.123C123.642 71.9857 124.063 71.5647 124.063 71.0465V67.6214C124.063 67.1032 123.642 66.6822 123.123 66.6822H114.395C113.877 66.6822 113.456 67.1032 113.456 67.6214Z" fill="white"/>
<path fill-rule="evenodd" clip-rule="evenodd" d="M120.621 67.1437C121.059 67.087 121.488 67.0789 121.925 67.1032C122.144 67.1113 122.362 67.1356 122.573 67.1518L122.897 67.1842C122.994 67.2004 123.148 67.2085 123.164 67.2247C123.342 67.3057 123.391 67.5 123.342 67.5971L123.334 67.6214L123.326 67.7024L123.31 67.8643L123.285 68.1801C123.269 68.3906 123.261 68.6012 123.261 68.8198C123.261 69.508 123.261 70.1882 123.261 70.8602C123.261 71.0869 123.261 71.0626 123.253 71.0869L123.212 71.1517L123.148 71.1841H123.131H123.018H122.767C121.423 71.2084 120.103 71.2327 118.791 71.2489C117.48 71.2732 116.192 71.2813 114.913 71.2813H114.435C114.346 71.2813 114.338 71.2651 114.298 71.2489L114.192 71.0546C114.217 70.4473 114.241 69.84 114.265 69.2408C114.281 68.8846 114.322 68.3016 114.298 67.9291C114.249 67.168 113.35 67.9372 113.221 68.3016C113.018 68.8684 112.881 69.4514 112.784 70.0424C112.735 70.3339 112.703 70.6254 112.678 70.925L112.67 71.0384V71.2408C112.678 71.3784 112.703 71.5161 112.751 71.6456C112.84 71.9128 112.986 72.1476 113.188 72.342C113.383 72.5363 113.634 72.682 113.893 72.763C114.152 72.8521 114.484 72.844 114.565 72.8359C114.848 72.8278 115.132 72.8116 115.407 72.7954C115.958 72.7549 116.492 72.6982 116.994 72.6335C118.848 72.3906 120.694 72.342 122.532 72.3744C122.775 72.3744 122.953 72.3906 123.261 72.3825C123.593 72.3582 123.909 72.2124 124.135 71.9695C124.37 71.7347 124.508 71.3946 124.516 71.0626L124.548 70.3744C124.597 69.4594 124.637 68.5445 124.686 67.6295C124.727 66.8603 124.103 66.1235 123.31 66.0344C123.075 66.0101 123.026 66.0182 122.897 66.0101L122.557 66.002L121.876 65.9858C120.97 65.9697 120.063 65.9778 119.164 66.0182C118.265 66.0587 117.366 66.1316 116.468 66.253C116.022 66.3097 115.569 66.3826 115.124 66.4717C114.905 66.5202 114.678 66.5607 114.451 66.6093C114.217 66.6498 113.99 66.7794 113.869 66.9575C113.779 67.0466 113.674 67.3461 113.771 67.5081C113.86 67.6862 114.006 67.6457 114.168 67.581C114.249 67.5567 114.314 67.5567 114.346 67.5648H114.387H114.403H114.411H114.492C114.962 67.5486 115.375 67.4838 115.528 67.4676C117.156 67.2733 118.872 67.3704 120.621 67.1437ZM119.998 66.917C120.03 67.0304 119.787 67.2652 119.747 67.1275C119.715 67.0061 119.957 66.7713 119.998 66.917Z" fill="black"/>
<path fill-rule="evenodd" clip-rule="evenodd" d="M120.621 77.7426C121.059 77.6859 121.488 77.6778 121.925 77.7021C122.144 77.7102 122.362 77.7345 122.573 77.7506L122.897 77.783C122.994 77.7992 123.148 77.8073 123.164 77.8235C123.342 77.9045 123.391 78.0988 123.342 78.196L123.334 78.2203L123.326 78.3012L123.31 78.4632L123.285 78.779C123.269 78.9895 123.261 79.2 123.261 79.4186C123.261 80.1069 123.261 80.787 123.261 81.4591C123.261 81.6858 123.261 81.6615 123.253 81.6858L123.212 81.7506L123.148 81.7829H123.131H123.018H122.767C121.423 81.8072 120.103 81.8315 118.791 81.8477C117.48 81.872 116.192 81.8801 114.913 81.872H114.435C114.346 81.872 114.338 81.8558 114.298 81.8396L114.192 81.6453C114.217 81.038 114.241 80.4307 114.265 79.8316C114.281 79.4753 114.322 78.8923 114.298 78.5199C114.249 77.7587 113.35 78.528 113.221 78.8923C113.018 79.4591 112.881 80.0421 112.784 80.6332C112.735 80.9247 112.703 81.2162 112.678 81.5076L112.67 81.621V81.8234C112.678 81.9611 112.703 82.0987 112.751 82.2283C112.84 82.4955 112.986 82.7303 113.188 82.9246C113.383 83.1189 113.634 83.2647 113.893 83.3457C114.152 83.4347 114.484 83.4266 114.565 83.4185C114.848 83.4104 115.132 83.3942 115.407 83.378C115.958 83.3376 116.492 83.2809 116.994 83.2161C118.848 82.9732 120.694 82.9246 122.532 82.957C122.775 82.957 122.953 82.9732 123.261 82.9651C123.593 82.9408 123.909 82.7951 124.135 82.5522C124.37 82.3173 124.508 81.9773 124.516 81.6453L124.548 80.957C124.597 80.0421 124.637 79.1271 124.686 78.2122C124.727 77.443 124.103 76.698 123.31 76.6171C123.075 76.5928 123.026 76.6009 122.897 76.5928L122.557 76.5847L121.876 76.5685C120.97 76.5523 120.063 76.5604 119.164 76.6009C118.265 76.6414 117.366 76.7142 116.468 76.8357C116.022 76.8924 115.569 76.9652 115.124 77.0543C114.905 77.1029 114.678 77.1434 114.451 77.192C114.217 77.2324 113.99 77.362 113.869 77.5401C113.779 77.6292 113.674 77.9288 113.771 78.0907C113.86 78.2689 114.006 78.2284 114.168 78.1636C114.249 78.1393 114.314 78.1393 114.346 78.1474H114.387H114.403H114.411H114.492C114.962 78.1312 115.375 78.0664 115.528 78.0502C117.156 77.8721 118.872 77.9693 120.621 77.7426ZM119.998 77.5158C120.03 77.6292 119.787 77.864 119.747 77.7264C119.715 77.6049 119.957 77.3701 119.998 77.5158Z" fill="black"/>
<path fill-rule="evenodd" clip-rule="evenodd" d="M139.269 101.119C139.163 101.208 139.026 101.272 138.88 101.272L138.159 101.281L136.702 101.297C136.24 101.281 135.641 101.362 135.447 101.24C135.309 101.175 135.196 101.062 135.131 100.924C135.058 100.779 135.058 100.673 135.058 100.39L135.066 94.5601C135.107 90.6735 135.147 86.8032 135.196 82.9328C135.309 75.2083 135.455 67.5324 135.463 59.9779V58.8281C135.479 58.3909 135.39 57.8403 135.196 57.395C134.815 56.4719 134.014 55.7351 133.058 55.4355C132.824 55.3626 132.573 55.3059 132.33 55.2817C132.208 55.2817 132.07 55.2736 131.965 55.2736H131.682H130.54H128.257C125.212 55.2736 122.168 55.2736 119.14 55.2736C116.111 55.2736 113.083 55.2817 110.071 55.2817C108.565 55.2817 107.059 55.2817 105.553 55.2898C104.581 55.2736 103.593 55.7027 102.954 56.4314C102.63 56.7958 102.379 57.2249 102.233 57.6865C102.16 57.9213 102.112 58.1642 102.087 58.399C102.071 58.5204 102.071 58.65 102.071 58.7553V59.0387C102.096 71.0303 102.12 82.8923 102.136 94.6087C102.136 96.0742 102.144 97.5317 102.144 98.9972V100.09V100.366V100.568C102.136 100.641 102.112 100.714 102.071 100.779C101.99 100.908 101.853 100.997 101.699 101.013L100.695 101.021H99.6016H99.0591H98.7838H98.6462C98.5733 101.021 98.5004 101.021 98.4276 101.038C97.8284 101.111 97.294 101.499 97.043 102.042C96.9053 102.293 96.8487 102.649 96.8568 102.868V103.41V105.58C96.8649 105.758 96.8325 105.912 96.8891 106.252C96.9377 106.544 97.0754 106.819 97.2616 107.054C97.4478 107.28 97.6907 107.467 97.966 107.58C98.1037 107.637 98.2494 107.677 98.3952 107.693C98.549 107.718 98.6948 107.71 98.7676 107.71C104.549 107.71 110.298 107.71 116.006 107.71C127.423 107.742 138.678 107.774 149.762 107.807C150.556 107.815 151.487 107.815 152.475 107.823C152.969 107.823 153.479 107.831 154.005 107.831H154.394C154.54 107.831 154.612 107.839 154.872 107.823C155.309 107.774 155.746 107.58 156.062 107.272C156.378 106.965 156.604 106.544 156.661 106.098C156.677 106.001 156.677 105.855 156.685 105.791V105.596V105.199C156.685 104.673 156.685 104.163 156.685 103.661C156.685 103.41 156.685 103.167 156.685 102.924C156.685 102.527 156.564 102.115 156.345 101.791C156.127 101.467 155.819 101.216 155.479 101.07C155.309 100.997 155.131 100.94 154.953 100.916C154.863 100.9 154.774 100.9 154.685 100.892H154.515C151.123 100.916 151.139 101.159 152.41 101.402C152.726 101.467 153.123 101.523 153.568 101.588C153.787 101.613 154.021 101.645 154.256 101.677C154.491 101.71 154.75 101.71 154.977 101.807C155.43 101.985 155.697 102.463 155.673 102.876C155.641 103.361 155.616 103.823 155.592 104.22L155.552 105.175C155.527 105.483 155.552 105.855 155.487 106.042C155.414 106.26 155.252 106.446 155.05 106.544C154.847 106.649 154.645 106.625 154.28 106.608C152.993 106.568 151.698 106.527 150.402 106.487C147.803 106.43 145.188 106.365 142.572 106.309C137.334 106.212 132.07 106.163 126.88 106.147C121.69 106.131 116.581 106.147 111.634 106.187C109.164 106.212 106.735 106.236 104.355 106.26C103.164 106.276 101.99 106.293 100.832 106.301C100.249 106.309 99.6745 106.317 99.1077 106.325L98.6786 106.333C98.5733 106.333 98.549 106.333 98.4923 106.309C98.3871 106.276 98.2899 106.195 98.2413 106.09L98.1928 105.936V105.896V105.799V105.604L98.1847 104.827L98.1604 103.272C98.1604 103.013 98.1442 102.706 98.1685 102.657C98.1928 102.544 98.2656 102.438 98.3628 102.366L98.5247 102.293C98.5895 102.276 98.6138 102.276 98.7676 102.268L99.545 102.26L101.1 102.244C101.383 102.228 101.553 102.268 101.974 102.204C102.338 102.131 102.687 101.936 102.929 101.661C103.18 101.386 103.334 101.03 103.367 100.657C103.383 100.447 103.367 100.358 103.375 100.22V99.8312L103.359 98.2766C103.326 94.139 103.302 90.0015 103.27 85.872C103.261 77.6374 103.253 69.3866 103.245 61.152V59.6054V58.8362C103.245 58.5852 103.261 58.3909 103.318 58.1723C103.529 57.314 104.29 56.6339 105.156 56.5124C105.359 56.48 105.593 56.4881 105.861 56.4881H106.63L108.168 56.4962L111.253 56.5043C115.366 56.5205 119.472 56.5448 123.569 56.561L129.714 56.5934L131.253 56.6015L132.014 56.6096C132.216 56.6096 132.419 56.65 132.621 56.7067C133.406 56.9496 134.006 57.6865 134.079 58.4962C134.062 62.5689 134.046 66.6336 134.022 70.6983C133.989 78.86 133.957 87.0056 133.925 95.1269L133.917 98.1713V99.6936V100.455V100.657C133.917 100.762 133.925 100.868 133.949 100.973C133.989 101.175 134.062 101.378 134.168 101.556C134.378 101.92 134.718 102.204 135.123 102.341C135.317 102.414 135.536 102.447 135.738 102.447H136.119H137.641H138.402H138.783C138.904 102.447 139.18 102.438 139.358 102.374C139.763 102.252 140.119 101.993 140.354 101.645C140.467 101.475 140.556 101.272 140.605 101.07C140.661 100.884 140.661 100.609 140.661 100.519C140.653 96.471 140.637 92.4306 140.629 88.3983C140.597 84.366 140.572 80.3337 140.54 76.3095L140.508 73.2974C140.491 72.9897 140.661 72.7225 140.929 72.6011C141.107 72.4877 141.714 72.5444 142.2 72.5201L145.212 72.4796L146.718 72.4553L147.471 72.4472C147.73 72.4472 147.973 72.431 148.167 72.4553C149.001 72.5282 149.762 73.1274 150.038 73.9452C150.111 74.1476 150.151 74.3581 150.159 74.5686L150.175 75.3055L150.2 76.8034C150.24 78.8034 150.281 80.8033 150.321 82.7952C150.418 86.787 150.523 90.7707 150.621 94.7463C150.653 95.8556 150.734 98.7705 150.847 100.649C150.88 101.005 151.131 101.208 151.309 101.264C151.495 101.329 151.617 101.272 151.633 101.248C151.657 101.208 151.576 101.191 151.455 101.111C151.398 101.07 151.325 100.997 151.277 100.9L151.236 100.73C151.244 100.609 151.252 100.479 151.252 100.333C151.56 94.1309 151.341 81.8478 151.317 79.1596C151.309 78.2447 151.301 77.3216 151.285 76.3986L151.268 75.014V74.6658C151.268 74.5363 151.26 74.3743 151.244 74.2367C151.212 73.9452 151.131 73.6618 151.026 73.3865C150.588 72.2934 149.536 71.4756 148.362 71.3299C148.216 71.3137 148.07 71.3056 147.924 71.2975H147.568H146.864L145.455 71.3056C144.516 71.3056 143.576 71.3137 142.637 71.3137L141.212 71.3218C140.491 71.3218 139.803 71.7671 139.504 72.4149C139.423 72.5768 139.374 72.7468 139.342 72.925C139.309 73.1031 139.309 73.2974 139.309 73.3946V74.1071L139.317 75.5322C139.317 76.4795 139.325 77.435 139.325 78.3904C139.342 82.2041 139.358 86.0583 139.374 89.9205C139.39 91.8557 139.406 93.7909 139.423 95.7422L139.455 98.6652L139.471 100.131C139.471 100.358 139.487 100.673 139.471 100.762C139.447 100.892 139.374 101.021 139.269 101.119ZM139.722 96.0175C139.609 96.309 139.374 94.1471 139.512 93.7828C139.633 93.4994 139.868 95.6532 139.722 96.0175Z" fill="black"/>
</svg>
