<svg width="255" height="206" viewBox="0 0 255 206" fill="none" xmlns="http://www.w3.org/2000/svg">
<path d="M92.1334 177C91.7494 177 91.4454 176.896 91.2214 176.688C91.0134 176.464 90.9094 176.168 90.9094 175.8V161.28C90.9094 160.912 91.0134 160.624 91.2214 160.416C91.4454 160.192 91.7494 160.08 92.1334 160.08H100.965C101.333 160.08 101.613 160.168 101.805 160.344C102.013 160.52 102.117 160.768 102.117 161.088C102.117 161.408 102.013 161.656 101.805 161.832C101.613 161.992 101.333 162.072 100.965 162.072H93.3334V167.4H100.485C100.853 167.4 101.133 167.488 101.325 167.664C101.533 167.84 101.637 168.088 101.637 168.408C101.637 168.728 101.533 168.976 101.325 169.152C101.133 169.328 100.853 169.416 100.485 169.416H93.3334V175.008H100.965C101.733 175.008 102.117 175.336 102.117 175.992C102.117 176.312 102.013 176.56 101.805 176.736C101.613 176.912 101.333 177 100.965 177H92.1334ZM111.222 165C114.022 165 115.422 166.576 115.422 169.728V175.968C115.422 176.336 115.31 176.624 115.086 176.832C114.878 177.024 114.582 177.12 114.198 177.12C113.83 177.12 113.534 177.016 113.31 176.808C113.102 176.6 112.998 176.32 112.998 175.968V169.848C112.998 168.856 112.798 168.128 112.398 167.664C112.014 167.2 111.406 166.968 110.574 166.968C109.598 166.968 108.814 167.272 108.222 167.88C107.63 168.488 107.334 169.304 107.334 170.328V175.968C107.334 176.32 107.222 176.6 106.998 176.808C106.79 177.016 106.502 177.12 106.134 177.12C105.766 177.12 105.47 177.016 105.246 176.808C105.022 176.6 104.91 176.32 104.91 175.968V166.2C104.91 165.864 105.022 165.592 105.246 165.384C105.486 165.16 105.782 165.048 106.134 165.048C106.486 165.048 106.766 165.152 106.974 165.36C107.182 165.568 107.286 165.84 107.286 166.176V167.16C107.67 166.456 108.206 165.92 108.894 165.552C109.582 165.184 110.358 165 111.222 165ZM128.157 174.048C128.381 174.048 128.565 174.136 128.709 174.312C128.853 174.488 128.925 174.712 128.925 174.984C128.925 175.448 128.637 175.84 128.061 176.16C127.501 176.48 126.885 176.728 126.213 176.904C125.557 177.08 124.925 177.168 124.317 177.168C122.461 177.168 120.997 176.632 119.925 175.56C118.853 174.472 118.317 172.992 118.317 171.12C118.317 169.92 118.549 168.856 119.013 167.928C119.493 167 120.157 166.28 121.005 165.768C121.869 165.256 122.845 165 123.933 165C125.501 165 126.741 165.504 127.653 166.512C128.565 167.52 129.021 168.88 129.021 170.592C129.021 171.232 128.733 171.552 128.157 171.552H120.741C120.901 174.032 122.093 175.272 124.317 175.272C124.909 175.272 125.421 175.192 125.853 175.032C126.285 174.872 126.741 174.664 127.221 174.408C127.269 174.376 127.397 174.312 127.605 174.216C127.829 174.104 128.013 174.048 128.157 174.048ZM123.981 166.776C123.053 166.776 122.309 167.072 121.749 167.664C121.189 168.256 120.853 169.088 120.741 170.16H126.933C126.885 169.072 126.605 168.24 126.093 167.664C125.597 167.072 124.893 166.776 123.981 166.776ZM138.086 165.048C138.854 165 139.238 165.328 139.238 166.032C139.238 166.384 139.15 166.648 138.974 166.824C138.798 167 138.494 167.104 138.062 167.136L137.342 167.208C136.334 167.304 135.582 167.656 135.086 168.264C134.606 168.872 134.366 169.608 134.366 170.472V175.968C134.366 176.352 134.254 176.64 134.03 176.832C133.806 177.024 133.518 177.12 133.166 177.12C132.814 177.12 132.518 177.024 132.278 176.832C132.054 176.64 131.942 176.352 131.942 175.968V166.2C131.942 165.832 132.054 165.552 132.278 165.36C132.518 165.152 132.814 165.048 133.166 165.048C133.486 165.048 133.75 165.152 133.958 165.36C134.182 165.552 134.294 165.824 134.294 166.176V167.328C134.614 166.624 135.078 166.088 135.686 165.72C136.294 165.352 136.982 165.136 137.75 165.072L138.086 165.048ZM150.442 165.048C150.81 165.048 151.098 165.16 151.306 165.384C151.53 165.592 151.642 165.872 151.642 166.224V176.064C151.642 177.856 151.162 179.208 150.202 180.12C149.258 181.032 147.858 181.488 146.002 181.488C144.274 181.488 142.834 181.16 141.682 180.504C141.09 180.168 140.794 179.768 140.794 179.304C140.794 179.032 140.866 178.808 141.01 178.632C141.17 178.456 141.362 178.368 141.586 178.368C141.794 178.368 142.122 178.488 142.57 178.728C143.146 179 143.682 179.208 144.178 179.352C144.674 179.512 145.266 179.592 145.954 179.592C148.162 179.592 149.266 178.48 149.266 176.256V174.408C148.93 175.112 148.418 175.664 147.73 176.064C147.042 176.448 146.242 176.64 145.33 176.64C144.306 176.64 143.394 176.4 142.594 175.92C141.794 175.44 141.17 174.76 140.722 173.88C140.29 173 140.074 171.984 140.074 170.832C140.074 169.68 140.298 168.664 140.746 167.784C141.194 166.904 141.81 166.224 142.594 165.744C143.394 165.248 144.306 165 145.33 165C146.226 165 147.01 165.192 147.682 165.576C148.37 165.96 148.89 166.504 149.242 167.208V166.2C149.242 165.848 149.346 165.568 149.554 165.36C149.778 165.152 150.074 165.048 150.442 165.048ZM145.906 174.72C146.946 174.72 147.762 174.376 148.354 173.688C148.946 173 149.242 172.048 149.242 170.832C149.242 169.632 148.946 168.688 148.354 168C147.778 167.296 146.962 166.944 145.906 166.944C144.85 166.944 144.018 167.288 143.41 167.976C142.818 168.664 142.522 169.616 142.522 170.832C142.522 172.048 142.826 173 143.434 173.688C144.042 174.376 144.866 174.72 145.906 174.72ZM163.598 165.768C163.694 165.528 163.83 165.352 164.006 165.24C164.198 165.128 164.398 165.072 164.606 165.072C164.91 165.072 165.174 165.176 165.398 165.384C165.638 165.592 165.758 165.84 165.758 166.128C165.758 166.288 165.726 166.44 165.662 166.584L158.99 180.744C158.894 180.968 158.75 181.136 158.558 181.248C158.382 181.376 158.19 181.44 157.982 181.44C157.694 181.44 157.43 181.344 157.19 181.152C156.966 180.96 156.854 180.72 156.854 180.432C156.854 180.304 156.894 180.144 156.974 179.952L158.63 176.424L153.998 166.584C153.934 166.456 153.902 166.312 153.902 166.152C153.902 165.848 154.03 165.592 154.286 165.384C154.542 165.176 154.83 165.072 155.15 165.072C155.63 165.072 155.974 165.296 156.182 165.744L159.902 174L163.598 165.768Z" fill="#384248"/>
<rect x="77" y="32" width="100" height="100" rx="4" fill="#F5F6F8"/>
<g clip-path="url(#clip0)">
<path d="M115.484 97.6859C114.647 94.1063 110.878 91.1753 109.327 89.2377C106.675 85.929 105.016 81.9307 104.532 77.7189C104.047 73.5071 104.77 69.2379 106.609 65.412C108.448 61.5943 111.33 58.3595 114.926 56.1017C118.514 53.8439 122.676 52.6453 126.913 52.6453C131.157 52.6453 135.311 53.8439 138.899 56.1017C142.487 58.3595 145.377 61.5943 147.208 65.4202C149.047 69.2461 149.761 73.5071 149.285 77.7271C148.801 81.9389 147.142 85.9372 144.49 89.2459C143.037 91.0603 139.614 93.7614 138.522 97.0537C138.39 97.4396 138.021 97.6859 137.61 97.6859H115.484ZM138.169 104.09V106.003C138.169 106.791 138.045 107.579 137.742 108.302C136.822 110.469 134.745 111.766 132.536 111.766H121.412C120.624 111.766 119.835 111.643 119.113 111.339C116.945 110.42 115.648 108.343 115.648 106.134V104.09C115.648 103.663 115.993 103.318 116.42 103.318H137.397C137.824 103.318 138.169 103.663 138.169 104.09ZM129.729 74.4431V66.1098C129.729 65.4038 128.825 65.1082 128.407 65.6665L117.939 79.6319C117.578 80.1163 117.922 80.8059 118.53 80.8059H123.366C123.776 80.8059 124.105 81.1343 124.105 81.5366V89.8699C124.105 90.5759 125 90.8715 125.427 90.3132L135.894 76.3642C136.256 75.8798 135.911 75.1902 135.303 75.1902H130.459C130.057 75.182 129.729 74.8536 129.729 74.4431Z" fill="white"/>
<path fill-rule="evenodd" clip-rule="evenodd" d="M129.302 84.3527C128.177 86.044 126.888 87.6121 125.591 89.1556L125.106 89.7303C125.041 89.8124 124.909 89.9684 124.909 89.9438H124.86L124.794 89.8863L124.811 89.8699L124.819 89.8535L124.827 89.6975C124.876 88.6959 124.917 87.7024 124.917 86.7254C124.917 85.1245 124.917 83.5399 124.917 81.9554V81.6598V81.4874C124.917 81.3807 124.901 81.2822 124.876 81.1754C124.778 80.7649 124.515 80.4119 124.154 80.1984C123.809 79.9685 123.267 79.9767 123.169 79.985H122.578C121.789 79.9932 121.009 79.9932 120.221 80.0014L119.047 80.0096H118.752H118.604H118.53L118.522 80.026C118.505 80.1163 118.514 80.0588 118.53 80.0588H118.497C118.497 80.026 118.522 80.1738 118.661 79.9357L119.351 78.9997C120.271 77.7518 121.182 76.5203 122.085 75.2888C123.908 72.834 125.714 70.4202 127.487 68.0311C127.939 67.4399 128.382 66.8488 128.825 66.2577L128.908 66.1509L128.957 66.0853V66.0688L128.973 66.0853H128.998L128.981 66.0935V66.1263V66.2659C128.957 67.7355 128.932 69.1887 128.908 70.6337C128.891 71.4629 128.85 72.834 128.875 73.6878C128.924 75.4612 129.835 73.6714 129.967 72.8175C130.172 71.4875 130.312 70.1246 130.41 68.7618C130.459 68.0803 130.492 67.3907 130.517 66.7092L130.533 66.2002C130.533 66.1509 130.541 65.9457 130.5 65.7733C130.468 65.5927 130.394 65.412 130.295 65.256C129.893 64.6074 129.08 64.3447 128.366 64.6239C128.193 64.6895 128.029 64.7963 127.89 64.9194L127.709 65.1165L127.619 65.2314L127.315 65.6337C127.118 65.9046 126.913 66.1756 126.716 66.4383C126.33 66.9802 125.944 67.5138 125.574 68.0393C124.835 69.0984 124.129 70.1246 123.481 71.1098C122.282 72.9161 121.051 74.6812 119.786 76.43L117.873 79.0326L117.635 79.3528C117.545 79.4677 117.422 79.6812 117.397 79.8782C117.323 80.2887 117.496 80.7157 117.832 80.962C117.996 81.0851 118.202 81.1672 118.399 81.1836C118.604 81.2001 118.686 81.1918 118.834 81.1918L119.638 81.2001L122.857 81.2329L123.259 81.2411C123.399 81.2411 123.39 81.2493 123.456 81.2739C123.555 81.3232 123.612 81.4299 123.604 81.5285L123.571 83.1212C123.522 85.2641 123.481 87.3987 123.431 89.5251V89.7221C123.431 89.796 123.423 89.8289 123.431 89.9766C123.448 90.2147 123.53 90.4693 123.678 90.6745C123.982 91.085 124.482 91.2985 124.983 91.241C125.238 91.2164 125.484 91.1014 125.681 90.9372C125.78 90.8633 125.87 90.7484 125.927 90.6827L126.05 90.5267L126.535 89.8945L128.472 87.374C129.753 85.691 131.018 83.9997 132.249 82.292C133.481 80.5843 134.679 78.8602 135.837 77.1196L136.05 76.7912L136.157 76.627C136.198 76.5613 136.264 76.4628 136.297 76.3725C136.453 75.9866 136.362 75.5433 136.116 75.2559C135.886 74.944 135.41 74.829 135.139 74.8865L134.359 74.9522C133.316 75.0425 132.282 75.141 131.239 75.2559C131.091 75.2724 130.837 75.3052 130.541 75.338C130.254 75.4201 129.786 75.3052 129.564 75.0343C129.318 74.7798 129.269 74.4842 129.195 74.4596C129.162 74.4431 129.121 74.4924 129.105 74.6484C129.096 74.7962 129.105 75.0753 129.326 75.3955C129.441 75.5597 129.597 75.7075 129.802 75.8142C129.983 75.9292 130.295 75.9866 130.451 75.9866C130.697 76.0113 130.952 76.0277 131.223 76.0359C131.765 76.0605 132.339 76.0605 132.881 76.0523C133.423 76.0359 133.94 76.0195 134.367 76.0031C134.761 75.9866 135.073 75.9702 135.238 75.962C135.27 75.8553 135.221 75.9538 135.238 75.9292L135.262 75.9374C135.287 75.9045 135.188 76.0523 135.123 76.1426L134.909 76.4382L134.482 77.0293C133.908 77.8175 133.325 78.6221 132.742 79.4267C131.617 81.0194 130.435 82.6532 129.302 84.3527ZM130.361 83.3347C130.221 83.3265 130.369 82.7353 130.541 82.7435C130.681 82.7518 130.533 83.3429 130.361 83.3347Z" fill="black"/>
<path fill-rule="evenodd" clip-rule="evenodd" d="M124.22 102.85C122.594 102.965 120.968 102.883 119.351 102.768C118.546 102.711 117.742 102.653 116.937 102.596L116.633 102.579L116.486 102.571H116.412H116.264C115.87 102.596 115.484 102.793 115.221 103.088C115.09 103.236 114.983 103.417 114.918 103.605C114.885 103.704 114.86 103.803 114.852 103.901C114.835 104 114.835 104.114 114.835 104.147L114.827 104.738V105.699V106.183C114.835 106.364 114.835 106.553 114.852 106.734C114.918 107.464 115.115 108.17 115.418 108.835C116.026 110.157 117.093 111.241 118.374 111.873C119.006 112.201 119.729 112.407 120.418 112.489C120.763 112.53 121.116 112.546 121.453 112.538L122.381 112.53C123.62 112.522 124.852 112.505 126.075 112.497C127.298 112.489 128.514 112.481 129.72 112.472C130.328 112.472 130.927 112.472 131.527 112.464H132.422C132.733 112.464 133.087 112.448 133.415 112.407C136.1 112.062 138.366 109.911 138.858 107.275C138.932 106.906 138.99 106.405 138.998 105.929C139.006 105.486 139.014 105.042 138.998 104.697C138.949 103.277 138.037 104.714 137.906 105.395C137.733 106.479 137.512 107.448 136.986 108.261C136.486 109.09 135.796 109.763 134.999 110.223C134.195 110.691 133.325 110.929 132.405 110.954C131.371 110.995 130.377 111.052 129.433 111.118C127.701 111.241 125.977 111.315 124.244 111.356L121.658 111.389C120.812 111.413 120.008 111.307 119.277 110.995C117.791 110.371 116.666 109.024 116.305 107.497C116.207 107.119 116.166 106.725 116.166 106.339C116.166 105.954 116.182 105.494 116.19 105.075L116.207 104.435L116.215 104.114L116.239 104.032L116.354 103.95C116.395 103.942 116.354 103.95 116.469 103.95L116.789 103.958C123.612 104.131 130.369 104.197 137.011 103.269C137.142 103.261 137.307 103.203 137.602 103.211C137.881 103.228 138.177 103.417 138.341 103.638C138.513 103.86 138.571 104.082 138.637 104.106C138.678 104.139 138.858 103.926 138.645 103.351C138.522 103.064 138.267 102.784 137.889 102.628C137.799 102.587 137.701 102.563 137.594 102.538C137.504 102.522 137.356 102.514 137.331 102.505C137.224 102.497 137.118 102.489 137.011 102.481C136.576 102.456 136.124 102.456 135.681 102.464C134.811 102.481 134.022 102.546 133.743 102.563C130.697 102.719 127.487 102.62 124.22 102.85ZM125.385 103.088C125.328 102.973 125.771 102.735 125.853 102.875C125.911 102.99 125.459 103.228 125.385 103.088Z" fill="black"/>
<path fill-rule="evenodd" clip-rule="evenodd" d="M146.978 86.3724C148.957 82.6039 150.04 78.3757 149.958 74.1147C149.893 69.8701 148.62 65.6255 146.272 62.1362C144.375 59.3037 141.855 56.9228 138.965 55.1822C136.075 53.4417 132.824 52.3579 129.507 51.9967C122.865 51.2414 116.075 53.5402 111.297 57.9408C106.478 62.3086 103.719 68.6714 103.694 74.985C103.612 81.2985 106.215 87.5382 110.616 91.7993C111.198 92.415 111.954 93.2278 112.627 94.0899C113.3 94.9437 113.875 95.8468 114.212 96.5693C114.31 96.7499 114.368 96.9224 114.433 97.0619L114.524 97.259H114.565C114.647 97.1933 114.844 97.2097 114.926 97.259C115.115 97.3575 115.024 97.3985 115.049 97.259C115.049 97.2179 115.074 97.1687 115.074 97.0701C115.065 96.9634 115.057 96.8485 115.041 96.7335C115.016 96.4954 114.967 96.2327 114.893 95.97C114.753 95.4363 114.524 94.9109 114.302 94.525C113.612 93.3099 112.717 92.2015 111.806 91.1342L110.435 89.5579C109.992 89.0489 109.614 88.507 109.22 87.9323C107.693 85.6745 106.584 83.1458 105.928 80.5514C104.606 75.3544 105.279 69.9193 107.233 65.6501C108.998 61.7092 112.028 58.3185 115.763 56.0935C119.499 53.8522 123.924 52.8013 128.259 53.0886C132.594 53.3596 136.814 54.977 140.221 57.6206C143.628 60.2561 146.214 63.8931 147.577 67.9325C148.948 71.9719 149.104 76.3725 148.062 80.4611C147.545 82.5054 146.732 84.4676 145.664 86.2821C145.131 87.1852 144.531 88.0555 143.875 88.8682C143.234 89.6482 142.446 90.42 141.707 91.2163C140.229 92.8091 138.727 94.5661 137.972 96.791C137.939 96.8813 137.939 96.8895 137.931 96.9059L137.898 96.9634L137.783 97.0619L137.627 97.1112L137.249 97.1194L135.632 97.1522L132.405 97.2343C128.103 97.3575 123.817 97.5217 119.548 97.7598C118.653 97.809 115.583 97.965 115.476 98.1703L115.468 97.2015C115.254 97.2097 115.147 97.3329 115.147 97.3246C115.131 97.3411 115.221 97.2015 115.468 97.1851L115.476 98.1867V98.1949L115.492 98.2031L115.542 98.2278C115.583 98.2442 115.648 98.2606 115.739 98.277C115.911 98.3099 116.174 98.3427 116.543 98.3755C119.868 98.6875 126.461 98.4659 127.906 98.4412C129.876 98.4166 131.871 98.3838 133.883 98.3591C134.893 98.3509 135.903 98.3427 136.921 98.3345L137.733 98.3263C138.152 98.2934 138.563 98.0964 138.842 97.7598C138.981 97.612 139.096 97.3575 139.137 97.2179L139.261 96.8895C139.334 96.6678 139.449 96.4544 139.548 96.2409C140.402 94.5168 141.781 93.0061 143.193 91.5119C143.891 90.7648 144.663 89.9848 145.279 89.1063C145.911 88.2361 146.477 87.3247 146.978 86.3724ZM145.131 88.7944C145.32 88.7369 144.794 89.8206 144.531 89.8863C144.359 89.9273 144.909 88.8682 145.131 88.7944Z" fill="black"/>
</g>
<defs>
<clipPath id="clip0">
<rect width="61.54" height="61.54" fill="white" transform="translate(96 51)"/>
</clipPath>
</defs>
</svg>
