<svg width="255" height="206" viewBox="0 0 255 206" fill="none" xmlns="http://www.w3.org/2000/svg">
<path d="M76.2037 177C75.8197 177 75.5157 176.896 75.2917 176.688C75.0837 176.464 74.9797 176.168 74.9797 175.8V161.28C74.9797 160.912 75.0837 160.624 75.2917 160.416C75.5157 160.192 75.8197 160.08 76.2037 160.08H85.0357C85.4037 160.08 85.6837 160.168 85.8757 160.344C86.0837 160.52 86.1877 160.768 86.1877 161.088C86.1877 161.408 86.0837 161.656 85.8757 161.832C85.6837 161.992 85.4037 162.072 85.0357 162.072H77.4037V167.4H84.5557C84.9237 167.4 85.2037 167.488 85.3957 167.664C85.6037 167.84 85.7077 168.088 85.7077 168.408C85.7077 168.728 85.6037 168.976 85.3957 169.152C85.2037 169.328 84.9237 169.416 84.5557 169.416H77.4037V175.008H85.0357C85.8037 175.008 86.1877 175.336 86.1877 175.992C86.1877 176.312 86.0837 176.56 85.8757 176.736C85.6837 176.912 85.4037 177 85.0357 177H76.2037ZM98.5568 159.96C98.9248 159.96 99.2208 160.064 99.4448 160.272C99.6688 160.48 99.7808 160.76 99.7808 161.112V175.944C99.7808 176.312 99.6688 176.6 99.4448 176.808C99.2368 177.016 98.9488 177.12 98.5808 177.12C98.2128 177.12 97.9168 177.016 97.6928 176.808C97.4848 176.6 97.3808 176.312 97.3808 175.944V174.984C97.0288 175.688 96.5168 176.232 95.8448 176.616C95.1728 176.984 94.3968 177.168 93.5168 177.168C92.5088 177.168 91.6048 176.912 90.8048 176.4C90.0208 175.888 89.4048 175.168 88.9568 174.24C88.5248 173.312 88.3088 172.248 88.3088 171.048C88.3088 169.832 88.5248 168.768 88.9568 167.856C89.4048 166.944 90.0208 166.24 90.8048 165.744C91.5888 165.248 92.4928 165 93.5168 165C94.3968 165 95.1648 165.192 95.8208 165.576C96.4928 165.944 97.0048 166.472 97.3568 167.16V161.064C97.3568 160.728 97.4608 160.464 97.6688 160.272C97.8928 160.064 98.1888 159.96 98.5568 159.96ZM94.0928 175.248C95.1328 175.248 95.9408 174.888 96.5168 174.168C97.0928 173.448 97.3808 172.424 97.3808 171.096C97.3808 169.768 97.0928 168.744 96.5168 168.024C95.9568 167.304 95.1488 166.944 94.0928 166.944C93.0368 166.944 92.2128 167.304 91.6208 168.024C91.0448 168.728 90.7568 169.736 90.7568 171.048C90.7568 172.36 91.0528 173.392 91.6448 174.144C92.2368 174.88 93.0528 175.248 94.0928 175.248ZM112.482 165.048C112.85 165.048 113.138 165.152 113.346 165.36C113.57 165.568 113.682 165.856 113.682 166.224V175.992C113.682 176.328 113.57 176.6 113.346 176.808C113.122 177.016 112.826 177.12 112.458 177.12C112.122 177.12 111.85 177.024 111.642 176.832C111.434 176.624 111.33 176.352 111.33 176.016V175.104C110.962 175.776 110.45 176.288 109.794 176.64C109.154 176.992 108.434 177.168 107.634 177.168C104.786 177.168 103.362 175.6 103.362 172.464V166.224C103.362 165.856 103.466 165.568 103.674 165.36C103.898 165.152 104.202 165.048 104.586 165.048C104.954 165.048 105.242 165.152 105.45 165.36C105.674 165.568 105.786 165.856 105.786 166.224V172.44C105.786 173.384 105.978 174.08 106.362 174.528C106.746 174.976 107.338 175.2 108.138 175.2C109.082 175.2 109.834 174.896 110.394 174.288C110.97 173.68 111.258 172.872 111.258 171.864V166.224C111.258 165.872 111.37 165.592 111.594 165.384C111.818 165.16 112.114 165.048 112.482 165.048ZM122.341 177.168C121.205 177.168 120.205 176.92 119.341 176.424C118.493 175.928 117.829 175.224 117.349 174.312C116.885 173.4 116.653 172.344 116.653 171.144C116.653 169.928 116.893 168.856 117.373 167.928C117.869 167 118.557 166.28 119.437 165.768C120.317 165.256 121.325 165 122.461 165C123.069 165 123.677 165.088 124.285 165.264C124.909 165.44 125.461 165.68 125.941 165.984C126.453 166.336 126.709 166.744 126.709 167.208C126.709 167.48 126.637 167.712 126.493 167.904C126.349 168.08 126.165 168.168 125.941 168.168C125.797 168.168 125.653 168.136 125.509 168.072C125.365 167.992 125.181 167.88 124.957 167.736C124.557 167.48 124.181 167.288 123.829 167.16C123.493 167.016 123.085 166.944 122.605 166.944C121.517 166.944 120.669 167.312 120.061 168.048C119.469 168.784 119.173 169.808 119.173 171.12C119.173 172.432 119.469 173.448 120.061 174.168C120.653 174.872 121.493 175.224 122.581 175.224C123.061 175.224 123.485 175.152 123.853 175.008C124.221 174.864 124.597 174.672 124.981 174.432C125.157 174.32 125.333 174.224 125.509 174.144C125.685 174.064 125.845 174.024 125.989 174.024C126.213 174.024 126.397 174.12 126.541 174.312C126.685 174.488 126.757 174.712 126.757 174.984C126.757 175.208 126.693 175.416 126.565 175.608C126.453 175.784 126.253 175.968 125.965 176.16C125.485 176.48 124.925 176.728 124.285 176.904C123.645 177.08 122.997 177.168 122.341 177.168ZM134.096 165C135.648 165 136.8 165.392 137.552 166.176C138.32 166.96 138.704 168.152 138.704 169.752V175.968C138.704 176.336 138.6 176.624 138.392 176.832C138.184 177.024 137.896 177.12 137.528 177.12C137.176 177.12 136.896 177.016 136.688 176.808C136.48 176.6 136.376 176.32 136.376 175.968V175.08C136.072 175.752 135.616 176.272 135.008 176.64C134.416 176.992 133.72 177.168 132.92 177.168C132.152 177.168 131.448 177.016 130.808 176.712C130.184 176.392 129.688 175.96 129.32 175.416C128.952 174.872 128.768 174.256 128.768 173.568C128.752 172.704 128.968 172.032 129.416 171.552C129.864 171.056 130.592 170.704 131.6 170.496C132.608 170.272 134.008 170.16 135.8 170.16H136.352V169.464C136.352 168.568 136.168 167.92 135.8 167.52C135.432 167.12 134.84 166.92 134.024 166.92C133.464 166.92 132.936 166.992 132.44 167.136C131.944 167.28 131.4 167.488 130.808 167.76C130.376 168 130.072 168.12 129.896 168.12C129.656 168.12 129.456 168.032 129.296 167.856C129.152 167.68 129.08 167.456 129.08 167.184C129.08 166.944 129.144 166.736 129.272 166.56C129.416 166.368 129.64 166.184 129.944 166.008C130.504 165.704 131.16 165.464 131.912 165.288C132.664 165.096 133.392 165 134.096 165ZM133.352 175.368C134.232 175.368 134.952 175.072 135.512 174.48C136.072 173.872 136.352 173.096 136.352 172.152V171.528H135.92C134.672 171.528 133.712 171.584 133.04 171.696C132.368 171.808 131.888 172 131.6 172.272C131.312 172.528 131.168 172.904 131.168 173.4C131.168 173.976 131.376 174.448 131.792 174.816C132.208 175.184 132.728 175.368 133.352 175.368ZM148.006 175.272C148.358 175.304 148.606 175.4 148.75 175.56C148.91 175.704 148.99 175.912 148.99 176.184C148.99 176.504 148.862 176.752 148.606 176.928C148.366 177.088 148.006 177.152 147.526 177.12L146.878 177.072C145.582 176.976 144.614 176.584 143.974 175.896C143.334 175.192 143.014 174.16 143.014 172.8V167.16H141.574C140.87 167.16 140.518 166.848 140.518 166.224C140.518 165.936 140.606 165.712 140.782 165.552C140.974 165.376 141.238 165.288 141.574 165.288H143.014V162.816C143.014 162.448 143.118 162.16 143.326 161.952C143.55 161.744 143.846 161.64 144.214 161.64C144.582 161.64 144.878 161.744 145.102 161.952C145.326 162.16 145.438 162.448 145.438 162.816V165.288H147.814C148.15 165.288 148.406 165.376 148.582 165.552C148.774 165.712 148.87 165.936 148.87 166.224C148.87 166.528 148.774 166.76 148.582 166.92C148.406 167.08 148.15 167.16 147.814 167.16H145.438V172.968C145.438 173.72 145.59 174.272 145.894 174.624C146.214 174.976 146.694 175.176 147.334 175.224L148.006 175.272ZM152.205 177.12C151.853 177.12 151.557 177.024 151.317 176.832C151.093 176.64 150.981 176.352 150.981 175.968V166.224C150.981 165.84 151.093 165.552 151.317 165.36C151.557 165.152 151.853 165.048 152.205 165.048C152.557 165.048 152.845 165.152 153.069 165.36C153.293 165.552 153.405 165.84 153.405 166.224V175.968C153.405 176.352 153.293 176.64 153.069 176.832C152.845 177.024 152.557 177.12 152.205 177.12ZM152.205 162.696C151.741 162.696 151.373 162.568 151.101 162.312C150.829 162.056 150.693 161.72 150.693 161.304C150.693 160.888 150.829 160.56 151.101 160.32C151.373 160.064 151.741 159.936 152.205 159.936C152.653 159.936 153.013 160.064 153.285 160.32C153.573 160.56 153.717 160.888 153.717 161.304C153.717 161.72 153.581 162.056 153.309 162.312C153.037 162.568 152.669 162.696 152.205 162.696ZM162.131 177.168C160.979 177.168 159.963 176.92 159.083 176.424C158.219 175.928 157.547 175.224 157.067 174.312C156.603 173.384 156.371 172.312 156.371 171.096C156.371 169.864 156.603 168.792 157.067 167.88C157.547 166.952 158.219 166.24 159.083 165.744C159.963 165.248 160.979 165 162.131 165C163.283 165 164.291 165.248 165.155 165.744C166.035 166.24 166.707 166.952 167.171 167.88C167.651 168.792 167.891 169.864 167.891 171.096C167.891 172.312 167.651 173.384 167.171 174.312C166.707 175.224 166.035 175.928 165.155 176.424C164.291 176.92 163.283 177.168 162.131 177.168ZM162.131 175.248C163.203 175.248 164.019 174.896 164.579 174.192C165.155 173.488 165.443 172.456 165.443 171.096C165.443 169.752 165.155 168.728 164.579 168.024C164.003 167.304 163.187 166.944 162.131 166.944C161.075 166.944 160.259 167.304 159.683 168.024C159.107 168.728 158.819 169.752 158.819 171.096C158.819 172.456 159.099 173.488 159.659 174.192C160.235 174.896 161.059 175.248 162.131 175.248ZM177.152 165C179.952 165 181.352 166.576 181.352 169.728V175.968C181.352 176.336 181.24 176.624 181.016 176.832C180.808 177.024 180.512 177.12 180.128 177.12C179.76 177.12 179.464 177.016 179.24 176.808C179.032 176.6 178.928 176.32 178.928 175.968V169.848C178.928 168.856 178.728 168.128 178.328 167.664C177.944 167.2 177.336 166.968 176.504 166.968C175.528 166.968 174.744 167.272 174.152 167.88C173.56 168.488 173.264 169.304 173.264 170.328V175.968C173.264 176.32 173.152 176.6 172.928 176.808C172.72 177.016 172.432 177.12 172.064 177.12C171.696 177.12 171.4 177.016 171.176 176.808C170.952 176.6 170.84 176.32 170.84 175.968V166.2C170.84 165.864 170.952 165.592 171.176 165.384C171.416 165.16 171.712 165.048 172.064 165.048C172.416 165.048 172.696 165.152 172.904 165.36C173.112 165.568 173.216 165.84 173.216 166.176V167.16C173.6 166.456 174.136 165.92 174.824 165.552C175.512 165.184 176.288 165 177.152 165Z" fill="#384248"/>
<rect x="78" y="32" width="100" height="100" rx="4" fill="#F5F6F8"/>
<g clip-path="url(#clip0)">
<g clip-path="url(#clip1)">
<path d="M151.867 111.71H112.017C109.279 111.71 106.647 110.619 104.712 108.684C102.777 106.749 101.686 104.117 101.686 101.378V61.529C101.686 59.184 102.621 56.9291 104.277 55.2646C105.933 53.6001 108.188 52.6736 110.541 52.6736H151.867C152.654 52.6736 153.4 52.9852 153.958 53.5345C154.507 54.0839 154.819 54.8382 154.819 55.6254V108.758C154.819 109.545 154.507 110.291 153.958 110.841C153.4 111.398 152.646 111.71 151.867 111.71ZM148.915 104.806V97.9593C148.915 97.4017 148.464 96.9507 147.906 96.9507H112.026C111.566 96.9507 111.107 97.0081 110.673 97.1475C108.754 97.7871 107.59 99.5172 107.59 101.378C107.59 103.24 108.754 104.97 110.681 105.609C111.115 105.757 111.575 105.806 112.034 105.806H147.915C148.464 105.806 148.915 105.355 148.915 104.806ZM122.349 58.5772V80.7978C122.349 81.4209 123.021 81.8063 123.562 81.5029L132.278 76.5176C132.524 76.3783 132.836 76.3783 133.082 76.5176L141.798 81.5029C142.339 81.8145 143.011 81.4209 143.011 80.7978V58.5772H122.349Z" fill="white"/>
<path fill-rule="evenodd" clip-rule="evenodd" d="M142.544 60.7102C142.773 65.8595 142.208 71.0169 142.191 76.0186C142.191 77.0353 142.191 78.0439 142.191 79.0524V80.5611V80.7497C142.191 80.8399 142.183 80.7743 142.191 80.7989H142.208L142.199 80.8153L142.208 80.7907L141.921 80.6267L141.265 80.2577L139.961 79.5198C139.092 79.0278 138.223 78.5358 137.362 78.0521C136.501 77.5683 135.632 77.0763 134.779 76.5926L133.492 75.8628C133.123 75.6332 132.565 75.5676 132.13 75.748C131.86 75.8628 131.811 75.912 131.696 75.9776L131.376 76.1662C129.679 77.1501 127.99 78.1259 126.309 79.1016C125.472 79.5854 124.636 80.0691 123.8 80.5529L123.201 80.8973L123.119 80.9055L123.054 80.8399V80.8153V80.6677V80.3151C123.045 78.4456 123.037 76.5926 123.037 74.7477C123.029 71.0743 123.013 67.4583 123.004 63.8916C123.004 62.8666 123.004 61.2022 122.963 60.1198C122.89 57.8732 122.283 59.4639 122.16 60.4806C121.832 63.6128 121.61 67.1714 121.545 70.7053C121.479 74.2393 121.569 77.7077 121.701 80.7497C121.701 80.8727 121.725 81.1597 121.815 81.3482C121.906 81.5532 122.037 81.7336 122.201 81.873C122.529 82.16 122.98 82.283 123.398 82.1928C123.505 82.1764 123.603 82.1354 123.701 82.0944C123.8 82.0452 123.882 81.996 123.923 81.9714L124.234 81.7746L124.857 81.3892L127.367 79.8641C129.047 78.8556 130.728 77.8635 132.426 76.8877C132.573 76.7975 132.68 76.7893 132.811 76.8303C132.852 76.8385 132.95 76.9041 133.065 76.9697L133.385 77.1501L134.656 77.8799L137.189 79.3476L139.715 80.8235L140.969 81.5614L141.617 81.9386C141.945 82.119 142.38 82.1354 142.724 81.9796C143.077 81.832 143.355 81.5122 143.454 81.1351C143.478 81.0367 143.495 80.9465 143.495 80.8481L143.503 80.6513L143.511 80.2905L143.536 78.831L143.585 75.9202C143.618 73.9851 143.651 72.0501 143.675 70.1232C143.733 66.2612 143.757 62.4157 143.733 58.5947L143.724 57.8732H143.019C136.771 57.906 130.548 58.2339 124.915 58.6357C124.21 58.6931 121.307 58.8489 123.505 59.0949C125.735 59.3655 129.531 59.2835 130.392 59.2589C134.41 59.1851 138.665 59.2589 143.019 59.1277L142.462 58.5783C142.495 59.2753 142.519 59.9968 142.544 60.7102ZM142.773 58.8653C142.716 58.9145 142.626 58.7587 142.568 58.5783L143.003 59.0129C142.823 59.0703 142.618 59.0949 142.56 59.0211C142.495 58.9473 142.765 58.8243 143.003 58.7833L142.806 58.5783C142.831 58.7095 142.831 58.8243 142.773 58.8653Z" fill="black"/>
<path fill-rule="evenodd" clip-rule="evenodd" d="M125.088 105.339C122.333 105.454 119.577 105.372 116.839 105.257C115.47 105.2 114.108 105.143 112.747 105.085C112.034 105.061 111.46 105.061 110.968 104.88C110.443 104.692 109.951 104.405 109.558 104.028C108.902 103.429 108.5 102.584 108.418 101.707C108.336 100.83 108.59 99.9278 109.115 99.2309C109.623 98.5339 110.435 98.0091 111.263 97.837C111.468 97.796 111.69 97.7714 111.919 97.7632L112.698 97.755L114.297 97.7468C118.544 97.7222 122.751 97.6976 126.9 97.6812C131.049 97.673 135.148 97.6648 139.191 97.6484C141.216 97.6566 143.225 97.6648 145.217 97.6812L146.71 97.6976L147.456 97.7058H147.825C147.907 97.7058 147.915 97.7058 147.931 97.7058L147.972 97.714L148.103 97.8288L148.128 97.9107V97.9681V98.1567L148.103 99.6326C148.087 100.764 148.046 102.617 148.071 103.782C148.12 106.184 149.03 103.757 149.161 102.601C149.26 101.699 149.35 100.781 149.424 99.8622L149.522 98.4765L149.547 98.1321L149.555 97.9599C149.555 97.8697 149.555 97.7714 149.538 97.673C149.489 97.2876 149.292 96.9268 149.005 96.6644C148.718 96.402 148.325 96.2381 147.923 96.2217L147.218 96.1889L145.824 96.1397C144.897 96.1233 143.971 96.1069 143.053 96.0905C139.379 96.0577 135.804 96.1643 132.606 96.2954C126.736 96.5414 120.881 96.5906 115.043 96.5578L112.854 96.5414C112.149 96.5414 111.345 96.4758 110.558 96.73C109.033 97.1892 107.746 98.4437 107.295 100.002C106.811 101.543 107.155 103.322 108.197 104.585C108.713 105.216 109.394 105.717 110.14 106.036C110.878 106.389 111.813 106.438 112.493 106.43C124.063 106.602 135.517 106.668 146.792 105.741C147.152 105.667 148.382 105.782 148.489 105.2C148.571 104.962 148.489 104.807 148.423 104.798C148.349 104.782 148.3 104.913 148.128 104.995C148.021 105.036 147.997 105.036 147.849 105.011C147.521 104.987 147.161 104.97 146.8 104.962C146.07 104.938 145.291 104.938 144.545 104.946C143.061 104.962 141.741 105.028 141.265 105.044C136.075 105.216 130.622 105.118 125.088 105.339ZM127.055 105.577C126.957 105.462 127.72 105.225 127.843 105.364C127.949 105.479 127.187 105.725 127.055 105.577Z" fill="black"/>
<path fill-rule="evenodd" clip-rule="evenodd" d="M155.278 58.9468L155.245 56.6427L155.228 55.4702C155.204 55.0356 155.097 54.6011 154.909 54.1993C154.54 53.4039 153.843 52.7726 153.023 52.4692C152.621 52.3134 152.154 52.2478 151.752 52.256L150.604 52.2478C147.537 52.2068 144.471 52.1658 141.412 52.1166C135.295 52.01 129.228 51.8624 123.259 51.8542C120.84 51.8542 118.421 51.8542 116.01 51.8542C114.805 51.8542 113.6 51.8542 112.403 51.8542H110.599C109.951 51.8542 109.287 51.9116 108.647 52.0428C106.073 52.5512 103.752 54.1501 102.375 56.364C101.678 57.4627 101.21 58.7008 101.005 59.9799C100.899 60.6031 100.874 61.3 100.882 61.8822V63.6615C100.907 73.1483 100.932 82.5203 100.948 91.7857C100.956 94.0979 100.956 96.4102 100.964 98.7142V100.436C100.973 101.002 100.948 101.584 101.005 102.207C101.095 103.429 101.399 104.634 101.883 105.749C102.85 107.996 104.58 109.882 106.712 111.046C107.778 111.628 108.934 112.038 110.123 112.235C110.722 112.334 111.32 112.399 111.927 112.399H113.624C122.652 112.432 131.548 112.465 140.322 112.498C142.839 112.514 146.988 112.555 149.571 112.53C154.941 112.481 149.513 111.571 146.947 111.44C138.887 111.03 130.441 110.866 122.242 110.841C120.192 110.841 118.15 110.841 116.142 110.841C115.133 110.849 114.133 110.849 113.141 110.858C112.116 110.866 111.222 110.899 110.336 110.735C108.557 110.439 106.901 109.636 105.589 108.488C104.277 107.34 103.309 105.856 102.776 104.273C102.53 103.552 102.375 102.789 102.309 102.019C102.252 101.272 102.268 100.412 102.243 99.608L102.178 94.6965C102.145 91.4249 102.12 88.1533 102.088 84.8899C102.047 78.3549 102.047 71.8364 102.055 65.3178L102.063 62.8743C102.079 62.0544 102.03 61.2426 102.137 60.4883C102.325 58.9468 102.957 57.4709 103.933 56.2656C104.9 55.0602 106.204 54.1337 107.655 53.6171C108.385 53.363 109.139 53.199 109.91 53.1498C110.656 53.1088 111.509 53.1416 112.304 53.1416C118.79 53.1908 125.259 53.2318 131.712 53.281C138.19 53.3302 144.626 53.363 151.047 53.3957C151.432 53.4039 151.899 53.3793 152.154 53.4203C152.457 53.4613 152.744 53.5597 153.006 53.7155C153.531 54.0271 153.908 54.5601 154.039 55.1504C154.072 55.298 154.089 55.4456 154.089 55.6014V56.1918V57.3889V59.7913C154.097 62.9891 154.113 66.1869 154.121 69.3765C154.203 82.1349 154.417 94.8195 154.876 107.397C154.884 107.619 154.892 107.922 154.909 108.291C154.917 108.644 154.966 109.087 154.859 109.538C154.687 110.448 153.99 111.292 153.269 111.686C152.555 112.096 151.908 112.129 151.858 112.202C151.826 112.235 151.94 112.284 152.244 112.284C152.539 112.284 153.056 112.252 153.72 111.907C154.392 111.555 155.04 110.907 155.384 110.029C155.556 109.611 155.638 109.07 155.63 108.636C155.638 108.242 155.647 107.84 155.655 107.43C155.679 105.799 155.679 104.06 155.671 102.404C155.63 99.0996 155.589 96.1396 155.573 95.0737C155.409 83.4632 155.507 71.2952 155.278 58.9468ZM155.048 63.3417C155.163 63.1121 155.401 64.8176 155.261 65.1046C155.146 65.3424 154.9 63.6369 155.048 63.3417Z" fill="black"/>
</g>
</g>
<defs>
<clipPath id="clip0">
<rect width="61.5385" height="61.5385" fill="white" transform="translate(97.4619 51)"/>
</clipPath>
<clipPath id="clip1">
<rect width="61.5385" height="61.5385" fill="white" transform="translate(97.4619 50.9999)"/>
</clipPath>
</defs>
</svg>
