<svg width="255" height="206" viewBox="0 0 255 206" fill="none" xmlns="http://www.w3.org/2000/svg">
<path d="M61.6998 177C61.3158 177 61.0118 176.896 60.7878 176.688C60.5798 176.464 60.4758 176.168 60.4758 175.8V161.28C60.4758 160.912 60.5798 160.624 60.7878 160.416C61.0118 160.192 61.3158 160.08 61.6998 160.08H70.5318C70.8998 160.08 71.1798 160.168 71.3718 160.344C71.5798 160.52 71.6838 160.768 71.6838 161.088C71.6838 161.408 71.5798 161.656 71.3718 161.832C71.1798 161.992 70.8998 162.072 70.5318 162.072H62.8998V167.4H70.0518C70.4198 167.4 70.6998 167.488 70.8918 167.664C71.0998 167.84 71.2038 168.088 71.2038 168.408C71.2038 168.728 71.0998 168.976 70.8918 169.152C70.6998 169.328 70.4198 169.416 70.0518 169.416H62.8998V175.008H70.5318C71.2998 175.008 71.6838 175.336 71.6838 175.992C71.6838 176.312 71.5798 176.56 71.3718 176.736C71.1798 176.912 70.8998 177 70.5318 177H61.6998ZM75.342 171.576C74.974 171.576 74.694 171.496 74.502 171.336C74.31 171.16 74.214 170.92 74.214 170.616C74.214 170.312 74.31 170.072 74.502 169.896C74.694 169.72 74.974 169.632 75.342 169.632H80.454C80.822 169.632 81.102 169.72 81.294 169.896C81.486 170.072 81.582 170.312 81.582 170.616C81.582 170.92 81.486 171.16 81.294 171.336C81.102 171.496 80.822 171.576 80.454 171.576H75.342ZM90.3366 177.168C89.2006 177.168 88.2006 176.92 87.3366 176.424C86.4886 175.928 85.8246 175.224 85.3446 174.312C84.8806 173.4 84.6486 172.344 84.6486 171.144C84.6486 169.928 84.8886 168.856 85.3686 167.928C85.8646 167 86.5526 166.28 87.4326 165.768C88.3126 165.256 89.3206 165 90.4566 165C91.0646 165 91.6726 165.088 92.2806 165.264C92.9046 165.44 93.4566 165.68 93.9366 165.984C94.4486 166.336 94.7046 166.744 94.7046 167.208C94.7046 167.48 94.6326 167.712 94.4886 167.904C94.3446 168.08 94.1606 168.168 93.9366 168.168C93.7926 168.168 93.6486 168.136 93.5046 168.072C93.3606 167.992 93.1766 167.88 92.9526 167.736C92.5526 167.48 92.1766 167.288 91.8246 167.16C91.4886 167.016 91.0806 166.944 90.6006 166.944C89.5126 166.944 88.6646 167.312 88.0566 168.048C87.4646 168.784 87.1686 169.808 87.1686 171.12C87.1686 172.432 87.4646 173.448 88.0566 174.168C88.6486 174.872 89.4886 175.224 90.5766 175.224C91.0566 175.224 91.4806 175.152 91.8486 175.008C92.2166 174.864 92.5926 174.672 92.9766 174.432C93.1526 174.32 93.3286 174.224 93.5046 174.144C93.6806 174.064 93.8406 174.024 93.9846 174.024C94.2086 174.024 94.3926 174.12 94.5366 174.312C94.6806 174.488 94.7526 174.712 94.7526 174.984C94.7526 175.208 94.6886 175.416 94.5606 175.608C94.4486 175.784 94.2486 175.968 93.9606 176.16C93.4806 176.48 92.9206 176.728 92.2806 176.904C91.6406 177.08 90.9926 177.168 90.3366 177.168ZM102.26 177.168C101.108 177.168 100.092 176.92 99.2122 176.424C98.3482 175.928 97.6762 175.224 97.1962 174.312C96.7322 173.384 96.5002 172.312 96.5002 171.096C96.5002 169.864 96.7322 168.792 97.1962 167.88C97.6762 166.952 98.3482 166.24 99.2122 165.744C100.092 165.248 101.108 165 102.26 165C103.412 165 104.42 165.248 105.284 165.744C106.164 166.24 106.836 166.952 107.3 167.88C107.78 168.792 108.02 169.864 108.02 171.096C108.02 172.312 107.78 173.384 107.3 174.312C106.836 175.224 106.164 175.928 105.284 176.424C104.42 176.92 103.412 177.168 102.26 177.168ZM102.26 175.248C103.332 175.248 104.148 174.896 104.708 174.192C105.284 173.488 105.572 172.456 105.572 171.096C105.572 169.752 105.284 168.728 104.708 168.024C104.132 167.304 103.316 166.944 102.26 166.944C101.204 166.944 100.388 167.304 99.8122 168.024C99.2362 168.728 98.9482 169.752 98.9482 171.096C98.9482 172.456 99.2282 173.488 99.7882 174.192C100.364 174.896 101.188 175.248 102.26 175.248ZM124.409 165C127.033 165 128.345 166.576 128.345 169.728V175.968C128.345 176.336 128.233 176.624 128.009 176.832C127.785 177.024 127.489 177.12 127.121 177.12C126.769 177.12 126.481 177.024 126.257 176.832C126.033 176.624 125.921 176.336 125.921 175.968V169.752C125.921 168.776 125.745 168.072 125.393 167.64C125.041 167.192 124.489 166.968 123.737 166.968C122.857 166.968 122.161 167.272 121.649 167.88C121.137 168.472 120.881 169.288 120.881 170.328V175.968C120.881 176.336 120.769 176.624 120.545 176.832C120.321 177.024 120.025 177.12 119.657 177.12C119.305 177.12 119.017 177.024 118.793 176.832C118.569 176.624 118.457 176.336 118.457 175.968V169.752C118.457 168.776 118.281 168.072 117.929 167.64C117.577 167.192 117.025 166.968 116.273 166.968C115.393 166.968 114.689 167.272 114.161 167.88C113.649 168.472 113.393 169.288 113.393 170.328V175.968C113.393 176.336 113.281 176.624 113.057 176.832C112.833 177.024 112.545 177.12 112.193 177.12C111.841 177.12 111.545 177.024 111.305 176.832C111.081 176.624 110.969 176.336 110.969 175.968V166.2C110.969 165.848 111.089 165.568 111.329 165.36C111.569 165.152 111.857 165.048 112.193 165.048C112.529 165.048 112.801 165.152 113.009 165.36C113.233 165.552 113.345 165.824 113.345 166.176V167.064C113.697 166.392 114.185 165.88 114.809 165.528C115.433 165.176 116.153 165 116.969 165C117.865 165 118.601 165.184 119.177 165.552C119.769 165.92 120.209 166.488 120.497 167.256C120.849 166.568 121.369 166.024 122.057 165.624C122.745 165.208 123.529 165 124.409 165ZM145.354 165C147.978 165 149.29 166.576 149.29 169.728V175.968C149.29 176.336 149.178 176.624 148.954 176.832C148.73 177.024 148.434 177.12 148.066 177.12C147.714 177.12 147.426 177.024 147.202 176.832C146.978 176.624 146.866 176.336 146.866 175.968V169.752C146.866 168.776 146.69 168.072 146.338 167.64C145.986 167.192 145.434 166.968 144.682 166.968C143.802 166.968 143.106 167.272 142.594 167.88C142.082 168.472 141.826 169.288 141.826 170.328V175.968C141.826 176.336 141.714 176.624 141.49 176.832C141.266 177.024 140.97 177.12 140.602 177.12C140.25 177.12 139.962 177.024 139.738 176.832C139.514 176.624 139.402 176.336 139.402 175.968V169.752C139.402 168.776 139.226 168.072 138.874 167.64C138.522 167.192 137.97 166.968 137.218 166.968C136.338 166.968 135.634 167.272 135.106 167.88C134.594 168.472 134.338 169.288 134.338 170.328V175.968C134.338 176.336 134.226 176.624 134.002 176.832C133.778 177.024 133.49 177.12 133.138 177.12C132.786 177.12 132.49 177.024 132.25 176.832C132.026 176.624 131.914 176.336 131.914 175.968V166.2C131.914 165.848 132.034 165.568 132.274 165.36C132.514 165.152 132.802 165.048 133.138 165.048C133.474 165.048 133.746 165.152 133.954 165.36C134.178 165.552 134.29 165.824 134.29 166.176V167.064C134.642 166.392 135.13 165.88 135.754 165.528C136.378 165.176 137.098 165 137.914 165C138.81 165 139.546 165.184 140.122 165.552C140.714 165.92 141.154 166.488 141.442 167.256C141.794 166.568 142.314 166.024 143.002 165.624C143.69 165.208 144.474 165 145.354 165ZM162.028 174.048C162.252 174.048 162.436 174.136 162.58 174.312C162.724 174.488 162.796 174.712 162.796 174.984C162.796 175.448 162.508 175.84 161.932 176.16C161.372 176.48 160.756 176.728 160.084 176.904C159.428 177.08 158.796 177.168 158.188 177.168C156.332 177.168 154.868 176.632 153.796 175.56C152.724 174.472 152.188 172.992 152.188 171.12C152.188 169.92 152.42 168.856 152.884 167.928C153.364 167 154.028 166.28 154.876 165.768C155.74 165.256 156.716 165 157.804 165C159.372 165 160.612 165.504 161.524 166.512C162.436 167.52 162.892 168.88 162.892 170.592C162.892 171.232 162.604 171.552 162.028 171.552H154.612C154.772 174.032 155.964 175.272 158.188 175.272C158.78 175.272 159.292 175.192 159.724 175.032C160.156 174.872 160.612 174.664 161.092 174.408C161.14 174.376 161.268 174.312 161.476 174.216C161.7 174.104 161.884 174.048 162.028 174.048ZM157.852 166.776C156.924 166.776 156.18 167.072 155.62 167.664C155.06 168.256 154.724 169.088 154.612 170.16H160.804C160.756 169.072 160.476 168.24 159.964 167.664C159.468 167.072 158.764 166.776 157.852 166.776ZM171.957 165.048C172.725 165 173.109 165.328 173.109 166.032C173.109 166.384 173.021 166.648 172.845 166.824C172.669 167 172.365 167.104 171.933 167.136L171.213 167.208C170.205 167.304 169.453 167.656 168.957 168.264C168.477 168.872 168.237 169.608 168.237 170.472V175.968C168.237 176.352 168.125 176.64 167.901 176.832C167.677 177.024 167.389 177.12 167.037 177.12C166.685 177.12 166.389 177.024 166.149 176.832C165.925 176.64 165.813 176.352 165.813 175.968V166.2C165.813 165.832 165.925 165.552 166.149 165.36C166.389 165.152 166.685 165.048 167.037 165.048C167.357 165.048 167.621 165.152 167.829 165.36C168.053 165.552 168.165 165.824 168.165 166.176V167.328C168.485 166.624 168.949 166.088 169.557 165.72C170.165 165.352 170.853 165.136 171.621 165.072L171.957 165.048ZM179.634 177.168C178.498 177.168 177.498 176.92 176.634 176.424C175.786 175.928 175.122 175.224 174.642 174.312C174.178 173.4 173.946 172.344 173.946 171.144C173.946 169.928 174.186 168.856 174.666 167.928C175.162 167 175.85 166.28 176.73 165.768C177.61 165.256 178.618 165 179.754 165C180.362 165 180.97 165.088 181.578 165.264C182.202 165.44 182.754 165.68 183.234 165.984C183.746 166.336 184.002 166.744 184.002 167.208C184.002 167.48 183.93 167.712 183.786 167.904C183.642 168.08 183.458 168.168 183.234 168.168C183.09 168.168 182.946 168.136 182.802 168.072C182.658 167.992 182.474 167.88 182.25 167.736C181.85 167.48 181.474 167.288 181.122 167.16C180.786 167.016 180.378 166.944 179.898 166.944C178.81 166.944 177.962 167.312 177.354 168.048C176.762 168.784 176.465 169.808 176.465 171.12C176.465 172.432 176.762 173.448 177.354 174.168C177.946 174.872 178.786 175.224 179.874 175.224C180.354 175.224 180.778 175.152 181.146 175.008C181.514 174.864 181.89 174.672 182.274 174.432C182.45 174.32 182.626 174.224 182.802 174.144C182.978 174.064 183.138 174.024 183.282 174.024C183.506 174.024 183.69 174.12 183.834 174.312C183.978 174.488 184.05 174.712 184.05 174.984C184.05 175.208 183.986 175.416 183.858 175.608C183.746 175.784 183.546 175.968 183.258 176.16C182.778 176.48 182.218 176.728 181.578 176.904C180.938 177.08 180.29 177.168 179.634 177.168ZM195.637 174.048C195.861 174.048 196.045 174.136 196.189 174.312C196.333 174.488 196.405 174.712 196.405 174.984C196.405 175.448 196.117 175.84 195.541 176.16C194.981 176.48 194.365 176.728 193.693 176.904C193.037 177.08 192.405 177.168 191.797 177.168C189.941 177.168 188.477 176.632 187.405 175.56C186.333 174.472 185.797 172.992 185.797 171.12C185.797 169.92 186.029 168.856 186.493 167.928C186.973 167 187.637 166.28 188.485 165.768C189.349 165.256 190.325 165 191.413 165C192.981 165 194.221 165.504 195.133 166.512C196.045 167.52 196.501 168.88 196.501 170.592C196.501 171.232 196.213 171.552 195.637 171.552H188.221C188.381 174.032 189.573 175.272 191.797 175.272C192.389 175.272 192.901 175.192 193.333 175.032C193.765 174.872 194.221 174.664 194.701 174.408C194.749 174.376 194.877 174.312 195.085 174.216C195.309 174.104 195.493 174.048 195.637 174.048ZM191.461 166.776C190.533 166.776 189.789 167.072 189.229 167.664C188.669 168.256 188.333 169.088 188.221 170.16H194.413C194.365 169.072 194.085 168.24 193.573 167.664C193.077 167.072 192.373 166.776 191.461 166.776Z" fill="#384248"/>
<rect x="78" y="32" width="100" height="100" rx="4" fill="#F5F6F8"/>
<g clip-path="url(#clip0)">
<path d="M109.698 71.8128H148.16C148.61 71.8128 149.009 71.5047 149.118 71.0634L150.05 67.3246C150.208 66.7001 149.734 66.1006 149.093 66.1006H115.411C115.102 66.1006 114.853 65.8508 114.853 65.5427V60.9546C114.853 60.6465 115.102 60.3967 115.411 60.3967H154.022C154.455 60.3967 154.888 60.4966 155.271 60.6881C155.663 60.8796 156.004 61.1544 156.27 61.4958C156.537 61.8372 156.72 62.2369 156.812 62.6616C156.903 63.0863 156.895 63.5276 156.787 63.9439L149.651 92.4883C149.492 93.1045 149.143 93.6541 148.635 94.0454C148.135 94.4368 147.519 94.6533 146.878 94.6533H106.284C105.527 94.6533 104.802 94.3535 104.269 93.8206C103.736 93.2877 103.437 92.5549 103.437 91.8055V58.0985C103.437 57.7904 103.187 57.5406 102.879 57.5406H98.2823C97.9742 57.5406 97.7244 57.2908 97.7244 56.9827V52.3863C97.7244 52.0782 97.9742 51.8284 98.2823 51.8284H106.284C107.042 51.8284 107.767 52.1281 108.299 52.6611C108.832 53.194 109.132 53.9184 109.132 54.6761V71.2466C109.14 71.5547 109.39 71.8128 109.698 71.8128ZM109.14 111.782C107.625 111.782 106.176 111.182 105.102 110.108C104.028 109.034 103.428 107.585 103.428 106.069C103.428 104.554 104.028 103.105 105.102 102.031C106.176 100.957 107.625 100.357 109.14 100.357C110.656 100.357 112.105 100.957 113.179 102.031C114.253 103.105 114.853 104.554 114.853 106.069C114.853 107.585 114.253 109.034 113.179 110.108C112.105 111.182 110.648 111.782 109.14 111.782ZM143.397 100.357C144.913 100.357 146.361 100.957 147.436 102.031C148.51 103.105 149.109 104.554 149.109 106.069C149.109 107.585 148.51 109.034 147.436 110.108C146.361 111.182 144.913 111.782 143.397 111.782C141.882 111.782 140.433 111.182 139.359 110.108C138.284 109.034 137.685 107.585 137.685 106.069C137.685 104.554 138.284 103.105 139.359 102.031C140.433 100.965 141.882 100.357 143.397 100.357Z" fill="white"/>
<path fill-rule="evenodd" clip-rule="evenodd" d="M137.219 106.261C137.369 107.369 137.61 108.451 138.126 109.467C138.634 110.475 139.434 111.399 140.466 111.915C142.132 112.773 144.147 112.823 145.82 112.115C147.511 111.424 148.826 110 149.418 108.343C150.025 106.694 149.917 104.837 149.176 103.297C148.452 101.748 147.119 100.532 145.554 99.9161C145.113 99.7246 144.33 99.5165 143.822 99.5248C143.297 99.5248 143.314 99.7829 143.489 100.033C143.664 100.283 143.972 100.574 144.163 100.674C145.379 101.273 146.345 102.039 147.078 102.955C147.811 103.863 148.277 104.937 148.418 105.995C148.56 106.969 148.352 108.01 147.836 108.884C147.328 109.767 146.52 110.475 145.596 110.883C143.722 111.74 141.432 111.249 140.05 109.9C138.634 108.568 138.101 106.519 138.551 104.696C138.984 102.864 140.333 101.215 142.356 100.374C142.498 100.308 142.873 100.183 143.139 100.058C143.397 99.9411 143.531 99.7912 143.073 99.6414C142.606 99.4998 141.873 99.5831 141.282 99.8162C140.674 100.033 140.208 100.374 140.05 100.491C139.151 101.132 138.351 101.956 137.827 102.964C137.319 103.971 137.061 105.137 137.219 106.261ZM137.477 105.487C137.352 105.52 137.152 105.179 137.302 105.145C137.427 105.129 137.627 105.453 137.477 105.487Z" fill="black"/>
<path fill-rule="evenodd" clip-rule="evenodd" d="M115.311 105.877C115.161 104.77 114.919 103.687 114.403 102.671C113.895 101.664 113.096 100.74 112.063 100.223C110.398 99.3656 108.383 99.3157 106.709 100.023C105.019 100.715 103.703 102.138 103.112 103.796C102.504 105.444 102.612 107.301 103.353 108.842C104.078 110.39 105.402 111.606 106.976 112.222C107.417 112.414 108.2 112.622 108.707 112.614C109.232 112.614 109.215 112.356 109.041 112.106C108.866 111.856 108.558 111.564 108.366 111.465C107.15 110.865 106.184 110.099 105.452 109.183C104.719 108.275 104.253 107.201 104.111 106.144C103.97 105.169 104.178 104.129 104.686 103.254C105.194 102.372 106.001 101.664 106.926 101.256C108.799 100.398 111.089 100.889 112.471 102.238C113.887 103.571 114.42 105.619 113.97 107.443C113.537 109.275 112.188 110.923 110.165 111.764C110.023 111.831 109.648 111.956 109.39 112.081C109.132 112.197 108.999 112.347 109.457 112.497C109.923 112.639 110.656 112.555 111.247 112.322C111.855 112.106 112.321 111.764 112.488 111.648C113.387 111.007 114.187 110.182 114.711 109.175C115.219 108.167 115.469 107.001 115.311 105.877ZM115.053 106.652C115.177 106.618 115.377 106.96 115.227 106.993C115.111 107.01 114.903 106.685 115.053 106.652Z" fill="black"/>
<path fill-rule="evenodd" clip-rule="evenodd" d="M102.954 88.4911L102.987 91.5471C102.962 92.055 103.062 92.7045 103.32 93.2125C103.578 93.737 103.978 94.195 104.461 94.5198C104.952 94.8445 105.518 95.0277 106.101 95.061L107.65 95.0693L110.706 95.0777C114.778 95.1193 118.833 95.1693 122.888 95.2109C130.99 95.3275 139.009 95.4774 146.953 95.4774C147.994 95.4607 149.009 94.9777 149.676 94.1867C150.009 93.7953 150.267 93.329 150.408 92.8294L150.708 91.6304C151.099 90.0732 151.483 88.5244 151.874 86.9757C152.648 83.8781 153.414 80.7888 154.189 77.7079C154.955 74.6269 155.721 71.5543 156.487 68.4901L157.061 66.1919L157.345 65.0428L157.486 64.4682C157.528 64.285 157.586 64.0935 157.636 63.827C157.803 62.8278 157.528 61.762 156.895 60.9709C156.27 60.1716 155.305 59.6553 154.297 59.5887C141.707 59.6053 129.258 59.6303 116.968 59.647H115.819H115.527H115.361C115.252 59.647 115.144 59.6636 115.036 59.6969C114.603 59.8218 114.262 60.1716 114.145 60.6045C114.112 60.7128 114.103 60.821 114.103 60.9293V61.0792V61.3623V61.9368V63.0859V65.3758V65.5174C114.103 65.6173 114.112 65.7339 114.145 65.8338C114.195 66.0503 114.311 66.2418 114.461 66.4C114.611 66.5582 114.803 66.6748 115.011 66.7414C115.119 66.7747 115.227 66.7914 115.336 66.7997H115.511H116.651C119.699 66.7997 122.738 66.7914 125.769 66.7914C131.831 66.7914 137.851 66.7914 143.83 66.7914C145.321 66.7914 146.819 66.7914 148.31 66.7914H148.868H149.101L149.176 66.808C149.268 66.8414 149.343 66.9413 149.351 67.0412L149.343 67.1161L149.284 67.3493L149.151 67.8905L148.876 68.973L148.601 70.0555L148.468 70.5968L148.402 70.8632L148.368 70.9382L148.26 71.0381L148.193 71.0631C148.152 71.0631 148.193 71.0714 148.069 71.0714H146.961C145.479 71.0714 144.005 71.0631 142.531 71.0631C136.636 71.0381 130.782 71.0131 124.97 70.9881C121.647 70.9798 116.152 70.9382 112.729 70.9631C105.618 71.0131 112.804 71.9374 116.21 72.0706C121.556 72.2788 127.018 72.4203 132.506 72.5203C135.253 72.5536 138.001 72.5952 140.749 72.6285C142.123 72.6368 143.489 72.6535 144.854 72.6618L146.903 72.6701H147.927H148.202C148.36 72.6701 148.518 72.6452 148.676 72.5952C148.984 72.5036 149.268 72.3371 149.492 72.1039C149.717 71.8791 149.875 71.5877 149.959 71.2712L150.084 70.7716L150.333 69.7891C150.5 69.1312 150.666 68.4734 150.825 67.8239L150.883 67.5824L150.925 67.3993C150.941 67.3243 150.95 67.241 150.95 67.1661C150.966 66.8497 150.9 66.5249 150.758 66.2418C150.483 65.6756 149.884 65.2676 149.251 65.2176C149.059 65.2093 149.018 65.2093 148.926 65.2093H148.676H148.177H147.178C144.513 65.2259 141.873 65.2343 139.284 65.2509C134.104 65.3092 129.1 65.3675 124.379 65.4175L117.867 65.5007L116.243 65.5174L115.427 65.5257H115.394L115.361 62.3615L115.352 60.9126L115.377 60.8793C115.402 60.871 115.352 60.871 115.536 60.871L116.352 60.8627L119.599 60.8377L126.094 60.8044C134.754 60.7961 143.397 60.7877 152.024 60.7711H153.639C153.922 60.7711 154.164 60.7628 154.389 60.8044C154.613 60.8377 154.838 60.9043 155.046 61.0042C155.896 61.3873 156.462 62.2949 156.454 63.2192C156.454 63.4523 156.42 63.6688 156.354 63.9186L156.154 64.7014L155.754 66.2668L154.955 69.3977C153.889 73.5694 152.831 77.7412 151.766 81.9046L150.167 88.1497L149.367 91.264C149.226 91.7636 149.118 92.3631 148.959 92.7212C148.785 93.1125 148.485 93.4539 148.127 93.6871C147.769 93.9202 147.344 94.0535 146.911 94.0618L145.321 94.0535L142.106 94.0368L135.686 94.0035C127.135 93.9702 118.6 93.9369 110.09 93.9036L106.901 93.8953H106.143C105.943 93.8869 105.752 93.8453 105.568 93.7787C105.194 93.6455 104.861 93.4123 104.611 93.1042C104.361 92.7961 104.203 92.4214 104.161 92.03C104.144 91.9301 104.144 91.8469 104.144 91.722V91.3223V90.5229V87.342C104.153 83.1287 104.136 78.8903 104.128 74.6686C104.094 70.4385 104.069 66.2168 104.045 62.0035L104.011 58.8476L104.003 58.0149C103.961 57.4737 103.503 57.0157 102.97 56.974L101.338 56.9907L98.2657 57.024L98.2157 56.974L98.1991 56.1913L98.1824 54.6092L98.1574 53.0354L98.1491 52.3526C98.1741 52.286 98.1907 52.2361 98.3156 52.2361L101.463 52.1861L104.602 52.1278L106.168 52.0945C106.659 52.0695 107.125 52.1695 107.558 52.3943C108.416 52.8356 108.982 53.7849 108.966 54.7841L109.041 57.915C109.099 60.005 109.149 62.0867 109.207 64.1684C109.24 65.3342 109.324 68.3818 109.44 70.347C109.482 70.8049 109.474 71.3795 109.565 71.3295C109.657 71.3878 109.707 71.3378 109.707 71.3045V71.2296H109.698L109.782 71.2129L109.798 71.0131C109.815 70.7383 109.832 70.4052 109.857 70.0056C110.015 66.7581 110.04 61.9119 110.023 57.5319C110.023 56.9824 110.015 56.4411 110.015 55.9165C110.015 55.6501 110.015 55.3919 110.007 55.1338C109.998 54.8757 110.015 54.6425 109.982 54.2845C109.848 52.9688 108.999 51.903 108.016 51.4117C107.525 51.1619 107.017 51.0287 106.534 51.0037C106.268 50.9954 106.118 51.0037 105.935 51.0037C105.76 51.0037 105.593 51.012 105.435 51.012C104.802 51.037 104.286 51.0453 103.936 51.0537C102.979 51.062 102.013 51.0703 101.047 51.0786L99.5896 51.0953H98.8652H98.4988H98.3156C98.274 51.0953 98.0658 51.1036 97.9493 51.1369C97.408 51.2785 97 51.8114 97 52.3693L97.0083 53.1104L97.0167 54.5759L97.025 56.0414V56.7742V56.9574C97.025 57.0656 97.0416 57.2239 97.0833 57.3488C97.1665 57.6069 97.3414 57.84 97.5662 57.9982C97.7744 58.1565 98.1075 58.2314 98.3073 58.2147H98.6737H99.4148L100.897 58.2064L102.379 58.1981H102.754H102.845H102.87V58.0982H102.862C102.679 58.0982 102.812 58.1065 102.77 58.1065V58.1148V58.2064C102.779 60.1882 102.779 62.1783 102.787 64.1851C102.804 72.1872 102.837 80.3059 102.954 88.4911ZM103.195 82.6623C103.079 82.9621 102.829 80.7055 102.979 80.3225C103.095 80.0144 103.337 82.2793 103.195 82.6623Z" fill="black"/>
</g>
<defs>
<clipPath id="clip0">
<rect width="61.5385" height="61.5385" fill="white" transform="translate(97 51)"/>
</clipPath>
</defs>
</svg>
