<svg width="255" height="206" viewBox="0 0 255 206" fill="none" xmlns="http://www.w3.org/2000/svg">
<path d="M32.8483 177.12C32.4803 177.12 32.1843 177.008 31.9603 176.784C31.7363 176.544 31.6243 176.24 31.6243 175.872V161.28C31.6243 160.912 31.7283 160.624 31.9363 160.416C32.1603 160.192 32.4643 160.08 32.8483 160.08H41.4403C42.2083 160.08 42.5923 160.416 42.5923 161.088C42.5923 161.76 42.2083 162.096 41.4403 162.096H34.0723V167.4H40.9603C41.7283 167.4 42.1123 167.736 42.1123 168.408C42.1123 169.08 41.7283 169.416 40.9603 169.416H34.0723V175.872C34.0723 176.256 33.9603 176.56 33.7363 176.784C33.5283 177.008 33.2323 177.12 32.8483 177.12ZM47.2243 177.12C46.8723 177.12 46.5763 177.024 46.3363 176.832C46.1123 176.64 46.0003 176.352 46.0003 175.968V166.224C46.0003 165.84 46.1123 165.552 46.3363 165.36C46.5763 165.152 46.8723 165.048 47.2243 165.048C47.5763 165.048 47.8643 165.152 48.0883 165.36C48.3123 165.552 48.4243 165.84 48.4243 166.224V175.968C48.4243 176.352 48.3123 176.64 48.0883 176.832C47.8643 177.024 47.5763 177.12 47.2243 177.12ZM47.2243 162.696C46.7603 162.696 46.3923 162.568 46.1203 162.312C45.8483 162.056 45.7123 161.72 45.7123 161.304C45.7123 160.888 45.8483 160.56 46.1203 160.32C46.3923 160.064 46.7603 159.936 47.2243 159.936C47.6723 159.936 48.0323 160.064 48.3043 160.32C48.5923 160.56 48.7363 160.888 48.7363 161.304C48.7363 161.72 48.6003 162.056 48.3283 162.312C48.0563 162.568 47.6883 162.696 47.2243 162.696ZM58.3748 165C61.1748 165 62.5748 166.576 62.5748 169.728V175.968C62.5748 176.336 62.4628 176.624 62.2388 176.832C62.0308 177.024 61.7348 177.12 61.3508 177.12C60.9828 177.12 60.6868 177.016 60.4628 176.808C60.2548 176.6 60.1508 176.32 60.1508 175.968V169.848C60.1508 168.856 59.9508 168.128 59.5508 167.664C59.1668 167.2 58.5588 166.968 57.7268 166.968C56.7508 166.968 55.9668 167.272 55.3748 167.88C54.7828 168.488 54.4868 169.304 54.4868 170.328V175.968C54.4868 176.32 54.3748 176.6 54.1508 176.808C53.9428 177.016 53.6548 177.12 53.2868 177.12C52.9188 177.12 52.6228 177.016 52.3988 176.808C52.1748 176.6 52.0628 176.32 52.0628 175.968V166.2C52.0628 165.864 52.1748 165.592 52.3988 165.384C52.6388 165.16 52.9348 165.048 53.2868 165.048C53.6388 165.048 53.9188 165.152 54.1268 165.36C54.3348 165.568 54.4388 165.84 54.4388 166.176V167.16C54.8228 166.456 55.3588 165.92 56.0468 165.552C56.7348 165.184 57.5108 165 58.3748 165ZM71.0609 165C72.6129 165 73.7649 165.392 74.5169 166.176C75.2849 166.96 75.6689 168.152 75.6689 169.752V175.968C75.6689 176.336 75.5649 176.624 75.3569 176.832C75.1489 177.024 74.8609 177.12 74.4929 177.12C74.1409 177.12 73.8609 177.016 73.6529 176.808C73.4449 176.6 73.3409 176.32 73.3409 175.968V175.08C73.0369 175.752 72.5809 176.272 71.9729 176.64C71.3809 176.992 70.6849 177.168 69.8849 177.168C69.1169 177.168 68.4129 177.016 67.7729 176.712C67.1489 176.392 66.6529 175.96 66.2849 175.416C65.9169 174.872 65.7329 174.256 65.7329 173.568C65.7169 172.704 65.9329 172.032 66.3809 171.552C66.8289 171.056 67.5569 170.704 68.5649 170.496C69.5729 170.272 70.9729 170.16 72.7649 170.16H73.3169V169.464C73.3169 168.568 73.1329 167.92 72.7649 167.52C72.3969 167.12 71.8049 166.92 70.9889 166.92C70.4289 166.92 69.9009 166.992 69.4049 167.136C68.9089 167.28 68.3649 167.488 67.7729 167.76C67.3409 168 67.0369 168.12 66.8609 168.12C66.6209 168.12 66.4209 168.032 66.2609 167.856C66.1169 167.68 66.0449 167.456 66.0449 167.184C66.0449 166.944 66.1089 166.736 66.2369 166.56C66.3809 166.368 66.6049 166.184 66.9089 166.008C67.4689 165.704 68.1249 165.464 68.8769 165.288C69.6289 165.096 70.3569 165 71.0609 165ZM70.3169 175.368C71.1969 175.368 71.9169 175.072 72.4769 174.48C73.0369 173.872 73.3169 173.096 73.3169 172.152V171.528H72.8849C71.6369 171.528 70.6769 171.584 70.0049 171.696C69.3329 171.808 68.8529 172 68.5649 172.272C68.2769 172.528 68.1329 172.904 68.1329 173.4C68.1329 173.976 68.3409 174.448 68.7569 174.816C69.1729 175.184 69.6929 175.368 70.3169 175.368ZM85.5467 165C88.3467 165 89.7467 166.576 89.7467 169.728V175.968C89.7467 176.336 89.6347 176.624 89.4107 176.832C89.2027 177.024 88.9067 177.12 88.5227 177.12C88.1547 177.12 87.8587 177.016 87.6347 176.808C87.4267 176.6 87.3227 176.32 87.3227 175.968V169.848C87.3227 168.856 87.1227 168.128 86.7227 167.664C86.3387 167.2 85.7307 166.968 84.8987 166.968C83.9227 166.968 83.1387 167.272 82.5467 167.88C81.9547 168.488 81.6587 169.304 81.6587 170.328V175.968C81.6587 176.32 81.5467 176.6 81.3227 176.808C81.1147 177.016 80.8267 177.12 80.4587 177.12C80.0907 177.12 79.7947 177.016 79.5707 176.808C79.3467 176.6 79.2347 176.32 79.2347 175.968V166.2C79.2347 165.864 79.3467 165.592 79.5707 165.384C79.8107 165.16 80.1067 165.048 80.4587 165.048C80.8107 165.048 81.0907 165.152 81.2987 165.36C81.5067 165.568 81.6107 165.84 81.6107 166.176V167.16C81.9947 166.456 82.5307 165.92 83.2187 165.552C83.9067 165.184 84.6827 165 85.5467 165ZM98.3288 177.168C97.1928 177.168 96.1928 176.92 95.3288 176.424C94.4808 175.928 93.8168 175.224 93.3368 174.312C92.8728 173.4 92.6408 172.344 92.6408 171.144C92.6408 169.928 92.8808 168.856 93.3608 167.928C93.8568 167 94.5448 166.28 95.4248 165.768C96.3048 165.256 97.3128 165 98.4488 165C99.0568 165 99.6648 165.088 100.273 165.264C100.897 165.44 101.449 165.68 101.929 165.984C102.441 166.336 102.697 166.744 102.697 167.208C102.697 167.48 102.625 167.712 102.481 167.904C102.337 168.08 102.153 168.168 101.929 168.168C101.785 168.168 101.641 168.136 101.497 168.072C101.353 167.992 101.169 167.88 100.945 167.736C100.545 167.48 100.169 167.288 99.8168 167.16C99.4808 167.016 99.0728 166.944 98.5928 166.944C97.5048 166.944 96.6568 167.312 96.0488 168.048C95.4568 168.784 95.1608 169.808 95.1608 171.12C95.1608 172.432 95.4568 173.448 96.0488 174.168C96.6408 174.872 97.4808 175.224 98.5688 175.224C99.0488 175.224 99.4728 175.152 99.8408 175.008C100.209 174.864 100.585 174.672 100.969 174.432C101.145 174.32 101.321 174.224 101.497 174.144C101.673 174.064 101.833 174.024 101.977 174.024C102.201 174.024 102.385 174.12 102.529 174.312C102.673 174.488 102.745 174.712 102.745 174.984C102.745 175.208 102.681 175.416 102.553 175.608C102.441 175.784 102.241 175.968 101.953 176.16C101.473 176.48 100.913 176.728 100.273 176.904C99.6328 177.08 98.9848 177.168 98.3288 177.168ZM106.388 177.12C106.036 177.12 105.74 177.024 105.5 176.832C105.276 176.64 105.164 176.352 105.164 175.968V166.224C105.164 165.84 105.276 165.552 105.5 165.36C105.74 165.152 106.036 165.048 106.388 165.048C106.74 165.048 107.028 165.152 107.252 165.36C107.476 165.552 107.588 165.84 107.588 166.224V175.968C107.588 176.352 107.476 176.64 107.252 176.832C107.028 177.024 106.74 177.12 106.388 177.12ZM106.388 162.696C105.924 162.696 105.556 162.568 105.284 162.312C105.012 162.056 104.876 161.72 104.876 161.304C104.876 160.888 105.012 160.56 105.284 160.32C105.556 160.064 105.924 159.936 106.388 159.936C106.836 159.936 107.196 160.064 107.468 160.32C107.756 160.56 107.9 160.888 107.9 161.304C107.9 161.72 107.764 162.056 107.492 162.312C107.22 162.568 106.852 162.696 106.388 162.696ZM116.147 165C117.699 165 118.851 165.392 119.603 166.176C120.371 166.96 120.755 168.152 120.755 169.752V175.968C120.755 176.336 120.651 176.624 120.443 176.832C120.235 177.024 119.947 177.12 119.579 177.12C119.227 177.12 118.947 177.016 118.739 176.808C118.531 176.6 118.427 176.32 118.427 175.968V175.08C118.123 175.752 117.667 176.272 117.059 176.64C116.467 176.992 115.771 177.168 114.971 177.168C114.203 177.168 113.499 177.016 112.859 176.712C112.235 176.392 111.739 175.96 111.371 175.416C111.003 174.872 110.819 174.256 110.819 173.568C110.803 172.704 111.019 172.032 111.467 171.552C111.915 171.056 112.643 170.704 113.651 170.496C114.659 170.272 116.059 170.16 117.851 170.16H118.403V169.464C118.403 168.568 118.219 167.92 117.851 167.52C117.483 167.12 116.891 166.92 116.075 166.92C115.515 166.92 114.987 166.992 114.491 167.136C113.995 167.28 113.451 167.488 112.859 167.76C112.427 168 112.123 168.12 111.947 168.12C111.707 168.12 111.507 168.032 111.347 167.856C111.203 167.68 111.131 167.456 111.131 167.184C111.131 166.944 111.195 166.736 111.323 166.56C111.467 166.368 111.691 166.184 111.995 166.008C112.555 165.704 113.211 165.464 113.963 165.288C114.715 165.096 115.443 165 116.147 165ZM115.403 175.368C116.283 175.368 117.003 175.072 117.563 174.48C118.123 173.872 118.403 173.096 118.403 172.152V171.528H117.971C116.723 171.528 115.763 171.584 115.091 171.696C114.419 171.808 113.939 172 113.651 172.272C113.363 172.528 113.219 172.904 113.219 173.4C113.219 173.976 113.427 174.448 113.843 174.816C114.259 175.184 114.779 175.368 115.403 175.368ZM125.545 177.12C125.193 177.12 124.897 177.024 124.657 176.832C124.433 176.64 124.321 176.352 124.321 175.968V161.136C124.321 160.752 124.433 160.464 124.657 160.272C124.897 160.064 125.193 159.96 125.545 159.96C125.897 159.96 126.185 160.064 126.409 160.272C126.633 160.464 126.745 160.752 126.745 161.136V175.968C126.745 176.352 126.633 176.64 126.409 176.832C126.185 177.024 125.897 177.12 125.545 177.12ZM141.041 177.168C139.409 177.168 138.073 176.832 137.033 176.16C136.745 175.984 136.537 175.8 136.409 175.608C136.297 175.416 136.241 175.2 136.241 174.96C136.241 174.704 136.313 174.488 136.457 174.312C136.601 174.136 136.785 174.048 137.009 174.048C137.217 174.048 137.545 174.176 137.993 174.432C138.473 174.688 138.937 174.896 139.385 175.056C139.849 175.216 140.425 175.296 141.113 175.296C141.881 175.296 142.481 175.16 142.913 174.888C143.345 174.616 143.561 174.232 143.561 173.736C143.561 173.416 143.473 173.16 143.297 172.968C143.137 172.776 142.849 172.608 142.433 172.464C142.017 172.304 141.401 172.136 140.585 171.96C139.177 171.656 138.161 171.248 137.537 170.736C136.929 170.208 136.625 169.496 136.625 168.6C136.625 167.912 136.825 167.296 137.225 166.752C137.625 166.192 138.177 165.76 138.881 165.456C139.585 165.152 140.385 165 141.281 165C141.921 165 142.545 165.088 143.153 165.264C143.761 165.424 144.297 165.664 144.761 165.984C145.289 166.336 145.553 166.744 145.553 167.208C145.553 167.464 145.473 167.68 145.313 167.856C145.169 168.032 144.993 168.12 144.785 168.12C144.641 168.12 144.497 168.088 144.353 168.024C144.209 167.96 144.017 167.856 143.777 167.712C143.345 167.456 142.937 167.256 142.553 167.112C142.185 166.968 141.721 166.896 141.161 166.896C140.489 166.896 139.945 167.04 139.529 167.328C139.129 167.616 138.929 168.008 138.929 168.504C138.929 168.952 139.113 169.304 139.481 169.56C139.865 169.8 140.577 170.032 141.617 170.256C142.689 170.48 143.529 170.736 144.137 171.024C144.745 171.312 145.177 171.672 145.433 172.104C145.705 172.52 145.841 173.056 145.841 173.712C145.841 174.752 145.401 175.592 144.521 176.232C143.657 176.856 142.497 177.168 141.041 177.168ZM157.957 174.048C158.181 174.048 158.365 174.136 158.509 174.312C158.653 174.488 158.725 174.712 158.725 174.984C158.725 175.448 158.437 175.84 157.861 176.16C157.301 176.48 156.685 176.728 156.013 176.904C155.357 177.08 154.725 177.168 154.117 177.168C152.261 177.168 150.797 176.632 149.725 175.56C148.653 174.472 148.117 172.992 148.117 171.12C148.117 169.92 148.349 168.856 148.813 167.928C149.293 167 149.957 166.28 150.805 165.768C151.669 165.256 152.645 165 153.733 165C155.301 165 156.541 165.504 157.453 166.512C158.365 167.52 158.821 168.88 158.821 170.592C158.821 171.232 158.533 171.552 157.957 171.552H150.541C150.701 174.032 151.893 175.272 154.117 175.272C154.709 175.272 155.221 175.192 155.653 175.032C156.085 174.872 156.541 174.664 157.021 174.408C157.069 174.376 157.197 174.312 157.405 174.216C157.629 174.104 157.813 174.048 157.957 174.048ZM153.781 166.776C152.853 166.776 152.109 167.072 151.549 167.664C150.989 168.256 150.653 169.088 150.541 170.16H156.733C156.685 169.072 156.405 168.24 155.893 167.664C155.397 167.072 154.693 166.776 153.781 166.776ZM167.887 165.048C168.655 165 169.039 165.328 169.039 166.032C169.039 166.384 168.951 166.648 168.775 166.824C168.599 167 168.295 167.104 167.863 167.136L167.143 167.208C166.135 167.304 165.383 167.656 164.887 168.264C164.407 168.872 164.167 169.608 164.167 170.472V175.968C164.167 176.352 164.055 176.64 163.831 176.832C163.607 177.024 163.319 177.12 162.967 177.12C162.615 177.12 162.319 177.024 162.079 176.832C161.855 176.64 161.743 176.352 161.743 175.968V166.2C161.743 165.832 161.855 165.552 162.079 165.36C162.319 165.152 162.615 165.048 162.967 165.048C163.287 165.048 163.551 165.152 163.759 165.36C163.983 165.552 164.095 165.824 164.095 166.176V167.328C164.415 166.624 164.879 166.088 165.487 165.72C166.095 165.352 166.783 165.136 167.551 165.072L167.887 165.048ZM179.836 165.768C179.932 165.528 180.068 165.352 180.244 165.24C180.436 165.128 180.636 165.072 180.844 165.072C181.148 165.072 181.412 165.176 181.636 165.384C181.876 165.592 181.996 165.84 181.996 166.128C181.996 166.288 181.964 166.44 181.9 166.584L177.316 176.304C177.204 176.56 177.028 176.76 176.788 176.904C176.564 177.032 176.324 177.096 176.068 177.096C175.812 177.096 175.564 177.032 175.324 176.904C175.1 176.76 174.932 176.56 174.82 176.304L170.236 166.584C170.172 166.456 170.14 166.304 170.14 166.128C170.14 165.84 170.268 165.592 170.524 165.384C170.78 165.176 171.068 165.072 171.388 165.072C171.852 165.072 172.196 165.296 172.42 165.744L176.14 174L179.836 165.768ZM185.802 177.12C185.45 177.12 185.154 177.024 184.914 176.832C184.69 176.64 184.578 176.352 184.578 175.968V166.224C184.578 165.84 184.69 165.552 184.914 165.36C185.154 165.152 185.45 165.048 185.802 165.048C186.154 165.048 186.442 165.152 186.666 165.36C186.89 165.552 187.002 165.84 187.002 166.224V175.968C187.002 176.352 186.89 176.64 186.666 176.832C186.442 177.024 186.154 177.12 185.802 177.12ZM185.802 162.696C185.338 162.696 184.97 162.568 184.698 162.312C184.426 162.056 184.29 161.72 184.29 161.304C184.29 160.888 184.426 160.56 184.698 160.32C184.97 160.064 185.338 159.936 185.802 159.936C186.25 159.936 186.61 160.064 186.882 160.32C187.17 160.56 187.314 160.888 187.314 161.304C187.314 161.72 187.178 162.056 186.906 162.312C186.634 162.568 186.266 162.696 185.802 162.696ZM195.657 177.168C194.521 177.168 193.521 176.92 192.657 176.424C191.809 175.928 191.145 175.224 190.665 174.312C190.201 173.4 189.969 172.344 189.969 171.144C189.969 169.928 190.209 168.856 190.689 167.928C191.185 167 191.873 166.28 192.753 165.768C193.633 165.256 194.641 165 195.777 165C196.385 165 196.993 165.088 197.601 165.264C198.225 165.44 198.777 165.68 199.257 165.984C199.769 166.336 200.025 166.744 200.025 167.208C200.025 167.48 199.953 167.712 199.809 167.904C199.665 168.08 199.481 168.168 199.257 168.168C199.113 168.168 198.969 168.136 198.825 168.072C198.681 167.992 198.497 167.88 198.273 167.736C197.873 167.48 197.497 167.288 197.145 167.16C196.809 167.016 196.401 166.944 195.921 166.944C194.833 166.944 193.985 167.312 193.377 168.048C192.785 168.784 192.489 169.808 192.489 171.12C192.489 172.432 192.785 173.448 193.377 174.168C193.969 174.872 194.809 175.224 195.897 175.224C196.377 175.224 196.801 175.152 197.169 175.008C197.537 174.864 197.913 174.672 198.297 174.432C198.473 174.32 198.649 174.224 198.825 174.144C199.001 174.064 199.161 174.024 199.305 174.024C199.529 174.024 199.713 174.12 199.857 174.312C200.001 174.488 200.073 174.712 200.073 174.984C200.073 175.208 200.009 175.416 199.881 175.608C199.769 175.784 199.569 175.968 199.281 176.16C198.801 176.48 198.241 176.728 197.601 176.904C196.961 177.08 196.313 177.168 195.657 177.168ZM211.661 174.048C211.885 174.048 212.069 174.136 212.213 174.312C212.357 174.488 212.429 174.712 212.429 174.984C212.429 175.448 212.141 175.84 211.565 176.16C211.005 176.48 210.389 176.728 209.717 176.904C209.061 177.08 208.429 177.168 207.821 177.168C205.965 177.168 204.501 176.632 203.429 175.56C202.357 174.472 201.821 172.992 201.821 171.12C201.821 169.92 202.053 168.856 202.517 167.928C202.997 167 203.661 166.28 204.509 165.768C205.373 165.256 206.349 165 207.437 165C209.005 165 210.245 165.504 211.157 166.512C212.069 167.52 212.525 168.88 212.525 170.592C212.525 171.232 212.237 171.552 211.661 171.552H204.245C204.405 174.032 205.597 175.272 207.821 175.272C208.413 175.272 208.925 175.192 209.357 175.032C209.789 174.872 210.245 174.664 210.725 174.408C210.773 174.376 210.901 174.312 211.109 174.216C211.333 174.104 211.517 174.048 211.661 174.048ZM207.485 166.776C206.557 166.776 205.813 167.072 205.253 167.664C204.693 168.256 204.357 169.088 204.245 170.16H210.437C210.389 169.072 210.109 168.24 209.597 167.664C209.101 167.072 208.397 166.776 207.485 166.776ZM219.526 177.168C217.894 177.168 216.558 176.832 215.518 176.16C215.23 175.984 215.022 175.8 214.894 175.608C214.782 175.416 214.726 175.2 214.726 174.96C214.726 174.704 214.798 174.488 214.942 174.312C215.086 174.136 215.27 174.048 215.494 174.048C215.702 174.048 216.03 174.176 216.478 174.432C216.958 174.688 217.422 174.896 217.87 175.056C218.334 175.216 218.91 175.296 219.598 175.296C220.366 175.296 220.966 175.16 221.398 174.888C221.83 174.616 222.046 174.232 222.046 173.736C222.046 173.416 221.958 173.16 221.782 172.968C221.622 172.776 221.334 172.608 220.918 172.464C220.502 172.304 219.886 172.136 219.07 171.96C217.662 171.656 216.646 171.248 216.022 170.736C215.414 170.208 215.11 169.496 215.11 168.6C215.11 167.912 215.31 167.296 215.71 166.752C216.11 166.192 216.662 165.76 217.366 165.456C218.07 165.152 218.87 165 219.766 165C220.406 165 221.03 165.088 221.638 165.264C222.246 165.424 222.782 165.664 223.246 165.984C223.774 166.336 224.038 166.744 224.038 167.208C224.038 167.464 223.958 167.68 223.798 167.856C223.654 168.032 223.478 168.12 223.27 168.12C223.126 168.12 222.982 168.088 222.838 168.024C222.694 167.96 222.502 167.856 222.262 167.712C221.83 167.456 221.422 167.256 221.038 167.112C220.67 166.968 220.206 166.896 219.646 166.896C218.974 166.896 218.43 167.04 218.014 167.328C217.614 167.616 217.414 168.008 217.414 168.504C217.414 168.952 217.598 169.304 217.966 169.56C218.35 169.8 219.062 170.032 220.102 170.256C221.174 170.48 222.014 170.736 222.622 171.024C223.23 171.312 223.662 171.672 223.918 172.104C224.19 172.52 224.326 173.056 224.326 173.712C224.326 174.752 223.886 175.592 223.006 176.232C222.142 176.856 220.982 177.168 219.526 177.168Z" fill="#384248"/>
<rect x="77" y="32" width="100" height="100" rx="4" fill="#F5F6F8"/>
<g clip-path="url(#clip0)">
<path d="M126.608 111.643C110.086 111.643 96.6923 98.2491 96.6923 81.7273C96.6923 65.2055 110.086 51.812 126.608 51.812C143.129 51.812 156.523 65.2055 156.523 81.7273C156.523 98.2491 143.129 111.643 126.608 111.643ZM116.137 88.5394V92.8643C116.137 93.3173 116.505 93.6934 116.966 93.6934H122.787C123.249 93.6934 123.616 94.0609 123.616 94.5225V98.8987C123.616 99.326 123.967 99.6765 124.394 99.6765H128.83C129.257 99.6765 129.608 99.326 129.608 98.8987V94.8815C129.608 94.2233 130.138 93.6934 130.796 93.6934H132.505C133.437 93.6934 134.377 93.5566 135.24 93.2233C138.266 92.0523 140.078 89.2318 140.078 86.2146C140.078 83.206 138.266 80.3854 135.24 79.2059C134.368 78.8725 133.437 78.7358 132.505 78.7358H122.334C121.941 78.7358 121.556 78.5819 121.274 78.2999C120.992 78.0178 120.838 77.6417 120.838 77.24C120.838 76.8383 120.992 76.4622 121.274 76.1801C121.556 75.8981 121.932 75.7442 122.334 75.7442H136.3C136.728 75.7442 137.078 75.3938 137.078 74.9664V70.5304C137.078 70.1031 136.728 69.7526 136.3 69.7526H130.197C129.864 69.7526 129.599 69.4877 129.599 69.1543V64.5474C129.599 64.12 129.249 63.7696 128.821 63.7696H124.385C123.958 63.7696 123.608 64.12 123.608 64.5474V69.1543C123.608 69.4877 123.343 69.7526 123.009 69.7526H122.419C121.488 69.7526 120.548 69.8894 119.684 70.2227C116.659 71.3937 114.847 74.2228 114.847 77.2314C114.847 80.2401 116.659 83.0607 119.684 84.2402C120.556 84.5821 121.488 84.7103 122.419 84.7103H132.582C132.975 84.7103 133.36 84.8641 133.642 85.1462C133.924 85.4282 134.078 85.8043 134.078 86.206C134.078 86.6077 133.924 86.9838 133.642 87.2659C133.36 87.5479 132.984 87.7018 132.582 87.7018H116.966C116.513 87.7103 116.137 88.0779 116.137 88.5394Z" fill="white"/>
<path fill-rule="evenodd" clip-rule="evenodd" d="M115.342 77.24C115.274 74.9322 116.488 72.6074 118.462 71.3595C119.445 70.727 120.548 70.3338 121.701 70.274C121.992 70.2569 122.274 70.2569 122.582 70.2654L123.06 70.274C123.343 70.274 123.633 70.1458 123.83 69.9406C124.035 69.7355 124.155 69.4449 124.155 69.1543L124.163 68.6927L124.189 67.7782L124.231 65.9405L124.257 65.026L124.266 64.5644L124.291 64.479L124.343 64.4448H124.368H124.394H124.505L125.419 64.4704L127.24 64.5131L128.146 64.5302L128.599 64.5388L128.804 64.5473V64.5302L128.796 64.5388H128.787L128.77 64.5901V64.7012V64.9234L128.761 65.3764C128.753 66.5816 128.744 67.7867 128.727 68.9748V69.1714C128.727 69.3167 128.753 69.462 128.804 69.6073C128.898 69.8893 129.078 70.1372 129.317 70.3082C129.548 70.4876 129.847 70.5817 130.138 70.5902H130.531H131.984H134.881H135.608H135.967H136.146H136.24H136.283L136.292 70.5218V70.5133H136.274C136.146 70.5133 136.24 70.5304 136.215 70.5304V70.556V70.5988V70.7783V73.6672V74.3852V74.7442V74.9237C136.334 74.9664 136.266 74.9322 136.292 74.9493C136.283 74.9322 136.309 75.0091 136.274 74.8724H135.915L133.044 74.8809C131.138 74.8895 129.232 74.8895 127.326 74.898L124.479 74.9066H123.06H122.351C122.018 74.898 121.633 74.9835 121.308 75.1373C120.65 75.4536 120.163 76.1032 120.052 76.8211C119.924 77.5391 120.163 78.3084 120.676 78.8212C120.932 79.0776 121.24 79.2742 121.59 79.3939C121.915 79.5221 122.368 79.5221 122.539 79.5135L123.949 79.505C125.83 79.4964 127.702 79.4964 129.565 79.4879L132.36 79.4793C133.232 79.4708 134.069 79.5733 134.839 79.8554C136.403 80.4281 137.762 81.5734 138.531 83.0521C139.317 84.5136 139.522 86.2744 139.104 87.8727C138.702 89.4796 137.676 90.907 136.309 91.813C135.616 92.2574 134.856 92.6164 134.069 92.7788C133.266 92.9668 132.454 92.9412 131.522 92.9412H130.847C130.573 92.9241 130.138 93.0096 129.838 93.1891C129.522 93.3686 129.257 93.6335 129.086 93.9583C129.001 94.1207 128.941 94.2917 128.898 94.4712C128.864 94.6336 128.855 94.8729 128.855 94.9583C128.855 95.8558 128.855 96.7618 128.847 97.6593L128.838 98.8901L128.821 98.9072H128.813H128.565C127.667 98.9072 126.779 98.8986 125.89 98.8986L124.556 98.8901H124.385H124.368V98.8815C124.377 98.0097 124.377 97.1464 124.385 96.2832L124.394 94.9583V94.625C124.394 94.5566 124.402 94.3173 124.343 94.1036C124.24 93.6763 123.958 93.3087 123.582 93.0865C123.394 92.9754 123.18 92.907 122.966 92.8728C122.701 92.8472 122.667 92.8643 122.539 92.8557L121.881 92.8472L120.565 92.8386C120.06 92.8301 119.471 92.8301 118.847 92.8215C118.53 92.8215 118.206 92.813 117.881 92.813L117.385 92.8044H117.137H117.009L116.949 92.8215V92.8301L116.941 92.8386L116.992 92.813V92.5651C116.992 92.4027 116.992 92.2403 116.992 92.0865C116.992 91.454 116.983 90.8557 116.983 90.3428C116.932 86.0436 115.983 90.3856 115.847 92.4455C115.847 92.6506 115.787 92.8215 115.847 93.1292C115.906 93.4028 116.069 93.6506 116.308 93.8216C116.428 93.907 116.556 93.9669 116.701 94.0011C116.855 94.0352 116.992 94.0352 117.077 94.0438L117.693 94.078C118.513 94.1207 119.325 94.1635 120.154 94.2062C120.975 94.2404 121.804 94.2746 122.633 94.3088L122.778 94.3173L122.813 94.3259L122.864 94.36L122.907 94.4626L122.872 95.5396L122.804 98.0353L122.787 98.6593V98.8131V98.8986L122.796 99.061C122.821 99.2747 122.881 99.4798 122.984 99.6679C123.189 100.044 123.556 100.326 123.975 100.437C124.496 100.54 124.565 100.48 124.804 100.497C125.633 100.505 126.462 100.523 127.291 100.531L128.531 100.54H128.864C129.086 100.531 129.308 100.48 129.505 100.394C129.907 100.215 130.232 99.8645 130.385 99.4456C130.462 99.2576 130.488 98.967 130.488 98.8388V98.5311V97.9157V96.6934V95.4712V94.8643L130.522 94.719C130.573 94.6336 130.659 94.5652 130.762 94.5652L131.915 94.5566C132.676 94.5652 133.625 94.531 134.454 94.3259C136.18 93.8985 137.659 92.9498 138.745 91.6848C139.83 90.4283 140.48 88.8727 140.659 87.3257C141.01 84.4709 139.736 81.5307 137.463 79.864C136.351 79.0263 135.001 78.4622 133.616 78.3169C132.915 78.2314 132.24 78.2656 131.599 78.2656L129.633 78.2827L125.71 78.3084L123.753 78.3169H122.77H122.291C122.172 78.3169 122.052 78.2913 121.941 78.2485C121.488 78.0861 121.18 77.5989 121.231 77.1203C121.266 76.6416 121.667 76.2143 122.146 76.1459L122.325 76.1288H122.573H123.06H124.035L125.992 76.1374C128.599 76.1545 131.206 76.163 133.813 76.1801L135.762 76.1972H136.249C136.454 76.2057 136.762 76.1459 136.967 76.0006C137.189 75.8553 137.36 75.6502 137.454 75.4023C137.505 75.2826 137.531 75.1459 137.539 75.0177V74.7527L137.574 70.8552C137.565 70.6757 137.599 70.5817 137.548 70.2654C137.497 70.0005 137.36 69.7526 137.155 69.5731C136.958 69.3851 136.702 69.2739 136.428 69.2398C136.274 69.2227 136.215 69.2312 136.129 69.2312H135.89L133.941 69.2141L130.18 69.1799L130.189 69.1714V69.0004L130.197 68.026L130.214 66.0858L130.223 65.1114V64.6243C130.223 64.573 130.223 64.3849 130.189 64.2482C130.155 64.1029 130.103 63.9661 130.035 63.8379C129.89 63.5815 129.659 63.3764 129.394 63.2567C129.138 63.1285 128.761 63.1285 128.659 63.1285L127.693 63.1199L125.753 63.1028L124.787 63.0943H124.548C124.471 63.0943 124.402 63.0858 124.223 63.1028C123.924 63.137 123.633 63.2652 123.411 63.4704C123.189 63.6755 123.026 63.949 122.966 64.2482C122.915 64.6157 122.941 64.6841 122.932 64.8721L122.924 65.838L122.907 67.7696L122.898 68.7355V69.1372L122.941 69.0517L122.984 69.0261H123.009H122.924H122.445C122.103 69.0261 121.753 69.0432 121.402 69.0774C119.992 69.2056 118.616 69.7697 117.488 70.5988C115.171 72.2398 113.855 75.163 114.146 77.9836C114.265 79.3939 114.787 80.7529 115.582 81.9067C116.385 83.0606 117.496 83.9923 118.753 84.5991C120.001 85.2402 121.488 85.4453 122.787 85.3855L126.608 85.3342L130.428 85.2658L132.334 85.2231L132.574 85.2145L132.736 85.2231C132.838 85.2316 132.941 85.2658 133.044 85.3085C133.24 85.394 133.403 85.5479 133.505 85.7359C133.727 86.112 133.668 86.6419 133.343 86.9667C133.189 87.1291 132.975 87.2488 132.744 87.2829C132.642 87.3 132.488 87.3 132.326 87.3086L131.847 87.3257L128.052 87.4539C125.522 87.5565 123.001 87.6676 120.479 87.7701C120.129 87.7872 119.488 87.8214 118.795 87.8556C118.445 87.8812 118.086 87.8983 117.736 87.924C117.556 87.9411 117.385 87.9496 117.223 87.9667C117.137 87.9753 117.06 87.9838 116.983 87.9838L116.838 88.0266C116.667 88.112 116.59 88.2659 116.59 88.3599C116.59 88.4625 116.624 88.5137 116.659 88.5223C116.718 88.5479 116.821 88.3513 116.983 88.4283C120.864 88.7531 128.676 88.5223 130.368 88.4966C130.95 88.4881 131.531 88.4796 132.121 88.4625L132.556 88.4539C132.719 88.4539 132.984 88.4368 133.18 88.377C133.608 88.2659 133.992 88.018 134.283 87.6847C134.873 87.0265 135.001 86.0094 134.599 85.2231C134.403 84.8299 134.086 84.4965 133.71 84.2829C133.522 84.1718 133.317 84.0948 133.103 84.0521C132.915 84.0008 132.616 83.9923 132.505 84.0008C130.129 84.0179 127.727 84.0265 125.308 84.0435L123.488 84.0521C122.872 84.0521 122.266 84.0777 121.719 84.035C120.599 83.9581 119.539 83.582 118.573 82.9666C116.642 81.7785 115.402 79.5648 115.342 77.24ZM115.889 80.5306C115.906 80.4195 116.103 80.6418 116.325 80.8896C116.539 81.146 116.787 81.4195 116.787 81.5563C116.795 81.6589 116.547 81.4965 116.308 81.2572C116.086 81.0007 115.872 80.6674 115.889 80.5306Z" fill="black"/>
<path fill-rule="evenodd" clip-rule="evenodd" d="M156.959 80.7783L156.822 78.727C156.728 78.0518 156.608 77.368 156.506 76.6928L156.343 75.6756C156.266 75.3423 156.172 75.009 156.096 74.6756L155.591 72.6841L154.907 70.7439C154.788 70.4191 154.694 70.0943 154.557 69.7781L154.121 68.8464C153.822 68.231 153.574 67.59 153.241 66.9917L152.207 65.2138C150.745 62.9061 149.061 60.7095 147.018 58.8889C146.061 57.906 144.924 57.1453 143.864 56.2991C143.3 55.923 142.719 55.5726 142.138 55.2136L141.275 54.6837L140.36 54.2392C132.531 50.2648 123.095 49.9742 115.146 53.2136C107.137 56.376 100.838 63.0685 97.9402 70.8978C94.9914 78.727 95.453 87.6076 98.9915 94.9325C102.479 102.292 108.915 108.018 116.385 110.694C117.436 111.155 118.915 111.471 120.377 111.873C121.129 111.993 121.872 112.112 122.582 112.224C122.941 112.275 123.283 112.343 123.608 112.36C123.941 112.377 124.249 112.386 124.548 112.403C126.984 112.497 126.95 112.241 126.061 111.942C125.172 111.625 123.437 111.335 122.351 111.027C115.453 109.659 108.864 105.839 104.419 100.394C99.9061 95.0009 97.6069 88.2486 97.4018 82.1203C97.2137 76.4962 98.6924 70.7781 101.718 65.9831C103.24 63.607 105.026 61.3591 107.197 59.5299C109.334 57.6923 111.693 56.0598 114.291 54.9315C116.864 53.7777 119.582 52.9144 122.385 52.5811L123.428 52.4272C123.778 52.3759 124.129 52.3845 124.479 52.3674L126.591 52.2734L128.693 52.393C129.044 52.4187 129.394 52.4187 129.744 52.4699L130.787 52.6409C136.343 53.4358 141.591 55.9401 145.753 59.6069L147.283 61.0172L148.668 62.5642C149.155 63.06 149.54 63.6326 149.959 64.1882C150.352 64.7523 150.813 65.2822 151.147 65.8891L152.215 67.6669C152.54 68.2738 152.813 68.9148 153.113 69.5302C153.258 69.8464 153.42 70.1456 153.548 70.4704L153.899 71.4448C154.113 72.0944 154.403 72.7269 154.566 73.4021L155.078 75.4021C155.266 76.0603 155.309 76.7611 155.429 77.4364C155.702 78.7868 155.677 80.1715 155.771 81.539C155.771 82.2228 155.711 82.9066 155.694 83.5989L155.643 84.6246C155.608 84.9665 155.549 85.2998 155.497 85.6417L155.19 87.6759L154.694 89.6675C153.942 92.2915 152.925 94.8727 151.454 97.189L150.933 98.0779L150.335 98.9156C149.924 99.4626 149.548 100.044 149.112 100.574C148.206 101.599 147.335 102.668 146.3 103.574C145.343 104.565 144.206 105.352 143.146 106.223C141.984 106.95 140.873 107.788 139.625 108.369C139.01 108.668 138.42 109.044 137.77 109.292L135.847 110.078C135.206 110.352 134.531 110.497 133.873 110.711C133.206 110.907 132.548 111.13 131.864 111.232C131.48 111.309 130.796 111.446 130.035 111.6C129.274 111.753 128.437 111.788 127.787 111.899C126.479 112.078 125.864 112.258 128.026 112.309C130.249 112.48 133.557 111.873 136.394 110.933C137.095 110.668 137.779 110.412 138.42 110.164C139.052 109.89 139.616 109.574 140.138 109.326C141.198 108.83 141.95 108.326 142.352 108.061C144.617 106.728 146.634 104.976 148.514 103.095C149.403 102.095 150.335 101.129 151.095 100.01C151.942 98.9583 152.6 97.7702 153.301 96.6078C154.548 94.206 155.66 91.676 156.224 88.9837L156.472 87.9837C156.54 87.6503 156.574 87.3084 156.625 86.9665L156.908 84.9237C156.95 84.24 156.959 83.5476 156.984 82.8553L157.019 81.8211C157.019 81.4707 156.984 81.1288 156.959 80.7783ZM156.617 84.6844C156.788 84.4964 156.796 86.0263 156.608 86.2657C156.455 86.4451 156.455 84.9237 156.617 84.6844Z" fill="black"/>
</g>
<defs>
<clipPath id="clip0">
<rect width="61.54" height="61.54" fill="white" transform="translate(96 51)"/>
</clipPath>
</defs>
</svg>
