<svg width="24" height="24" viewBox="0 0 24 24" fill="none" xmlns="http://www.w3.org/2000/svg">
<path d="M0.261924 9.04006C0.241924 8.17006 0.401924 7.30006 0.721924 6.49006C1.04192 5.68006 1.52192 4.94006 2.12192 4.31006C2.73192 3.68006 3.45192 3.18006 4.25192 2.83006C5.05192 2.48006 5.91192 2.30006 6.79192 2.28006L15.6519 2.13006C19.3219 2.07006 22.3519 5.00006 22.4119 8.66006L22.6319 21.4401C22.6319 21.7301 22.4119 21.9601 22.1219 21.9701L7.14192 22.2201C3.47192 22.2801 0.441924 19.3501 0.381924 15.6901L0.261924 9.04006ZM13.6119 12.1401C13.6219 12.7501 14.1319 13.2401 14.7419 13.2301C15.3519 13.2201 15.8419 12.7101 15.8319 12.1001C15.8219 11.4901 15.3119 11.0001 14.7019 11.0101C14.0919 11.0201 13.6019 11.5201 13.6119 12.1401ZM6.97192 12.2501C6.98192 12.8601 7.49192 13.3501 8.10192 13.3401C8.71192 13.3301 9.20192 12.8201 9.19192 12.2101C9.17192 11.6001 8.67192 11.1101 8.05192 11.1301C7.43192 11.1501 6.96192 11.6401 6.97192 12.2501Z" fill="#73CBF2"/>
<path fill-rule="evenodd" clip-rule="evenodd" d="M7.43211 12.55C7.39211 12.85 7.67211 13.18 8.05211 13.21C8.43211 13.26 8.81211 12.99 8.91211 12.65C8.97211 12.47 8.95211 12.28 8.88211 12.13C8.82211 11.97 8.70211 11.86 8.59211 11.79C8.34211 11.65 8.17211 11.65 7.92211 11.58C7.74211 11.56 7.69211 11.66 7.54211 11.81C7.52211 11.84 7.43211 11.87 7.33211 11.93C7.23211 12 7.14211 12.1 7.08211 12.17C7.07211 12.19 7.09211 12.24 6.99211 12.24C6.68211 12.23 6.95211 12.35 6.90211 11.97C6.89211 11.85 6.85211 11.83 6.87211 11.68C6.90211 11.44 7.11211 11.12 7.44211 10.94C7.77211 10.76 8.16211 10.74 8.42211 10.79C8.92211 10.87 9.30211 11.17 9.51211 11.55C9.72211 11.94 9.77211 12.45 9.51211 12.94C9.32211 13.28 9.04211 13.54 8.72211 13.69C8.39211 13.84 8.03211 13.86 7.71211 13.76C7.35211 13.65 7.09211 13.36 6.98211 13.07C6.86211 12.78 6.88211 12.5 6.92211 12.28C6.93211 12.19 6.96211 12.33 7.04211 12.38C7.17211 12.48 7.38211 12.51 7.43211 12.55Z" fill="black"/>
<path fill-rule="evenodd" clip-rule="evenodd" d="M14.082 12.43C14.042 12.73 14.322 13.07 14.702 13.09C15.082 13.14 15.462 12.86 15.562 12.53C15.622 12.35 15.602 12.16 15.532 12.01C15.462 11.86 15.352 11.75 15.232 11.68C14.992 11.54 14.812 11.54 14.562 11.47C14.382 11.44 14.332 11.54 14.182 11.69C14.162 11.72 14.072 11.75 13.972 11.81C13.872 11.87 13.782 11.98 13.722 12.05C13.712 12.07 13.732 12.12 13.632 12.12C13.322 12.11 13.592 12.23 13.542 11.85C13.532 11.72 13.492 11.71 13.512 11.56C13.542 11.32 13.762 10.99 14.082 10.82C14.412 10.64 14.802 10.62 15.062 10.67C15.562 10.75 15.942 11.05 16.152 11.43C16.362 11.82 16.412 12.33 16.152 12.82C15.962 13.16 15.682 13.42 15.362 13.57C15.032 13.72 14.672 13.74 14.352 13.64C13.992 13.53 13.732 13.24 13.622 12.95C13.502 12.66 13.522 12.38 13.562 12.16C13.572 12.07 13.602 12.21 13.682 12.26C13.822 12.36 14.022 12.39 14.082 12.43Z" fill="black"/>
<path fill-rule="evenodd" clip-rule="evenodd" d="M1.85199 4.03C1.93199 3.95 1.92199 3.95 1.98199 3.9C2.76199 3.19 3.72199 2.64 4.77199 2.33C5.29199 2.18 5.84199 2.08 6.39199 2.05C6.95199 2.03 7.47199 2.05 8.02199 2.04C10.192 2.04 12.432 2.03 14.702 2H15.562C15.852 2 16.142 2.01 16.432 2.04C16.712 2.08 17.002 2.1 17.282 2.18C17.422 2.22 17.562 2.24 17.702 2.29L18.112 2.43C18.252 2.47 18.382 2.53 18.512 2.6C18.642 2.66 18.782 2.72 18.912 2.79C19.162 2.94 19.422 3.07 19.652 3.25C20.142 3.57 20.552 3.99 20.942 4.42C21.682 5.32 22.232 6.39 22.432 7.54L22.512 7.97L22.542 8.4C22.572 8.69 22.562 8.97 22.572 9.25C22.582 9.81 22.602 10.37 22.612 10.93C22.682 13.34 22.762 15.71 22.852 18.05C22.872 18.63 22.892 19.22 22.922 19.79C22.932 20.08 22.942 20.37 22.952 20.66L22.972 21.09L23.002 21.31V21.42C23.002 21.47 23.002 21.54 22.992 21.59C22.952 21.83 22.812 22.05 22.602 22.19C22.502 22.26 22.382 22.3 22.262 22.32C22.122 22.34 22.072 22.33 22.002 22.34C21.712 22.35 21.432 22.36 21.142 22.37C20.572 22.39 20.002 22.41 19.442 22.43C17.182 22.51 14.962 22.58 12.772 22.63C11.682 22.65 10.602 22.67 9.52199 22.68C8.98199 22.68 8.45199 22.68 7.92199 22.69C7.65199 22.69 7.39199 22.69 7.12199 22.69C6.84199 22.67 6.56199 22.67 6.28199 22.63C4.71199 22.4 3.72199 21.89 2.75199 21.19C2.28199 20.82 1.79199 20.4 1.35199 19.79C0.901986 19.19 0.471986 18.42 0.191986 17.4C0.171986 17.32 0.151986 17.23 0.121986 17.13C0.101986 17.03 0.0919863 16.91 0.0719863 16.78C0.0519863 16.65 0.0319863 16.52 0.0219863 16.38C0.0119863 16.24 0.0119863 16.08 0.0019863 15.92C-0.0080137 15.3 0.0219863 14.61 0.0419863 13.88C0.0919863 12.43 0.131986 10.9 0.161986 9.97C0.171986 9.77 0.131986 9.07 0.231986 9.11C0.551986 9.26 0.221986 8.06 0.401986 11.83C0.461986 13.07 0.501986 13.05 0.571986 14.38C0.581986 14.65 0.591986 14.93 0.611986 15.22C0.621986 15.37 0.621986 15.52 0.631986 15.67C0.641986 15.82 0.661986 15.97 0.671986 16.12C0.741986 16.73 0.871986 17.37 1.15199 17.99C1.68199 19.23 2.68199 20.42 3.98199 21.1C4.62199 21.45 5.32199 21.68 6.03199 21.79C6.21199 21.81 6.38199 21.84 6.56199 21.85C6.74199 21.86 6.91199 21.86 7.09199 21.86C7.46199 21.85 7.82199 21.85 8.17199 21.84C9.59199 21.81 10.882 21.78 11.942 21.75C13.962 21.69 15.792 21.64 17.552 21.59C18.432 21.57 19.282 21.54 20.132 21.52C20.552 21.51 20.972 21.5 21.392 21.49H22.002H22.082H22.132H22.142L22.152 21.48C22.122 19.91 22.082 18.33 22.052 16.66C22.022 14.89 21.992 13.03 21.962 10.98C21.952 10.25 21.942 9.53 21.932 8.82C21.912 8.14 21.832 7.5 21.632 6.88C21.422 6.27 21.132 5.7 20.762 5.18C20.392 4.66 19.932 4.22 19.442 3.85C18.952 3.47 18.392 3.19 17.812 2.98C17.522 2.87 17.222 2.81 16.932 2.73C16.632 2.69 16.332 2.63 16.032 2.63C15.742 2.61 15.412 2.62 15.082 2.62C14.762 2.62 14.432 2.63 14.112 2.63C13.472 2.64 12.832 2.64 12.192 2.65C10.782 2.66 9.39199 2.66 8.03199 2.65C7.69199 2.65 7.35199 2.64 7.02199 2.64C6.68199 2.63 6.38199 2.64 6.06199 2.67C5.43199 2.73 4.81199 2.89 4.24199 3.13C3.09199 3.61 2.10199 4.43 1.42199 5.43C0.741986 6.43 0.361986 7.59 0.301986 8.74C0.281986 9.64 0.211986 8.27 0.331986 7.54C0.401986 6.93 0.561986 6.26 0.821986 5.64C1.09199 5.02 1.46199 4.45 1.85199 4.03Z" fill="black"/>
</svg>
