<svg width="24" height="24" viewBox="0 0 24 24" fill="none" xmlns="http://www.w3.org/2000/svg">
<g clip-path="url(#clip0)">
<path d="M14 3C14.552 3 15 3.448 15 4V8C15 8.552 14.552 9 14 9H12V11H16C16.552 11 17 11.448 17 12V15H19C19.552 15 20 15.448 20 16V20C20 20.552 19.552 21 19 21H13C12.448 21 12 20.552 12 20V16C12 15.448 12.448 15 13 15H15V13H7V15H9C9.552 15 10 15.448 10 16V20C10 20.552 9.552 21 9 21H3C2.448 21 2 20.552 2 20V16C2 15.448 2.448 15 3 15H5V12C5 11.448 5.448 11 6 11H10V9H8C7.448 9 7 8.552 7 8V4C7 3.448 7.448 3 8 3H14ZM8 17H4V19H8V17ZM18 17H14V19H18V17ZM13 5H9V7H13V5Z" fill="#73CBF2"/>
</g>
<defs>
<clipPath id="clip0">
<rect width="24" height="24" fill="white"/>
</clipPath>
</defs>
</svg>
