<svg width="263" height="245" viewBox="0 0 263 245" fill="none" xmlns="http://www.w3.org/2000/svg">
<g filter="url(#filter0_dd)">
<rect x="4" y="3" width="255" height="237" rx="4" fill="white"/>
</g>
<path d="M89.9404 171.16C88.6924 171.16 87.6364 170.925 86.7724 170.456C85.919 169.987 85.2684 169.32 84.8204 168.456C84.3724 167.592 84.1484 166.568 84.1484 165.384C84.1484 164.189 84.3777 163.16 84.8364 162.296C85.295 161.421 85.9564 160.749 86.8204 160.28C87.6844 159.8 88.719 159.56 89.9244 159.56C90.7137 159.56 91.455 159.677 92.1484 159.912C92.8417 160.136 93.4177 160.451 93.8764 160.856L93.1884 162.456C92.687 162.061 92.175 161.779 91.6524 161.608C91.1297 161.437 90.5537 161.352 89.9244 161.352C88.7297 161.352 87.823 161.699 87.2044 162.392C86.5964 163.085 86.2924 164.083 86.2924 165.384C86.2924 166.696 86.607 167.693 87.2364 168.376C87.8657 169.059 88.799 169.4 90.0364 169.4C90.3884 169.4 90.7457 169.373 91.1084 169.32C91.4817 169.256 91.8497 169.165 92.2124 169.048V166.424H89.6204V164.904H93.9244V170.328C93.4017 170.584 92.783 170.787 92.0684 170.936C91.3537 171.085 90.6444 171.16 89.9404 171.16ZM99.8236 171.16C99.013 171.16 98.309 170.995 97.7116 170.664C97.1143 170.333 96.6503 169.864 96.3196 169.256C95.989 168.637 95.8236 167.912 95.8236 167.08C95.8236 166.248 95.989 165.528 96.3196 164.92C96.6503 164.312 97.1143 163.843 97.7116 163.512C98.309 163.181 99.013 163.016 99.8236 163.016C100.634 163.016 101.338 163.181 101.936 163.512C102.533 163.843 102.997 164.312 103.328 164.92C103.658 165.528 103.824 166.248 103.824 167.08C103.824 167.912 103.658 168.637 103.328 169.256C102.997 169.864 102.533 170.333 101.936 170.664C101.338 170.995 100.634 171.16 99.8236 171.16ZM99.8236 169.64C100.421 169.64 100.901 169.427 101.264 169C101.626 168.563 101.808 167.923 101.808 167.08C101.808 166.227 101.626 165.592 101.264 165.176C100.901 164.749 100.421 164.536 99.8236 164.536C99.2263 164.536 98.7463 164.749 98.3836 165.176C98.021 165.592 97.8396 166.227 97.8396 167.08C97.8396 167.923 98.021 168.563 98.3836 169C98.7463 169.427 99.2263 169.64 99.8236 169.64ZM109.192 171.16C108.382 171.16 107.678 170.995 107.08 170.664C106.483 170.333 106.019 169.864 105.688 169.256C105.358 168.637 105.192 167.912 105.192 167.08C105.192 166.248 105.358 165.528 105.688 164.92C106.019 164.312 106.483 163.843 107.08 163.512C107.678 163.181 108.382 163.016 109.192 163.016C110.003 163.016 110.707 163.181 111.304 163.512C111.902 163.843 112.366 164.312 112.696 164.92C113.027 165.528 113.192 166.248 113.192 167.08C113.192 167.912 113.027 168.637 112.696 169.256C112.366 169.864 111.902 170.333 111.304 170.664C110.707 170.995 110.003 171.16 109.192 171.16ZM109.192 169.64C109.79 169.64 110.27 169.427 110.632 169C110.995 168.563 111.176 167.923 111.176 167.08C111.176 166.227 110.995 165.592 110.632 165.176C110.27 164.749 109.79 164.536 109.192 164.536C108.595 164.536 108.115 164.749 107.752 165.176C107.39 165.592 107.208 166.227 107.208 167.08C107.208 167.923 107.39 168.563 107.752 169C108.115 169.427 108.595 169.64 109.192 169.64ZM118.641 174.04C117.916 174.04 117.233 173.955 116.593 173.784C115.964 173.624 115.409 173.373 114.929 173.032L115.505 171.64C115.953 171.939 116.433 172.157 116.945 172.296C117.457 172.445 117.969 172.52 118.481 172.52C119.91 172.52 120.625 171.832 120.625 170.456V169.384C120.401 169.821 120.054 170.168 119.585 170.424C119.126 170.68 118.614 170.808 118.049 170.808C117.345 170.808 116.732 170.648 116.209 170.328C115.686 169.997 115.281 169.539 114.993 168.952C114.705 168.365 114.561 167.683 114.561 166.904C114.561 166.125 114.705 165.448 114.993 164.872C115.281 164.285 115.686 163.832 116.209 163.512C116.732 163.181 117.345 163.016 118.049 163.016C118.636 163.016 119.158 163.149 119.617 163.416C120.076 163.672 120.412 164.019 120.625 164.456V163.176H122.577V170.216C122.577 171.485 122.241 172.44 121.569 173.08C120.897 173.72 119.921 174.04 118.641 174.04ZM118.593 169.288C119.212 169.288 119.702 169.075 120.065 168.648C120.428 168.221 120.609 167.64 120.609 166.904C120.609 166.168 120.428 165.592 120.065 165.176C119.702 164.749 119.212 164.536 118.593 164.536C117.974 164.536 117.484 164.749 117.121 165.176C116.758 165.592 116.577 166.168 116.577 166.904C116.577 167.64 116.758 168.221 117.121 168.648C117.484 169.075 117.974 169.288 118.593 169.288ZM127.519 171.16C126.591 171.16 125.903 170.909 125.455 170.408C125.018 169.896 124.799 169.149 124.799 168.168V159.72H126.799V168.072C126.799 169.032 127.205 169.512 128.015 169.512C128.133 169.512 128.25 169.507 128.367 169.496C128.485 169.485 128.597 169.464 128.703 169.432L128.671 171.016C128.287 171.112 127.903 171.16 127.519 171.16ZM133.837 171.16C132.951 171.16 132.189 170.995 131.549 170.664C130.909 170.333 130.413 169.864 130.061 169.256C129.719 168.648 129.549 167.928 129.549 167.096C129.549 166.285 129.714 165.576 130.045 164.968C130.386 164.36 130.85 163.885 131.437 163.544C132.034 163.192 132.711 163.016 133.469 163.016C134.578 163.016 135.453 163.368 136.093 164.072C136.743 164.776 137.069 165.736 137.069 166.952V167.544H131.469C131.618 168.941 132.418 169.64 133.869 169.64C134.306 169.64 134.743 169.576 135.181 169.448C135.618 169.309 136.018 169.096 136.381 168.808L136.941 170.152C136.567 170.461 136.098 170.707 135.533 170.888C134.967 171.069 134.402 171.16 133.837 171.16ZM133.549 164.376C132.962 164.376 132.487 164.557 132.125 164.92C131.762 165.283 131.543 165.773 131.469 166.392H135.405C135.362 165.741 135.181 165.245 134.861 164.904C134.551 164.552 134.114 164.376 133.549 164.376ZM146.273 171.16C145.59 171.16 144.988 170.995 144.465 170.664C143.953 170.333 143.553 169.864 143.265 169.256C142.977 168.637 142.833 167.912 142.833 167.08C142.833 166.237 142.977 165.517 143.265 164.92C143.553 164.312 143.953 163.843 144.465 163.512C144.988 163.181 145.59 163.016 146.273 163.016C146.828 163.016 147.329 163.139 147.777 163.384C148.225 163.629 148.561 163.955 148.785 164.36V159.72H150.785V171H148.833V169.704C148.62 170.152 148.284 170.509 147.825 170.776C147.366 171.032 146.849 171.16 146.273 171.16ZM146.833 169.64C147.43 169.64 147.91 169.427 148.273 169C148.636 168.563 148.817 167.923 148.817 167.08C148.817 166.227 148.636 165.592 148.273 165.176C147.91 164.749 147.43 164.536 146.833 164.536C146.236 164.536 145.756 164.749 145.393 165.176C145.03 165.592 144.849 166.227 144.849 167.08C144.849 167.923 145.03 168.563 145.393 169C145.756 169.427 146.236 169.64 146.833 169.64ZM153.009 171V163.176H154.961V164.552C155.345 163.624 156.166 163.112 157.425 163.016L158.033 162.968L158.161 164.664L157.009 164.776C155.697 164.904 155.041 165.576 155.041 166.792V171H153.009ZM159.296 161.496V159.544H161.536V161.496H159.296ZM159.424 171V163.176H161.424V171H159.424ZM165.957 171L162.565 163.176H164.693L166.869 168.648L169.125 163.176H171.125L167.685 171H165.957ZM175.94 171.16C175.054 171.16 174.292 170.995 173.652 170.664C173.012 170.333 172.516 169.864 172.164 169.256C171.822 168.648 171.652 167.928 171.652 167.096C171.652 166.285 171.817 165.576 172.148 164.968C172.489 164.36 172.953 163.885 173.54 163.544C174.137 163.192 174.814 163.016 175.572 163.016C176.681 163.016 177.556 163.368 178.196 164.072C178.846 164.776 179.172 165.736 179.172 166.952V167.544H173.572C173.721 168.941 174.521 169.64 175.972 169.64C176.409 169.64 176.846 169.576 177.284 169.448C177.721 169.309 178.121 169.096 178.484 168.808L179.044 170.152C178.67 170.461 178.201 170.707 177.636 170.888C177.07 171.069 176.505 171.16 175.94 171.16ZM175.652 164.376C175.065 164.376 174.59 164.557 174.228 164.92C173.865 165.283 173.646 165.773 173.572 166.392H177.508C177.465 165.741 177.284 165.245 176.964 164.904C176.654 164.552 176.217 164.376 175.652 164.376Z" fill="#384248"/>
<path d="M152.885 125.5C152.082 126.895 152.438 128.02 151.092 128.795C149.747 129.572 148.197 130 146.585 130H115.415C113.804 130 112.256 129.573 110.909 128.797C109.562 128.022 109.917 126.895 109.115 125.5L120.62 112H141.38L152.885 125.5Z" fill="#1E88E5"/>
<path d="M136.194 77.4984C137.804 77.4954 139.35 76.4244 140.696 77.2014C142.041 77.9799 143.186 79.1064 143.991 80.5029L159.576 107.497C160.382 108.892 160.787 110.447 160.788 112C160.79 113.555 158.888 115.109 158.079 116.501L141.389 111.994L131.003 94.0044L136.194 77.4984Z" fill="#FBC02D"/>
<path d="M160.79 112C160.79 113.56 160.385 115.105 159.575 116.5L154.07 126.025C153.275 127.195 152.255 128.125 151.085 128.8L141.38 112H160.79Z" fill="#E53935"/>
<path d="M103.92 116.501C103.113 115.109 101.211 113.555 101.211 112.001C101.213 110.447 101.616 108.892 102.423 107.495L118.008 80.5015C118.814 79.1065 119.958 77.9785 121.302 77.2015C122.648 76.423 124.196 77.494 125.805 77.497L130.994 94.0105L120.611 111.994L103.92 116.501Z" fill="#4CAF50"/>
<path d="M120.62 112L110.915 128.8C109.745 128.125 108.725 127.195 107.93 126.025L102.425 116.5C101.615 115.105 101.21 113.56 101.21 112H120.62Z" fill="#1565C0"/>
<path d="M140.69 77.2L131 94L121.295 77.2C122.465 76.525 123.785 76.105 125.195 76.015L136.19 76C137.81 76 139.355 76.42 140.69 77.2Z" fill="#2E7D32"/>
<defs>
<filter id="filter0_dd" x="0" y="0" width="263" height="245" filterUnits="userSpaceOnUse" color-interpolation-filters="sRGB">
<feFlood flood-opacity="0" result="BackgroundImageFix"/>
<feColorMatrix in="SourceAlpha" type="matrix" values="0 0 0 0 0 0 0 0 0 0 0 0 0 0 0 0 0 0 127 0"/>
<feOffset/>
<feGaussianBlur stdDeviation="0.5"/>
<feColorMatrix type="matrix" values="0 0 0 0 0 0 0 0 0 0 0 0 0 0 0 0 0 0 0.5 0"/>
<feBlend mode="normal" in2="BackgroundImageFix" result="effect1_dropShadow"/>
<feColorMatrix in="SourceAlpha" type="matrix" values="0 0 0 0 0 0 0 0 0 0 0 0 0 0 0 0 0 0 127 0"/>
<feOffset dy="1"/>
<feGaussianBlur stdDeviation="2"/>
<feColorMatrix type="matrix" values="0 0 0 0 0.247059 0 0 0 0 0.247059 0 0 0 0 0.266667 0 0 0 0.15 0"/>
<feBlend mode="normal" in2="effect1_dropShadow" result="effect2_dropShadow"/>
<feBlend mode="normal" in="SourceGraphic" in2="effect2_dropShadow" result="shape"/>
</filter>
</defs>
</svg>
