<svg width="255" height="206" viewBox="0 0 255 206" fill="none" xmlns="http://www.w3.org/2000/svg">
<path d="M99.106 168.024C99.41 168.024 99.65 168.112 99.826 168.288C100.018 168.464 100.114 168.704 100.114 169.008V174.624C100.114 175.168 100.034 175.56 99.874 175.8C99.73 176.04 99.434 176.232 98.986 176.376C98.346 176.632 97.586 176.832 96.706 176.976C95.826 177.12 94.954 177.192 94.09 177.192C92.378 177.192 90.898 176.848 89.65 176.16C88.402 175.472 87.45 174.48 86.794 173.184C86.138 171.888 85.81 170.336 85.81 168.528C85.81 166.752 86.138 165.216 86.794 163.92C87.45 162.624 88.386 161.632 89.602 160.944C90.834 160.24 92.274 159.888 93.922 159.888C95.042 159.888 96.074 160.056 97.018 160.392C97.978 160.712 98.794 161.184 99.466 161.808C99.786 162.064 99.946 162.384 99.946 162.768C99.946 163.056 99.866 163.304 99.706 163.512C99.546 163.704 99.354 163.8 99.13 163.8C98.986 163.8 98.858 163.776 98.746 163.728C98.634 163.68 98.49 163.6 98.314 163.488C97.53 162.912 96.818 162.512 96.178 162.288C95.538 162.048 94.802 161.928 93.97 161.928C92.146 161.928 90.754 162.496 89.794 163.632C88.834 164.752 88.354 166.384 88.354 168.528C88.354 170.72 88.842 172.384 89.818 173.52C90.81 174.64 92.258 175.2 94.162 175.2C95.442 175.2 96.674 175.008 97.858 174.624V169.896H94.714C94.394 169.896 94.138 169.816 93.946 169.656C93.77 169.48 93.682 169.248 93.682 168.96C93.682 168.672 93.77 168.448 93.946 168.288C94.138 168.112 94.394 168.024 94.714 168.024H99.106ZM108.729 165C110.281 165 111.433 165.392 112.185 166.176C112.953 166.96 113.337 168.152 113.337 169.752V175.968C113.337 176.336 113.233 176.624 113.025 176.832C112.817 177.024 112.529 177.12 112.161 177.12C111.809 177.12 111.529 177.016 111.321 176.808C111.113 176.6 111.009 176.32 111.009 175.968V175.08C110.705 175.752 110.249 176.272 109.641 176.64C109.049 176.992 108.353 177.168 107.553 177.168C106.785 177.168 106.081 177.016 105.441 176.712C104.817 176.392 104.321 175.96 103.953 175.416C103.585 174.872 103.401 174.256 103.401 173.568C103.385 172.704 103.601 172.032 104.049 171.552C104.497 171.056 105.225 170.704 106.233 170.496C107.241 170.272 108.641 170.16 110.433 170.16H110.985V169.464C110.985 168.568 110.801 167.92 110.433 167.52C110.065 167.12 109.473 166.92 108.657 166.92C108.097 166.92 107.569 166.992 107.073 167.136C106.577 167.28 106.033 167.488 105.441 167.76C105.009 168 104.705 168.12 104.529 168.12C104.289 168.12 104.089 168.032 103.929 167.856C103.785 167.68 103.713 167.456 103.713 167.184C103.713 166.944 103.777 166.736 103.905 166.56C104.049 166.368 104.273 166.184 104.577 166.008C105.137 165.704 105.793 165.464 106.545 165.288C107.297 165.096 108.025 165 108.729 165ZM107.985 175.368C108.865 175.368 109.585 175.072 110.145 174.48C110.705 173.872 110.985 173.096 110.985 172.152V171.528H110.553C109.305 171.528 108.345 171.584 107.673 171.696C107.001 171.808 106.521 172 106.233 172.272C105.945 172.528 105.801 172.904 105.801 173.4C105.801 173.976 106.009 174.448 106.425 174.816C106.841 175.184 107.361 175.368 107.985 175.368ZM130.343 165C132.967 165 134.279 166.576 134.279 169.728V175.968C134.279 176.336 134.167 176.624 133.943 176.832C133.719 177.024 133.423 177.12 133.055 177.12C132.703 177.12 132.415 177.024 132.191 176.832C131.967 176.624 131.855 176.336 131.855 175.968V169.752C131.855 168.776 131.679 168.072 131.327 167.64C130.975 167.192 130.423 166.968 129.671 166.968C128.791 166.968 128.095 167.272 127.583 167.88C127.071 168.472 126.815 169.288 126.815 170.328V175.968C126.815 176.336 126.703 176.624 126.479 176.832C126.255 177.024 125.959 177.12 125.591 177.12C125.239 177.12 124.951 177.024 124.727 176.832C124.503 176.624 124.391 176.336 124.391 175.968V169.752C124.391 168.776 124.215 168.072 123.863 167.64C123.511 167.192 122.959 166.968 122.207 166.968C121.327 166.968 120.623 167.272 120.095 167.88C119.583 168.472 119.327 169.288 119.327 170.328V175.968C119.327 176.336 119.215 176.624 118.991 176.832C118.767 177.024 118.479 177.12 118.127 177.12C117.775 177.12 117.479 177.024 117.239 176.832C117.015 176.624 116.903 176.336 116.903 175.968V166.2C116.903 165.848 117.023 165.568 117.263 165.36C117.503 165.152 117.791 165.048 118.127 165.048C118.463 165.048 118.735 165.152 118.943 165.36C119.167 165.552 119.279 165.824 119.279 166.176V167.064C119.631 166.392 120.119 165.88 120.743 165.528C121.367 165.176 122.087 165 122.903 165C123.799 165 124.535 165.184 125.111 165.552C125.703 165.92 126.143 166.488 126.431 167.256C126.783 166.568 127.303 166.024 127.991 165.624C128.679 165.208 129.463 165 130.343 165ZM139.072 177.12C138.72 177.12 138.424 177.024 138.184 176.832C137.96 176.64 137.848 176.352 137.848 175.968V166.224C137.848 165.84 137.96 165.552 138.184 165.36C138.424 165.152 138.72 165.048 139.072 165.048C139.424 165.048 139.712 165.152 139.936 165.36C140.16 165.552 140.272 165.84 140.272 166.224V175.968C140.272 176.352 140.16 176.64 139.936 176.832C139.712 177.024 139.424 177.12 139.072 177.12ZM139.072 162.696C138.608 162.696 138.24 162.568 137.968 162.312C137.696 162.056 137.56 161.72 137.56 161.304C137.56 160.888 137.696 160.56 137.968 160.32C138.24 160.064 138.608 159.936 139.072 159.936C139.52 159.936 139.88 160.064 140.152 160.32C140.44 160.56 140.584 160.888 140.584 161.304C140.584 161.72 140.448 162.056 140.176 162.312C139.904 162.568 139.536 162.696 139.072 162.696ZM150.222 165C153.022 165 154.422 166.576 154.422 169.728V175.968C154.422 176.336 154.31 176.624 154.086 176.832C153.878 177.024 153.582 177.12 153.198 177.12C152.83 177.12 152.534 177.016 152.31 176.808C152.102 176.6 151.998 176.32 151.998 175.968V169.848C151.998 168.856 151.798 168.128 151.398 167.664C151.014 167.2 150.406 166.968 149.574 166.968C148.598 166.968 147.814 167.272 147.222 167.88C146.63 168.488 146.334 169.304 146.334 170.328V175.968C146.334 176.32 146.222 176.6 145.998 176.808C145.79 177.016 145.502 177.12 145.134 177.12C144.766 177.12 144.47 177.016 144.246 176.808C144.022 176.6 143.91 176.32 143.91 175.968V166.2C143.91 165.864 144.022 165.592 144.246 165.384C144.486 165.16 144.782 165.048 145.134 165.048C145.486 165.048 145.766 165.152 145.974 165.36C146.182 165.568 146.286 165.84 146.286 166.176V167.16C146.67 166.456 147.206 165.92 147.894 165.552C148.582 165.184 149.358 165 150.222 165ZM167.685 165.048C168.053 165.048 168.341 165.16 168.549 165.384C168.773 165.592 168.885 165.872 168.885 166.224V176.064C168.885 177.856 168.405 179.208 167.445 180.12C166.501 181.032 165.101 181.488 163.245 181.488C161.517 181.488 160.077 181.16 158.925 180.504C158.333 180.168 158.037 179.768 158.037 179.304C158.037 179.032 158.109 178.808 158.253 178.632C158.413 178.456 158.605 178.368 158.829 178.368C159.037 178.368 159.365 178.488 159.813 178.728C160.389 179 160.925 179.208 161.421 179.352C161.917 179.512 162.509 179.592 163.197 179.592C165.405 179.592 166.509 178.48 166.509 176.256V174.408C166.173 175.112 165.661 175.664 164.973 176.064C164.285 176.448 163.485 176.64 162.573 176.64C161.549 176.64 160.637 176.4 159.837 175.92C159.037 175.44 158.413 174.76 157.965 173.88C157.533 173 157.317 171.984 157.317 170.832C157.317 169.68 157.541 168.664 157.989 167.784C158.437 166.904 159.053 166.224 159.837 165.744C160.637 165.248 161.549 165 162.573 165C163.469 165 164.253 165.192 164.925 165.576C165.613 165.96 166.133 166.504 166.485 167.208V166.2C166.485 165.848 166.589 165.568 166.797 165.36C167.021 165.152 167.317 165.048 167.685 165.048ZM163.149 174.72C164.189 174.72 165.005 174.376 165.597 173.688C166.189 173 166.485 172.048 166.485 170.832C166.485 169.632 166.189 168.688 165.597 168C165.021 167.296 164.205 166.944 163.149 166.944C162.093 166.944 161.261 167.288 160.653 167.976C160.061 168.664 159.765 169.616 159.765 170.832C159.765 172.048 160.069 173 160.677 173.688C161.285 174.376 162.109 174.72 163.149 174.72Z" fill="#384248"/>
<rect x="77" y="32" width="100" height="100" rx="4" fill="#F5F6F8"/>
<g clip-path="url(#clip0)">
<path d="M130.335 52.6382C134.717 52.6382 139.041 53.6064 142.996 55.4772C146.762 57.2659 150.11 59.826 152.81 63.0014C153.039 63.2722 153.015 63.6742 152.769 63.9204L134.988 81.7011C134.725 81.9636 134.725 82.3903 134.988 82.6611L152.76 100.434C153.006 100.68 153.031 101.09 152.801 101.353C150.102 104.52 146.754 107.088 142.988 108.877C139.033 110.756 134.709 111.724 130.327 111.716C114.015 111.716 100.788 98.489 100.788 82.177C100.788 65.865 114.015 52.6382 130.335 52.6382ZM130.335 61.4998C129.162 61.4998 128.03 61.9675 127.201 62.7962C126.372 63.625 125.905 64.7573 125.905 65.9306C125.905 67.104 126.372 68.2363 127.201 69.065C128.03 69.8938 129.162 70.3615 130.335 70.3615C131.509 70.3615 132.641 69.8938 133.47 69.065C134.299 68.2363 134.766 67.104 134.766 65.9306C134.766 64.7573 134.299 63.625 133.47 62.7962C132.641 61.9675 131.509 61.4998 130.335 61.4998Z" fill="white"/>
<path fill-rule="evenodd" clip-rule="evenodd" d="M134.299 66.062C134.397 66.7923 134.077 67.5307 133.593 68.0395C133.109 68.5646 132.518 68.8928 131.952 69.1636C131.025 69.6231 129.925 69.6641 128.982 69.3031C128.03 68.9502 127.25 68.179 126.873 67.2436C126.487 66.3082 126.528 65.2169 126.971 64.3225C127.398 63.4281 128.219 62.7553 129.129 62.5091C129.392 62.4353 129.827 62.3779 130.098 62.345C130.377 62.304 130.385 62.0661 130.262 61.8199C130.139 61.5655 129.851 61.3276 129.663 61.2948C128.498 61.0404 127.119 61.5573 126.29 62.5256C125.429 63.4856 125.125 64.7984 125.256 65.8651C125.47 67.8261 126.651 69.5164 128.325 70.3123C129.983 71.1328 132.132 70.9687 133.65 69.7544C135.185 68.5892 135.907 66.382 135.267 64.5358C134.971 63.6169 134.372 62.8209 133.609 62.304C132.855 61.7789 131.936 61.5491 131.107 61.6394C130.844 61.6394 129.966 61.8856 130.516 62.2056C130.779 62.3779 131.14 62.4517 131.476 62.5502C131.812 62.6404 132.116 62.7389 132.223 62.7881C133.412 63.3051 134.135 64.6425 134.299 66.062ZM134.512 65.5205C134.397 65.5533 134.135 65.3892 134.274 65.3317C134.389 65.2907 134.651 65.4712 134.512 65.5205Z" fill="black"/>
<path fill-rule="evenodd" clip-rule="evenodd" d="M100.616 86.1238L100.977 88.2571L101.535 90.3412C101.691 91.0469 101.962 91.7115 102.208 92.3925C102.471 93.0654 102.659 93.7628 102.996 94.4028L103.915 96.3557C104.259 96.9875 104.637 97.5947 104.998 98.2183C105.342 98.8501 105.761 99.4326 106.188 100.015C106.622 100.581 106.992 101.213 107.484 101.73L108.903 103.355C109.396 103.872 109.937 104.348 110.454 104.848C110.717 105.086 110.963 105.349 111.242 105.578L112.087 106.243C112.661 106.67 113.195 107.162 113.81 107.523C116.173 109.156 118.799 110.329 121.482 111.224L123.148 111.658C123.706 111.798 124.255 111.962 124.83 112.028C125.962 112.175 127.086 112.438 128.235 112.446C130.516 112.635 132.805 112.536 135.053 112.175C139.55 111.47 143.849 109.73 147.542 107.17C149.388 105.89 151.086 104.405 152.596 102.756C152.785 102.551 152.974 102.345 153.154 102.132L153.294 101.976C153.343 101.911 153.368 101.902 153.474 101.755C153.638 101.509 153.737 101.213 153.729 100.926C153.729 100.639 153.638 100.352 153.482 100.105C153.269 99.8183 153.212 99.8101 153.105 99.6952L152.531 99.1208L150.225 96.8316C147.156 93.7792 144.104 90.7433 141.076 87.732C139.558 86.2222 138.048 84.7207 136.547 83.2191L135.981 82.6529L135.702 82.374L135.562 82.2345L135.488 82.1606L135.464 82.1853H135.513L135.652 82.0458L135.931 81.7668L138.171 79.5186C141.158 76.5319 144.12 73.5616 147.066 70.6159C148.543 69.1472 150.012 67.6784 151.48 66.2179L152.58 65.1266L153.13 64.5768L153.269 64.4374C153.351 64.3553 153.441 64.2404 153.507 64.1338C153.638 63.904 153.704 63.6414 153.688 63.3789C153.679 63.1163 153.589 62.8537 153.433 62.6322C153.335 62.5009 153.318 62.5009 153.269 62.4353L153.138 62.2876C152.965 62.0907 152.793 61.8855 152.613 61.6968C152.26 61.303 151.891 60.9255 151.521 60.5563C148.526 57.5942 144.933 55.2885 141.052 53.787C139.936 53.3521 138.434 52.868 136.875 52.5152C135.324 52.1623 133.732 51.949 132.51 51.8834C131.238 51.8095 130.598 51.8916 130.409 51.9818C130.212 52.0721 130.459 52.2034 130.926 52.3347C131.87 52.589 133.675 52.9829 134.824 53.2454C138.442 54.0003 141.97 55.4116 145.121 57.4137C146.697 58.4147 148.19 59.5552 149.552 60.8189C150.233 61.4507 150.881 62.1153 151.505 62.8045L151.964 63.3297L152.161 63.5594L152.12 63.4691L152.129 63.3871L152.153 63.3461L152.161 63.3297L152.096 63.3953L151.587 63.8958C146.204 69.2292 141.076 74.5134 136.514 79.256L134.939 80.8888L134.537 81.3073C134.29 81.5699 134.167 81.9391 134.2 82.2919C134.217 82.4642 134.274 82.6365 134.356 82.7924C134.43 82.9401 134.594 83.1042 134.635 83.1371L135.045 83.5309L138.295 86.6899C140.453 88.8069 142.602 90.9156 144.76 93.0326C146.902 95.1577 149.043 97.2829 151.177 99.3998L151.973 100.196L152.375 100.598L152.473 100.696L152.522 100.745L152.572 100.86C152.588 100.942 152.572 101.033 152.522 101.09L152.17 101.492C151.923 101.771 151.669 102.042 151.415 102.313C150.389 103.388 149.281 104.38 148.1 105.283C143.39 108.901 137.556 110.986 131.673 111.199C130.204 111.273 128.727 111.109 127.267 111.035C125.814 110.797 124.354 110.616 122.951 110.181C120.128 109.418 117.396 108.261 114.967 106.645C114.664 106.448 114.335 106.276 114.048 106.062L113.178 105.398C112.604 104.947 111.989 104.553 111.48 104.028L109.88 102.542L108.419 100.926C106.565 98.6942 105.006 96.2244 103.857 93.5659C102.758 90.891 102.019 88.0766 101.683 85.213C101.445 82.3412 101.511 79.4447 102.036 76.6057C102.61 73.7913 103.537 71.0426 104.85 68.4825C106.212 65.9471 107.911 63.6004 109.896 61.5081C111.915 59.4486 114.237 57.6927 116.731 56.2403C119.242 54.7962 121.999 53.8116 124.822 53.1059C126.364 52.5808 133.347 52.1295 128.842 52.0146C126.512 51.8834 123.041 52.4906 120.095 53.5818C118.602 54.0742 117.289 54.788 116.198 55.3296C115.131 55.9203 114.352 56.4701 113.917 56.7327C111.66 58.2916 109.486 60.064 107.689 62.2219L106.992 63.0096L106.368 63.8548C105.958 64.4292 105.506 64.9707 105.137 65.5697L104.046 67.3912C103.66 67.9902 103.414 68.663 103.086 69.2948C102.774 69.9349 102.462 70.5749 102.249 71.2559L101.527 73.2744C101.199 74.6693 100.764 76.0477 100.616 77.4837L100.46 78.5503L100.386 79.0837L100.362 79.6252L100.28 81.7914C100.247 82.5135 100.354 83.2355 100.386 83.9576C100.419 84.6878 100.468 85.4099 100.616 86.1238ZM100.575 82.0129C100.452 82.2263 100.288 80.6263 100.452 80.3555C100.567 80.1504 100.731 81.7422 100.575 82.0129Z" fill="black"/>
</g>
<defs>
<clipPath id="clip0">
<rect width="61.54" height="61.54" fill="white" transform="translate(96 51)"/>
</clipPath>
</defs>
</svg>
