<svg width="225" height="50" viewBox="0 0 225 50" fill="none" xmlns="http://www.w3.org/2000/svg">
<path d="M128.011 8.88135L127.856 10.7267H127.102C125.9 10.7267 125.274 11.6916 125.274 12.6166V16.7862H123.139V8.88135H125.158L125.203 9.8674C125.628 9.19125 126.37 8.88135 127.283 8.88135H128.011Z" fill="#231F20"/>
<path d="M113.22 16.7863H111.086V12.6073C111.086 11.7316 111.011 10.6305 109.781 10.6305C108.595 10.6305 108.123 11.4874 108.123 12.4828V16.7863H105.989V8.88139H107.968L108.013 9.89092C108.438 9.21477 109.227 8.68652 110.393 8.68652C112.544 8.68652 113.222 10.2243 113.222 11.8208V16.7863H113.22Z" fill="#231F20"/>
<path d="M105.055 14.9387L104.907 16.7371C104.395 16.8732 103.94 16.9225 103.39 16.9225C101.378 16.9225 100.796 15.9999 100.796 14.1451V6.65112H102.93V8.88148H105.055L104.907 10.7268H102.93V13.9878C102.93 14.7321 103.134 15.1335 103.897 15.1335C104.228 15.1335 104.599 15.0936 105.055 14.9387Z" fill="#231F20"/>
<path d="M100.094 8.88135L99.9272 10.7267H99.3473C98.1452 10.7267 97.5489 11.6893 97.5489 12.6166V16.7862H95.4148V8.88135H97.4362L97.4785 9.8674C97.9058 9.19125 98.6476 8.88135 99.5633 8.88135H100.094Z" fill="#231F20"/>
<path d="M85.7797 15.9107C84.3311 16.6855 82.8849 17.1339 80.9738 17.0775C77.4311 16.9695 74.8767 14.772 74.8767 11.0556C74.8767 7.35785 77.4569 4.99367 80.9762 4.93733C82.7605 4.9115 84.3569 5.36227 85.6036 6.46336L84.101 7.9847C83.3286 7.32733 82.1923 6.9423 80.8353 7.00334C78.6214 7.10665 77.2855 8.7172 77.2573 10.9288C77.2292 13.3258 78.6988 14.9786 80.9973 15.0397C82.0796 15.0655 82.8544 14.9223 83.5235 14.6218V12.166H81.1358L81.2978 10.1564H85.782V15.9107H85.7797Z" fill="#231F20"/>
<path d="M122.189 13.5839H116.333C116.5 14.5935 117.293 15.2015 118.284 15.2297C119.244 15.2555 119.782 14.9644 120.486 14.253L121.879 15.3142C120.89 16.535 119.702 16.9788 118.348 16.9788C115.967 16.9788 114.185 15.3142 114.185 12.8326C114.185 10.3534 115.96 8.68652 118.261 8.68652C120.796 8.68652 122.191 10.2243 122.191 12.95V13.5839H122.189ZM120.05 11.9311C119.984 10.9333 119.235 10.3018 118.204 10.3417C117.167 10.3816 116.476 11.0554 116.333 11.9311H120.05Z" fill="#231F20"/>
<path d="M94.0696 11.6098V16.7866H92.1867L92.1397 16.0071C91.5622 16.7232 90.6255 16.9791 89.6605 16.9791C88.2073 16.9791 86.8338 16.263 86.8057 14.5938C86.7611 11.969 89.7591 11.7835 91.6397 11.7835H92.0153V11.6802C92.0153 10.8116 91.4425 10.3444 90.3602 10.3444C89.5854 10.3444 88.8177 10.6543 88.2519 11.1872L87.0193 9.93586C88.1368 9.02963 89.3013 8.68921 90.5409 8.68921C92.992 8.68921 94.0696 9.82082 94.0696 11.6098ZM92.0153 13.3377H91.7195C90.7076 13.3401 88.9327 13.3894 88.9398 14.4459C88.9492 15.9344 92.0153 15.4625 92.0153 13.6664V13.3377Z" fill="#231F20"/>
<path d="M74.4565 28.748H76.6493V30.5534H76.701C77.4241 29.0837 79.1262 28.4404 80.9575 28.4404C85.059 28.4404 87.0968 31.6897 87.0968 35.4532C87.0968 39.2189 85.0848 42.3908 81.0091 42.3908C79.6427 42.3908 77.6823 41.8742 76.701 40.3013H76.6493V47.1872H74.4565V28.748ZM80.6452 30.3726C77.7058 30.3726 76.5719 32.8988 76.5719 35.4015C76.5719 38.0333 77.7575 40.4562 80.7767 40.4562C83.7677 40.4562 84.7749 37.9019 84.7749 35.2982C84.7725 32.7955 83.4836 30.3726 80.6452 30.3726Z" fill="#5A3A95"/>
<path d="M101.042 37.8504C100.448 40.7921 98.3354 42.3909 95.342 42.3909C91.0856 42.3909 89.0759 39.4492 88.9468 35.3758C88.9468 31.3776 91.5763 28.4382 95.2129 28.4382C99.9319 28.4382 101.376 32.8473 101.249 36.0708H91.2687C91.1912 38.3903 92.5083 40.454 95.4219 40.454C97.2273 40.454 98.4904 39.5783 98.8778 37.848H101.042V37.8504ZM98.9271 34.1386C98.8238 32.0491 97.2508 30.3728 95.0838 30.3728C92.7877 30.3728 91.4213 32.1007 91.2664 34.1386H98.9271Z" fill="#5A3A95"/>
<path d="M115.918 37.8504C115.324 40.7921 113.211 42.3909 110.218 42.3909C105.961 42.3909 103.951 39.4492 103.822 35.3758C103.822 31.3776 106.454 28.4382 110.088 28.4382C114.807 28.4382 116.251 32.8473 116.122 36.0708H106.142C106.064 38.3903 107.379 40.454 110.295 40.454C112.1 40.454 113.364 39.5783 113.751 37.848H115.918V37.8504ZM113.805 34.1386C113.702 32.0491 112.129 30.3728 109.962 30.3728C107.666 30.3728 106.301 32.1007 106.147 34.1386H113.805Z" fill="#5A3A95"/>
<path d="M119.345 28.748H121.409V31.5582H121.461C122.517 29.4171 123.987 28.3606 126.361 28.4381V30.7576C122.827 30.7576 121.538 32.7696 121.538 36.1481V42.0808H119.345V28.748Z" fill="#5A3A95"/>
<path d="M130.612 26.3228V23.6675H131.591V26.3228H130.612ZM130.612 42.0809V28.8255H131.591V42.0809H130.612Z" fill="#5A3A95"/>
<path d="M136 28.8255H136.982V31.6616H137.033C137.703 29.6754 139.715 28.5156 141.778 28.5156C146.446 28.5156 146.497 32.2556 146.497 33.8802V42.0809H145.516V33.6995C145.516 32.3331 145.361 29.3679 141.75 29.3679C138.785 29.3679 136.979 31.664 136.979 34.9132V42.0833H135.998V28.8255H136Z" fill="#5A3A95"/>
<path d="M150.749 37.6717C150.904 40.1227 152.735 41.5408 155.132 41.5408C156.86 41.5408 159.337 41.0243 159.337 38.7305C159.337 36.4861 157.069 36.1504 154.799 35.6878C152.503 35.223 150.235 34.6314 150.235 31.9221C150.235 29.2926 152.789 28.5178 155.031 28.5178C157.841 28.5178 159.933 29.7293 159.933 32.7461H158.952C158.926 30.3467 157.25 29.3677 155.031 29.3677C153.228 29.3677 151.216 30.0392 151.216 31.9221C151.216 34.0374 153.484 34.3731 155.625 34.8356C158.255 35.3263 160.318 35.9438 160.318 38.7305C160.318 41.5924 157.456 42.393 155.134 42.393C152.118 42.393 149.847 40.7684 149.772 37.674H150.749V37.6717Z" fill="#5A3A95"/>
<path d="M164.208 26.3228V23.6675H165.19V26.3228H164.208ZM164.208 42.0809V28.8255H165.19V42.0809H164.208Z" fill="#5A3A95"/>
<path d="M179.913 28.8255V41.386C179.913 42.4166 179.913 47.3164 174.189 47.138C171.35 47.138 169.16 46.0815 169.005 43.0106H169.986C170.193 45.3584 172.048 46.2857 174.215 46.2857C178.856 46.2857 178.934 42.4941 178.934 41.6184V38.5734H178.882C177.952 40.5338 176.328 41.5902 174.086 41.5902C170.191 41.5902 168.359 38.7283 168.359 35.04C168.359 31.5325 170.346 28.5156 174.086 28.5156C176.149 28.5156 178.159 29.5979 178.882 31.5841H178.934V28.8255H179.913ZM169.338 35.04C169.338 38.1602 170.963 40.7404 174.083 40.7404C177.307 40.7404 178.905 38.0334 178.905 35.04C178.905 32.0748 177.332 29.3655 174.083 29.3655C170.886 29.3655 169.338 32.2298 169.338 35.04Z" fill="#5A3A95"/>
<path d="M184.423 23.6675V31.6616H184.475C185.146 29.6754 187.158 28.5156 189.219 28.5156C193.887 28.5156 193.938 32.2555 193.938 33.8802V42.0809H192.959V33.6994C192.959 32.333 192.804 29.3678 189.193 29.3678C186.228 29.3678 184.423 31.6639 184.423 34.9132V42.0832H183.444V23.6698H184.423V23.6675Z" fill="#5A3A95"/>
<path d="M202.728 29.6752H199.84V38.9347C199.84 41.0759 200.845 41.2825 202.702 41.2308V42.0831C200.693 42.2122 198.756 41.9281 198.859 38.9371V29.6752H196.41V28.823H198.859V24.698H199.84V28.8253H202.728V29.6752Z" fill="#5A3A95"/>
<path d="M206.027 37.6717C206.182 40.1227 208.013 41.5408 210.41 41.5408C212.138 41.5408 214.615 41.0243 214.615 38.7305C214.615 36.4861 212.347 36.1504 210.077 35.6878C207.78 35.223 205.513 34.6314 205.513 31.9221C205.513 29.2926 208.067 28.5178 210.311 28.5178C213.122 28.5178 215.211 29.7293 215.211 32.7461H214.23C214.204 30.3467 212.528 29.3677 210.311 29.3677C208.506 29.3677 206.494 30.0392 206.494 31.9221C206.494 34.0374 208.762 34.3731 210.903 34.8356C213.532 35.3263 215.596 35.9438 215.596 38.7305C215.596 41.5924 212.734 42.393 210.412 42.393C207.395 42.393 205.125 40.7684 205.05 37.674H206.027V37.6717Z" fill="#5A3A95"/>
<path d="M217.686 38.3506H220.651V38.6534H219.346V42.0905H218.989V38.6534H217.683V38.3506H217.686Z" fill="#231F20"/>
<path d="M220.989 38.3506H221.512L222.806 41.6304L224.095 38.3506H224.619V42.0905H224.262V38.8577H224.25L222.973 42.0905H222.637L221.353 38.8577H221.343V42.0905H220.987V38.3506H220.989Z" fill="#231F20"/>
<path d="M40.9706 29.8424L46.4244 27.0556L51.8125 29.9715L50.8476 23.9237L55.2848 19.7001L49.2347 18.7469L46.5887 13.2227L43.8137 18.6835L37.7424 19.4911L42.0764 23.818L40.9706 29.8424Z" fill="#F0C61C"/>
<path d="M22.0992 29.8424L27.5531 27.0556L32.9411 29.9715L31.9786 23.9237L36.4135 19.7001L30.3633 18.7469L27.7198 13.2227L24.9424 18.6835L18.8711 19.4911L23.205 23.818L22.0992 29.8424Z" fill="#F0C61C"/>
<path d="M3.22815 29.8424L8.68432 27.0556L14.0701 29.9715L13.1075 23.9237L17.5424 19.7001L11.4922 18.7469L8.84866 13.2227L6.07128 18.6835L0 19.4911L4.33394 23.818L3.22815 29.8424Z" fill="#F0C61C"/>
<path d="M61.558 50L46.4902 42.8605C42.7713 44.5391 38.597 45.4266 34.3828 45.4266C25.1656 45.4266 16.7958 41.3532 11.9923 34.5307C11.6519 34.0494 11.7693 33.3826 12.2506 33.0422C12.7319 32.7018 13.3986 32.8168 13.7391 33.3005C18.1411 39.5549 25.8581 43.2901 34.3828 43.2901C38.4585 43.2901 42.4896 42.4003 46.037 40.717L46.4949 40.4987L57.4917 45.7083L53.2892 35.4604L53.7212 34.965C56.8203 31.3988 58.4566 27.1611 58.4566 22.7098C58.4566 11.3631 47.657 2.13176 34.3805 2.13176C26.1868 2.13176 18.6294 5.64868 14.1617 11.5392C13.8048 12.0064 13.1357 12.1003 12.6661 11.7434C12.1966 11.3866 12.105 10.7175 12.4619 10.2479C17.3311 3.83153 25.5248 0 34.3805 0C48.8332 0 60.5931 10.1892 60.5931 22.7145C60.5931 27.478 58.9238 32.0092 55.7614 35.8619L61.558 50Z" fill="#5A3A95"/>
</svg>
