<svg width="255" height="206" viewBox="0 0 255 206" fill="none" xmlns="http://www.w3.org/2000/svg">
<path d="M26.4238 177.12C26.0558 177.12 25.7518 177.008 25.5118 176.784C25.2878 176.544 25.1758 176.24 25.1758 175.872V162.144H20.3758C19.6078 162.144 19.2238 161.8 19.2238 161.112C19.2238 160.776 19.3198 160.52 19.5118 160.344C19.7198 160.168 20.0078 160.08 20.3758 160.08H32.4718C32.8398 160.08 33.1198 160.168 33.3118 160.344C33.5198 160.52 33.6238 160.776 33.6238 161.112C33.6238 161.8 33.2398 162.144 32.4718 162.144H27.6718V175.872C27.6718 176.24 27.5598 176.544 27.3358 176.784C27.1118 177.008 26.8078 177.12 26.4238 177.12ZM39.9295 165.048C40.6975 165 41.0815 165.328 41.0815 166.032C41.0815 166.384 40.9935 166.648 40.8175 166.824C40.6415 167 40.3375 167.104 39.9055 167.136L39.1855 167.208C38.1775 167.304 37.4255 167.656 36.9295 168.264C36.4495 168.872 36.2095 169.608 36.2095 170.472V175.968C36.2095 176.352 36.0975 176.64 35.8735 176.832C35.6495 177.024 35.3615 177.12 35.0095 177.12C34.6575 177.12 34.3615 177.024 34.1215 176.832C33.8975 176.64 33.7855 176.352 33.7855 175.968V166.2C33.7855 165.832 33.8975 165.552 34.1215 165.36C34.3615 165.152 34.6575 165.048 35.0095 165.048C35.3295 165.048 35.5935 165.152 35.8015 165.36C36.0255 165.552 36.1375 165.824 36.1375 166.176V167.328C36.4575 166.624 36.9215 166.088 37.5295 165.72C38.1375 165.352 38.8255 165.136 39.5935 165.072L39.9295 165.048ZM47.6742 165C49.2262 165 50.3782 165.392 51.1302 166.176C51.8982 166.96 52.2822 168.152 52.2822 169.752V175.968C52.2822 176.336 52.1782 176.624 51.9702 176.832C51.7622 177.024 51.4742 177.12 51.1062 177.12C50.7542 177.12 50.4742 177.016 50.2662 176.808C50.0582 176.6 49.9542 176.32 49.9542 175.968V175.08C49.6502 175.752 49.1942 176.272 48.5862 176.64C47.9942 176.992 47.2982 177.168 46.4982 177.168C45.7302 177.168 45.0262 177.016 44.3862 176.712C43.7622 176.392 43.2662 175.96 42.8982 175.416C42.5302 174.872 42.3462 174.256 42.3462 173.568C42.3302 172.704 42.5462 172.032 42.9942 171.552C43.4422 171.056 44.1702 170.704 45.1782 170.496C46.1862 170.272 47.5862 170.16 49.3782 170.16H49.9302V169.464C49.9302 168.568 49.7462 167.92 49.3782 167.52C49.0102 167.12 48.4182 166.92 47.6022 166.92C47.0422 166.92 46.5142 166.992 46.0182 167.136C45.5222 167.28 44.9782 167.488 44.3862 167.76C43.9542 168 43.6502 168.12 43.4742 168.12C43.2342 168.12 43.0342 168.032 42.8742 167.856C42.7302 167.68 42.6582 167.456 42.6582 167.184C42.6582 166.944 42.7222 166.736 42.8502 166.56C42.9942 166.368 43.2182 166.184 43.5222 166.008C44.0822 165.704 44.7382 165.464 45.4902 165.288C46.2422 165.096 46.9702 165 47.6742 165ZM46.9302 175.368C47.8102 175.368 48.5302 175.072 49.0902 174.48C49.6502 173.872 49.9302 173.096 49.9302 172.152V171.528H49.4982C48.2502 171.528 47.2902 171.584 46.6182 171.696C45.9462 171.808 45.4662 172 45.1782 172.272C44.8902 172.528 44.7462 172.904 44.7462 173.4C44.7462 173.976 44.9542 174.448 45.3702 174.816C45.7862 175.184 46.3062 175.368 46.9302 175.368ZM64.176 165.768C64.272 165.528 64.408 165.352 64.584 165.24C64.776 165.128 64.976 165.072 65.184 165.072C65.488 165.072 65.752 165.176 65.976 165.384C66.216 165.592 66.336 165.84 66.336 166.128C66.336 166.288 66.304 166.44 66.24 166.584L61.656 176.304C61.544 176.56 61.368 176.76 61.128 176.904C60.904 177.032 60.664 177.096 60.408 177.096C60.152 177.096 59.904 177.032 59.664 176.904C59.44 176.76 59.272 176.56 59.16 176.304L54.576 166.584C54.512 166.456 54.48 166.304 54.48 166.128C54.48 165.84 54.608 165.592 54.864 165.384C55.12 165.176 55.408 165.072 55.728 165.072C56.192 165.072 56.536 165.296 56.76 165.744L60.48 174L64.176 165.768ZM77.5707 174.048C77.7947 174.048 77.9787 174.136 78.1227 174.312C78.2667 174.488 78.3387 174.712 78.3387 174.984C78.3387 175.448 78.0507 175.84 77.4747 176.16C76.9147 176.48 76.2987 176.728 75.6267 176.904C74.9707 177.08 74.3387 177.168 73.7307 177.168C71.8747 177.168 70.4107 176.632 69.3387 175.56C68.2667 174.472 67.7307 172.992 67.7307 171.12C67.7307 169.92 67.9627 168.856 68.4267 167.928C68.9067 167 69.5707 166.28 70.4187 165.768C71.2827 165.256 72.2587 165 73.3467 165C74.9147 165 76.1547 165.504 77.0667 166.512C77.9787 167.52 78.4347 168.88 78.4347 170.592C78.4347 171.232 78.1467 171.552 77.5707 171.552H70.1547C70.3147 174.032 71.5067 175.272 73.7307 175.272C74.3227 175.272 74.8347 175.192 75.2667 175.032C75.6987 174.872 76.1547 174.664 76.6347 174.408C76.6827 174.376 76.8107 174.312 77.0187 174.216C77.2427 174.104 77.4267 174.048 77.5707 174.048ZM73.3947 166.776C72.4667 166.776 71.7227 167.072 71.1627 167.664C70.6027 168.256 70.2667 169.088 70.1547 170.16H76.3467C76.2987 169.072 76.0187 168.24 75.5067 167.664C75.0107 167.072 74.3067 166.776 73.3947 166.776ZM82.5798 177.12C82.2278 177.12 81.9318 177.024 81.6918 176.832C81.4678 176.64 81.3558 176.352 81.3558 175.968V161.136C81.3558 160.752 81.4678 160.464 81.6918 160.272C81.9318 160.064 82.2278 159.96 82.5798 159.96C82.9318 159.96 83.2198 160.064 83.4438 160.272C83.6678 160.464 83.7798 160.752 83.7798 161.136V175.968C83.7798 176.352 83.6678 176.64 83.4438 176.832C83.2198 177.024 82.9318 177.12 82.5798 177.12ZM107.964 175.488C108.172 175.696 108.276 175.928 108.276 176.184C108.276 176.456 108.172 176.696 107.964 176.904C107.756 177.096 107.516 177.192 107.244 177.192C106.972 177.192 106.732 177.088 106.524 176.88L104.412 174.744C103.676 175.528 102.844 176.128 101.916 176.544C100.988 176.96 100.012 177.168 98.9884 177.168C97.9164 177.168 96.9564 176.984 96.1084 176.616C95.2604 176.248 94.5964 175.728 94.1164 175.056C93.6524 174.368 93.4204 173.576 93.4204 172.68C93.4204 171.64 93.7324 170.712 94.3564 169.896C94.9804 169.08 95.9404 168.304 97.2364 167.568C96.5804 166.864 96.0924 166.216 95.7724 165.624C95.4524 165.016 95.2924 164.384 95.2924 163.728C95.2924 162.56 95.7004 161.632 96.5164 160.944C97.3324 160.256 98.3804 159.912 99.6604 159.912C100.876 159.912 101.844 160.232 102.564 160.872C103.284 161.496 103.644 162.352 103.644 163.44C103.644 164.32 103.38 165.104 102.852 165.792C102.34 166.464 101.516 167.144 100.38 167.832L104.148 171.648C104.66 170.592 104.972 169.32 105.084 167.832C105.1 167.496 105.212 167.24 105.42 167.064C105.644 166.872 105.892 166.776 106.164 166.776C106.452 166.776 106.692 166.88 106.884 167.088C107.092 167.28 107.18 167.552 107.148 167.904C107.004 169.888 106.492 171.624 105.612 173.112L107.964 175.488ZM99.6844 161.664C99.0444 161.664 98.5244 161.856 98.1244 162.24C97.7404 162.608 97.5484 163.104 97.5484 163.728C97.5484 164.176 97.6684 164.608 97.9084 165.024C98.1484 165.424 98.5404 165.92 99.0844 166.512C100.012 165.936 100.66 165.432 101.028 165C101.412 164.552 101.604 164.064 101.604 163.536C101.604 162.976 101.428 162.528 101.076 162.192C100.724 161.84 100.26 161.664 99.6844 161.664ZM99.1084 175.272C99.8444 175.272 100.548 175.112 101.22 174.792C101.908 174.472 102.516 174 103.044 173.376L98.5564 168.888C97.5644 169.48 96.8524 170.064 96.4204 170.64C96.0044 171.2 95.7964 171.84 95.7964 172.56C95.7964 173.408 96.0924 174.072 96.6844 174.552C97.2924 175.032 98.1004 175.272 99.1084 175.272ZM130.342 159.96C130.71 159.96 131.006 160.08 131.23 160.32C131.454 160.544 131.566 160.84 131.566 161.208V175.872C131.566 176.24 131.454 176.544 131.23 176.784C131.006 177.008 130.71 177.12 130.342 177.12C129.974 177.12 129.678 177.008 129.454 176.784C129.23 176.56 129.118 176.256 129.118 175.872V169.416H119.662V175.872C119.662 176.24 119.55 176.544 119.326 176.784C119.102 177.008 118.806 177.12 118.438 177.12C118.07 177.12 117.774 177.008 117.55 176.784C117.326 176.56 117.214 176.256 117.214 175.872V161.208C117.214 160.84 117.326 160.544 117.55 160.32C117.774 160.08 118.07 159.96 118.438 159.96C118.806 159.96 119.102 160.08 119.326 160.32C119.55 160.544 119.662 160.84 119.662 161.208V167.4H129.118V161.208C129.118 160.84 129.23 160.544 129.454 160.32C129.678 160.08 129.974 159.96 130.342 159.96ZM140.545 177.168C139.393 177.168 138.377 176.92 137.497 176.424C136.633 175.928 135.961 175.224 135.481 174.312C135.017 173.384 134.785 172.312 134.785 171.096C134.785 169.864 135.017 168.792 135.481 167.88C135.961 166.952 136.633 166.24 137.497 165.744C138.377 165.248 139.393 165 140.545 165C141.697 165 142.705 165.248 143.569 165.744C144.449 166.24 145.121 166.952 145.585 167.88C146.065 168.792 146.305 169.864 146.305 171.096C146.305 172.312 146.065 173.384 145.585 174.312C145.121 175.224 144.449 175.928 143.569 176.424C142.705 176.92 141.697 177.168 140.545 177.168ZM140.545 175.248C141.617 175.248 142.433 174.896 142.993 174.192C143.569 173.488 143.857 172.456 143.857 171.096C143.857 169.752 143.569 168.728 142.993 168.024C142.417 167.304 141.601 166.944 140.545 166.944C139.489 166.944 138.673 167.304 138.097 168.024C137.521 168.728 137.233 169.752 137.233 171.096C137.233 172.456 137.513 173.488 138.073 174.192C138.649 174.896 139.473 175.248 140.545 175.248ZM153.334 177.168C151.702 177.168 150.366 176.832 149.326 176.16C149.038 175.984 148.83 175.8 148.702 175.608C148.59 175.416 148.534 175.2 148.534 174.96C148.534 174.704 148.606 174.488 148.75 174.312C148.894 174.136 149.078 174.048 149.302 174.048C149.51 174.048 149.838 174.176 150.286 174.432C150.766 174.688 151.23 174.896 151.678 175.056C152.142 175.216 152.718 175.296 153.406 175.296C154.174 175.296 154.774 175.16 155.206 174.888C155.638 174.616 155.854 174.232 155.854 173.736C155.854 173.416 155.766 173.16 155.59 172.968C155.43 172.776 155.142 172.608 154.726 172.464C154.31 172.304 153.694 172.136 152.878 171.96C151.47 171.656 150.454 171.248 149.83 170.736C149.222 170.208 148.918 169.496 148.918 168.6C148.918 167.912 149.118 167.296 149.518 166.752C149.918 166.192 150.47 165.76 151.174 165.456C151.878 165.152 152.678 165 153.574 165C154.214 165 154.838 165.088 155.446 165.264C156.054 165.424 156.59 165.664 157.054 165.984C157.582 166.336 157.846 166.744 157.846 167.208C157.846 167.464 157.766 167.68 157.606 167.856C157.462 168.032 157.286 168.12 157.078 168.12C156.934 168.12 156.79 168.088 156.646 168.024C156.502 167.96 156.31 167.856 156.07 167.712C155.638 167.456 155.23 167.256 154.846 167.112C154.478 166.968 154.014 166.896 153.454 166.896C152.782 166.896 152.238 167.04 151.822 167.328C151.422 167.616 151.222 168.008 151.222 168.504C151.222 168.952 151.406 169.304 151.774 169.56C152.158 169.8 152.87 170.032 153.91 170.256C154.982 170.48 155.822 170.736 156.43 171.024C157.038 171.312 157.47 171.672 157.726 172.104C157.998 172.52 158.134 173.056 158.134 173.712C158.134 174.752 157.694 175.592 156.814 176.232C155.95 176.856 154.79 177.168 153.334 177.168ZM167.37 165C168.378 165 169.274 165.256 170.058 165.768C170.858 166.28 171.474 167 171.906 167.928C172.354 168.856 172.578 169.928 172.578 171.144C172.578 172.344 172.362 173.4 171.93 174.312C171.498 175.224 170.882 175.928 170.082 176.424C169.298 176.92 168.394 177.168 167.37 177.168C166.49 177.168 165.714 176.984 165.042 176.616C164.37 176.232 163.858 175.688 163.506 174.984V180.336C163.506 180.672 163.394 180.936 163.17 181.128C162.962 181.336 162.682 181.44 162.33 181.44C161.962 181.44 161.658 181.336 161.418 181.128C161.194 180.92 161.082 180.64 161.082 180.288V166.224C161.082 165.872 161.194 165.592 161.418 165.384C161.642 165.16 161.938 165.048 162.306 165.048C162.658 165.048 162.946 165.16 163.17 165.384C163.394 165.592 163.506 165.872 163.506 166.224V167.208C163.858 166.504 164.37 165.96 165.042 165.576C165.714 165.192 166.49 165 167.37 165ZM166.794 175.248C167.85 175.248 168.666 174.896 169.242 174.192C169.818 173.472 170.106 172.456 170.106 171.144C170.106 169.816 169.81 168.784 169.218 168.048C168.642 167.312 167.834 166.944 166.794 166.944C165.738 166.944 164.922 167.304 164.346 168.024C163.786 168.744 163.506 169.768 163.506 171.096C163.506 172.424 163.786 173.448 164.346 174.168C164.922 174.888 165.738 175.248 166.794 175.248ZM176.736 177.12C176.384 177.12 176.088 177.024 175.848 176.832C175.624 176.64 175.512 176.352 175.512 175.968V166.224C175.512 165.84 175.624 165.552 175.848 165.36C176.088 165.152 176.384 165.048 176.736 165.048C177.088 165.048 177.376 165.152 177.6 165.36C177.824 165.552 177.936 165.84 177.936 166.224V175.968C177.936 176.352 177.824 176.64 177.6 176.832C177.376 177.024 177.088 177.12 176.736 177.12ZM176.736 162.696C176.272 162.696 175.904 162.568 175.632 162.312C175.36 162.056 175.224 161.72 175.224 161.304C175.224 160.888 175.36 160.56 175.632 160.32C175.904 160.064 176.272 159.936 176.736 159.936C177.184 159.936 177.544 160.064 177.816 160.32C178.104 160.56 178.248 160.888 178.248 161.304C178.248 161.72 178.112 162.056 177.84 162.312C177.568 162.568 177.2 162.696 176.736 162.696ZM187.639 175.272C187.991 175.304 188.239 175.4 188.383 175.56C188.543 175.704 188.623 175.912 188.623 176.184C188.623 176.504 188.495 176.752 188.239 176.928C187.999 177.088 187.639 177.152 187.159 177.12L186.511 177.072C185.215 176.976 184.247 176.584 183.607 175.896C182.967 175.192 182.647 174.16 182.647 172.8V167.16H181.207C180.503 167.16 180.151 166.848 180.151 166.224C180.151 165.936 180.239 165.712 180.415 165.552C180.607 165.376 180.871 165.288 181.207 165.288H182.647V162.816C182.647 162.448 182.751 162.16 182.959 161.952C183.183 161.744 183.479 161.64 183.847 161.64C184.215 161.64 184.511 161.744 184.735 161.952C184.959 162.16 185.071 162.448 185.071 162.816V165.288H187.447C187.783 165.288 188.039 165.376 188.215 165.552C188.407 165.712 188.503 165.936 188.503 166.224C188.503 166.528 188.407 166.76 188.215 166.92C188.039 167.08 187.783 167.16 187.447 167.16H185.071V172.968C185.071 173.72 185.223 174.272 185.527 174.624C185.847 174.976 186.327 175.176 186.967 175.224L187.639 175.272ZM195.534 165C197.086 165 198.238 165.392 198.99 166.176C199.758 166.96 200.142 168.152 200.142 169.752V175.968C200.142 176.336 200.038 176.624 199.83 176.832C199.622 177.024 199.334 177.12 198.966 177.12C198.614 177.12 198.334 177.016 198.126 176.808C197.918 176.6 197.814 176.32 197.814 175.968V175.08C197.51 175.752 197.054 176.272 196.446 176.64C195.854 176.992 195.158 177.168 194.358 177.168C193.59 177.168 192.886 177.016 192.246 176.712C191.622 176.392 191.126 175.96 190.758 175.416C190.39 174.872 190.206 174.256 190.206 173.568C190.19 172.704 190.406 172.032 190.854 171.552C191.302 171.056 192.03 170.704 193.038 170.496C194.046 170.272 195.446 170.16 197.238 170.16H197.79V169.464C197.79 168.568 197.606 167.92 197.238 167.52C196.87 167.12 196.278 166.92 195.462 166.92C194.902 166.92 194.374 166.992 193.878 167.136C193.382 167.28 192.838 167.488 192.246 167.76C191.814 168 191.51 168.12 191.334 168.12C191.094 168.12 190.894 168.032 190.734 167.856C190.59 167.68 190.518 167.456 190.518 167.184C190.518 166.944 190.582 166.736 190.71 166.56C190.854 166.368 191.078 166.184 191.382 166.008C191.942 165.704 192.598 165.464 193.35 165.288C194.102 165.096 194.83 165 195.534 165ZM194.79 175.368C195.67 175.368 196.39 175.072 196.95 174.48C197.51 173.872 197.79 173.096 197.79 172.152V171.528H197.358C196.11 171.528 195.15 171.584 194.478 171.696C193.806 171.808 193.326 172 193.038 172.272C192.75 172.528 192.606 172.904 192.606 173.4C192.606 173.976 192.814 174.448 193.23 174.816C193.646 175.184 194.166 175.368 194.79 175.368ZM204.931 177.12C204.579 177.12 204.283 177.024 204.043 176.832C203.819 176.64 203.707 176.352 203.707 175.968V161.136C203.707 160.752 203.819 160.464 204.043 160.272C204.283 160.064 204.579 159.96 204.931 159.96C205.283 159.96 205.571 160.064 205.795 160.272C206.019 160.464 206.131 160.752 206.131 161.136V175.968C206.131 176.352 206.019 176.64 205.795 176.832C205.571 177.024 205.283 177.12 204.931 177.12ZM210.994 177.12C210.642 177.12 210.346 177.024 210.106 176.832C209.882 176.64 209.77 176.352 209.77 175.968V166.224C209.77 165.84 209.882 165.552 210.106 165.36C210.346 165.152 210.642 165.048 210.994 165.048C211.346 165.048 211.634 165.152 211.858 165.36C212.082 165.552 212.194 165.84 212.194 166.224V175.968C212.194 176.352 212.082 176.64 211.858 176.832C211.634 177.024 211.346 177.12 210.994 177.12ZM210.994 162.696C210.53 162.696 210.162 162.568 209.89 162.312C209.618 162.056 209.482 161.72 209.482 161.304C209.482 160.888 209.618 160.56 209.89 160.32C210.162 160.064 210.53 159.936 210.994 159.936C211.442 159.936 211.802 160.064 212.074 160.32C212.362 160.56 212.506 160.888 212.506 161.304C212.506 161.72 212.37 162.056 212.098 162.312C211.826 162.568 211.458 162.696 210.994 162.696ZM221.896 175.272C222.248 175.304 222.496 175.4 222.64 175.56C222.8 175.704 222.88 175.912 222.88 176.184C222.88 176.504 222.752 176.752 222.496 176.928C222.256 177.088 221.896 177.152 221.416 177.12L220.768 177.072C219.472 176.976 218.504 176.584 217.864 175.896C217.224 175.192 216.904 174.16 216.904 172.8V167.16H215.464C214.76 167.16 214.408 166.848 214.408 166.224C214.408 165.936 214.496 165.712 214.672 165.552C214.864 165.376 215.128 165.288 215.464 165.288H216.904V162.816C216.904 162.448 217.008 162.16 217.216 161.952C217.44 161.744 217.736 161.64 218.104 161.64C218.472 161.64 218.768 161.744 218.992 161.952C219.216 162.16 219.328 162.448 219.328 162.816V165.288H221.704C222.04 165.288 222.296 165.376 222.472 165.552C222.664 165.712 222.76 165.936 222.76 166.224C222.76 166.528 222.664 166.76 222.472 166.92C222.296 167.08 222.04 167.16 221.704 167.16H219.328V172.968C219.328 173.72 219.48 174.272 219.784 174.624C220.104 174.976 220.584 175.176 221.224 175.224L221.896 175.272ZM233.363 165.768C233.459 165.528 233.595 165.352 233.771 165.24C233.963 165.128 234.163 165.072 234.371 165.072C234.675 165.072 234.939 165.176 235.163 165.384C235.403 165.592 235.523 165.84 235.523 166.128C235.523 166.288 235.491 166.44 235.427 166.584L228.755 180.744C228.659 180.968 228.515 181.136 228.323 181.248C228.147 181.376 227.955 181.44 227.747 181.44C227.459 181.44 227.195 181.344 226.955 181.152C226.731 180.96 226.619 180.72 226.619 180.432C226.619 180.304 226.659 180.144 226.739 179.952L228.395 176.424L223.763 166.584C223.699 166.456 223.667 166.312 223.667 166.152C223.667 165.848 223.795 165.592 224.051 165.384C224.307 165.176 224.595 165.072 224.915 165.072C225.395 165.072 225.739 165.296 225.947 165.744L229.667 174L233.363 165.768Z" fill="#384248"/>
<rect x="77" y="32" width="100" height="100" rx="4" fill="#F5F6F8"/>
<path d="M131.041 55.2762C132.54 55.2762 133.973 55.8691 135.035 56.9315L148.664 70.569C149.727 71.6313 150.319 73.0642 150.319 74.563V93.6028C150.319 94.2699 150.863 94.8134 151.53 94.8134H154.758C155.425 94.8134 155.969 95.357 155.969 96.024V99.2522C155.969 99.9193 155.425 100.463 154.758 100.463H134.187C133.52 100.463 132.927 100.883 132.696 101.509C131.115 105.84 126.964 108.937 122.081 108.937C117.082 108.937 112.841 105.692 111.35 101.187C111.202 100.751 110.782 100.463 110.321 100.463H99.5C97.9435 100.463 96.6753 99.1946 96.6753 97.6381V60.9173C96.6753 57.7962 99.2035 55.2679 102.325 55.2679H131.041V55.2762ZM122.081 91.9805C118.96 91.9805 116.432 94.5087 116.432 97.6299C116.432 100.751 118.96 103.279 122.081 103.279C125.202 103.279 127.73 100.751 127.73 97.6299C127.73 94.5087 125.202 91.9805 122.081 91.9805ZM129.336 66.5667H109.185C108.509 66.5667 107.966 67.1102 107.966 67.7855V82.2959C107.966 82.9712 108.509 83.5147 109.185 83.5147H129.336C130.011 83.5147 130.555 82.9712 130.555 82.2959V67.7855C130.555 67.1102 130.011 66.5667 129.336 66.5667ZM113.615 77.1324V72.9489C113.615 72.5454 113.945 72.216 114.348 72.216H124.173C124.576 72.216 124.906 72.5454 124.906 72.9489V77.1324C124.906 77.536 124.576 77.8654 124.173 77.8654H114.348C113.945 77.8654 113.615 77.536 113.615 77.1324Z" fill="white"/>
<path fill-rule="evenodd" clip-rule="evenodd" d="M121.513 78.3267C121.982 78.269 122.452 78.2608 122.921 78.2855C123.151 78.2937 123.39 78.3184 123.621 78.3349L123.975 78.3678L124.148 78.3925C124.214 78.4008 124.337 78.4008 124.436 78.3843C124.848 78.3267 125.235 78.0714 125.433 77.6761C125.54 77.5031 125.581 77.2149 125.589 77.0749L125.63 76.729C125.68 76.2679 125.721 75.8067 125.721 75.3537C125.721 74.6126 125.721 73.8796 125.721 73.1467V73.0067V72.9326L125.713 72.7926C125.696 72.6032 125.639 72.4138 125.548 72.2408C125.367 71.895 125.062 71.6314 124.7 71.4997C124.527 71.4338 124.304 71.4008 124.156 71.4091H123.884L123.341 71.4173C121.892 71.442 120.459 71.4667 119.042 71.4832C117.626 71.5079 116.226 71.5161 114.85 71.5161H114.323C113.986 71.5161 113.648 71.6397 113.393 71.862C113.137 72.0761 112.956 72.3891 112.907 72.7267C112.89 72.8091 112.89 72.9079 112.882 72.9655V73.0973V73.3444C112.857 74.0196 112.833 74.6949 112.808 75.3702C112.792 75.7573 112.75 76.3914 112.775 76.7867C112.825 77.6102 113.739 76.7784 113.87 76.3831C114.076 75.7655 114.216 75.1396 114.315 74.5055C114.365 74.1926 114.397 73.8714 114.422 73.5585L114.455 73.0808L114.463 72.9655L114.472 72.9738L114.463 73.0149L114.406 73.0808L114.365 73.0891H114.356H114.472C114.776 73.0808 115.081 73.0644 115.377 73.0479C115.979 73.0067 116.555 72.9491 117.099 72.8832C119.1 72.6361 121.093 72.5867 123.086 72.6197L123.835 72.6361L124.189 72.6444L124.329 72.702C124.411 72.7597 124.453 72.8667 124.444 72.9573L124.411 73.6985C124.362 74.6867 124.321 75.6749 124.271 76.6631C124.255 77.3549 124.214 77.1408 124.173 77.1902L124.131 77.182L123.95 77.1737L123.58 77.1655L122.847 77.149C121.867 77.1326 120.887 77.1408 119.915 77.182C117.955 77.2396 116.045 77.5196 114.093 77.8984C113.945 77.9067 113.541 77.7255 113.36 77.4208C113.261 77.2808 113.203 77.1573 113.129 77.1408C113.072 77.1243 112.956 77.2314 112.989 77.602C113.022 77.9725 113.327 78.442 113.837 78.6396C113.961 78.689 114.101 78.7219 114.241 78.7302L114.496 78.7384C114.628 78.7384 114.752 78.7384 114.883 78.7302C115.386 78.7137 115.839 78.6478 116.003 78.6314C117.766 78.4584 119.627 78.5572 121.513 78.3267ZM120.837 78.0961C120.87 78.2114 120.615 78.4502 120.566 78.3102C120.533 78.1867 120.796 77.9478 120.837 78.0961Z" fill="black"/>
<path fill-rule="evenodd" clip-rule="evenodd" d="M128.043 83.0453C123.613 83.2759 119.174 82.6995 114.867 82.6912C113.121 82.6912 111.383 82.6912 109.654 82.6912H109.333H109.176H109.127L108.938 82.6089L108.814 82.4442C108.789 82.3536 108.781 82.3783 108.781 82.0983C108.781 81.2418 108.773 80.3854 108.765 79.5289C108.74 76.1113 108.715 72.7349 108.699 69.3914L108.69 68.1396V67.8267C108.69 67.7361 108.69 67.7279 108.699 67.6784C108.715 67.5961 108.756 67.5137 108.814 67.4561C108.872 67.3902 108.946 67.3408 109.028 67.3161C109.11 67.2832 109.16 67.2914 109.415 67.2832L110.65 67.2749C112.297 67.2749 113.936 67.2749 115.559 67.2749C118.812 67.2832 122.015 67.3079 125.177 67.3737C126.083 67.3902 127.582 67.4314 128.513 67.4067C130.448 67.3573 128.488 66.4432 127.566 66.3114C121.752 65.4961 115.402 65.6443 110.263 65.9161L109.374 65.9573L109.143 65.9655C109.036 65.9738 108.921 65.9902 108.814 66.0067C108.6 66.0561 108.394 66.1467 108.213 66.2702C107.85 66.509 107.595 66.8879 107.488 67.2996C107.43 67.489 107.422 67.769 107.439 67.8843L107.455 68.329C107.488 69.5067 107.513 70.6843 107.546 71.8619C107.587 74.2172 107.587 76.5642 107.579 78.9113L107.554 82.4771C107.62 83.2842 108.353 83.9595 109.176 83.9595L110.93 83.9924C113.269 84.0418 115.6 84.083 117.93 84.1324C120.261 84.1653 122.575 84.1983 124.889 84.2312C126.05 84.2312 127.203 84.2395 128.356 84.2395H129.221C129.328 84.2395 129.624 84.2395 129.83 84.1736C130.053 84.1159 130.267 84.0171 130.448 83.8853C130.827 83.6218 131.098 83.2265 131.206 82.7818C131.263 82.5759 131.271 82.2795 131.263 82.1807L131.255 81.7524C131.173 77.1572 130.958 72.5866 130.497 68.049C130.481 67.8843 130.481 67.5961 130.324 67.3655C130.184 67.1267 129.913 66.9702 129.707 66.9455C129.493 66.9208 129.361 67.0032 129.353 67.0608C129.336 67.1349 129.451 67.1926 129.583 67.3326C129.649 67.4067 129.698 67.4973 129.723 67.5879L129.74 67.7279C129.731 67.8267 129.731 67.9255 129.723 68.0326C129.698 68.6173 129.698 69.2514 129.707 69.8443C129.723 71.0384 129.789 72.1008 129.806 72.4878C129.888 74.5796 129.904 76.7207 129.937 78.8948C129.954 79.9819 129.97 81.0771 129.987 82.1807C129.995 82.3536 129.987 82.3701 129.978 82.4524L129.904 82.6583C129.83 82.7818 129.707 82.8889 129.567 82.9465C129.484 82.9712 129.435 82.9877 129.32 82.9959L128.908 83.0124L128.043 83.0453ZM129.575 83.243C129.534 83.1936 129.616 83.0865 129.674 82.9959C129.74 82.9054 129.797 82.823 129.871 82.8477C129.929 82.8724 129.937 82.9959 129.855 83.1195C129.781 83.2348 129.633 83.3089 129.575 83.243Z" fill="black"/>
<path fill-rule="evenodd" clip-rule="evenodd" d="M127.253 97.7863C127.343 98.7334 126.956 99.6887 126.363 100.38C125.762 101.089 124.996 101.575 124.239 101.937C123.011 102.546 121.529 102.604 120.269 102.118C119.001 101.649 117.972 100.603 117.477 99.3593C116.983 98.1158 117.033 96.6664 117.617 95.4887C118.186 94.3029 119.264 93.4052 120.467 93.0511C120.813 92.9358 121.389 92.8617 121.752 92.8205C122.122 92.7711 122.139 92.5323 121.974 92.2852C121.817 92.0464 121.455 91.7911 121.224 91.7664C119.775 91.5441 118.112 92.2111 117.09 93.4135C116.036 94.5993 115.641 96.2052 115.773 97.5146C115.97 99.9522 117.453 102.093 119.553 103.082C121.628 104.095 124.313 103.864 126.182 102.34C127.113 101.599 127.821 100.562 128.183 99.4169C128.537 98.264 128.546 97.0122 128.175 95.8758C127.813 94.7393 127.096 93.7346 126.166 93.0676C125.251 92.3841 124.115 92.0546 123.061 92.1041C122.74 92.0876 121.587 92.3264 122.312 92.664C122.666 92.8205 123.151 92.944 123.604 93.0593C124.049 93.1829 124.453 93.3393 124.584 93.4052C125.35 93.7511 126.001 94.3934 126.454 95.1511C126.907 95.9581 127.179 96.8475 127.253 97.7863ZM127.475 97.0946C127.368 97.1358 127.088 96.9134 127.228 96.8475C127.327 96.7899 127.615 97.0287 127.475 97.0946Z" fill="black"/>
<path fill-rule="evenodd" clip-rule="evenodd" d="M96.2059 74.4972C96.3212 80.2701 96.2388 86.0594 96.1235 91.7994C96.0906 93.2323 96.0659 94.6652 96.0329 96.0982L96.0082 97.1687C96.0082 97.3499 96 97.5064 96 97.7205C96 97.9428 96.0247 98.1652 96.0659 98.3793C96.2388 99.2522 96.7576 100.051 97.4988 100.562C97.8612 100.817 98.2812 101.006 98.7176 101.105C98.94 101.155 99.1623 101.188 99.3847 101.196C99.607 101.204 99.7553 101.204 99.9364 101.212L102.061 101.245C103.478 101.253 104.886 101.262 106.286 101.27C107.422 101.27 108.559 101.27 109.695 101.27H110.123H110.329L110.387 101.278C110.461 101.295 110.527 101.344 110.56 101.385C110.543 101.319 110.7 101.764 110.799 102.011C110.897 102.299 111.029 102.571 111.161 102.851C112.207 105.042 113.928 106.895 116.02 108.105C118.112 109.324 120.566 109.884 122.954 109.703C125.35 109.53 127.681 108.624 129.55 107.142C130.489 106.4 131.313 105.527 131.988 104.556C132.169 104.317 132.326 104.062 132.466 103.806C132.622 103.551 132.762 103.296 132.894 103.024C133.034 102.76 133.157 102.489 133.256 102.217L133.421 101.805C133.462 101.706 133.478 101.665 133.52 101.599C133.594 101.484 133.709 101.385 133.833 101.319L134.03 101.253C134.121 101.237 134.121 101.237 134.294 101.237H135.949C137.053 101.237 138.156 101.229 139.26 101.229C143.665 101.22 148.047 101.204 152.395 101.196H154.025C154.322 101.196 154.519 101.204 154.89 101.188C155.318 101.163 155.746 100.982 156.059 100.685C156.381 100.397 156.595 99.9934 156.661 99.5652C156.677 99.4581 156.685 99.3428 156.685 99.2522V99.0464V98.6428V97.0205V96.2135V95.9911C156.685 95.884 156.669 95.777 156.652 95.6699C156.611 95.4558 156.537 95.2582 156.422 95.0688C156.208 94.6982 155.862 94.4099 155.466 94.2535C155.269 94.1711 155.055 94.1299 154.841 94.1217H154.412H152.798H151.991H151.588C151.481 94.1217 151.456 94.1135 151.398 94.097C151.184 94.0146 151.019 93.8499 151.036 93.5452V91.9394C151.036 90.8688 151.036 89.7982 151.036 88.7359C151.036 86.603 151.036 84.4783 151.036 82.3536C151.036 80.2371 151.044 78.1207 151.044 76.0125V74.4148C151.036 73.8219 150.937 73.2372 150.764 72.669C150.591 72.1007 150.336 71.5655 150.015 71.0713C149.71 70.5855 149.257 70.1078 148.903 69.7702C145.963 66.7973 143.048 63.8408 140.149 60.9173C139.317 60.0773 138.222 58.9573 137.118 57.8374C136.558 57.2691 135.99 56.7091 135.455 56.1738C134.829 55.5891 134.121 55.1856 133.47 54.9303C132.078 54.4033 131.321 54.5433 131.115 54.6174C130.901 54.7162 131.173 54.8233 131.658 54.9962C132.144 55.1692 132.828 55.4491 133.446 55.8609C134.071 56.2727 134.598 56.7915 134.977 57.2444C137.514 60.0691 140.149 62.9103 142.834 65.7267C144.184 67.1267 145.535 68.5349 146.885 69.9349L147.907 70.9808C148.244 71.3266 148.483 71.5984 148.714 71.9607C149.158 72.6607 149.405 73.4678 149.447 74.2831C149.447 78.0383 149.455 81.9089 149.496 85.5653C149.521 87.4018 149.545 89.2053 149.57 90.9759C149.587 91.857 149.603 92.73 149.611 93.5947C149.611 94.2782 150.007 94.937 150.599 95.2417C150.888 95.4064 151.234 95.4805 151.547 95.4723L152.181 95.4558L154.486 95.4146L154.766 95.4064L154.906 95.4229C154.997 95.4393 155.088 95.4888 155.162 95.5464C155.236 95.6123 155.302 95.6864 155.335 95.7852L155.376 95.9252C155.384 95.9664 155.384 96.024 155.384 96.1393L155.417 98.4452C155.417 98.7993 155.45 99.3017 155.401 99.4334C155.343 99.6393 155.17 99.8205 154.964 99.8946C154.824 99.9605 154.338 99.9275 153.976 99.944L152.823 99.9605L150.517 99.9852L145.914 100.018C142.842 100.026 139.778 100.043 136.715 100.051H134.417C134.244 100.051 134.006 100.043 133.767 100.092C133.536 100.142 133.314 100.232 133.108 100.364C132.704 100.603 132.408 101.064 132.284 101.451C131.757 102.826 130.958 104.111 129.921 105.165C128.9 106.236 127.648 107.067 126.297 107.644C124.939 108.204 123.464 108.484 121.99 108.467C119.05 108.435 116.16 107.15 114.192 104.992C113.195 103.922 112.429 102.653 111.952 101.286L111.861 101.031C111.828 100.94 111.762 100.768 111.688 100.66C111.532 100.413 111.317 100.216 111.062 100.092C110.823 99.9605 110.51 99.9028 110.272 99.9111H109.703L107.422 99.8946L102.876 99.8616L100.603 99.8452L99.4753 99.8369C99.1788 99.8287 98.8823 99.7628 98.6188 99.6393C98.0835 99.4005 97.647 98.9228 97.4576 98.3793C97.3588 98.0911 97.3259 97.844 97.3341 97.4817L97.3423 96.3452L97.367 91.8076C97.3835 88.7853 97.3918 85.763 97.4082 82.7489C97.4247 76.7125 97.4165 70.7008 97.3753 64.7055L97.3506 62.4491C97.3506 61.7161 97.3094 60.9091 97.3753 60.2915C97.5235 58.9738 98.2235 57.7303 99.2776 56.915C99.8047 56.5033 100.414 56.1986 101.056 56.0256C101.707 55.8362 102.358 55.8362 103.132 55.828L107.603 55.7456C113.557 55.6221 119.495 55.4491 125.4 55.2186C127.055 55.1527 134.047 54.8892 129.55 54.5845C124.939 54.2715 115.822 54.4939 113.821 54.5186C111.095 54.5515 108.336 54.5762 105.545 54.6009C104.845 54.6009 104.153 54.6092 103.453 54.6174L102.399 54.6092C102.028 54.6256 101.625 54.6421 101.238 54.7162C99.6894 54.9797 98.2564 55.8691 97.3094 57.1291C96.84 57.7632 96.4859 58.4797 96.28 59.2456C96.0576 59.995 96.0329 60.8597 96.0576 61.535C96.0659 62.9597 96.0824 64.3926 96.0906 65.8338C96.1235 68.7078 96.1647 71.5984 96.2059 74.4972ZM96.4365 70.3631C96.3212 70.5772 96.0824 68.9796 96.2224 68.7078C96.3459 68.4855 96.5847 70.0914 96.4365 70.3631Z" fill="black"/>
</svg>
