<svg width="255" height="206" viewBox="0 0 255 206" fill="none" xmlns="http://www.w3.org/2000/svg">
<path d="M31.2701 177.12C30.9021 177.12 30.6061 177.008 30.3821 176.784C30.1581 176.544 30.0461 176.24 30.0461 175.872V161.28C30.0461 160.912 30.1501 160.624 30.3581 160.416C30.5821 160.192 30.8861 160.08 31.2701 160.08H39.8621C40.6301 160.08 41.0141 160.416 41.0141 161.088C41.0141 161.76 40.6301 162.096 39.8621 162.096H32.4941V167.4H39.3821C40.1501 167.4 40.5341 167.736 40.5341 168.408C40.5341 169.08 40.1501 169.416 39.3821 169.416H32.4941V175.872C32.4941 176.256 32.3821 176.56 32.1581 176.784C31.9501 177.008 31.6541 177.12 31.2701 177.12ZM48.3149 177.168C47.1629 177.168 46.1469 176.92 45.2669 176.424C44.4029 175.928 43.7309 175.224 43.2509 174.312C42.7869 173.384 42.5549 172.312 42.5549 171.096C42.5549 169.864 42.7869 168.792 43.2509 167.88C43.7309 166.952 44.4029 166.24 45.2669 165.744C46.1469 165.248 47.1629 165 48.3149 165C49.4669 165 50.4749 165.248 51.3389 165.744C52.2189 166.24 52.8909 166.952 53.3549 167.88C53.8349 168.792 54.0749 169.864 54.0749 171.096C54.0749 172.312 53.8349 173.384 53.3549 174.312C52.8909 175.224 52.2189 175.928 51.3389 176.424C50.4749 176.92 49.4669 177.168 48.3149 177.168ZM48.3149 175.248C49.3869 175.248 50.2029 174.896 50.7629 174.192C51.3389 173.488 51.6269 172.456 51.6269 171.096C51.6269 169.752 51.3389 168.728 50.7629 168.024C50.1869 167.304 49.3709 166.944 48.3149 166.944C47.2589 166.944 46.4429 167.304 45.8669 168.024C45.2909 168.728 45.0029 169.752 45.0029 171.096C45.0029 172.456 45.2829 173.488 45.8429 174.192C46.4189 174.896 47.2429 175.248 48.3149 175.248ZM62.1118 177.168C60.9598 177.168 59.9438 176.92 59.0638 176.424C58.1998 175.928 57.5278 175.224 57.0478 174.312C56.5838 173.384 56.3518 172.312 56.3518 171.096C56.3518 169.864 56.5838 168.792 57.0478 167.88C57.5278 166.952 58.1998 166.24 59.0638 165.744C59.9438 165.248 60.9598 165 62.1118 165C63.2638 165 64.2718 165.248 65.1358 165.744C66.0158 166.24 66.6878 166.952 67.1518 167.88C67.6318 168.792 67.8718 169.864 67.8718 171.096C67.8718 172.312 67.6318 173.384 67.1518 174.312C66.6878 175.224 66.0158 175.928 65.1358 176.424C64.2718 176.92 63.2638 177.168 62.1118 177.168ZM62.1118 175.248C63.1838 175.248 63.9998 174.896 64.5598 174.192C65.1358 173.488 65.4238 172.456 65.4238 171.096C65.4238 169.752 65.1358 168.728 64.5598 168.024C63.9838 167.304 63.1678 166.944 62.1118 166.944C61.0558 166.944 60.2398 167.304 59.6638 168.024C59.0878 168.728 58.7998 169.752 58.7998 171.096C58.7998 172.456 59.0798 173.488 59.6398 174.192C60.2158 174.896 61.0398 175.248 62.1118 175.248ZM80.3966 159.96C80.7646 159.96 81.0606 160.064 81.2846 160.272C81.5086 160.48 81.6206 160.76 81.6206 161.112V175.944C81.6206 176.312 81.5086 176.6 81.2846 176.808C81.0766 177.016 80.7886 177.12 80.4206 177.12C80.0526 177.12 79.7566 177.016 79.5326 176.808C79.3246 176.6 79.2206 176.312 79.2206 175.944V174.984C78.8686 175.688 78.3566 176.232 77.6846 176.616C77.0126 176.984 76.2366 177.168 75.3566 177.168C74.3486 177.168 73.4446 176.912 72.6446 176.4C71.8606 175.888 71.2446 175.168 70.7966 174.24C70.3646 173.312 70.1486 172.248 70.1486 171.048C70.1486 169.832 70.3646 168.768 70.7966 167.856C71.2446 166.944 71.8606 166.24 72.6446 165.744C73.4286 165.248 74.3326 165 75.3566 165C76.2366 165 77.0046 165.192 77.6606 165.576C78.3326 165.944 78.8446 166.472 79.1966 167.16V161.064C79.1966 160.728 79.3006 160.464 79.5086 160.272C79.7326 160.064 80.0286 159.96 80.3966 159.96ZM75.9326 175.248C76.9726 175.248 77.7806 174.888 78.3566 174.168C78.9326 173.448 79.2206 172.424 79.2206 171.096C79.2206 169.768 78.9326 168.744 78.3566 168.024C77.7966 167.304 76.9886 166.944 75.9326 166.944C74.8766 166.944 74.0526 167.304 73.4606 168.024C72.8846 168.728 72.5966 169.736 72.5966 171.048C72.5966 172.36 72.8926 173.392 73.4846 174.144C74.0766 174.88 74.8926 175.248 75.9326 175.248ZM105.796 175.488C106.004 175.696 106.108 175.928 106.108 176.184C106.108 176.456 106.004 176.696 105.796 176.904C105.588 177.096 105.348 177.192 105.076 177.192C104.804 177.192 104.564 177.088 104.356 176.88L102.244 174.744C101.508 175.528 100.676 176.128 99.7484 176.544C98.8204 176.96 97.8444 177.168 96.8204 177.168C95.7484 177.168 94.7884 176.984 93.9404 176.616C93.0924 176.248 92.4284 175.728 91.9484 175.056C91.4844 174.368 91.2524 173.576 91.2524 172.68C91.2524 171.64 91.5644 170.712 92.1884 169.896C92.8124 169.08 93.7724 168.304 95.0684 167.568C94.4124 166.864 93.9244 166.216 93.6044 165.624C93.2844 165.016 93.1244 164.384 93.1244 163.728C93.1244 162.56 93.5324 161.632 94.3484 160.944C95.1644 160.256 96.2124 159.912 97.4924 159.912C98.7084 159.912 99.6764 160.232 100.396 160.872C101.116 161.496 101.476 162.352 101.476 163.44C101.476 164.32 101.212 165.104 100.684 165.792C100.172 166.464 99.3484 167.144 98.2124 167.832L101.98 171.648C102.492 170.592 102.804 169.32 102.916 167.832C102.932 167.496 103.044 167.24 103.252 167.064C103.476 166.872 103.724 166.776 103.996 166.776C104.284 166.776 104.524 166.88 104.716 167.088C104.924 167.28 105.012 167.552 104.98 167.904C104.836 169.888 104.324 171.624 103.444 173.112L105.796 175.488ZM97.5164 161.664C96.8764 161.664 96.3564 161.856 95.9564 162.24C95.5724 162.608 95.3804 163.104 95.3804 163.728C95.3804 164.176 95.5004 164.608 95.7404 165.024C95.9804 165.424 96.3724 165.92 96.9164 166.512C97.8444 165.936 98.4924 165.432 98.8604 165C99.2444 164.552 99.4364 164.064 99.4364 163.536C99.4364 162.976 99.2604 162.528 98.9084 162.192C98.5564 161.84 98.0924 161.664 97.5164 161.664ZM96.9404 175.272C97.6764 175.272 98.3804 175.112 99.0524 174.792C99.7404 174.472 100.348 174 100.876 173.376L96.3884 168.888C95.3964 169.48 94.6844 170.064 94.2524 170.64C93.8364 171.2 93.6284 171.84 93.6284 172.56C93.6284 173.408 93.9244 174.072 94.5164 174.552C95.1244 175.032 95.9324 175.272 96.9404 175.272ZM121.046 165C122.07 165 122.974 165.248 123.758 165.744C124.542 166.24 125.15 166.944 125.582 167.856C126.03 168.768 126.254 169.832 126.254 171.048C126.254 172.248 126.03 173.312 125.582 174.24C125.15 175.168 124.534 175.888 123.734 176.4C122.95 176.912 122.054 177.168 121.046 177.168C120.166 177.168 119.39 176.984 118.718 176.616C118.046 176.232 117.534 175.688 117.182 174.984V175.944C117.182 176.296 117.07 176.584 116.846 176.808C116.638 177.016 116.35 177.12 115.982 177.12C115.614 177.12 115.318 177.016 115.094 176.808C114.87 176.584 114.758 176.296 114.758 175.944V161.112C114.758 160.76 114.87 160.48 115.094 160.272C115.334 160.064 115.638 159.96 116.006 159.96C116.358 159.96 116.638 160.064 116.846 160.272C117.07 160.464 117.182 160.728 117.182 161.064V167.208C117.534 166.504 118.046 165.96 118.718 165.576C119.39 165.192 120.166 165 121.046 165ZM120.47 175.248C121.51 175.248 122.318 174.88 122.894 174.144C123.486 173.408 123.782 172.376 123.782 171.048C123.782 169.736 123.494 168.728 122.918 168.024C122.342 167.304 121.526 166.944 120.47 166.944C119.414 166.944 118.598 167.304 118.022 168.024C117.462 168.744 117.182 169.768 117.182 171.096C117.182 172.424 117.462 173.448 118.022 174.168C118.598 174.888 119.414 175.248 120.47 175.248ZM138.356 174.048C138.58 174.048 138.764 174.136 138.908 174.312C139.052 174.488 139.124 174.712 139.124 174.984C139.124 175.448 138.836 175.84 138.26 176.16C137.7 176.48 137.084 176.728 136.412 176.904C135.756 177.08 135.124 177.168 134.516 177.168C132.66 177.168 131.196 176.632 130.124 175.56C129.052 174.472 128.516 172.992 128.516 171.12C128.516 169.92 128.748 168.856 129.212 167.928C129.692 167 130.356 166.28 131.204 165.768C132.068 165.256 133.044 165 134.132 165C135.7 165 136.94 165.504 137.852 166.512C138.764 167.52 139.22 168.88 139.22 170.592C139.22 171.232 138.932 171.552 138.356 171.552H130.94C131.1 174.032 132.292 175.272 134.516 175.272C135.108 175.272 135.62 175.192 136.052 175.032C136.484 174.872 136.94 174.664 137.42 174.408C137.468 174.376 137.596 174.312 137.804 174.216C138.028 174.104 138.212 174.048 138.356 174.048ZM134.18 166.776C133.252 166.776 132.508 167.072 131.948 167.664C131.388 168.256 131.052 169.088 130.94 170.16H137.132C137.084 169.072 136.804 168.24 136.292 167.664C135.796 167.072 135.092 166.776 134.18 166.776ZM150.305 165.768C150.401 165.528 150.537 165.352 150.713 165.24C150.905 165.128 151.105 165.072 151.313 165.072C151.617 165.072 151.881 165.176 152.105 165.384C152.345 165.592 152.465 165.84 152.465 166.128C152.465 166.288 152.433 166.44 152.369 166.584L147.785 176.304C147.673 176.56 147.497 176.76 147.257 176.904C147.033 177.032 146.793 177.096 146.537 177.096C146.281 177.096 146.033 177.032 145.793 176.904C145.569 176.76 145.401 176.56 145.289 176.304L140.705 166.584C140.641 166.456 140.609 166.304 140.609 166.128C140.609 165.84 140.737 165.592 140.993 165.384C141.249 165.176 141.537 165.072 141.857 165.072C142.321 165.072 142.665 165.296 142.889 165.744L146.609 174L150.305 165.768ZM163.7 174.048C163.924 174.048 164.108 174.136 164.252 174.312C164.396 174.488 164.468 174.712 164.468 174.984C164.468 175.448 164.18 175.84 163.604 176.16C163.044 176.48 162.428 176.728 161.756 176.904C161.1 177.08 160.468 177.168 159.86 177.168C158.004 177.168 156.54 176.632 155.468 175.56C154.396 174.472 153.86 172.992 153.86 171.12C153.86 169.92 154.092 168.856 154.556 167.928C155.036 167 155.7 166.28 156.548 165.768C157.412 165.256 158.388 165 159.476 165C161.044 165 162.284 165.504 163.196 166.512C164.108 167.52 164.564 168.88 164.564 170.592C164.564 171.232 164.276 171.552 163.7 171.552H156.284C156.444 174.032 157.636 175.272 159.86 175.272C160.452 175.272 160.964 175.192 161.396 175.032C161.828 174.872 162.284 174.664 162.764 174.408C162.812 174.376 162.94 174.312 163.148 174.216C163.372 174.104 163.556 174.048 163.7 174.048ZM159.524 166.776C158.596 166.776 157.852 167.072 157.292 167.664C156.732 168.256 156.396 169.088 156.284 170.16H162.476C162.428 169.072 162.148 168.24 161.636 167.664C161.14 167.072 160.436 166.776 159.524 166.776ZM173.629 165.048C174.397 165 174.781 165.328 174.781 166.032C174.781 166.384 174.693 166.648 174.517 166.824C174.341 167 174.037 167.104 173.605 167.136L172.885 167.208C171.877 167.304 171.125 167.656 170.629 168.264C170.149 168.872 169.909 169.608 169.909 170.472V175.968C169.909 176.352 169.797 176.64 169.573 176.832C169.349 177.024 169.061 177.12 168.709 177.12C168.357 177.12 168.061 177.024 167.821 176.832C167.597 176.64 167.485 176.352 167.485 175.968V166.2C167.485 165.832 167.597 165.552 167.821 165.36C168.061 165.152 168.357 165.048 168.709 165.048C169.029 165.048 169.293 165.152 169.501 165.36C169.725 165.552 169.837 165.824 169.837 166.176V167.328C170.157 166.624 170.621 166.088 171.229 165.72C171.837 165.352 172.525 165.136 173.293 165.072L173.629 165.048ZM181.373 165C182.925 165 184.077 165.392 184.829 166.176C185.597 166.96 185.981 168.152 185.981 169.752V175.968C185.981 176.336 185.877 176.624 185.669 176.832C185.461 177.024 185.173 177.12 184.805 177.12C184.453 177.12 184.173 177.016 183.965 176.808C183.757 176.6 183.653 176.32 183.653 175.968V175.08C183.349 175.752 182.893 176.272 182.285 176.64C181.693 176.992 180.997 177.168 180.197 177.168C179.429 177.168 178.725 177.016 178.085 176.712C177.461 176.392 176.965 175.96 176.597 175.416C176.229 174.872 176.045 174.256 176.045 173.568C176.029 172.704 176.245 172.032 176.693 171.552C177.141 171.056 177.869 170.704 178.877 170.496C179.885 170.272 181.285 170.16 183.077 170.16H183.629V169.464C183.629 168.568 183.445 167.92 183.077 167.52C182.709 167.12 182.117 166.92 181.301 166.92C180.741 166.92 180.213 166.992 179.717 167.136C179.221 167.28 178.677 167.488 178.085 167.76C177.653 168 177.349 168.12 177.173 168.12C176.933 168.12 176.733 168.032 176.573 167.856C176.429 167.68 176.357 167.456 176.357 167.184C176.357 166.944 176.421 166.736 176.549 166.56C176.693 166.368 176.917 166.184 177.221 166.008C177.781 165.704 178.437 165.464 179.189 165.288C179.941 165.096 180.669 165 181.373 165ZM180.629 175.368C181.509 175.368 182.229 175.072 182.789 174.48C183.349 173.872 183.629 173.096 183.629 172.152V171.528H183.197C181.949 171.528 180.989 171.584 180.317 171.696C179.645 171.808 179.165 172 178.877 172.272C178.589 172.528 178.445 172.904 178.445 173.4C178.445 173.976 178.653 174.448 179.069 174.816C179.485 175.184 180.005 175.368 180.629 175.368ZM199.243 165.048C199.611 165.048 199.899 165.16 200.107 165.384C200.331 165.592 200.443 165.872 200.443 166.224V176.064C200.443 177.856 199.963 179.208 199.003 180.12C198.059 181.032 196.659 181.488 194.803 181.488C193.075 181.488 191.635 181.16 190.483 180.504C189.891 180.168 189.595 179.768 189.595 179.304C189.595 179.032 189.667 178.808 189.811 178.632C189.971 178.456 190.163 178.368 190.387 178.368C190.595 178.368 190.923 178.488 191.371 178.728C191.947 179 192.483 179.208 192.979 179.352C193.475 179.512 194.067 179.592 194.755 179.592C196.963 179.592 198.067 178.48 198.067 176.256V174.408C197.731 175.112 197.219 175.664 196.531 176.064C195.843 176.448 195.043 176.64 194.131 176.64C193.107 176.64 192.195 176.4 191.395 175.92C190.595 175.44 189.971 174.76 189.523 173.88C189.091 173 188.875 171.984 188.875 170.832C188.875 169.68 189.099 168.664 189.547 167.784C189.995 166.904 190.611 166.224 191.395 165.744C192.195 165.248 193.107 165 194.131 165C195.027 165 195.811 165.192 196.483 165.576C197.171 165.96 197.691 166.504 198.043 167.208V166.2C198.043 165.848 198.147 165.568 198.355 165.36C198.579 165.152 198.875 165.048 199.243 165.048ZM194.707 174.72C195.747 174.72 196.563 174.376 197.155 173.688C197.747 173 198.043 172.048 198.043 170.832C198.043 169.632 197.747 168.688 197.155 168C196.579 167.296 195.763 166.944 194.707 166.944C193.651 166.944 192.819 167.288 192.211 167.976C191.619 168.664 191.323 169.616 191.323 170.832C191.323 172.048 191.627 173 192.235 173.688C192.843 174.376 193.667 174.72 194.707 174.72ZM213.239 174.048C213.463 174.048 213.647 174.136 213.791 174.312C213.935 174.488 214.007 174.712 214.007 174.984C214.007 175.448 213.719 175.84 213.143 176.16C212.583 176.48 211.967 176.728 211.295 176.904C210.639 177.08 210.007 177.168 209.399 177.168C207.543 177.168 206.079 176.632 205.007 175.56C203.935 174.472 203.399 172.992 203.399 171.12C203.399 169.92 203.631 168.856 204.095 167.928C204.575 167 205.239 166.28 206.087 165.768C206.951 165.256 207.927 165 209.015 165C210.583 165 211.823 165.504 212.735 166.512C213.647 167.52 214.103 168.88 214.103 170.592C214.103 171.232 213.815 171.552 213.239 171.552H205.823C205.983 174.032 207.175 175.272 209.399 175.272C209.991 175.272 210.503 175.192 210.935 175.032C211.367 174.872 211.823 174.664 212.303 174.408C212.351 174.376 212.479 174.312 212.687 174.216C212.911 174.104 213.095 174.048 213.239 174.048ZM209.063 166.776C208.135 166.776 207.391 167.072 206.831 167.664C206.271 168.256 205.935 169.088 205.823 170.16H212.015C211.967 169.072 211.687 168.24 211.175 167.664C210.679 167.072 209.975 166.776 209.063 166.776ZM221.104 177.168C219.472 177.168 218.136 176.832 217.096 176.16C216.808 175.984 216.6 175.8 216.472 175.608C216.36 175.416 216.304 175.2 216.304 174.96C216.304 174.704 216.376 174.488 216.52 174.312C216.664 174.136 216.848 174.048 217.072 174.048C217.28 174.048 217.608 174.176 218.056 174.432C218.536 174.688 219 174.896 219.448 175.056C219.912 175.216 220.488 175.296 221.176 175.296C221.944 175.296 222.544 175.16 222.976 174.888C223.408 174.616 223.624 174.232 223.624 173.736C223.624 173.416 223.536 173.16 223.36 172.968C223.2 172.776 222.912 172.608 222.496 172.464C222.08 172.304 221.464 172.136 220.648 171.96C219.24 171.656 218.224 171.248 217.6 170.736C216.992 170.208 216.688 169.496 216.688 168.6C216.688 167.912 216.888 167.296 217.288 166.752C217.688 166.192 218.24 165.76 218.944 165.456C219.648 165.152 220.448 165 221.344 165C221.984 165 222.608 165.088 223.216 165.264C223.824 165.424 224.36 165.664 224.824 165.984C225.352 166.336 225.616 166.744 225.616 167.208C225.616 167.464 225.536 167.68 225.376 167.856C225.232 168.032 225.056 168.12 224.848 168.12C224.704 168.12 224.56 168.088 224.416 168.024C224.272 167.96 224.08 167.856 223.84 167.712C223.408 167.456 223 167.256 222.616 167.112C222.248 166.968 221.784 166.896 221.224 166.896C220.552 166.896 220.008 167.04 219.592 167.328C219.192 167.616 218.992 168.008 218.992 168.504C218.992 168.952 219.176 169.304 219.544 169.56C219.928 169.8 220.64 170.032 221.68 170.256C222.752 170.48 223.592 170.736 224.2 171.024C224.808 171.312 225.24 171.672 225.496 172.104C225.768 172.52 225.904 173.056 225.904 173.712C225.904 174.752 225.464 175.592 224.584 176.232C223.72 176.856 222.56 177.168 221.104 177.168Z" fill="#384248"/>
<rect x="77" y="32" width="100" height="100" rx="4" fill="#F5F6F8"/>
</svg>
