<svg width="255" height="206" viewBox="0 0 255 206" fill="none" xmlns="http://www.w3.org/2000/svg">
<path d="M43.0782 177.192C41.4622 177.192 40.0542 176.848 38.8542 176.16C37.6542 175.456 36.7342 174.456 36.0942 173.16C35.4542 171.848 35.1342 170.304 35.1342 168.528C35.1342 166.768 35.4542 165.24 36.0942 163.944C36.7342 162.632 37.6542 161.632 38.8542 160.944C40.0542 160.24 41.4622 159.888 43.0782 159.888C44.1342 159.888 45.1342 160.056 46.0782 160.392C47.0222 160.712 47.8462 161.184 48.5502 161.808C48.8542 162.048 49.0062 162.368 49.0062 162.768C49.0062 163.056 48.9262 163.304 48.7662 163.512C48.6062 163.704 48.4142 163.8 48.1902 163.8C47.9182 163.8 47.6542 163.696 47.3982 163.488C46.6302 162.912 45.9262 162.512 45.2862 162.288C44.6622 162.048 43.9502 161.928 43.1502 161.928C41.3902 161.928 40.0382 162.496 39.0942 163.632C38.1502 164.768 37.6782 166.4 37.6782 168.528C37.6782 170.672 38.1502 172.312 39.0942 173.448C40.0382 174.584 41.3902 175.152 43.1502 175.152C43.9182 175.152 44.6142 175.032 45.2382 174.792C45.8782 174.552 46.5982 174.152 47.3982 173.592C47.7182 173.384 47.9822 173.28 48.1902 173.28C48.4142 173.28 48.6062 173.384 48.7662 173.592C48.9262 173.784 49.0062 174.024 49.0062 174.312C49.0062 174.712 48.8542 175.032 48.5502 175.272C47.8462 175.896 47.0222 176.376 46.0782 176.712C45.1342 177.032 44.1342 177.192 43.0782 177.192ZM56.768 177.168C55.616 177.168 54.6 176.92 53.72 176.424C52.856 175.928 52.184 175.224 51.704 174.312C51.24 173.384 51.008 172.312 51.008 171.096C51.008 169.864 51.24 168.792 51.704 167.88C52.184 166.952 52.856 166.24 53.72 165.744C54.6 165.248 55.616 165 56.768 165C57.92 165 58.928 165.248 59.792 165.744C60.672 166.24 61.344 166.952 61.808 167.88C62.288 168.792 62.528 169.864 62.528 171.096C62.528 172.312 62.288 173.384 61.808 174.312C61.344 175.224 60.672 175.928 59.792 176.424C58.928 176.92 57.92 177.168 56.768 177.168ZM56.768 175.248C57.84 175.248 58.656 174.896 59.216 174.192C59.792 173.488 60.08 172.456 60.08 171.096C60.08 169.752 59.792 168.728 59.216 168.024C58.64 167.304 57.824 166.944 56.768 166.944C55.712 166.944 54.896 167.304 54.32 168.024C53.744 168.728 53.456 169.752 53.456 171.096C53.456 172.456 53.736 173.488 54.296 174.192C54.872 174.896 55.696 175.248 56.768 175.248ZM71.7889 165C74.5889 165 75.9889 166.576 75.9889 169.728V175.968C75.9889 176.336 75.8769 176.624 75.6529 176.832C75.4449 177.024 75.1489 177.12 74.7649 177.12C74.3969 177.12 74.1009 177.016 73.8769 176.808C73.6689 176.6 73.5649 176.32 73.5649 175.968V169.848C73.5649 168.856 73.3649 168.128 72.9649 167.664C72.5809 167.2 71.9729 166.968 71.1409 166.968C70.1649 166.968 69.3809 167.272 68.7889 167.88C68.1969 168.488 67.9009 169.304 67.9009 170.328V175.968C67.9009 176.32 67.7889 176.6 67.5649 176.808C67.3569 177.016 67.0689 177.12 66.7009 177.12C66.3329 177.12 66.0369 177.016 65.8129 176.808C65.5889 176.6 65.4769 176.32 65.4769 175.968V166.2C65.4769 165.864 65.5889 165.592 65.8129 165.384C66.0529 165.16 66.3489 165.048 66.7009 165.048C67.0529 165.048 67.3329 165.152 67.5409 165.36C67.7489 165.568 67.8529 165.84 67.8529 166.176V167.16C68.2369 166.456 68.7729 165.92 69.4609 165.552C70.1489 165.184 70.9249 165 71.7889 165ZM83.635 177.168C82.003 177.168 80.667 176.832 79.627 176.16C79.339 175.984 79.131 175.8 79.003 175.608C78.891 175.416 78.835 175.2 78.835 174.96C78.835 174.704 78.907 174.488 79.051 174.312C79.195 174.136 79.379 174.048 79.603 174.048C79.811 174.048 80.139 174.176 80.587 174.432C81.067 174.688 81.531 174.896 81.979 175.056C82.443 175.216 83.019 175.296 83.707 175.296C84.475 175.296 85.075 175.16 85.507 174.888C85.939 174.616 86.155 174.232 86.155 173.736C86.155 173.416 86.067 173.16 85.891 172.968C85.731 172.776 85.443 172.608 85.027 172.464C84.611 172.304 83.995 172.136 83.179 171.96C81.771 171.656 80.755 171.248 80.131 170.736C79.523 170.208 79.219 169.496 79.219 168.6C79.219 167.912 79.419 167.296 79.819 166.752C80.219 166.192 80.771 165.76 81.475 165.456C82.179 165.152 82.979 165 83.875 165C84.515 165 85.139 165.088 85.747 165.264C86.355 165.424 86.891 165.664 87.355 165.984C87.883 166.336 88.147 166.744 88.147 167.208C88.147 167.464 88.067 167.68 87.907 167.856C87.763 168.032 87.587 168.12 87.379 168.12C87.235 168.12 87.091 168.088 86.947 168.024C86.803 167.96 86.611 167.856 86.371 167.712C85.939 167.456 85.531 167.256 85.147 167.112C84.779 166.968 84.315 166.896 83.755 166.896C83.083 166.896 82.539 167.04 82.123 167.328C81.723 167.616 81.523 168.008 81.523 168.504C81.523 168.952 81.707 169.304 82.075 169.56C82.459 169.8 83.171 170.032 84.211 170.256C85.283 170.48 86.123 170.736 86.731 171.024C87.339 171.312 87.771 171.672 88.027 172.104C88.299 172.52 88.435 173.056 88.435 173.712C88.435 174.752 87.995 175.592 87.115 176.232C86.251 176.856 85.091 177.168 83.635 177.168ZM100.455 165.048C100.823 165.048 101.111 165.152 101.319 165.36C101.543 165.568 101.655 165.856 101.655 166.224V175.992C101.655 176.328 101.543 176.6 101.319 176.808C101.095 177.016 100.799 177.12 100.431 177.12C100.095 177.12 99.8231 177.024 99.6151 176.832C99.4071 176.624 99.3031 176.352 99.3031 176.016V175.104C98.9351 175.776 98.4231 176.288 97.7671 176.64C97.1271 176.992 96.4071 177.168 95.6071 177.168C92.7591 177.168 91.3351 175.6 91.3351 172.464V166.224C91.3351 165.856 91.4391 165.568 91.6471 165.36C91.8711 165.152 92.1751 165.048 92.5591 165.048C92.9271 165.048 93.2151 165.152 93.4231 165.36C93.6471 165.568 93.7591 165.856 93.7591 166.224V172.44C93.7591 173.384 93.9511 174.08 94.3351 174.528C94.7191 174.976 95.3111 175.2 96.1111 175.2C97.0551 175.2 97.8071 174.896 98.3671 174.288C98.9431 173.68 99.2311 172.872 99.2311 171.864V166.224C99.2311 165.872 99.3431 165.592 99.5671 165.384C99.7911 165.16 100.087 165.048 100.455 165.048ZM118.737 165C121.361 165 122.673 166.576 122.673 169.728V175.968C122.673 176.336 122.561 176.624 122.337 176.832C122.113 177.024 121.817 177.12 121.449 177.12C121.097 177.12 120.809 177.024 120.585 176.832C120.361 176.624 120.249 176.336 120.249 175.968V169.752C120.249 168.776 120.073 168.072 119.721 167.64C119.369 167.192 118.817 166.968 118.065 166.968C117.185 166.968 116.489 167.272 115.977 167.88C115.465 168.472 115.209 169.288 115.209 170.328V175.968C115.209 176.336 115.097 176.624 114.873 176.832C114.649 177.024 114.353 177.12 113.985 177.12C113.633 177.12 113.345 177.024 113.121 176.832C112.897 176.624 112.785 176.336 112.785 175.968V169.752C112.785 168.776 112.609 168.072 112.257 167.64C111.905 167.192 111.353 166.968 110.601 166.968C109.721 166.968 109.017 167.272 108.489 167.88C107.977 168.472 107.721 169.288 107.721 170.328V175.968C107.721 176.336 107.609 176.624 107.385 176.832C107.161 177.024 106.873 177.12 106.521 177.12C106.169 177.12 105.873 177.024 105.633 176.832C105.409 176.624 105.297 176.336 105.297 175.968V166.2C105.297 165.848 105.417 165.568 105.657 165.36C105.897 165.152 106.185 165.048 106.521 165.048C106.857 165.048 107.129 165.152 107.337 165.36C107.561 165.552 107.673 165.824 107.673 166.176V167.064C108.025 166.392 108.513 165.88 109.137 165.528C109.761 165.176 110.481 165 111.297 165C112.193 165 112.929 165.184 113.505 165.552C114.097 165.92 114.537 166.488 114.825 167.256C115.177 166.568 115.697 166.024 116.385 165.624C117.073 165.208 117.857 165 118.737 165ZM135.411 174.048C135.635 174.048 135.819 174.136 135.963 174.312C136.107 174.488 136.179 174.712 136.179 174.984C136.179 175.448 135.891 175.84 135.315 176.16C134.755 176.48 134.139 176.728 133.467 176.904C132.811 177.08 132.179 177.168 131.571 177.168C129.715 177.168 128.251 176.632 127.179 175.56C126.107 174.472 125.571 172.992 125.571 171.12C125.571 169.92 125.803 168.856 126.267 167.928C126.747 167 127.411 166.28 128.259 165.768C129.123 165.256 130.099 165 131.187 165C132.755 165 133.995 165.504 134.907 166.512C135.819 167.52 136.275 168.88 136.275 170.592C136.275 171.232 135.987 171.552 135.411 171.552H127.995C128.155 174.032 129.347 175.272 131.571 175.272C132.163 175.272 132.675 175.192 133.107 175.032C133.539 174.872 133.995 174.664 134.475 174.408C134.523 174.376 134.651 174.312 134.859 174.216C135.083 174.104 135.267 174.048 135.411 174.048ZM131.235 166.776C130.307 166.776 129.563 167.072 129.003 167.664C128.443 168.256 128.107 169.088 127.995 170.16H134.187C134.139 169.072 133.859 168.24 133.347 167.664C132.851 167.072 132.147 166.776 131.235 166.776ZM145.34 165.048C146.108 165 146.492 165.328 146.492 166.032C146.492 166.384 146.404 166.648 146.228 166.824C146.052 167 145.748 167.104 145.316 167.136L144.596 167.208C143.588 167.304 142.836 167.656 142.34 168.264C141.86 168.872 141.62 169.608 141.62 170.472V175.968C141.62 176.352 141.508 176.64 141.284 176.832C141.06 177.024 140.772 177.12 140.42 177.12C140.068 177.12 139.772 177.024 139.532 176.832C139.308 176.64 139.196 176.352 139.196 175.968V166.2C139.196 165.832 139.308 165.552 139.532 165.36C139.772 165.152 140.068 165.048 140.42 165.048C140.74 165.048 141.004 165.152 141.212 165.36C141.436 165.552 141.548 165.824 141.548 166.176V167.328C141.868 166.624 142.332 166.088 142.94 165.72C143.548 165.352 144.236 165.136 145.004 165.072L145.34 165.048ZM164.509 165.048C164.877 165.048 165.165 165.16 165.373 165.384C165.597 165.592 165.709 165.872 165.709 166.224V176.064C165.709 177.856 165.229 179.208 164.269 180.12C163.325 181.032 161.925 181.488 160.069 181.488C158.341 181.488 156.901 181.16 155.749 180.504C155.157 180.168 154.861 179.768 154.861 179.304C154.861 179.032 154.933 178.808 155.077 178.632C155.237 178.456 155.429 178.368 155.653 178.368C155.861 178.368 156.189 178.488 156.637 178.728C157.213 179 157.749 179.208 158.245 179.352C158.741 179.512 159.333 179.592 160.021 179.592C162.229 179.592 163.333 178.48 163.333 176.256V174.408C162.997 175.112 162.485 175.664 161.797 176.064C161.109 176.448 160.309 176.64 159.397 176.64C158.373 176.64 157.461 176.4 156.661 175.92C155.861 175.44 155.237 174.76 154.789 173.88C154.357 173 154.141 171.984 154.141 170.832C154.141 169.68 154.365 168.664 154.813 167.784C155.261 166.904 155.877 166.224 156.661 165.744C157.461 165.248 158.373 165 159.397 165C160.293 165 161.077 165.192 161.749 165.576C162.437 165.96 162.957 166.504 163.309 167.208V166.2C163.309 165.848 163.413 165.568 163.621 165.36C163.845 165.152 164.141 165.048 164.509 165.048ZM159.973 174.72C161.013 174.72 161.829 174.376 162.421 173.688C163.013 173 163.309 172.048 163.309 170.832C163.309 169.632 163.013 168.688 162.421 168C161.845 167.296 161.029 166.944 159.973 166.944C158.917 166.944 158.085 167.288 157.477 167.976C156.885 168.664 156.589 169.616 156.589 170.832C156.589 172.048 156.893 173 157.501 173.688C158.109 174.376 158.933 174.72 159.973 174.72ZM174.424 177.168C173.272 177.168 172.256 176.92 171.376 176.424C170.512 175.928 169.84 175.224 169.36 174.312C168.896 173.384 168.664 172.312 168.664 171.096C168.664 169.864 168.896 168.792 169.36 167.88C169.84 166.952 170.512 166.24 171.376 165.744C172.256 165.248 173.272 165 174.424 165C175.576 165 176.584 165.248 177.448 165.744C178.328 166.24 179 166.952 179.464 167.88C179.944 168.792 180.184 169.864 180.184 171.096C180.184 172.312 179.944 173.384 179.464 174.312C179 175.224 178.328 175.928 177.448 176.424C176.584 176.92 175.576 177.168 174.424 177.168ZM174.424 175.248C175.496 175.248 176.312 174.896 176.872 174.192C177.448 173.488 177.736 172.456 177.736 171.096C177.736 169.752 177.448 168.728 176.872 168.024C176.296 167.304 175.48 166.944 174.424 166.944C173.368 166.944 172.552 167.304 171.976 168.024C171.4 168.728 171.112 169.752 171.112 171.096C171.112 172.456 171.392 173.488 171.952 174.192C172.528 174.896 173.352 175.248 174.424 175.248ZM188.221 177.168C187.069 177.168 186.053 176.92 185.173 176.424C184.309 175.928 183.637 175.224 183.157 174.312C182.693 173.384 182.461 172.312 182.461 171.096C182.461 169.864 182.693 168.792 183.157 167.88C183.637 166.952 184.309 166.24 185.173 165.744C186.053 165.248 187.069 165 188.221 165C189.373 165 190.381 165.248 191.245 165.744C192.125 166.24 192.797 166.952 193.261 167.88C193.741 168.792 193.981 169.864 193.981 171.096C193.981 172.312 193.741 173.384 193.261 174.312C192.797 175.224 192.125 175.928 191.245 176.424C190.381 176.92 189.373 177.168 188.221 177.168ZM188.221 175.248C189.293 175.248 190.109 174.896 190.669 174.192C191.245 173.488 191.533 172.456 191.533 171.096C191.533 169.752 191.245 168.728 190.669 168.024C190.093 167.304 189.277 166.944 188.221 166.944C187.165 166.944 186.349 167.304 185.773 168.024C185.197 168.728 184.909 169.752 184.909 171.096C184.909 172.456 185.189 173.488 185.749 174.192C186.325 174.896 187.149 175.248 188.221 175.248ZM206.506 159.96C206.874 159.96 207.17 160.064 207.394 160.272C207.618 160.48 207.73 160.76 207.73 161.112V175.944C207.73 176.312 207.618 176.6 207.394 176.808C207.186 177.016 206.898 177.12 206.53 177.12C206.162 177.12 205.866 177.016 205.642 176.808C205.434 176.6 205.33 176.312 205.33 175.944V174.984C204.978 175.688 204.466 176.232 203.794 176.616C203.122 176.984 202.346 177.168 201.466 177.168C200.458 177.168 199.554 176.912 198.754 176.4C197.97 175.888 197.354 175.168 196.906 174.24C196.474 173.312 196.258 172.248 196.258 171.048C196.258 169.832 196.474 168.768 196.906 167.856C197.354 166.944 197.97 166.24 198.754 165.744C199.538 165.248 200.442 165 201.466 165C202.346 165 203.114 165.192 203.77 165.576C204.442 165.944 204.954 166.472 205.306 167.16V161.064C205.306 160.728 205.41 160.464 205.618 160.272C205.842 160.064 206.138 159.96 206.506 159.96ZM202.042 175.248C203.082 175.248 203.89 174.888 204.466 174.168C205.042 173.448 205.33 172.424 205.33 171.096C205.33 169.768 205.042 168.744 204.466 168.024C203.906 167.304 203.098 166.944 202.042 166.944C200.986 166.944 200.162 167.304 199.57 168.024C198.994 168.728 198.706 169.736 198.706 171.048C198.706 172.36 199.002 173.392 199.594 174.144C200.186 174.88 201.002 175.248 202.042 175.248ZM215.44 177.168C213.808 177.168 212.472 176.832 211.432 176.16C211.144 175.984 210.936 175.8 210.808 175.608C210.696 175.416 210.64 175.2 210.64 174.96C210.64 174.704 210.712 174.488 210.856 174.312C211 174.136 211.184 174.048 211.408 174.048C211.616 174.048 211.944 174.176 212.392 174.432C212.872 174.688 213.336 174.896 213.784 175.056C214.248 175.216 214.824 175.296 215.512 175.296C216.28 175.296 216.88 175.16 217.312 174.888C217.744 174.616 217.96 174.232 217.96 173.736C217.96 173.416 217.872 173.16 217.696 172.968C217.536 172.776 217.248 172.608 216.832 172.464C216.416 172.304 215.8 172.136 214.984 171.96C213.576 171.656 212.56 171.248 211.936 170.736C211.328 170.208 211.024 169.496 211.024 168.6C211.024 167.912 211.224 167.296 211.624 166.752C212.024 166.192 212.576 165.76 213.28 165.456C213.984 165.152 214.784 165 215.68 165C216.32 165 216.944 165.088 217.552 165.264C218.16 165.424 218.696 165.664 219.16 165.984C219.688 166.336 219.952 166.744 219.952 167.208C219.952 167.464 219.872 167.68 219.712 167.856C219.568 168.032 219.392 168.12 219.184 168.12C219.04 168.12 218.896 168.088 218.752 168.024C218.608 167.96 218.416 167.856 218.176 167.712C217.744 167.456 217.336 167.256 216.952 167.112C216.584 166.968 216.12 166.896 215.56 166.896C214.888 166.896 214.344 167.04 213.928 167.328C213.528 167.616 213.328 168.008 213.328 168.504C213.328 168.952 213.512 169.304 213.88 169.56C214.264 169.8 214.976 170.032 216.016 170.256C217.088 170.48 217.928 170.736 218.536 171.024C219.144 171.312 219.576 171.672 219.832 172.104C220.104 172.52 220.24 173.056 220.24 173.712C220.24 174.752 219.8 175.592 218.92 176.232C218.056 176.856 216.896 177.168 215.44 177.168Z" fill="#384248"/>
<rect x="77" y="32" width="100" height="100" rx="4" fill="#F5F6F8"/>
<path d="M140.591 71.5133H148.283L155.976 81.9136V97.155H150.758C150.453 99.2942 149.387 101.252 147.754 102.668C146.122 104.084 144.034 104.864 141.873 104.864C139.712 104.864 137.624 104.084 135.992 102.668C134.359 101.252 133.293 99.2942 132.988 97.155H119.988C119.683 99.2942 118.617 101.252 116.984 102.668C115.352 104.084 113.264 104.864 111.103 104.864C108.942 104.864 106.854 104.084 105.222 102.668C103.589 101.252 102.523 99.2942 102.218 97.155H99.5642V66.385C99.5642 65.7049 99.8344 65.0527 100.315 64.5718C100.796 64.091 101.448 63.8208 102.128 63.8208H138.027C138.707 63.8208 139.359 64.091 139.84 64.5718C140.321 65.0527 140.591 65.7049 140.591 66.385V71.5133ZM140.591 76.6416V84.3341H150.848V83.6033L145.699 76.6416H140.591Z" fill="#73CBF2"/>
</svg>
