<svg width="255" height="206" viewBox="0 0 255 206" fill="none" xmlns="http://www.w3.org/2000/svg">
<path d="M108.854 179.76C108.998 180 109.07 180.232 109.07 180.456C109.07 180.744 108.958 180.976 108.734 181.152C108.51 181.344 108.246 181.44 107.942 181.44C107.43 181.44 107.022 181.2 106.718 180.72L105.326 178.416C104.814 177.6 103.974 177.192 102.806 177.192C101.206 177.192 99.8144 176.84 98.6304 176.136C97.4624 175.432 96.5584 174.432 95.9184 173.136C95.2784 171.84 94.9584 170.312 94.9584 168.552C94.9584 166.776 95.2704 165.24 95.8944 163.944C96.5344 162.632 97.4464 161.632 98.6304 160.944C99.8144 160.24 101.206 159.888 102.806 159.888C104.422 159.888 105.822 160.24 107.006 160.944C108.19 161.632 109.094 162.632 109.718 163.944C110.358 165.24 110.678 166.768 110.678 168.528C110.678 170.496 110.278 172.184 109.478 173.592C108.678 174.984 107.55 175.976 106.094 176.568C106.782 176.792 107.382 177.328 107.894 178.176L108.854 179.76ZM97.4784 168.528C97.4784 170.656 97.9424 172.296 98.8704 173.448C99.8144 174.6 101.126 175.176 102.806 175.176C104.502 175.176 105.822 174.6 106.766 173.448C107.71 172.296 108.182 170.656 108.182 168.528C108.182 166.4 107.71 164.768 106.766 163.632C105.838 162.48 104.518 161.904 102.806 161.904C101.126 161.904 99.8144 162.48 98.8704 163.632C97.9424 164.768 97.4784 166.4 97.4784 168.528ZM119.892 177.192C118.676 177.192 117.516 177.024 116.412 176.688C115.324 176.352 114.452 175.888 113.796 175.296C113.492 175.04 113.34 174.712 113.34 174.312C113.34 174.024 113.42 173.784 113.58 173.592C113.74 173.384 113.932 173.28 114.156 173.28C114.38 173.28 114.652 173.384 114.972 173.592C116.396 174.648 118.02 175.176 119.844 175.176C121.124 175.176 122.108 174.936 122.796 174.456C123.484 173.976 123.828 173.288 123.828 172.392C123.828 171.688 123.508 171.16 122.868 170.808C122.228 170.456 121.204 170.12 119.796 169.8C118.452 169.512 117.348 169.184 116.484 168.816C115.62 168.448 114.94 167.952 114.444 167.328C113.964 166.688 113.724 165.88 113.724 164.904C113.724 163.928 113.988 163.064 114.516 162.312C115.06 161.544 115.812 160.952 116.772 160.536C117.732 160.104 118.828 159.888 120.06 159.888C121.196 159.888 122.244 160.048 123.204 160.368C124.164 160.688 124.98 161.16 125.652 161.784C125.972 162.056 126.132 162.384 126.132 162.768C126.132 163.04 126.044 163.28 125.868 163.488C125.708 163.696 125.516 163.8 125.292 163.8C125.084 163.8 124.82 163.696 124.5 163.488C123.764 162.928 123.068 162.528 122.412 162.288C121.772 162.032 120.996 161.904 120.084 161.904C118.852 161.904 117.892 162.16 117.204 162.672C116.516 163.168 116.172 163.864 116.172 164.76C116.172 165.528 116.476 166.112 117.084 166.512C117.692 166.896 118.668 167.248 120.012 167.568C121.42 167.888 122.556 168.224 123.42 168.576C124.3 168.912 124.996 169.384 125.508 169.992C126.036 170.584 126.3 171.352 126.3 172.296C126.3 173.256 126.028 174.112 125.484 174.864C124.956 175.6 124.204 176.176 123.228 176.592C122.268 176.992 121.156 177.192 119.892 177.192ZM142.797 175.464C142.941 175.672 143.013 175.896 143.013 176.136C143.013 176.424 142.893 176.672 142.653 176.88C142.429 177.072 142.165 177.168 141.861 177.168C141.413 177.168 141.053 176.968 140.781 176.568L137.565 171.576C137.197 171 136.805 170.6 136.389 170.376C135.973 170.136 135.429 170.016 134.757 170.016H132.045V175.872C132.045 176.256 131.933 176.56 131.709 176.784C131.501 177.008 131.205 177.12 130.821 177.12C130.453 177.12 130.157 177.008 129.933 176.784C129.709 176.56 129.597 176.256 129.597 175.872V161.28C129.597 160.912 129.701 160.624 129.909 160.416C130.133 160.192 130.437 160.08 130.821 160.08H136.797C138.669 160.08 140.093 160.496 141.069 161.328C142.061 162.16 142.557 163.376 142.557 164.976C142.557 166.304 142.181 167.384 141.429 168.216C140.677 169.032 139.605 169.552 138.213 169.776C138.629 169.888 139.005 170.088 139.341 170.376C139.677 170.664 140.005 171.064 140.325 171.576L142.797 175.464ZM136.509 168.024C137.757 168.024 138.677 167.784 139.269 167.304C139.877 166.808 140.181 166.048 140.181 165.024C140.181 164 139.885 163.256 139.293 162.792C138.701 162.312 137.773 162.072 136.509 162.072H132.021V168.024H136.509ZM147.374 159.96C147.854 159.96 148.23 160.136 148.502 160.488C148.79 160.84 148.934 161.36 148.934 162.048C148.934 163.408 148.478 164.584 147.566 165.576C147.374 165.768 147.166 165.864 146.942 165.864C146.734 165.864 146.558 165.8 146.414 165.672C146.27 165.528 146.198 165.36 146.198 165.168C146.198 164.992 146.27 164.824 146.414 164.664C146.862 164.2 147.15 163.648 147.278 163.008C146.878 162.976 146.542 162.824 146.27 162.552C146.014 162.28 145.886 161.936 145.886 161.52C145.886 161.072 146.03 160.704 146.318 160.416C146.606 160.112 146.958 159.96 147.374 159.96ZM155.615 177.168C153.983 177.168 152.647 176.832 151.607 176.16C151.319 175.984 151.111 175.8 150.983 175.608C150.871 175.416 150.815 175.2 150.815 174.96C150.815 174.704 150.887 174.488 151.031 174.312C151.175 174.136 151.359 174.048 151.583 174.048C151.791 174.048 152.119 174.176 152.567 174.432C153.047 174.688 153.511 174.896 153.959 175.056C154.423 175.216 154.999 175.296 155.687 175.296C156.455 175.296 157.055 175.16 157.487 174.888C157.919 174.616 158.135 174.232 158.135 173.736C158.135 173.416 158.047 173.16 157.871 172.968C157.711 172.776 157.423 172.608 157.007 172.464C156.591 172.304 155.975 172.136 155.159 171.96C153.751 171.656 152.735 171.248 152.111 170.736C151.503 170.208 151.199 169.496 151.199 168.6C151.199 167.912 151.399 167.296 151.799 166.752C152.199 166.192 152.751 165.76 153.455 165.456C154.159 165.152 154.959 165 155.855 165C156.495 165 157.119 165.088 157.727 165.264C158.335 165.424 158.871 165.664 159.335 165.984C159.863 166.336 160.127 166.744 160.127 167.208C160.127 167.464 160.047 167.68 159.887 167.856C159.743 168.032 159.567 168.12 159.359 168.12C159.215 168.12 159.071 168.088 158.927 168.024C158.783 167.96 158.591 167.856 158.351 167.712C157.919 167.456 157.511 167.256 157.127 167.112C156.759 166.968 156.295 166.896 155.735 166.896C155.063 166.896 154.519 167.04 154.103 167.328C153.703 167.616 153.503 168.008 153.503 168.504C153.503 168.952 153.687 169.304 154.055 169.56C154.439 169.8 155.151 170.032 156.191 170.256C157.263 170.48 158.103 170.736 158.711 171.024C159.319 171.312 159.751 171.672 160.007 172.104C160.279 172.52 160.415 173.056 160.415 173.712C160.415 174.752 159.975 175.592 159.095 176.232C158.231 176.856 157.071 177.168 155.615 177.168Z" fill="#384248"/>
<rect x="77" y="32" width="100" height="100" rx="4" fill="#F5F6F8"/>
<path d="M149.847 56.1283V107.412H144.719V86.8983H137.027V68.9491C137.027 65.5488 138.377 62.2878 140.782 59.8834C143.186 57.4791 146.447 56.1283 149.847 56.1283ZM119.077 86.6419V107.412H113.949V86.6419C111.054 86.0499 108.451 84.4761 106.583 82.1867C104.714 79.8973 103.693 77.0328 103.692 74.0775V58.6925H108.821V76.6416H113.949V58.6925H119.077V76.6416H124.206V58.6925H129.334V74.0775C129.334 77.0328 128.313 79.8973 126.444 82.1867C124.575 84.4761 121.973 86.0499 119.077 86.6419Z" fill="#73CBF2"/>
</svg>
