<svg width="158" height="29" viewBox="0 0 158 29" fill="none" xmlns="http://www.w3.org/2000/svg">
<path fill-rule="evenodd" clip-rule="evenodd" d="M24.0904 2.13429C20.4992 7.32397 11.4448 20.3511 11.4448 20.3511L0.44549 4.8218C0.44549 4.8218 -0.556863 3.38537 0.44549 1.75698C0.44549 1.75698 0.777395 1.03545 1.64035 0.51251C2.05855 0.26097 2.60951 0.0557654 3.30651 0.00280948C3.30651 0.00280948 4.21593 -0.0700049 5.64312 0.52575C5.64312 0.52575 12.5136 3.30594 24.0904 2.13429Z" fill="#FFDD00"/>
<path fill-rule="evenodd" clip-rule="evenodd" d="M34.5984 0.029654C34.5984 0.029654 35.0764 0.0362735 35.6605 0.221619C36.3111 0.426824 37.0412 0.843852 37.4594 1.75072C37.4594 1.75072 38.2693 3.23349 37.2404 4.81555L21.8267 27.3549C21.8267 27.3549 20.904 28.8377 19.1582 28.9966C19.1582 28.9966 17.4655 29.1819 16.3237 27.1365L11.3518 20.2191C11.3518 20.2191 20.4261 7.33096 24.0837 2.13465C24.0837 2.13465 29.5867 1.38003 33.2708 0.267956C33.2708 0.267956 34.1537 -0.00344343 34.5984 0.029654Z" fill="#73CBF2"/>
<path fill-rule="evenodd" clip-rule="evenodd" d="M19.0456 28.9967H7.46214C7.05058 28.9768 6.72531 28.765 6.72531 28.765C5.9752 28.0236 6.4797 27.2293 6.4797 27.2293C6.4797 27.2293 9.76556 22.4831 11.3454 20.2258L17.2334 28.1427C17.2401 28.1427 17.791 28.9702 19.0456 28.9967Z" fill="#F27264"/>
<path d="M54.0215 19.7822L48.2464 7.29785H45.4053L52.6607 22.7676L52.2757 23.6215C51.4526 25.4617 50.3639 26.3488 48.95 26.3488C48.2265 26.3488 47.3768 26.1766 46.7794 25.9052L45.8368 25.475V28.2022L46.2881 28.3545C47.1909 28.6523 48.2198 28.8377 49.0297 28.8377C52.8665 28.8377 54.3667 25.3492 55.004 23.8598L62.0403 7.30447H59.2523L54.0215 19.7822Z" fill="#231F20"/>
<path d="M69.9929 7C65.4856 7 62.0869 10.4024 62.0869 14.9169C62.0869 19.4116 65.4591 22.8007 69.9331 22.8007C72.9402 22.8007 75.6817 21.2385 76.9297 18.8158L77.2417 18.2134L75.0113 17.1344L74.7126 17.6971C73.8231 19.3718 72.0109 20.4045 69.9929 20.4045C67.3775 20.4045 65.2865 18.6635 64.7886 16.168H77.4408L77.5338 15.6186C77.5736 15.3803 77.6001 14.9765 77.6001 14.6455C77.6068 10.2171 74.4072 7 69.9929 7ZM64.7422 13.8115C65.1736 11.2497 67.3111 9.39626 69.9663 9.39626C72.5817 9.39626 74.6064 11.2166 74.9914 13.8115H64.7422Z" fill="#231F20"/>
<path d="M82.7314 0.347412H80.1824V22.5029H82.7314V0.347412Z" fill="#231F20"/>
<path d="M89.0839 0.347412H86.5349V22.5029H89.0839V0.347412Z" fill="#231F20"/>
<path d="M99.5656 6.97363C95.0584 6.97363 91.6597 10.3893 91.6597 14.917C91.6597 19.4117 95.0584 22.8008 99.5656 22.8008C104.093 22.8008 107.505 19.4117 107.505 14.917C107.505 10.3893 104.093 6.97363 99.5656 6.97363ZM104.923 14.917C104.923 18.0149 102.632 20.345 99.5922 20.345C96.5387 20.345 94.2353 18.0083 94.2353 14.917C94.2353 11.8059 96.5387 9.45594 99.5922 9.45594C102.632 9.45594 104.923 11.8059 104.923 14.917Z" fill="#231F20"/>
<path d="M128.733 7.29785L124.544 18.273L120.721 7.29785H118.617L114.793 18.2796L110.571 7.29785H107.77L113.811 22.5028H115.868L119.679 11.5409L123.443 22.5028H125.5L131.541 7.29785H128.733Z" fill="#231F20"/>
<path d="M132.597 19.4248C131.621 19.4248 130.831 20.1993 130.831 21.1591C130.831 22.1454 131.588 22.8934 132.597 22.8934C133.552 22.8934 134.303 22.1322 134.303 21.1591C134.303 20.2059 133.533 19.4248 132.597 19.4248Z" fill="#231F20"/>
<path d="M148.588 9.19767C147.22 7.79434 145.342 7 143.264 7C138.909 7 135.624 10.4024 135.624 14.9169C135.624 19.4116 138.896 22.8007 143.231 22.8007C145.315 22.8007 147.207 21.9932 148.588 20.57V22.5029H151.137V7.29788H148.588V9.19767ZM148.561 14.8242C148.561 17.9685 146.324 20.3449 143.35 20.3449C140.436 20.3449 138.232 18.0082 138.232 14.9169C138.232 11.8058 140.443 9.45583 143.377 9.45583C146.337 9.45583 148.561 11.766 148.561 14.8242Z" fill="#231F20"/>
<path d="M157.496 7.29785H154.914V22.5028H157.496V7.29785Z" fill="#231F20"/>
<path d="M158.001 4.18681C158.001 3.20051 157.197 2.42603 156.175 2.42603C155.166 2.42603 154.376 3.20051 154.376 4.18681C154.376 5.20621 155.166 6.00717 156.175 6.00717C157.211 6.00717 158.001 5.22607 158.001 4.18681Z" fill="#231F20"/>
</svg>
