<svg width="263" height="245" viewBox="0 0 263 245" fill="none" xmlns="http://www.w3.org/2000/svg">
<g filter="url(#filter0_d)">
<rect x="4" width="255" height="237" rx="4" fill="white"/>
</g>
<g filter="url(#filter1_d)">
<path d="M129.5 70C119.56 70 111.5 78.0595 111.5 88C111.5 97.9405 119.56 106 129.5 106C139.441 106 147.5 97.9405 147.5 88C147.5 78.0595 139.441 70 129.5 70Z" fill="url(#paint0_linear)"/>
<path d="M145.25 88C136.552 88 129.5 95.0515 129.5 103.75C129.5 112.448 136.552 119.5 145.25 119.5C153.949 119.5 161 112.448 161 103.75C161 95.0515 153.949 88 145.25 88Z" fill="url(#paint1_linear)"/>
<path d="M131 106C124.373 106 119 111.373 119 118C119 124.627 124.373 130 131 130C137.627 130 143 124.627 143 118C143 111.373 137.627 106 131 106Z" fill="url(#paint2_linear)"/>
<path opacity="0.05" d="M128.479 83.5H112.089C111.719 84.9415 111.5 86.443 111.5 88C111.5 97.9405 119.56 106 129.5 106C129.56 106 129.617 105.991 129.677 105.991C129.682 106.019 129.686 106.046 129.691 106.075C123.68 106.727 119 111.815 119 118C119 118.508 119.042 119.008 119.104 119.5H128.479C131.528 119.5 134 117.028 134 113.978V89.0215C134 85.972 131.528 83.5 128.479 83.5Z" fill="black"/>
<path opacity="0.07" d="M119 118H128.319C130.905 118 133.001 115.905 133.001 113.319V88.681C133.001 86.095 130.905 83.9995 128.319 83.9995H111.962C111.668 85.288 111.5 86.623 111.5 88C111.5 97.9405 119.559 106 129.5 106C129.56 106 129.617 105.991 129.677 105.991C129.681 106.02 129.686 106.047 129.69 106.075C123.68 106.728 119 111.816 119 118Z" fill="black"/>
<path opacity="0.09" d="M128.159 84.5005H111.846C111.623 85.633 111.5 86.8015 111.5 88C111.5 97.9405 119.56 106 129.5 106C129.56 106 129.617 105.991 129.677 105.991C129.682 106.019 129.686 106.046 129.691 106.075C124.175 106.675 119.791 111.011 119.105 116.5H128.161C130.282 116.5 132.001 114.781 132.001 112.66V88.3405C132.001 86.2195 130.28 84.5005 128.159 84.5005Z" fill="black"/>
<path d="M128 115H104C102.343 115 101 113.658 101 112V88C101 86.3425 102.343 85 104 85H128C129.658 85 131 86.3425 131 88V112C131 113.658 129.658 115 128 115Z" fill="url(#paint3_linear)"/>
<path d="M110.648 107.125V103.678C111.287 104.202 114.235 105.25 114.998 105.25C115.447 105.25 118.205 105.382 118.205 103.689C118.205 101.239 110.582 101.448 110.582 96.601C110.582 95.797 110.681 92.0125 116.782 92.0125C118.343 92.0125 120.188 92.404 120.724 92.605V95.8255C120.46 95.6455 119.389 94.7485 116.98 94.7485C114.164 94.7485 113.92 96.073 113.92 96.31C113.92 98.3485 121.417 98.626 121.417 103.377C121.417 108.135 115.996 107.988 115.151 107.988C114.286 107.988 111.221 107.413 110.648 107.125Z" fill="white"/>
<path d="M53.8077 168V156.72H55.5197L59.5197 164.096L63.5037 156.72H65.1837V168H63.3277V160.4L60.0957 166.288H58.8957L55.6637 160.432V168H53.8077ZM67.4964 158.496V156.544H69.7364V158.496H67.4964ZM67.6244 168V160.176H69.6244V168H67.6244ZM75.4685 168.16C74.6472 168.16 73.9325 167.995 73.3245 167.664C72.7165 167.323 72.2472 166.843 71.9165 166.224C71.5858 165.605 71.4205 164.88 71.4205 164.048C71.4205 163.216 71.5858 162.501 71.9165 161.904C72.2472 161.296 72.7165 160.832 73.3245 160.512C73.9325 160.181 74.6472 160.016 75.4685 160.016C75.9698 160.016 76.4658 160.096 76.9565 160.256C77.4472 160.416 77.8525 160.64 78.1725 160.928L77.5805 162.32C77.3032 162.075 76.9885 161.888 76.6365 161.76C76.2952 161.632 75.9645 161.568 75.6445 161.568C74.9512 161.568 74.4125 161.787 74.0285 162.224C73.6552 162.651 73.4685 163.264 73.4685 164.064C73.4685 164.853 73.6552 165.477 74.0285 165.936C74.4125 166.384 74.9512 166.608 75.6445 166.608C75.9538 166.608 76.2845 166.544 76.6365 166.416C76.9885 166.288 77.3032 166.096 77.5805 165.84L78.1725 167.248C77.8525 167.525 77.4418 167.749 76.9405 167.92C76.4498 168.08 75.9592 168.16 75.4685 168.16ZM79.5494 168V160.176H81.5014V161.552C81.8854 160.624 82.7067 160.112 83.9654 160.016L84.5734 159.968L84.7014 161.664L83.5494 161.776C82.2374 161.904 81.5814 162.576 81.5814 163.792V168H79.5494ZM89.408 168.16C88.5973 168.16 87.8933 167.995 87.296 167.664C86.6987 167.333 86.2347 166.864 85.904 166.256C85.5733 165.637 85.408 164.912 85.408 164.08C85.408 163.248 85.5733 162.528 85.904 161.92C86.2347 161.312 86.6987 160.843 87.296 160.512C87.8933 160.181 88.5973 160.016 89.408 160.016C90.2187 160.016 90.9227 160.181 91.52 160.512C92.1173 160.843 92.5813 161.312 92.912 161.92C93.2427 162.528 93.408 163.248 93.408 164.08C93.408 164.912 93.2427 165.637 92.912 166.256C92.5813 166.864 92.1173 167.333 91.52 167.664C90.9227 167.995 90.2187 168.16 89.408 168.16ZM89.408 166.64C90.0053 166.64 90.4853 166.427 90.848 166C91.2107 165.563 91.392 164.923 91.392 164.08C91.392 163.227 91.2107 162.592 90.848 162.176C90.4853 161.749 90.0053 161.536 89.408 161.536C88.8107 161.536 88.3307 161.749 87.968 162.176C87.6053 162.592 87.424 163.227 87.424 164.08C87.424 164.923 87.6053 165.563 87.968 166C88.3307 166.427 88.8107 166.64 89.408 166.64ZM98.0727 168.16C97.4114 168.16 96.7927 168.08 96.2167 167.92C95.6407 167.76 95.1607 167.531 94.7767 167.232L95.2887 165.92C95.6834 166.187 96.1261 166.395 96.6167 166.544C97.1074 166.683 97.5981 166.752 98.0887 166.752C98.6007 166.752 98.9794 166.667 99.2247 166.496C99.4807 166.315 99.6087 166.08 99.6087 165.792C99.6087 165.344 99.2781 165.056 98.6167 164.928L97.0167 164.624C95.6621 164.368 94.9847 163.664 94.9847 162.512C94.9847 162 95.1234 161.557 95.4007 161.184C95.6887 160.811 96.0834 160.523 96.5847 160.32C97.0861 160.117 97.6621 160.016 98.3127 160.016C98.8674 160.016 99.4007 160.096 99.9127 160.256C100.425 160.405 100.862 160.635 101.225 160.944L100.681 162.256C100.371 162 99.9981 161.797 99.5607 161.648C99.1341 161.499 98.7234 161.424 98.3287 161.424C97.8061 161.424 97.4167 161.515 97.1607 161.696C96.9154 161.877 96.7927 162.117 96.7927 162.416C96.7927 162.885 97.0967 163.173 97.7047 163.28L99.3047 163.584C99.9981 163.712 100.521 163.947 100.873 164.288C101.235 164.629 101.417 165.088 101.417 165.664C101.417 166.443 101.113 167.056 100.505 167.504C99.8967 167.941 99.0861 168.16 98.0727 168.16ZM106.739 168.16C105.929 168.16 105.225 167.995 104.627 167.664C104.03 167.333 103.566 166.864 103.235 166.256C102.905 165.637 102.739 164.912 102.739 164.08C102.739 163.248 102.905 162.528 103.235 161.92C103.566 161.312 104.03 160.843 104.627 160.512C105.225 160.181 105.929 160.016 106.739 160.016C107.55 160.016 108.254 160.181 108.851 160.512C109.449 160.843 109.913 161.312 110.243 161.92C110.574 162.528 110.739 163.248 110.739 164.08C110.739 164.912 110.574 165.637 110.243 166.256C109.913 166.864 109.449 167.333 108.851 167.664C108.254 167.995 107.55 168.16 106.739 168.16ZM106.739 166.64C107.337 166.64 107.817 166.427 108.179 166C108.542 165.563 108.723 164.923 108.723 164.08C108.723 163.227 108.542 162.592 108.179 162.176C107.817 161.749 107.337 161.536 106.739 161.536C106.142 161.536 105.662 161.749 105.299 162.176C104.937 162.592 104.755 163.227 104.755 164.08C104.755 164.923 104.937 165.563 105.299 166C105.662 166.427 106.142 166.64 106.739 166.64ZM112.99 168V161.68H111.486V160.176H112.99V160.16C112.99 159.051 113.278 158.213 113.854 157.648C114.441 157.083 115.347 156.763 116.574 156.688L117.358 156.64L117.486 158.112L116.75 158.16C116.11 158.203 115.657 158.363 115.39 158.64C115.123 158.907 114.99 159.307 114.99 159.84V160.176H117.118V161.68H114.99V168H112.99ZM121.571 168.16C119.502 168.16 118.467 167.136 118.467 165.088V161.68H116.963V160.176H118.467V157.84H120.467V160.176H122.835V161.68H120.467V164.976C120.467 165.488 120.579 165.872 120.803 166.128C121.027 166.384 121.39 166.512 121.891 166.512C122.04 166.512 122.195 166.496 122.355 166.464C122.515 166.421 122.68 166.379 122.851 166.336L123.155 167.808C122.963 167.915 122.718 168 122.419 168.064C122.131 168.128 121.848 168.16 121.571 168.16ZM132.82 168.16C131.935 168.16 131.113 168.048 130.356 167.824C129.599 167.589 128.959 167.275 128.436 166.88L129.06 165.264C129.583 165.637 130.153 165.925 130.772 166.128C131.401 166.331 132.084 166.432 132.82 166.432C133.663 166.432 134.276 166.293 134.66 166.016C135.044 165.728 135.236 165.36 135.236 164.912C135.236 164.539 135.097 164.245 134.82 164.032C134.553 163.819 134.089 163.643 133.428 163.504L131.668 163.136C129.663 162.709 128.66 161.68 128.66 160.048C128.66 159.344 128.847 158.731 129.22 158.208C129.593 157.685 130.111 157.28 130.772 156.992C131.433 156.704 132.196 156.56 133.06 156.56C133.828 156.56 134.548 156.677 135.22 156.912C135.892 157.136 136.452 157.456 136.9 157.872L136.276 159.408C135.391 158.661 134.313 158.288 133.044 158.288C132.308 158.288 131.732 158.443 131.316 158.752C130.9 159.061 130.692 159.467 130.692 159.968C130.692 160.352 130.82 160.661 131.076 160.896C131.332 161.12 131.769 161.296 132.388 161.424L134.132 161.792C135.188 162.016 135.972 162.368 136.484 162.848C137.007 163.328 137.268 163.968 137.268 164.768C137.268 165.44 137.087 166.032 136.724 166.544C136.361 167.056 135.844 167.456 135.172 167.744C134.511 168.021 133.727 168.16 132.82 168.16ZM138.984 168V156.72H140.984V161.312C141.25 160.885 141.608 160.565 142.056 160.352C142.504 160.128 143 160.016 143.544 160.016C145.389 160.016 146.312 161.088 146.312 163.232V168H144.312V163.328C144.312 162.72 144.194 162.277 143.96 162C143.736 161.723 143.384 161.584 142.904 161.584C142.317 161.584 141.848 161.771 141.496 162.144C141.154 162.507 140.984 162.992 140.984 163.6V168H138.984ZM151.069 168.16C150.504 168.16 149.997 168.053 149.549 167.84C149.112 167.616 148.765 167.317 148.509 166.944C148.264 166.571 148.141 166.149 148.141 165.68C148.141 165.104 148.29 164.651 148.589 164.32C148.888 163.979 149.373 163.733 150.045 163.584C150.717 163.435 151.618 163.36 152.749 163.36H153.309V163.024C153.309 162.491 153.192 162.107 152.957 161.872C152.722 161.637 152.328 161.52 151.773 161.52C151.336 161.52 150.888 161.589 150.429 161.728C149.97 161.856 149.506 162.059 149.037 162.336L148.461 160.976C148.738 160.784 149.064 160.619 149.437 160.48C149.821 160.331 150.221 160.219 150.637 160.144C151.064 160.059 151.464 160.016 151.837 160.016C152.978 160.016 153.826 160.283 154.381 160.816C154.936 161.339 155.213 162.155 155.213 163.264V168H153.341V166.752C153.16 167.189 152.872 167.536 152.477 167.792C152.082 168.037 151.613 168.16 151.069 168.16ZM151.485 166.784C152.008 166.784 152.44 166.603 152.781 166.24C153.133 165.877 153.309 165.419 153.309 164.864V164.512H152.765C151.762 164.512 151.064 164.592 150.669 164.752C150.285 164.901 150.093 165.179 150.093 165.584C150.093 165.936 150.216 166.224 150.461 166.448C150.706 166.672 151.048 166.784 151.485 166.784ZM157.393 168V160.176H159.345V161.552C159.729 160.624 160.55 160.112 161.809 160.016L162.417 159.968L162.545 161.664L161.393 161.776C160.081 161.904 159.425 162.576 159.425 163.792V168H157.393ZM167.54 168.16C166.654 168.16 165.892 167.995 165.252 167.664C164.612 167.333 164.116 166.864 163.764 166.256C163.422 165.648 163.252 164.928 163.252 164.096C163.252 163.285 163.417 162.576 163.748 161.968C164.089 161.36 164.553 160.885 165.14 160.544C165.737 160.192 166.414 160.016 167.172 160.016C168.281 160.016 169.156 160.368 169.796 161.072C170.446 161.776 170.772 162.736 170.772 163.952V164.544H165.172C165.321 165.941 166.121 166.64 167.572 166.64C168.009 166.64 168.446 166.576 168.884 166.448C169.321 166.309 169.721 166.096 170.084 165.808L170.644 167.152C170.27 167.461 169.801 167.707 169.236 167.888C168.67 168.069 168.105 168.16 167.54 168.16ZM167.252 161.376C166.665 161.376 166.19 161.557 165.828 161.92C165.465 162.283 165.246 162.773 165.172 163.392H169.108C169.065 162.741 168.884 162.245 168.564 161.904C168.254 161.552 167.817 161.376 167.252 161.376ZM172.506 170.88V160.176H174.458V161.424C174.682 160.997 175.018 160.656 175.466 160.4C175.924 160.144 176.442 160.016 177.018 160.016C177.7 160.016 178.298 160.181 178.81 160.512C179.332 160.843 179.738 161.312 180.026 161.92C180.314 162.517 180.458 163.237 180.458 164.08C180.458 164.912 180.314 165.637 180.026 166.256C179.738 166.864 179.338 167.333 178.826 167.664C178.314 167.995 177.711 168.16 177.018 168.16C176.463 168.16 175.962 168.043 175.514 167.808C175.076 167.563 174.74 167.237 174.506 166.832V170.88H172.506ZM176.458 166.64C177.055 166.64 177.535 166.427 177.898 166C178.26 165.563 178.442 164.923 178.442 164.08C178.442 163.227 178.26 162.592 177.898 162.176C177.535 161.749 177.055 161.536 176.458 161.536C175.86 161.536 175.38 161.749 175.018 162.176C174.655 162.592 174.474 163.227 174.474 164.08C174.474 164.923 174.655 165.563 175.018 166C175.38 166.427 175.86 166.64 176.458 166.64ZM185.817 168.16C185.007 168.16 184.303 167.995 183.705 167.664C183.108 167.333 182.644 166.864 182.313 166.256C181.983 165.637 181.817 164.912 181.817 164.08C181.817 163.248 181.983 162.528 182.313 161.92C182.644 161.312 183.108 160.843 183.705 160.512C184.303 160.181 185.007 160.016 185.817 160.016C186.628 160.016 187.332 160.181 187.929 160.512C188.527 160.843 188.991 161.312 189.321 161.92C189.652 162.528 189.817 163.248 189.817 164.08C189.817 164.912 189.652 165.637 189.321 166.256C188.991 166.864 188.527 167.333 187.929 167.664C187.332 167.995 186.628 168.16 185.817 168.16ZM185.817 166.64C186.415 166.64 186.895 166.427 187.257 166C187.62 165.563 187.801 164.923 187.801 164.08C187.801 163.227 187.62 162.592 187.257 162.176C186.895 161.749 186.415 161.536 185.817 161.536C185.22 161.536 184.74 161.749 184.377 162.176C184.015 162.592 183.833 163.227 183.833 164.08C183.833 164.923 184.015 165.563 184.377 166C184.74 166.427 185.22 166.64 185.817 166.64ZM191.49 158.496V156.544H193.73V158.496H191.49ZM191.618 168V160.176H193.618V168H191.618ZM195.846 168V160.176H197.798V161.392C198.065 160.944 198.422 160.603 198.87 160.368C199.329 160.133 199.841 160.016 200.406 160.016C202.252 160.016 203.174 161.088 203.174 163.232V168H201.174V163.328C201.174 162.72 201.057 162.277 200.822 162C200.598 161.723 200.246 161.584 199.766 161.584C199.18 161.584 198.71 161.771 198.358 162.144C198.017 162.507 197.846 162.992 197.846 163.6V168H195.846ZM208.94 168.16C206.87 168.16 205.836 167.136 205.836 165.088V161.68H204.332V160.176H205.836V157.84H207.836V160.176H210.204V161.68H207.836V164.976C207.836 165.488 207.948 165.872 208.172 166.128C208.396 166.384 208.758 166.512 209.26 166.512C209.409 166.512 209.564 166.496 209.724 166.464C209.884 166.421 210.049 166.379 210.22 166.336L210.524 167.808C210.332 167.915 210.086 168 209.788 168.064C209.5 168.128 209.217 168.16 208.94 168.16Z" fill="#384248"/>
</g>
<defs>
<filter id="filter0_d" x="0" y="0" width="263" height="245" filterUnits="userSpaceOnUse" color-interpolation-filters="sRGB">
<feFlood flood-opacity="0" result="BackgroundImageFix"/>
<feColorMatrix in="SourceAlpha" type="matrix" values="0 0 0 0 0 0 0 0 0 0 0 0 0 0 0 0 0 0 127 0"/>
<feOffset dy="4"/>
<feGaussianBlur stdDeviation="2"/>
<feColorMatrix type="matrix" values="0 0 0 0 0 0 0 0 0 0 0 0 0 0 0 0 0 0 0.25 0"/>
<feBlend mode="normal" in2="BackgroundImageFix" result="effect1_dropShadow"/>
<feBlend mode="normal" in="SourceGraphic" in2="effect1_dropShadow" result="shape"/>
</filter>
<filter id="filter1_d" x="49.8077" y="64" width="164.716" height="114.88" filterUnits="userSpaceOnUse" color-interpolation-filters="sRGB">
<feFlood flood-opacity="0" result="BackgroundImageFix"/>
<feColorMatrix in="SourceAlpha" type="matrix" values="0 0 0 0 0 0 0 0 0 0 0 0 0 0 0 0 0 0 127 0"/>
<feOffset dy="4"/>
<feGaussianBlur stdDeviation="2"/>
<feColorMatrix type="matrix" values="0 0 0 0 0 0 0 0 0 0 0 0 0 0 0 0 0 0 0.25 0"/>
<feBlend mode="normal" in2="BackgroundImageFix" result="effect1_dropShadow"/>
<feBlend mode="normal" in="SourceGraphic" in2="effect1_dropShadow" result="shape"/>
</filter>
<linearGradient id="paint0_linear" x1="119.218" y1="73.642" x2="134.565" y2="95.0725" gradientUnits="userSpaceOnUse">
<stop stop-color="#048489"/>
<stop offset="1" stop-color="#03676A"/>
</linearGradient>
<linearGradient id="paint1_linear" x1="135.683" y1="91.924" x2="156.535" y2="117.698" gradientUnits="userSpaceOnUse">
<stop stop-color="#18939A"/>
<stop offset="0.41" stop-color="#168C93"/>
<stop offset="1" stop-color="#117981"/>
</linearGradient>
<linearGradient id="paint2_linear" x1="119" y1="118" x2="143" y2="118" gradientUnits="userSpaceOnUse">
<stop stop-color="#37C6D0"/>
<stop offset="1" stop-color="#37C6D0"/>
</linearGradient>
<linearGradient id="paint3_linear" x1="101.879" y1="85.879" x2="130.121" y2="114.121" gradientUnits="userSpaceOnUse">
<stop stop-color="#058F92"/>
<stop offset="1" stop-color="#027074"/>
</linearGradient>
</defs>
</svg>
