<svg width="255" height="206" viewBox="0 0 255 206" fill="none" xmlns="http://www.w3.org/2000/svg">
<path d="M110.5 175.464C110.644 175.672 110.716 175.896 110.716 176.136C110.716 176.424 110.596 176.672 110.356 176.88C110.132 177.072 109.868 177.168 109.564 177.168C109.116 177.168 108.756 176.968 108.484 176.568L105.268 171.576C104.9 171 104.508 170.6 104.092 170.376C103.676 170.136 103.132 170.016 102.46 170.016H99.748V175.872C99.748 176.256 99.636 176.56 99.412 176.784C99.204 177.008 98.908 177.12 98.524 177.12C98.156 177.12 97.86 177.008 97.636 176.784C97.412 176.56 97.3 176.256 97.3 175.872V161.28C97.3 160.912 97.404 160.624 97.612 160.416C97.836 160.192 98.14 160.08 98.524 160.08H104.5C106.372 160.08 107.796 160.496 108.772 161.328C109.764 162.16 110.26 163.376 110.26 164.976C110.26 166.304 109.884 167.384 109.132 168.216C108.38 169.032 107.308 169.552 105.916 169.776C106.332 169.888 106.708 170.088 107.044 170.376C107.38 170.664 107.708 171.064 108.028 171.576L110.5 175.464ZM104.212 168.024C105.46 168.024 106.38 167.784 106.972 167.304C107.58 166.808 107.884 166.048 107.884 165.024C107.884 164 107.588 163.256 106.996 162.792C106.404 162.312 105.476 162.072 104.212 162.072H99.724V168.024H104.212ZM123 174.048C123.224 174.048 123.408 174.136 123.552 174.312C123.696 174.488 123.768 174.712 123.768 174.984C123.768 175.448 123.48 175.84 122.904 176.16C122.344 176.48 121.728 176.728 121.056 176.904C120.4 177.08 119.768 177.168 119.16 177.168C117.304 177.168 115.84 176.632 114.768 175.56C113.696 174.472 113.16 172.992 113.16 171.12C113.16 169.92 113.392 168.856 113.856 167.928C114.336 167 115 166.28 115.848 165.768C116.712 165.256 117.688 165 118.776 165C120.344 165 121.584 165.504 122.496 166.512C123.408 167.52 123.864 168.88 123.864 170.592C123.864 171.232 123.576 171.552 123 171.552H115.584C115.744 174.032 116.936 175.272 119.16 175.272C119.752 175.272 120.264 175.192 120.696 175.032C121.128 174.872 121.584 174.664 122.064 174.408C122.112 174.376 122.24 174.312 122.448 174.216C122.672 174.104 122.856 174.048 123 174.048ZM118.824 166.776C117.896 166.776 117.152 167.072 116.592 167.664C116.032 168.256 115.696 169.088 115.584 170.16H121.776C121.728 169.072 121.448 168.24 120.936 167.664C120.44 167.072 119.736 166.776 118.824 166.776ZM132.404 175.272C132.756 175.304 133.004 175.4 133.148 175.56C133.308 175.704 133.388 175.912 133.388 176.184C133.388 176.504 133.26 176.752 133.004 176.928C132.764 177.088 132.404 177.152 131.924 177.12L131.276 177.072C129.98 176.976 129.012 176.584 128.372 175.896C127.732 175.192 127.412 174.16 127.412 172.8V167.16H125.972C125.268 167.16 124.916 166.848 124.916 166.224C124.916 165.936 125.004 165.712 125.18 165.552C125.372 165.376 125.636 165.288 125.972 165.288H127.412V162.816C127.412 162.448 127.516 162.16 127.724 161.952C127.948 161.744 128.244 161.64 128.612 161.64C128.98 161.64 129.276 161.744 129.5 161.952C129.724 162.16 129.836 162.448 129.836 162.816V165.288H132.212C132.548 165.288 132.804 165.376 132.98 165.552C133.172 165.712 133.268 165.936 133.268 166.224C133.268 166.528 133.172 166.76 132.98 166.92C132.804 167.08 132.548 167.16 132.212 167.16H129.836V172.968C129.836 173.72 129.988 174.272 130.292 174.624C130.612 174.976 131.092 175.176 131.732 175.224L132.404 175.272ZM140.299 165C141.851 165 143.003 165.392 143.755 166.176C144.523 166.96 144.907 168.152 144.907 169.752V175.968C144.907 176.336 144.803 176.624 144.595 176.832C144.387 177.024 144.099 177.12 143.731 177.12C143.379 177.12 143.099 177.016 142.891 176.808C142.683 176.6 142.579 176.32 142.579 175.968V175.08C142.275 175.752 141.819 176.272 141.211 176.64C140.619 176.992 139.923 177.168 139.123 177.168C138.355 177.168 137.651 177.016 137.011 176.712C136.387 176.392 135.891 175.96 135.523 175.416C135.155 174.872 134.971 174.256 134.971 173.568C134.955 172.704 135.171 172.032 135.619 171.552C136.067 171.056 136.795 170.704 137.803 170.496C138.811 170.272 140.211 170.16 142.003 170.16H142.555V169.464C142.555 168.568 142.371 167.92 142.003 167.52C141.635 167.12 141.043 166.92 140.227 166.92C139.667 166.92 139.139 166.992 138.643 167.136C138.147 167.28 137.603 167.488 137.011 167.76C136.579 168 136.275 168.12 136.099 168.12C135.859 168.12 135.659 168.032 135.499 167.856C135.355 167.68 135.283 167.456 135.283 167.184C135.283 166.944 135.347 166.736 135.475 166.56C135.619 166.368 135.843 166.184 136.147 166.008C136.707 165.704 137.363 165.464 138.115 165.288C138.867 165.096 139.595 165 140.299 165ZM139.555 175.368C140.435 175.368 141.155 175.072 141.715 174.48C142.275 173.872 142.555 173.096 142.555 172.152V171.528H142.123C140.875 171.528 139.915 171.584 139.243 171.696C138.571 171.808 138.091 172 137.803 172.272C137.515 172.528 137.371 172.904 137.371 173.4C137.371 173.976 137.579 174.448 137.995 174.816C138.411 175.184 138.931 175.368 139.555 175.368ZM149.697 177.12C149.345 177.12 149.049 177.024 148.809 176.832C148.585 176.64 148.473 176.352 148.473 175.968V166.224C148.473 165.84 148.585 165.552 148.809 165.36C149.049 165.152 149.345 165.048 149.697 165.048C150.049 165.048 150.337 165.152 150.561 165.36C150.785 165.552 150.897 165.84 150.897 166.224V175.968C150.897 176.352 150.785 176.64 150.561 176.832C150.337 177.024 150.049 177.12 149.697 177.12ZM149.697 162.696C149.233 162.696 148.865 162.568 148.593 162.312C148.321 162.056 148.185 161.72 148.185 161.304C148.185 160.888 148.321 160.56 148.593 160.32C148.865 160.064 149.233 159.936 149.697 159.936C150.145 159.936 150.505 160.064 150.777 160.32C151.065 160.56 151.209 160.888 151.209 161.304C151.209 161.72 151.073 162.056 150.801 162.312C150.529 162.568 150.161 162.696 149.697 162.696ZM155.759 177.12C155.407 177.12 155.111 177.024 154.871 176.832C154.647 176.64 154.535 176.352 154.535 175.968V161.136C154.535 160.752 154.647 160.464 154.871 160.272C155.111 160.064 155.407 159.96 155.759 159.96C156.111 159.96 156.399 160.064 156.623 160.272C156.847 160.464 156.959 160.752 156.959 161.136V175.968C156.959 176.352 156.847 176.64 156.623 176.832C156.399 177.024 156.111 177.12 155.759 177.12Z" fill="#384248"/>
<rect x="77" y="32" width="100" height="100" rx="4" fill="#F5F6F8"/>
<path d="M151 84.6667V103.333C151 104.041 150.719 104.719 150.219 105.219C149.719 105.719 149.041 106 148.333 106H105.667C104.959 106 104.281 105.719 103.781 105.219C103.281 104.719 103 104.041 103 103.333V84.6667H100.333V79.3333L103 66H151L153.667 79.3333V84.6667H151ZM108.333 84.6667V100.667H145.667V84.6667H108.333ZM111 87.3333H132.333V95.3333H111V87.3333ZM103 58H151V63.3333H103V58Z" fill="#73CBF2"/>
</svg>
