<svg width="255" height="206" viewBox="0 0 255 206" fill="none" xmlns="http://www.w3.org/2000/svg">
<path d="M89.1269 177.12C88.7589 177.12 88.4549 177.008 88.2149 176.784C87.9909 176.544 87.8789 176.24 87.8789 175.872V162.144H83.0789C82.3109 162.144 81.9269 161.8 81.9269 161.112C81.9269 160.776 82.0229 160.52 82.2149 160.344C82.4229 160.168 82.7109 160.08 83.0789 160.08H95.1749C95.5429 160.08 95.8229 160.168 96.0149 160.344C96.2229 160.52 96.3269 160.776 96.3269 161.112C96.3269 161.8 95.9429 162.144 95.1749 162.144H90.3749V175.872C90.3749 176.24 90.2629 176.544 90.0389 176.784C89.8149 177.008 89.5109 177.12 89.1269 177.12ZM105.657 174.048C105.881 174.048 106.065 174.136 106.209 174.312C106.353 174.488 106.425 174.712 106.425 174.984C106.425 175.448 106.137 175.84 105.561 176.16C105.001 176.48 104.385 176.728 103.713 176.904C103.057 177.08 102.425 177.168 101.817 177.168C99.9606 177.168 98.4966 176.632 97.4246 175.56C96.3526 174.472 95.8166 172.992 95.8166 171.12C95.8166 169.92 96.0486 168.856 96.5126 167.928C96.9926 167 97.6566 166.28 98.5046 165.768C99.3686 165.256 100.345 165 101.433 165C103.001 165 104.241 165.504 105.153 166.512C106.065 167.52 106.521 168.88 106.521 170.592C106.521 171.232 106.233 171.552 105.657 171.552H98.2406C98.4006 174.032 99.5926 175.272 101.817 175.272C102.409 175.272 102.921 175.192 103.353 175.032C103.785 174.872 104.241 174.664 104.721 174.408C104.769 174.376 104.897 174.312 105.105 174.216C105.329 174.104 105.513 174.048 105.657 174.048ZM101.481 166.776C100.553 166.776 99.8086 167.072 99.2486 167.664C98.6886 168.256 98.3526 169.088 98.2406 170.16H104.433C104.385 169.072 104.105 168.24 103.593 167.664C103.097 167.072 102.393 166.776 101.481 166.776ZM110.666 177.12C110.314 177.12 110.018 177.024 109.778 176.832C109.554 176.64 109.442 176.352 109.442 175.968V161.136C109.442 160.752 109.554 160.464 109.778 160.272C110.018 160.064 110.314 159.96 110.666 159.96C111.018 159.96 111.306 160.064 111.53 160.272C111.754 160.464 111.866 160.752 111.866 161.136V175.968C111.866 176.352 111.754 176.64 111.53 176.832C111.306 177.024 111.018 177.12 110.666 177.12ZM124.672 174.048C124.896 174.048 125.08 174.136 125.224 174.312C125.368 174.488 125.44 174.712 125.44 174.984C125.44 175.448 125.152 175.84 124.576 176.16C124.016 176.48 123.4 176.728 122.728 176.904C122.072 177.08 121.44 177.168 120.832 177.168C118.976 177.168 117.512 176.632 116.44 175.56C115.368 174.472 114.832 172.992 114.832 171.12C114.832 169.92 115.064 168.856 115.528 167.928C116.008 167 116.672 166.28 117.52 165.768C118.384 165.256 119.36 165 120.448 165C122.016 165 123.256 165.504 124.168 166.512C125.08 167.52 125.536 168.88 125.536 170.592C125.536 171.232 125.248 171.552 124.672 171.552H117.256C117.416 174.032 118.608 175.272 120.832 175.272C121.424 175.272 121.936 175.192 122.368 175.032C122.8 174.872 123.256 174.664 123.736 174.408C123.784 174.376 123.912 174.312 124.12 174.216C124.344 174.104 124.528 174.048 124.672 174.048ZM120.496 166.776C119.568 166.776 118.824 167.072 118.264 167.664C117.704 168.256 117.368 169.088 117.256 170.16H123.448C123.4 169.072 123.12 168.24 122.608 167.664C122.112 167.072 121.408 166.776 120.496 166.776ZM133.473 177.168C132.337 177.168 131.337 176.92 130.473 176.424C129.625 175.928 128.961 175.224 128.481 174.312C128.017 173.4 127.785 172.344 127.785 171.144C127.785 169.928 128.025 168.856 128.505 167.928C129.001 167 129.689 166.28 130.569 165.768C131.449 165.256 132.457 165 133.593 165C134.201 165 134.809 165.088 135.417 165.264C136.041 165.44 136.593 165.68 137.073 165.984C137.585 166.336 137.841 166.744 137.841 167.208C137.841 167.48 137.769 167.712 137.625 167.904C137.481 168.08 137.297 168.168 137.073 168.168C136.929 168.168 136.785 168.136 136.641 168.072C136.497 167.992 136.313 167.88 136.089 167.736C135.689 167.48 135.313 167.288 134.961 167.16C134.625 167.016 134.217 166.944 133.737 166.944C132.649 166.944 131.801 167.312 131.193 168.048C130.601 168.784 130.305 169.808 130.305 171.12C130.305 172.432 130.601 173.448 131.193 174.168C131.785 174.872 132.625 175.224 133.713 175.224C134.193 175.224 134.617 175.152 134.985 175.008C135.353 174.864 135.729 174.672 136.113 174.432C136.289 174.32 136.465 174.224 136.641 174.144C136.817 174.064 136.977 174.024 137.121 174.024C137.345 174.024 137.529 174.12 137.673 174.312C137.817 174.488 137.889 174.712 137.889 174.984C137.889 175.208 137.825 175.416 137.697 175.608C137.585 175.784 137.385 175.968 137.097 176.16C136.617 176.48 136.057 176.728 135.417 176.904C134.777 177.08 134.129 177.168 133.473 177.168ZM145.397 177.168C144.245 177.168 143.229 176.92 142.349 176.424C141.485 175.928 140.813 175.224 140.333 174.312C139.869 173.384 139.637 172.312 139.637 171.096C139.637 169.864 139.869 168.792 140.333 167.88C140.813 166.952 141.485 166.24 142.349 165.744C143.229 165.248 144.245 165 145.397 165C146.549 165 147.557 165.248 148.421 165.744C149.301 166.24 149.973 166.952 150.437 167.88C150.917 168.792 151.157 169.864 151.157 171.096C151.157 172.312 150.917 173.384 150.437 174.312C149.973 175.224 149.301 175.928 148.421 176.424C147.557 176.92 146.549 177.168 145.397 177.168ZM145.397 175.248C146.469 175.248 147.285 174.896 147.845 174.192C148.421 173.488 148.709 172.456 148.709 171.096C148.709 169.752 148.421 168.728 147.845 168.024C147.269 167.304 146.453 166.944 145.397 166.944C144.341 166.944 143.525 167.304 142.949 168.024C142.373 168.728 142.085 169.752 142.085 171.096C142.085 172.456 142.365 173.488 142.925 174.192C143.501 174.896 144.325 175.248 145.397 175.248ZM167.546 165C170.17 165 171.482 166.576 171.482 169.728V175.968C171.482 176.336 171.37 176.624 171.146 176.832C170.922 177.024 170.626 177.12 170.258 177.12C169.906 177.12 169.618 177.024 169.394 176.832C169.17 176.624 169.058 176.336 169.058 175.968V169.752C169.058 168.776 168.882 168.072 168.53 167.64C168.178 167.192 167.626 166.968 166.874 166.968C165.994 166.968 165.298 167.272 164.786 167.88C164.274 168.472 164.018 169.288 164.018 170.328V175.968C164.018 176.336 163.906 176.624 163.682 176.832C163.458 177.024 163.162 177.12 162.794 177.12C162.442 177.12 162.154 177.024 161.93 176.832C161.706 176.624 161.594 176.336 161.594 175.968V169.752C161.594 168.776 161.418 168.072 161.066 167.64C160.714 167.192 160.162 166.968 159.41 166.968C158.53 166.968 157.826 167.272 157.298 167.88C156.786 168.472 156.53 169.288 156.53 170.328V175.968C156.53 176.336 156.418 176.624 156.194 176.832C155.97 177.024 155.682 177.12 155.33 177.12C154.978 177.12 154.682 177.024 154.442 176.832C154.218 176.624 154.106 176.336 154.106 175.968V166.2C154.106 165.848 154.226 165.568 154.466 165.36C154.706 165.152 154.994 165.048 155.33 165.048C155.666 165.048 155.938 165.152 156.146 165.36C156.37 165.552 156.482 165.824 156.482 166.176V167.064C156.834 166.392 157.322 165.88 157.946 165.528C158.57 165.176 159.29 165 160.106 165C161.002 165 161.738 165.184 162.314 165.552C162.906 165.92 163.346 166.488 163.634 167.256C163.986 166.568 164.506 166.024 165.194 165.624C165.882 165.208 166.666 165 167.546 165Z" fill="#384248"/>
<rect x="77" y="32" width="100" height="100" rx="4" fill="#F5F6F8"/>
<path d="M151.889 96.0263V106.275C151.889 107.006 151.611 107.718 151.107 108.249C150.603 108.788 149.925 109.109 149.186 109.161C147.916 109.248 146.882 109.292 146.082 109.292C120.481 109.301 99.7311 88.5416 99.7311 62.9407C99.7311 62.1409 99.7745 61.1065 99.8615 59.8373C99.9136 59.1071 100.244 58.4203 100.774 57.9248C101.313 57.4206 102.017 57.1425 102.756 57.1425H113.005C113.362 57.1425 113.709 57.2729 113.979 57.5163C114.248 57.7597 114.414 58.09 114.448 58.4464C114.518 59.1158 114.579 59.646 114.631 60.0459C115.205 64.0621 116.387 67.974 118.134 71.6424C118.412 72.2248 118.23 72.9116 117.708 73.2854L112.214 77.2146C111.771 77.5276 111.606 78.1187 111.832 78.6055C115.605 86.8291 122.203 93.4358 130.435 97.2086C130.93 97.4346 131.513 97.2694 131.826 96.8261L135.746 91.3408C135.929 91.0887 136.198 90.9061 136.503 90.8279C136.807 90.7496 137.128 90.7757 137.407 90.9148C141.075 92.6534 144.978 93.8357 148.994 94.4094C149.394 94.4703 149.925 94.5311 150.585 94.592C150.942 94.6267 151.272 94.8006 151.515 95.0614C151.759 95.3222 151.889 95.6699 151.889 96.0263Z" fill="white"/>
<path fill-rule="evenodd" clip-rule="evenodd" d="M114.727 82.9005C113.997 81.7878 113.31 80.6403 112.719 79.4494L112.276 78.554C112.189 78.3801 112.171 78.328 112.154 78.215C112.145 78.1107 112.154 78.0063 112.189 77.9107C112.276 77.6934 112.371 77.6152 112.702 77.3891L113.528 76.8067L116.84 74.5031L117.674 73.9293C117.831 73.825 117.917 73.7728 118.117 73.6164C118.3 73.4686 118.456 73.286 118.569 73.0774C118.795 72.6601 118.865 72.1559 118.735 71.6952C118.709 71.5822 118.656 71.4605 118.613 71.3736L118.517 71.1476L118.317 70.6955C117.292 68.2615 116.509 65.7492 115.979 63.1934C115.718 61.9156 115.501 60.6377 115.37 59.3511L115.275 58.3949C115.24 57.9168 115.023 57.3778 114.658 57.004C114.301 56.6215 113.806 56.3694 113.293 56.2999C113.18 56.2825 113.006 56.2738 112.936 56.2825H112.693H112.206C110.085 56.2825 107.964 56.2825 105.852 56.2825L102.679 56.2738C101.305 56.2825 99.9838 57.1257 99.384 58.3601C99.2362 58.6644 99.1232 58.9947 99.0623 59.3251C99.0276 59.4902 99.0015 59.6815 99.0015 59.8206L98.9841 60.2291L98.9146 61.8286C98.8276 62.8979 98.9319 63.9584 98.9754 65.019C99.0536 66.0795 99.045 67.1488 99.184 68.2006C99.3492 69.2525 99.5057 70.2956 99.6708 71.3388C99.7926 72.3907 100.097 73.4077 100.358 74.4335C100.644 75.4506 100.836 76.4851 101.201 77.4761C101.94 79.4494 102.583 81.4488 103.583 83.2917L104.269 84.7L104.608 85.4041L105.017 86.0735L106.643 88.7335C106.895 89.1856 107.208 89.6028 107.529 90.0114L108.459 91.2545C109.094 92.0716 109.668 92.9323 110.398 93.6712L112.484 95.9487C113.188 96.6963 113.988 97.3396 114.736 98.0437C116.196 99.4868 117.926 100.599 119.534 101.843C120.378 102.408 121.264 102.912 122.125 103.442L123.429 104.233C123.864 104.494 124.333 104.685 124.785 104.911C125.698 105.346 126.602 105.789 127.515 106.224C128.445 106.615 129.401 106.928 130.34 107.284C132.2 108.067 134.182 108.432 136.103 108.962C137.068 109.214 138.068 109.293 139.042 109.475L140.511 109.701L141.25 109.814L141.988 109.858C143.97 109.936 145.935 110.171 147.908 110.014C148.421 109.988 148.856 109.988 149.421 109.944C150.038 109.875 150.629 109.649 151.134 109.293C151.638 108.936 152.055 108.449 152.324 107.893C152.603 107.354 152.724 106.667 152.716 106.137C152.75 104.051 152.707 100.713 152.577 98.5479C152.446 96.3051 152.29 96.1052 152.116 96.792C151.942 97.47 151.699 99.0782 151.62 100.2C151.507 101.956 151.394 103.781 151.316 105.65C151.438 107.432 150.273 108.562 148.639 108.432L145.961 108.467L143.292 108.284C141.51 108.249 139.763 107.876 138.024 107.615C137.59 107.537 137.146 107.502 136.729 107.389L135.46 107.058C134.617 106.841 133.774 106.632 132.93 106.415C132.096 106.189 131.305 105.85 130.496 105.581C129.697 105.285 128.879 105.042 128.114 104.703C127.349 104.346 126.593 103.998 125.846 103.651C125.098 103.294 124.333 102.99 123.655 102.555C122.959 102.147 122.264 101.747 121.577 101.347C121.238 101.147 120.891 100.956 120.56 100.756C120.239 100.53 119.926 100.304 119.613 100.078C110.224 93.7494 103.418 83.622 101.157 72.5211C100.879 71.1389 100.723 69.7306 100.497 68.331C100.366 67.6356 100.366 66.9227 100.332 66.2186L100.245 64.141L100.201 63.0804C100.192 62.7327 100.227 62.3763 100.236 62.0286L100.34 59.9162C100.392 58.6992 101.462 57.6821 102.644 57.6647C105.478 57.6908 108.312 57.7082 111.137 57.7342L112.197 57.7429H112.728H112.989L113.145 57.7603C113.345 57.8038 113.528 57.9168 113.649 58.082C113.71 58.1602 113.754 58.2558 113.78 58.3514L113.806 58.4992L113.832 58.7687C113.962 60.203 114.179 61.6287 114.475 63.037C115.066 65.8535 115.953 68.6005 117.118 71.2258L117.344 71.7126L117.457 71.9473L117.492 72.0603C117.526 72.2168 117.5 72.382 117.413 72.5124C117.37 72.5819 117.326 72.6254 117.239 72.6862L116.805 72.9905L115.944 73.599L112.502 76.0417L112.067 76.346L111.85 76.5025L111.745 76.5807L111.58 76.7198C111.137 77.111 110.902 77.7021 110.954 78.3019C110.963 78.4497 110.998 78.5975 111.041 78.7366L111.12 78.9365L111.18 79.0582L111.415 79.545L111.885 80.5099C112.563 81.7704 113.258 83.0222 114.066 84.2045C115.649 86.595 117.509 88.7857 119.595 90.7329C121.664 92.6889 123.968 94.3927 126.419 95.8183C127.645 96.5399 128.905 97.1571 130.209 97.7482C130.696 97.9568 131.27 97.9047 131.713 97.6439C131.931 97.5135 132.131 97.3222 132.261 97.131L132.557 96.6963L133.73 94.9751L136.06 91.5414C136.208 91.3414 136.434 91.1936 136.686 91.1502C136.816 91.1241 136.946 91.1328 137.068 91.1589L137.259 91.2197L137.503 91.324C138.146 91.6022 138.789 91.8543 139.441 92.0977C142.058 93.0626 144.762 93.732 147.491 94.0971C147.874 94.1406 148.56 94.2449 149.325 94.2884C149.708 94.3058 150.099 94.3318 150.482 94.3579C150.89 94.3492 151.351 94.5144 151.646 94.7752C152.272 95.2968 152.307 96.0009 152.385 96.0444C152.42 96.0791 152.472 95.9661 152.464 95.6445C152.437 95.3402 152.324 94.7665 151.699 94.2536C151.542 94.1319 151.351 94.0189 151.151 93.9406C151.047 93.8972 150.942 93.8711 150.829 93.845L150.551 93.7929C150.264 93.7494 149.96 93.6972 149.647 93.6451C149.021 93.5582 148.352 93.4278 147.665 93.2974C146.291 93.0192 144.84 92.6802 143.484 92.289C142.119 91.8978 140.85 91.4544 139.824 91.0633C139.311 90.8633 138.85 90.6808 138.476 90.5156C138.285 90.4374 138.12 90.3591 137.972 90.2983L137.764 90.2026C137.685 90.1679 137.572 90.1244 137.485 90.0983C136.999 89.9419 136.46 89.9766 135.99 90.1766C135.756 90.2809 135.547 90.42 135.364 90.5938C135.277 90.6808 135.191 90.7764 135.112 90.8807L134.973 91.0806L133.869 92.6628C133.13 93.7146 132.391 94.7752 131.644 95.8444L131.366 96.2443L131.235 96.4355L131.174 96.5051C131.087 96.592 130.948 96.6268 130.835 96.6181C130.801 96.6442 130.409 96.4268 130.14 96.3051L129.271 95.8879C128.132 95.2968 126.993 94.6622 125.906 93.9493C121.534 91.1241 117.709 87.334 114.727 82.9005ZM116.744 86.1517C116.718 85.9257 117.831 86.9167 117.891 87.1949C117.926 87.4296 116.779 86.4473 116.744 86.1517Z" fill="black"/>
</svg>
